<?xml version="1.0" encoding="utf-8"?>
<!-- Generator: Adobe Illustrator 23.0.3, SVG Export Plug-In . SVG Version: 6.00 Build 0)  -->
<svg version="1.1" id="Calque_1" xmlns="http://www.w3.org/2000/svg" xmlns:xlink="http://www.w3.org/1999/xlink" x="0px" y="0px"
	 viewBox="0 0 372 295.2" style="enable-background:new 0 0 372 295.2;" xml:space="preserve">
<g>
	<path d="M94,100c27.6,0,50-22.4,50-50S121.6,0,94,0S44,22.4,44,50S66.4,100,94,100L94,100z M94,12c21,0,38,17,38,38s-17,38-38,38
		S56,71,56,50S73,12,94,12L94,12z M94,12"/>
	<path d="M226,100c27.6,0,50-22.4,50-50S253.6,0,226,0s-50,22.4-50,50S198.4,100,226,100L226,100z M226,12c21,0,38,17,38,38
		s-17,38-38,38s-38-17-38-38S205,12,226,12L226,12z M226,12"/>
	<path d="M290.9,167.1c1.2,1.5,3,2.3,4.8,2.3c1.3,0,2.6-0.4,3.7-1.3c2.6-2,3.1-5.8,1.1-8.4c-18-23.2-45.1-36.6-74.4-36.6
		c-18.8,0-37,5.6-52.6,16.1c-2.7,1.9-3.5,5.6-1.6,8.3c1.9,2.8,5.6,3.5,8.3,1.6c13.6-9.2,29.4-14,45.8-14
		C251.6,135.2,275.3,146.8,290.9,167.1L290.9,167.1z M290.9,167.1"/>
	<path d="M94,123.2c-51.8,0-94,42.2-94,94c0,3.3,2.7,6,6,6s6-2.7,6-6c0-45.2,36.8-82,82-82s82,36.8,82,82c0,3.3,2.7,6,6,6
		c3.3,0,6-2.7,6-6C188,165.4,145.8,123.2,94,123.2L94,123.2z M94,123.2"/>
	<path d="M314,179.2c-32,0-58,26-58,58c0,32,26,58,58,58c32,0,58-26,58-58C372,205.2,346,179.2,314,179.2L314,179.2z M314,283.2
		c-25.4,0-46-20.6-46-46c0-25.4,20.6-46,46-46s46,20.6,46,46C360,262.6,339.4,283.2,314,283.2L314,283.2z M314,283.2"/>
	<path d="M334,231.2h-14v-14c0-3.3-2.7-6-6-6s-6,2.7-6,6v14h-14c-3.3,0-6,2.7-6,6c0,3.3,2.7,6,6,6h14v14c0,3.3,2.7,6,6,6s6-2.7,6-6
		v-14h14c3.3,0,6-2.7,6-6C340,233.9,337.3,231.2,334,231.2L334,231.2z M334,231.2"/>
</g>
</svg>
