<?xml version="1.0" encoding="utf-8"?>
<!-- Generator: Adobe Illustrator 24.0.1, SVG Export Plug-In . SVG Version: 6.00 Build 0)  -->
<svg version="1.1" id="Слой_1" xmlns="http://www.w3.org/2000/svg" xmlns:xlink="http://www.w3.org/1999/xlink" x="0px" y="0px"
	 viewBox="0 0 192.5 192.5" style="enable-background:new 0 0 192.5 192.5;" xml:space="preserve">
<path style="fill:#5FB6DF;" d="M102.5,0c4.9,0,8.8,4,8.8,8.9L155,21.4c1.4-2.6,4-4.2,7-4.2c4.4,0,7.9,3.6,7.9,8c0,2.3-1,4.5-2.8,6.1
	l16.2,35.2c4.9-0.5,9.2,3.4,9.2,8.3c0,4.1-3,7.6-7,8.3l-9.5,39.3c0.6,0.3,1.1,0.8,1.6,1.2c1.4,1.4,2.2,3.3,2.2,5.4
	c0,4.2-3.4,7.7-7.6,7.7c-0.6,0-1.1-0.1-1.7-0.2l-8.2,17.3c1.2,1.4,2,3.2,2,5.2c0,4.2-3.4,7.7-7.6,7.7c-4.2,0-7.6-3.4-7.6-7.7
	c0-1.5,0.4-2.9,1.2-4.1l-26.3-34c-0.9,0.4-2,0.7-3.1,0.7c-3.8,0-7.1-2.9-7.5-6.7l-21.7-1.8c-1,3.2-3.9,5.4-7.3,5.4
	c-4.2,0-7.6-3.4-7.6-7.7c0-0.6,0.1-1.2,0.2-1.8L40.5,81.4c-1.6,1.4-3.6,2.2-5.8,2.2c-4.9,0-8.8-4-8.8-8.9c0-5.3,4.5-9.4,9.7-8.9
	l10.9-31c-2.3-1.6-3.6-4.1-3.6-6.9c0-4.6,3.7-8.4,8.3-8.4c2.8,0,5.5,1.5,7,3.9l35.6-14C93.4,4.3,97.5,0,102.5,0z M148.9,61.1
	l-11.3,10.5c0.6,0.9,1.1,1.9,1.3,3l37.1-0.5c0.3-2.8,1.8-5.2,4.2-6.6l-15.9-34.6c-0.7,0.2-1.5,0.3-2.2,0.3c-2.2,0-4.2-0.9-5.6-2.3
	c-0.4-0.4-0.8-0.9-1.1-1.4l-19.9,7.1c0.5,2.6-0.3,5.3-2.2,7.2c-0.7,0.7-1.5,1.3-2.4,1.7l1,22.9c1.8,0.2,3.3,0.9,4.6,2.1L147.6,60
	c-0.9-1.1-1.4-2.5-1.4-4c0-3.4,2.7-6.2,6.1-6.2c3.4,0,6.1,2.8,6.1,6.2c0,3.4-2.7,6.2-6.1,6.2C151,62.2,149.8,61.8,148.9,61.1z
	 M152.3,53.1c-1.6,0-2.8,1.3-2.8,2.8c0,1.6,1.2,2.8,2.8,2.8c1.6,0,2.8-1.3,2.8-2.8C155.1,54.4,153.9,53.1,152.3,53.1z M109.6,83.5
	l14.3-3.9c-0.5-1-0.7-2.1-0.7-3.2l-32.5-7c-0.4,0.7-0.8,1.3-1.3,1.8c-1,1-2.3,1.8-3.8,2.1l0.6,30.1c3.1,0.7,5.4,3.2,5.9,6.4
	l21.7,1.8c1-2.9,3.6-5,6.7-5.2l7-23c-1-0.5-1.9-1.3-2.6-2.2L110.4,85c0.2,0.6,0.3,1.3,0.3,2c0,3.4-2.7,6.2-6.1,6.2
	c-3.4,0-6.1-2.8-6.1-6.2c0-3.4,2.7-6.2,6.1-6.2C106.6,80.8,108.5,81.8,109.6,83.5z M104.5,84.1c-1.6,0-2.8,1.3-2.8,2.8
	c0,1.6,1.2,2.8,2.8,2.8c1.6,0,2.8-1.3,2.8-2.8C107.3,85.4,106.1,84.1,104.5,84.1z M84.4,35.5l-25.6-4.4c-0.3,0.6-0.6,1.2-1,1.8
	l21.7,25.8c1.2-0.8,2.7-1.3,4.3-1.3c2.2,0,4.1,0.9,5.6,2.3l30.8-19.2c-0.3-0.8-0.4-1.7-0.4-2.6c0-1.8,0.6-3.5,1.6-4.9l-14.2-16.6
	c-1.3,0.8-2.9,1.3-4.6,1.3c-0.9,0-1.8-0.1-2.6-0.4l-6.6,13.6c2,1.1,3.2,3.2,3.2,5.4c0,3.4-2.7,6.2-6.1,6.2
	C86.7,42.7,83.8,39.3,84.4,35.5z M59.3,29.6l25.6,4.4c1.2-2.7,4.1-4.1,7-3.5l6.6-13.7c-1.7-0.9-3.1-2.4-3.9-4.1L59.3,26.5
	c0.1,0.5,0.1,0.9,0.1,1.4C59.4,28.5,59.4,29,59.3,29.6z M88.5,34.5c-1.8,1.8-0.5,4.8,2,4.8c1.6,0,2.8-1.3,2.8-2.8
	C93.2,34,90.2,32.7,88.5,34.5z M182.1,82.9c-0.8-0.2-1.6-0.6-2.3-1l-15.8,17c1.1,1.5,1.8,3.4,1.8,5.5c0,2.1-0.7,4.1-1.9,5.6
	l6.6,11.6c0.7-0.2,1.5-0.2,2.3-0.2L182.1,82.9z M130.7,84.2l-6.9,22.6c1.7,0.7,3.1,1.9,3.9,3.5l19.9-5.3c-0.1-2.1,0.5-4.2,1.7-6
	l-14.5-15.8C133.6,83.9,132.1,84.3,130.7,84.2z M135.7,76.2c0-2.6-2-4.6-4.6-4.6s-4.6,2.1-4.6,4.6c0,2.6,2,4.6,4.6,4.6
	C133.6,80.8,135.7,78.8,135.7,76.2z M137.4,81.1l14.3,15.6c1.4-0.9,3.1-1.5,5-1.5c1.8,0,3.5,0.5,4.9,1.4l15.8-17
	c-0.5-0.7-0.9-1.5-1.1-2.3l-37.4,0.5C138.6,79,138.1,80.1,137.4,81.1z M156.7,110.2c1.6,0,3-0.7,4.1-1.7c1-1.1,1.7-2.5,1.7-4.1
	c0-3.2-2.6-5.8-5.8-5.8c-3.6,0-5.9,3-5.8,6.1C151,107.7,153.6,110.2,156.7,110.2z M184.2,79.8c2.8,0,5-2.3,5-5s-2.2-5-5-5
	c-2.8,0-5,2.3-5,5C179.2,77.5,181.4,79.8,184.2,79.8z M127.5,46c-2.1,0-4.2-0.9-5.6-2.5L91.1,62.7c0.3,0.9,0.5,1.9,0.5,2.9
	c0,0.2,0,0.4,0,0.6l32.2,6.9c0.9-2.1,2.6-3.7,4.7-4.4L127.5,46z M154.1,26.3c-0.1-0.6-0.1-1.1-0.1-1.7l-43.3-12.4
	c-0.3,0.8-0.7,1.5-1.2,2.1L123.9,31c1.1-0.6,2.4-1,3.8-1c2.6,0,5,1.3,6.5,3.4L154.1,26.3z M123,38.1c0,2.6,2,4.6,4.6,4.6
	c6,0,6.1-9.3,0-9.3C125.1,33.4,123,35.5,123,38.1z M55.3,35.2c-1.7,1-3.8,1.3-5.8,1L38.7,66.8c1.9,1,3.4,2.7,4.2,4.7l32.9-6v0
	c0-1.6,0.5-3.1,1.3-4.4L55.3,35.2z M79.1,65.5c0,6.1,9.2,6.1,9.2,0c0-2.6-2-4.6-4.6-4.6C81.2,60.9,79.1,63,79.1,65.5z M56.1,27.9
	c0-2.8-2.2-5-5-5c-2.8,0-5,2.3-5,5s2.2,5,5,5C53.9,33,56.1,30.7,56.1,27.9z M43.5,74.8c0,1.4-0.4,2.8-1,4L78.7,106
	c1.1-1.3,2.5-2.2,4.2-2.6l-0.6-30c-2.5-0.5-4.7-2.2-5.7-4.6L43.5,74.8z M128.6,113.5c0,0.1,0,0.3,0,0.4c0,1.9-0.7,3.6-1.8,5l26,33.7
	c0.7-0.4,1.4-0.8,2.2-1l0.1-38.2c-2.9-0.5-5.4-2.5-6.6-5.2L128.6,113.5z M158.2,151.5c0.5,0.1,1,0.2,1.4,0.4l7.9-16.8
	c-1.8-1.5-2.9-3.7-2.9-6c0-2.3,1.1-4.5,2.9-6l-6.2-10.8c-0.9,0.6-1.9,1-3,1.2L158.2,151.5z M156.8,154.7c-2.4,0-4.3,1.9-4.3,4.3
	c0,2.4,1.9,4.3,4.3,4.3c2.4,0,4.3-1.9,4.3-4.3C161.1,156.6,159.2,154.7,156.8,154.7z M125.3,113.9c0-2.4-1.9-4.3-4.3-4.3
	c-2.4,0-4.3,1.9-4.3,4.3s1.9,4.3,4.3,4.3C123.4,118.2,125.3,116.3,125.3,113.9z M40.2,74.7c0-3.1-2.5-5.6-5.5-5.6
	c-3.1,0-5.5,2.5-5.5,5.6c0,3.1,2.5,5.6,5.5,5.6C37.8,80.3,40.2,77.8,40.2,74.7z M175.3,126c-1.6-1.7-4.4-1.7-6,0
	c-0.8,0.8-1.2,1.9-1.2,3c0,2.4,1.9,4.3,4.3,4.3c2.4,0,4.3-1.9,4.3-4.3C176.5,127.8,176,126.8,175.3,126z M84.5,106.5
	c-2.4,0-4.3,1.9-4.3,4.3c0,2.4,1.9,4.3,4.3,4.3s4.3-1.9,4.3-4.3C88.8,108.5,86.9,106.5,84.5,106.5z M162,20.5
	c-2.6,0-4.6,2.1-4.6,4.6c0,2.6,2,4.6,4.6,4.6c2.5,0,4.6-2.1,4.6-4.6C166.5,22.6,164.5,20.5,162,20.5z M102.5,3.3
	c-3.1,0-5.5,2.5-5.5,5.6c0,3.1,2.5,5.6,5.5,5.6c3.1,0,5.5-2.5,5.5-5.6C108.1,5.8,105.6,3.3,102.5,3.3z"/>
<g>
	<circle style="fill:#C75695;" cx="56.8" cy="135.7" r="56.8"/>
</g>
<path style="fill:#FFFFFF;" d="M28.5,125.9h3.1L42,142.2v-16.3h2.8v20.7h-3.2L31.3,130v16.5h-2.8V125.9z M58.6,125.7
	c2.5,0,4.5,0.6,6.1,1.8c1,0.8,1.8,1.9,2.5,3.3c0.8,1.8,1.2,3.7,1.2,5.6c0,2.7-0.7,5-2,6.8c-1,1.4-2.4,2.4-4,3
	c-1.3,0.5-2.6,0.8-4,0.8c-2.3,0-4.2-0.6-5.8-1.8c-1.1-0.8-2-2-2.6-3.3c-0.8-1.8-1.2-3.8-1.2-5.9c0-1.2,0.2-2.5,0.5-3.7
	c0.4-1.2,0.8-2.2,1.4-3C52.6,127,55.2,125.8,58.6,125.7z M58.6,128.2c-1.9,0-3.4,0.6-4.6,1.7c-0.9,0.8-1.5,1.8-1.8,2.8
	c-0.3,1.1-0.4,2.2-0.4,3.4c0,2.2,0.3,3.9,0.9,5c0.5,1,1.3,1.8,2.4,2.4c1,0.6,2.2,0.9,3.5,0.9c2,0,3.6-0.6,4.8-1.9
	c1.4-1.4,2-3.5,2-6.2c0-2.9-0.7-5-2.1-6.4C62.2,128.8,60.6,128.2,58.6,128.2z M71,125.9h3.3l5.1,7.9l5.3-7.9h3.5L81,136.1l7.5,10.5
	h-3.4l-5.6-8.4l-5.7,8.4h-3.4l7.6-10.5L71,125.9z"/>
</svg>
