<?xml version="1.0" encoding="utf-8"?>
<!-- Generator: Adobe Illustrator 24.0.1, SVG Export Plug-In . SVG Version: 6.00 Build 0)  -->
<svg version="1.1" id="Слой_1" xmlns="http://www.w3.org/2000/svg" xmlns:xlink="http://www.w3.org/1999/xlink" x="0px" y="0px"
	 viewBox="0 0 114 40" style="enable-background:new 0 0 114 40;" xml:space="preserve">
<path style="fill:#5683FF;" d="M114,20c0-0.7-0.3-1.5-0.8-2.1l-16-17c-1.1-1-3.2-1.4-4.4-0.2c-1.2,1.1-1.2,3.3,0,4.4L104.1,17H49
	c-1.7,0-3,1.3-3,3c0,1.7,1.3,3,3,3h55.1L92.8,34.9c-1,1-1.2,3.3,0,4.4c1.2,1.1,3.3,0.8,4.4-0.3l16-17C113.7,21.5,114,20.8,114,20z"
	/>
<path style="fill:#5683FF;" d="M0,20c0-0.7,0.3-1.5,0.8-2.1l16-17c1.1-1,3.2-1.4,4.4-0.2c1.2,1.1,1.2,3.3,0,4.4L9.9,17H65
	c1.7,0,3,1.3,3,3c0,1.7-1.3,3-3,3H9.9l11.2,11.9c1,1,1.2,3.3,0,4.4c-1.2,1.1-3.3,0.8-4.4-0.3l-16-17C0.3,21.5,0,20.8,0,20z"/>
</svg>
