<svg width="228" height="183" viewBox="0 0 228 183" fill="none" xmlns="http://www.w3.org/2000/svg">
<path d="M1.88672 7.00391H8.94141C9.72266 7.00391 10.3477 7.0625 10.8164 7.17969C11.2852 7.28906 11.7305 7.48828 12.1523 7.77734C13.2617 8.54297 13.8164 9.625 13.8164 11.0234C13.8164 12.5391 13.1484 13.6602 11.8125 14.3867C12.5156 14.6836 13.0508 15.0312 13.418 15.4297C14.1133 16.1797 14.4609 17.1328 14.4609 18.2891C14.4609 19.4062 14.1094 20.3789 13.4062 21.207C12.4062 22.4023 10.9297 23 8.97656 23H1.88672V7.00391ZM4.04297 15.6406V20.9727H9.55078C10.0039 20.9727 10.3594 20.9375 10.6172 20.8672C10.8828 20.7969 11.1328 20.668 11.3672 20.4805C11.9922 19.9883 12.3047 19.2578 12.3047 18.2891C12.3047 17.4219 12.0703 16.75 11.6016 16.2734C11.1953 15.8516 10.5117 15.6406 9.55078 15.6406H4.04297ZM4.04297 9.03125V13.8594H9.23438C10.0312 13.8594 10.6094 13.6523 10.9688 13.2383C11.4297 12.7148 11.6602 12.0742 11.6602 11.3164C11.6602 10.6367 11.4531 10.0703 11.0391 9.61719C10.6875 9.22656 10.082 9.03125 9.22266 9.03125H4.04297ZM31.0781 17.2812C31.0781 18.3359 30.832 19.2734 30.3398 20.0938C29.707 21.1641 28.8711 21.9844 27.832 22.5547C26.793 23.125 25.6172 23.4102 24.3047 23.4102C22.4219 23.4102 20.8633 22.8672 19.6289 21.7812C18.8633 21.1094 18.2695 20.293 17.8477 19.332C17.2773 18.0195 16.9922 16.6133 16.9922 15.1133C16.9922 13.3242 17.3633 11.7344 18.1055 10.3438C18.8242 8.97656 19.8906 7.98828 21.3047 7.37891C22.2891 6.95703 23.3281 6.74609 24.4219 6.74609C25.5156 6.74609 26.5273 6.94141 27.457 7.33203C28.3867 7.72266 29.1289 8.26562 29.6836 8.96094C30.4336 9.89062 30.8203 10.9297 30.8438 12.0781H28.6289C28.6211 11.2266 28.3633 10.5117 27.8555 9.93359C27.543 9.58203 27.0703 9.28906 26.4375 9.05469C25.8125 8.82031 25.1758 8.70312 24.5273 8.70312C23.8945 8.70312 23.2695 8.81641 22.6523 9.04297C22.0352 9.26953 21.5 9.58203 21.0469 9.98047C19.8672 11.0195 19.2773 12.7031 19.2773 15.0312C19.2773 17.2578 19.8438 18.9219 20.9766 20.0234C21.4062 20.4297 21.918 20.7539 22.5117 20.9961C23.1055 21.2305 23.7109 21.3477 24.3281 21.3477C25.1172 21.3477 25.8711 21.1836 26.5898 20.8555C27.3164 20.5273 27.8555 20.1055 28.207 19.5898C28.6602 18.9336 28.8906 18.1641 28.8984 17.2812H31.0781Z" fill="#08132F"/>
<path d="M81.3364 48.6694H86.3252C87.3545 48.6694 88.1569 48.9627 88.7324 49.5493C89.3743 50.2023 89.6953 51.0213 89.6953 52.0063C89.6953 53.0799 89.2969 53.9515 88.5 54.6211C87.8802 55.1468 87.1636 55.4097 86.3501 55.4097H82.8638V60H81.3364V48.6694ZM82.8638 50.1055V53.9736H86.2588C86.8232 53.9736 87.2604 53.8187 87.5703 53.5088C87.9466 53.1325 88.1348 52.6234 88.1348 51.9814C88.1348 51.4336 87.9743 50.9854 87.6533 50.6367C87.3324 50.2826 86.9173 50.1055 86.4082 50.1055H82.8638ZM91.4136 51.6328H92.7583V52.9775C93.0959 52.4795 93.4473 52.1309 93.8125 51.9316C94.1777 51.7324 94.6509 51.6328 95.2319 51.6328H95.9126V52.9775H95.2402C94.4157 52.9831 93.7931 53.2155 93.3726 53.6748C93.1844 53.874 93.035 54.1313 92.9243 54.4468C92.8136 54.7567 92.7583 55.0776 92.7583 55.4097V60H91.4136V51.6328ZM103.998 57.3936C103.903 58.1572 103.596 58.7715 103.076 59.2363C102.783 59.4964 102.393 59.7039 101.906 59.8589C101.419 60.0138 100.91 60.0913 100.378 60.0913C99.5207 60.0913 98.7957 59.8534 98.2036 59.3774C97.2463 58.6082 96.7676 57.424 96.7676 55.8247C96.7676 54.3804 97.1522 53.2681 97.9214 52.4878C98.5467 51.8569 99.3796 51.5415 100.42 51.5415C101.837 51.5415 102.877 52.1558 103.541 53.3843C103.851 53.9543 104.006 54.7484 104.006 55.7666C104.006 55.8441 104.003 55.9963 103.998 56.2231H98.1704C98.1704 56.6769 98.2451 57.0809 98.3945 57.4351C98.7819 58.3647 99.4847 58.8296 100.503 58.8296C101.095 58.8296 101.585 58.7023 101.972 58.4478C102.36 58.1877 102.584 57.8363 102.645 57.3936H103.998ZM98.1704 55.144H102.636C102.614 54.5076 102.451 53.9875 102.146 53.5835C101.748 53.0633 101.173 52.8032 100.42 52.8032C99.5788 52.8032 98.9618 53.1131 98.5688 53.7329C98.3918 54.0096 98.259 54.48 98.1704 55.144ZM104.72 55.0527H109.127V56.3145H104.72V55.0527ZM110.273 51.6328H111.618V52.7119C111.861 52.4131 112.085 52.1917 112.29 52.0479C112.766 51.7048 113.319 51.5332 113.95 51.5332C114.542 51.5332 115.04 51.6549 115.444 51.8984C115.854 52.1364 116.186 52.5044 116.44 53.0024C116.778 52.4712 117.143 52.0921 117.536 51.8652C117.929 51.6328 118.41 51.5166 118.98 51.5166C119.744 51.5166 120.378 51.749 120.881 52.2139C121.141 52.4574 121.327 52.7368 121.438 53.0522C121.548 53.3677 121.604 53.7689 121.604 54.2559V60H120.25V54.4717C120.25 53.9515 120.112 53.5448 119.835 53.2515C119.559 52.9526 119.177 52.8032 118.69 52.8032C118.065 52.8032 117.569 53.0107 117.204 53.4258C116.844 53.8353 116.665 54.3942 116.665 55.1025V60H115.312V54.4966C115.312 53.3677 114.766 52.8032 113.676 52.8032C113.117 52.8032 112.647 52.9969 112.265 53.3843C112.027 53.6167 111.858 53.874 111.759 54.1562C111.665 54.4385 111.618 54.7982 111.618 55.2354V60H110.273V51.6328ZM123.67 54.4219C123.67 53.7578 123.74 53.257 123.878 52.9194C124.072 52.4546 124.459 52.1004 125.04 51.8569C125.56 51.6466 126.155 51.5415 126.825 51.5415C127.826 51.5415 128.615 51.785 129.19 52.272C129.644 52.6593 129.871 53.2736 129.871 54.1147V58.2568C129.871 58.7106 130.056 58.9375 130.427 58.9375C130.505 58.9375 130.649 58.9209 130.859 58.8877V59.9419C130.532 60.0747 130.228 60.1411 129.946 60.1411C129.542 60.1411 129.221 60.036 128.983 59.8257C128.745 59.6154 128.607 59.3138 128.568 58.9209C128.258 59.2474 127.984 59.4909 127.746 59.6514C127.209 60.0055 126.587 60.1826 125.878 60.1826C125.165 60.1826 124.583 59.9945 124.135 59.6182C123.582 59.1478 123.305 58.5225 123.305 57.7422C123.305 56.8844 123.662 56.2453 124.376 55.8247C124.57 55.714 124.802 55.6255 125.073 55.5591C125.35 55.4871 126.064 55.3405 127.215 55.1191C127.702 55.0251 128.042 54.8978 128.236 54.7373C128.43 54.5768 128.526 54.3416 128.526 54.0317C128.526 53.6333 128.377 53.3234 128.078 53.1021C127.779 52.8807 127.364 52.77 126.833 52.77C126.152 52.77 125.676 52.8918 125.405 53.1353C125.14 53.3787 125.01 53.8076 125.015 54.4219H123.67ZM128.526 55.8828C128.211 56.0378 127.746 56.1789 127.132 56.3062C126.374 56.4666 125.895 56.5745 125.696 56.6299C125.497 56.6852 125.319 56.7572 125.165 56.8457C124.849 57.0283 124.691 57.341 124.691 57.7837C124.691 58.1434 124.802 58.4256 125.023 58.6304C125.25 58.8351 125.563 58.9375 125.961 58.9375C126.41 58.9375 126.866 58.8213 127.331 58.5889C128.128 58.2015 128.526 57.6675 128.526 56.9868V55.8828ZM132.187 51.6328H133.532V52.9775C133.869 52.4795 134.221 52.1309 134.586 51.9316C134.951 51.7324 135.424 51.6328 136.005 51.6328H136.686V52.9775H136.014C135.189 52.9831 134.567 53.2155 134.146 53.6748C133.958 53.874 133.808 54.1313 133.698 54.4468C133.587 54.7567 133.532 55.0776 133.532 55.4097V60H132.187V51.6328ZM137.948 48.6694H139.301V55.4429L143.352 51.6328H145.153L141.7 54.8203L145.153 60H143.493L140.72 55.7002L139.301 56.9702V60H137.948V48.6694ZM153.271 57.3936C153.177 58.1572 152.87 58.7715 152.35 59.2363C152.056 59.4964 151.666 59.7039 151.179 59.8589C150.692 60.0138 150.183 60.0913 149.652 60.0913C148.794 60.0913 148.069 59.8534 147.477 59.3774C146.52 58.6082 146.041 57.424 146.041 55.8247C146.041 54.3804 146.426 53.2681 147.195 52.4878C147.82 51.8569 148.653 51.5415 149.693 51.5415C151.11 51.5415 152.15 52.1558 152.814 53.3843C153.124 53.9543 153.279 54.7484 153.279 55.7666C153.279 55.8441 153.277 55.9963 153.271 56.2231H147.444C147.444 56.6769 147.519 57.0809 147.668 57.4351C148.055 58.3647 148.758 58.8296 149.776 58.8296C150.368 58.8296 150.858 58.7023 151.246 58.4478C151.633 58.1877 151.857 57.8363 151.918 57.3936H153.271ZM147.444 55.144H151.91C151.888 54.5076 151.724 53.9875 151.42 53.5835C151.021 53.0633 150.446 52.8032 149.693 52.8032C148.852 52.8032 148.235 53.1131 147.842 53.7329C147.665 54.0096 147.532 54.48 147.444 55.144ZM154.45 52.8032V51.6328H155.794V49.4746H157.147V51.6328H158.766V52.8032H157.147V57.9829C157.147 58.326 157.194 58.5612 157.289 58.6885C157.438 58.8932 157.673 58.9956 157.994 58.9956C158.16 58.9956 158.357 58.9541 158.583 58.8711V59.9834C158.213 60.0885 157.881 60.1411 157.587 60.1411C156.392 60.1411 155.794 59.4826 155.794 58.1655V52.8032H154.45Z" fill="#08132F"/>
<path d="M33.6748 157.65V156.771C33.6748 155.897 34.0239 155.182 34.7222 154.625C35.3081 154.156 36.0161 153.922 36.8462 153.922C37.7544 153.922 38.5015 154.19 39.0874 154.728C39.7124 155.289 40.0249 155.995 40.0249 156.844C40.0249 157.582 39.8027 158.241 39.3584 158.822C39.1094 159.149 38.8701 159.398 38.6406 159.569C38.4111 159.74 37.7397 160.174 36.6265 160.873C35.5229 161.59 34.9517 162.262 34.9126 162.887H40.0249V164H33.3599C33.3989 162.955 33.6968 162.081 34.2534 161.378C34.8149 160.675 35.8086 159.923 37.2344 159.122C37.9375 158.722 38.3794 158.338 38.5601 157.972C38.7212 157.645 38.8018 157.315 38.8018 156.983C38.8018 156.437 38.6162 155.97 38.2451 155.584C37.8936 155.218 37.4224 155.035 36.8315 155.035C36.0063 155.035 35.4253 155.375 35.0884 156.053C34.937 156.356 34.8638 156.888 34.8687 157.65H33.6748ZM44.2656 153.922C45.0664 153.922 45.7451 154.186 46.3018 154.713C46.7266 155.118 47.0269 155.56 47.2026 156.039C47.5347 156.961 47.7007 157.984 47.7007 159.107C47.7007 160.104 47.5884 160.948 47.3638 161.642C47.144 162.335 46.8022 162.904 46.3384 163.348C45.7769 163.89 45.1055 164.161 44.3242 164.161C43.4697 164.161 42.7495 163.856 42.1636 163.246C41.7729 162.84 41.4995 162.398 41.3433 161.92C41.0552 161.061 40.9111 160.086 40.9111 158.998C40.9111 158.368 40.9771 157.728 41.1089 157.079C41.2456 156.424 41.4165 155.917 41.6216 155.555C42.2271 154.481 43.1084 153.937 44.2656 153.922ZM44.2803 155.035C43.8701 155.035 43.4941 155.162 43.1523 155.416C42.8105 155.67 42.564 156.107 42.4126 156.727C42.2466 157.401 42.1636 158.17 42.1636 159.034C42.1636 160.558 42.3564 161.634 42.7422 162.264C42.8887 162.499 43.1035 162.689 43.3867 162.835C43.6699 162.977 43.9702 163.048 44.2876 163.048C44.5903 163.048 44.8809 162.982 45.1592 162.85C45.4424 162.718 45.6597 162.547 45.811 162.337C46.2358 161.737 46.4482 160.685 46.4482 159.181C46.4482 158.434 46.3848 157.752 46.2578 157.137C46.1309 156.522 45.96 156.061 45.7451 155.753C45.5938 155.538 45.3862 155.367 45.1226 155.24C44.8589 155.108 44.5781 155.04 44.2803 155.035ZM49.2314 162.572H50.6597V164H49.2314V162.572ZM49.2314 156.617H50.6597V158.045H49.2314V156.617ZM55.5303 153.922C56.3311 153.922 57.0098 154.186 57.5664 154.713C57.9912 155.118 58.2915 155.56 58.4673 156.039C58.7993 156.961 58.9653 157.984 58.9653 159.107C58.9653 160.104 58.853 160.948 58.6284 161.642C58.4087 162.335 58.0669 162.904 57.603 163.348C57.0415 163.89 56.3701 164.161 55.5889 164.161C54.7344 164.161 54.0142 163.856 53.4282 163.246C53.0376 162.84 52.7642 162.398 52.6079 161.92C52.3198 161.061 52.1758 160.086 52.1758 158.998C52.1758 158.368 52.2417 157.728 52.3735 157.079C52.5103 156.424 52.6812 155.917 52.8862 155.555C53.4917 154.481 54.373 153.937 55.5303 153.922ZM55.5449 155.035C55.1348 155.035 54.7588 155.162 54.417 155.416C54.0752 155.67 53.8286 156.107 53.6772 156.727C53.5112 157.401 53.4282 158.17 53.4282 159.034C53.4282 160.558 53.6211 161.634 54.0068 162.264C54.1533 162.499 54.3682 162.689 54.6514 162.835C54.9346 162.977 55.2349 163.048 55.5522 163.048C55.855 163.048 56.1455 162.982 56.4238 162.85C56.707 162.718 56.9243 162.547 57.0757 162.337C57.5005 161.737 57.7129 160.685 57.7129 159.181C57.7129 158.434 57.6494 157.752 57.5225 157.137C57.3955 156.522 57.2246 156.061 57.0098 155.753C56.8584 155.538 56.6509 155.367 56.3872 155.24C56.1235 155.108 55.8428 155.04 55.5449 155.035ZM63.1475 153.922C63.9482 153.922 64.627 154.186 65.1836 154.713C65.6084 155.118 65.9087 155.56 66.0845 156.039C66.4165 156.961 66.5825 157.984 66.5825 159.107C66.5825 160.104 66.4702 160.948 66.2456 161.642C66.0259 162.335 65.6841 162.904 65.2202 163.348C64.6587 163.89 63.9873 164.161 63.2061 164.161C62.3516 164.161 61.6313 163.856 61.0454 163.246C60.6548 162.84 60.3813 162.398 60.2251 161.92C59.937 161.061 59.793 160.086 59.793 158.998C59.793 158.368 59.8589 157.728 59.9907 157.079C60.1274 156.424 60.2983 155.917 60.5034 155.555C61.1089 154.481 61.9902 153.937 63.1475 153.922ZM63.1621 155.035C62.752 155.035 62.376 155.162 62.0342 155.416C61.6924 155.67 61.4458 156.107 61.2944 156.727C61.1284 157.401 61.0454 158.17 61.0454 159.034C61.0454 160.558 61.2383 161.634 61.624 162.264C61.7705 162.499 61.9854 162.689 62.2686 162.835C62.5518 162.977 62.8521 163.048 63.1694 163.048C63.4722 163.048 63.7627 162.982 64.041 162.85C64.3242 162.718 64.5415 162.547 64.6929 162.337C65.1177 161.737 65.3301 160.685 65.3301 159.181C65.3301 158.434 65.2666 157.752 65.1396 157.137C65.0127 156.522 64.8418 156.061 64.627 155.753C64.4756 155.538 64.2681 155.367 64.0044 155.24C63.7407 155.108 63.46 155.04 63.1621 155.035ZM41.3579 174.602H45.6426V180H44.9175L44.4487 178.923C43.521 179.749 42.4248 180.161 41.1602 180.161C40.1494 180.161 39.2681 179.873 38.5161 179.297C37.8911 178.813 37.4297 178.196 37.1318 177.444C36.8242 176.658 36.6704 175.818 36.6704 174.924C36.6704 173.279 37.1465 171.995 38.0986 171.072C38.9531 170.251 40.0811 169.841 41.4824 169.841C42.9229 169.841 44.0093 170.281 44.7417 171.16C45.2007 171.711 45.4546 172.329 45.5034 173.013H44.1191C44.0898 172.5 43.8848 172.065 43.5039 171.709C43.0254 171.26 42.3076 171.035 41.3506 171.035C40.4375 171.035 39.71 171.301 39.168 171.833C38.4551 172.537 38.0986 173.56 38.0986 174.902C38.0986 175.557 38.1816 176.155 38.3477 176.697C38.5137 177.239 38.748 177.678 39.0508 178.015C39.5684 178.596 40.3228 178.887 41.314 178.887C42.2515 178.887 42.9814 178.645 43.5039 178.162C44.0312 177.673 44.2949 176.995 44.2949 176.125C44.2949 176.082 44.2949 175.996 44.2949 175.869H41.3579V174.602ZM47.8765 170.002H49.6709L52.8057 178.542L55.9478 170.002H57.7202V180H56.3726V172.361L53.4795 180H52.1172L49.2241 172.273V180H47.8765V170.002ZM58.936 170.002H66.9487V171.27H63.6162V180H62.2686V171.27H58.936V170.002Z" fill="#08132F"/>
<path d="M154.675 157.65V156.771C154.675 155.897 155.024 155.182 155.722 154.625C156.308 154.156 157.016 153.922 157.846 153.922C158.754 153.922 159.501 154.19 160.087 154.728C160.712 155.289 161.025 155.995 161.025 156.844C161.025 157.582 160.803 158.241 160.358 158.822C160.109 159.149 159.87 159.398 159.641 159.569C159.411 159.74 158.74 160.174 157.626 160.873C156.523 161.59 155.952 162.262 155.913 162.887H161.025V164H154.36C154.399 162.955 154.697 162.081 155.253 161.378C155.815 160.675 156.809 159.923 158.234 159.122C158.938 158.722 159.379 158.338 159.56 157.972C159.721 157.645 159.802 157.315 159.802 156.983C159.802 156.437 159.616 155.97 159.245 155.584C158.894 155.218 158.422 155.035 157.832 155.035C157.006 155.035 156.425 155.375 156.088 156.053C155.937 156.356 155.864 156.888 155.869 157.65H154.675ZM162.292 157.65V156.771C162.292 155.897 162.641 155.182 163.339 154.625C163.925 154.156 164.633 153.922 165.463 153.922C166.372 153.922 167.119 154.19 167.705 154.728C168.33 155.289 168.642 155.995 168.642 156.844C168.642 157.582 168.42 158.241 167.976 158.822C167.727 159.149 167.487 159.398 167.258 159.569C167.028 159.74 166.357 160.174 165.244 160.873C164.14 161.59 163.569 162.262 163.53 162.887H168.642V164H161.977C162.016 162.955 162.314 162.081 162.871 161.378C163.432 160.675 164.426 159.923 165.852 159.122C166.555 158.722 166.997 158.338 167.177 157.972C167.338 157.645 167.419 157.315 167.419 156.983C167.419 156.437 167.233 155.97 166.862 155.584C166.511 155.218 166.04 155.035 165.449 155.035C164.624 155.035 164.042 155.375 163.706 156.053C163.554 156.356 163.481 156.888 163.486 157.65H162.292ZM170.231 162.572H171.66V164H170.231V162.572ZM170.231 156.617H171.66V158.045H170.231V156.617ZM176.53 153.922C177.331 153.922 178.01 154.186 178.566 154.713C178.991 155.118 179.292 155.56 179.467 156.039C179.799 156.961 179.965 157.984 179.965 159.107C179.965 160.104 179.853 160.948 179.628 161.642C179.409 162.335 179.067 162.904 178.603 163.348C178.042 163.89 177.37 164.161 176.589 164.161C175.734 164.161 175.014 163.856 174.428 163.246C174.038 162.84 173.764 162.398 173.608 161.92C173.32 161.061 173.176 160.086 173.176 158.998C173.176 158.368 173.242 157.728 173.374 157.079C173.51 156.424 173.681 155.917 173.886 155.555C174.492 154.481 175.373 153.937 176.53 153.922ZM176.545 155.035C176.135 155.035 175.759 155.162 175.417 155.416C175.075 155.67 174.829 156.107 174.677 156.727C174.511 157.401 174.428 158.17 174.428 159.034C174.428 160.558 174.621 161.634 175.007 162.264C175.153 162.499 175.368 162.689 175.651 162.835C175.935 162.977 176.235 163.048 176.552 163.048C176.855 163.048 177.146 162.982 177.424 162.85C177.707 162.718 177.924 162.547 178.076 162.337C178.5 161.737 178.713 160.685 178.713 159.181C178.713 158.434 178.649 157.752 178.522 157.137C178.396 156.522 178.225 156.061 178.01 155.753C177.858 155.538 177.651 155.367 177.387 155.24C177.124 155.108 176.843 155.04 176.545 155.035ZM184.147 153.922C184.948 153.922 185.627 154.186 186.184 154.713C186.608 155.118 186.909 155.56 187.084 156.039C187.417 156.961 187.583 157.984 187.583 159.107C187.583 160.104 187.47 160.948 187.246 161.642C187.026 162.335 186.684 162.904 186.22 163.348C185.659 163.89 184.987 164.161 184.206 164.161C183.352 164.161 182.631 163.856 182.045 163.246C181.655 162.84 181.381 162.398 181.225 161.92C180.937 161.061 180.793 160.086 180.793 158.998C180.793 158.368 180.859 157.728 180.991 157.079C181.127 156.424 181.298 155.917 181.503 155.555C182.109 154.481 182.99 153.937 184.147 153.922ZM184.162 155.035C183.752 155.035 183.376 155.162 183.034 155.416C182.692 155.67 182.446 156.107 182.294 156.727C182.128 157.401 182.045 158.17 182.045 159.034C182.045 160.558 182.238 161.634 182.624 162.264C182.771 162.499 182.985 162.689 183.269 162.835C183.552 162.977 183.852 163.048 184.169 163.048C184.472 163.048 184.763 162.982 185.041 162.85C185.324 162.718 185.542 162.547 185.693 162.337C186.118 161.737 186.33 160.685 186.33 159.181C186.33 158.434 186.267 157.752 186.14 157.137C186.013 156.522 185.842 156.061 185.627 155.753C185.476 155.538 185.268 155.367 185.004 155.24C184.741 155.108 184.46 155.04 184.162 155.035ZM162.358 174.602H166.643V180H165.917L165.449 178.923C164.521 179.749 163.425 180.161 162.16 180.161C161.149 180.161 160.268 179.873 159.516 179.297C158.891 178.813 158.43 178.196 158.132 177.444C157.824 176.658 157.67 175.818 157.67 174.924C157.67 173.279 158.146 171.995 159.099 171.072C159.953 170.251 161.081 169.841 162.482 169.841C163.923 169.841 165.009 170.281 165.742 171.16C166.201 171.711 166.455 172.329 166.503 173.013H165.119C165.09 172.5 164.885 172.065 164.504 171.709C164.025 171.26 163.308 171.035 162.351 171.035C161.438 171.035 160.71 171.301 160.168 171.833C159.455 172.537 159.099 173.56 159.099 174.902C159.099 175.557 159.182 176.155 159.348 176.697C159.514 177.239 159.748 177.678 160.051 178.015C160.568 178.596 161.323 178.887 162.314 178.887C163.251 178.887 163.981 178.645 164.504 178.162C165.031 177.673 165.295 176.995 165.295 176.125C165.295 176.082 165.295 175.996 165.295 175.869H162.358V174.602ZM168.876 170.002H170.671L173.806 178.542L176.948 170.002H178.72V180H177.373V172.361L174.479 180H173.117L170.224 172.273V180H168.876V170.002ZM179.936 170.002H187.949V171.27H184.616V180H183.269V171.27H179.936V170.002Z" fill="#08132F"/>
<rect y="116" width="228" height="3" rx="1.5" fill="#5683FF"/>
<rect opacity="0.1" x="65" y="71" width="122" height="45" fill="#5683FF"/>
<mask maskUnits="userSpaceOnUse" x="0" y="0" width="0" height="0" fill="black">
<rect fill="white" width="0" height="0"/>
</mask>
<path d="M68.2929 70.2929C67.9024 70.6834 67.9024 71.3166 68.2929 71.7071L74.6569 78.0711C75.0474 78.4616 75.6805 78.4616 76.0711 78.0711C76.4616 77.6805 76.4616 77.0474 76.0711 76.6569L70.4142 71L76.0711 65.3431C76.4616 64.9526 76.4616 64.3195 76.0711 63.9289C75.6805 63.5384 75.0474 63.5384 74.6569 63.9289L68.2929 70.2929ZM183.707 71.7071C184.098 71.3166 184.098 70.6834 183.707 70.2929L177.343 63.9289C176.953 63.5384 176.319 63.5384 175.929 63.9289C175.538 64.3195 175.538 64.9526 175.929 65.3431L181.586 71L175.929 76.6569C175.538 77.0474 175.538 77.6805 175.929 78.0711C176.319 78.4616 176.953 78.4616 177.343 78.0711L183.707 71.7071ZM69 72H183V70H69V72Z" fill="#5683FF" mask="url(#)"/>
<g clip-path="url(#clip0)">
<path d="M131.986 100.667C131.737 100.667 131.505 100.528 131.391 100.299L128.653 94.8253V100C128.653 100.368 128.354 100.667 127.986 100.667C127.618 100.667 127.32 100.368 127.32 100V92C127.32 91.6907 127.532 91.4213 127.833 91.3507C128.139 91.2827 128.445 91.4253 128.584 91.7013L131.321 97.1747V92C131.321 91.632 131.62 91.3333 131.988 91.3333C132.356 91.3333 132.654 91.632 132.654 92V100C132.654 100.309 132.442 100.579 132.141 100.649C132.088 100.661 132.037 100.667 131.986 100.667Z" fill="#5683FF"/>
<path d="M125.953 99.7893L123.286 91.7893C123.104 91.2453 122.202 91.2453 122.021 91.7893L119.354 99.7893C119.238 100.139 119.428 100.516 119.776 100.632C120.126 100.751 120.502 100.561 120.62 100.211L121.356 98H123.95L124.688 100.211C124.781 100.491 125.041 100.667 125.32 100.667C125.39 100.667 125.46 100.656 125.53 100.632C125.88 100.516 126.069 100.139 125.953 99.7893ZM121.801 96.6667L122.654 94.108L123.506 96.6667H121.801Z" fill="#5683FF"/>
<path d="M115.32 100.667H113.32C112.952 100.667 112.653 100.368 112.653 100V92C112.653 91.632 112.952 91.3333 113.32 91.3333H115.32C116.791 91.3333 117.987 92.5293 117.987 94C117.987 94.796 117.636 95.5107 117.081 96C117.637 96.4893 117.987 97.204 117.987 98C117.987 99.4707 116.791 100.667 115.32 100.667ZM113.987 99.3333H115.32C116.056 99.3333 116.653 98.7347 116.653 98C116.653 97.2653 116.056 96.6667 115.32 96.6667H113.987V99.3333ZM113.987 95.3333H115.32C116.056 95.3333 116.653 94.7347 116.653 94C116.653 93.2653 116.056 92.6667 115.32 92.6667H113.987V95.3333Z" fill="#5683FF"/>
<path d="M136.188 95.9999L139.165 92.4266C139.401 92.144 139.362 91.7226 139.081 91.4866C138.8 91.2533 138.378 91.2893 138.142 91.5719L135.321 94.9573V91.9999C135.321 91.6319 135.022 91.3333 134.654 91.3333C134.286 91.3333 133.988 91.6319 133.988 91.9999V99.9999C133.988 100.368 134.286 100.667 134.654 100.667C135.022 100.667 135.321 100.368 135.321 99.9999V97.0413L138.142 100.427C138.273 100.585 138.464 100.667 138.653 100.667C138.804 100.667 138.956 100.616 139.08 100.512C139.362 100.276 139.4 99.8559 139.164 99.5719L136.188 95.9999Z" fill="#5683FF"/>
<path d="M110.653 88.6667H141.319C141.33 88.668 141.341 88.6667 141.346 88.6667C141.714 88.6667 142.013 88.368 142.013 88C142.013 87.7147 141.833 87.4707 141.581 87.376L127.011 78.104C126.801 77.9707 126.534 77.9653 126.317 78.0907L110.317 87.424C110.057 87.576 109.93 87.884 110.01 88.1747C110.087 88.4653 110.353 88.6667 110.653 88.6667Z" fill="#5683FF"/>
<path d="M141.32 103.333H110.653C110.285 103.333 109.987 103.632 109.987 104V109.333C109.987 109.701 110.285 110 110.653 110H141.32C141.688 110 141.987 109.701 141.987 109.333V104C141.987 103.632 141.689 103.333 141.32 103.333Z" fill="#5683FF"/>
</g>
<rect opacity="0.1" x="187" y="71" width="41" height="45" fill="#31B984"/>
<g clip-path="url(#clip1)">
<mask maskUnits="userSpaceOnUse" x="0" y="0" width="0" height="0" fill="black">
<rect fill="white" width="0" height="0"/>
</mask>
<path d="M187.293 70.2929C186.902 70.6834 186.902 71.3166 187.293 71.7071L193.657 78.0711C194.047 78.4616 194.681 78.4616 195.071 78.0711C195.462 77.6805 195.462 77.0474 195.071 76.6569L189.414 71L195.071 65.3431C195.462 64.9526 195.462 64.3195 195.071 63.9289C194.681 63.5384 194.047 63.5384 193.657 63.9289L187.293 70.2929ZM237.707 71.7071C238.098 71.3166 238.098 70.6834 237.707 70.2929L231.343 63.9289C230.953 63.5384 230.319 63.5384 229.929 63.9289C229.538 64.3195 229.538 64.9526 229.929 65.3431L235.586 71L229.929 76.6569C229.538 77.0474 229.538 77.6805 229.929 78.0711C230.319 78.4616 230.953 78.4616 231.343 78.0711L237.707 71.7071ZM188 72H237V70H188V72Z" fill="#31B984" mask="url(#)"/>
</g>
<line x1="65.5" y1="145.5" x2="65.5" y2="9.5" stroke="#08132F" stroke-width="3" stroke-linecap="round" stroke-dasharray="12 4"/>
<line x1="185.5" y1="145.5" x2="185.5" y2="9.5" stroke="#08132F" stroke-width="3" stroke-linecap="round" stroke-dasharray="8 4"/>
<defs>
<clipPath id="clip0">
<rect x="110" y="78" width="32" height="32" fill="white"/>
</clipPath>
<clipPath id="clip1">
<rect x="187" y="62" width="41" height="18" fill="white"/>
</clipPath>
</defs>
</svg>
