<?xml version="1.0" encoding="utf-8"?>
<!-- Generator: Adobe Illustrator 24.0.1, SVG Export Plug-In . SVG Version: 6.00 Build 0)  -->
<svg version="1.1" id="Слой_1" xmlns="http://www.w3.org/2000/svg" xmlns:xlink="http://www.w3.org/1999/xlink" x="0px" y="0px"
	 viewBox="0 0 64 64" style="enable-background:new 0 0 64 64;" xml:space="preserve">
<g>
	<path d="M44.8,10.3l-0.1-0.1l0,0l-0.1,0l-0.1,0l-0.1,0l-0.1,0l-0.1,0l-0.1,0l-0.1,0l-0.1,0l-0.1,0.1l-0.1,0
		l-0.1,0.1l0,0l-0.1,0.1l0,0v0l-8.2,13.7l0,0.1l0,0.1l0,0.1l0,0.1l0,0.1l0,0l0,0.1l0,0.1l0,0.1l0,0.1l0.1,0.1l0,0l0.1,0.1l0,0.1
		l0.1,0.1l0.1,0c2,1.2,3.4,3.4,3.4,6c0,0.5,0.4,0.9,0.9,0.9h16c0.5,0,0.9-0.4,0.9-0.9C56.8,22.5,52,14.6,44.8,10.3z M37.3,24.5
		l7.3-12.1c6,3.9,10,10.6,10.3,18.2H40.8C40.5,28.1,39.2,25.9,37.3,24.5z"/>
	<path d="M20.4,10.7L20.4,10.7L20.4,10.7L20.4,10.7l-0.1-0.2l-0.1-0.1l-0.1-0.1l-0.1,0l-0.1,0l-0.1,0l-0.1,0
		l-0.1,0l-0.1,0l-0.1,0l-0.1,0l-0.1,0l-0.1,0l-0.1,0l-0.1,0l0,0l0,0c-0.7,0.4-1.4,0.9-2.1,1.4c-0.4,0.3-0.5,0.9-0.2,1.3
		c0.3,0.4,0.9,0.5,1.3,0.2c0.4-0.3,0.7-0.5,1.1-0.8l4.8,7.9c0.3,0.4,0.8,0.6,1.3,0.3c0.4-0.3,0.6-0.8,0.3-1.3L20.4,10.7z"/>
	<path d="M32.2,26.2c-0.5,0-1,0.4-1,0.9c0,0.5,0.4,1,0.9,1c1.8,0,3.3,1.5,3.4,3.4c0,0.5,0.4,0.9,1,0.9
		c0.5,0,0.9-0.4,0.9-1C37.3,28.5,35,26.3,32.2,26.2z"/>
	<path d="M32,0C14.3,0,0,14.3,0,32c0,17.7,14.3,32,32,32c17.7,0,32-14.3,32-32C64,14.3,49.7,0,32,0z
		 M10.7,53.3c-5.5-5.5-8.8-13-8.8-21.3c0-8,3.1-15.2,8.2-20.6l3.5,3.5c-4,4.4-6.4,10.2-6.4,16.6l0,0c0,0.3,0.1,0.5,0.3,0.7
		c0.2,0.2,0.4,0.3,0.7,0.3l0,0h15.9l0,0c0.2,0,0.4-0.1,0.5-0.2c0.3-0.2,0.4-0.5,0.4-0.8l0,0c0-1.5,0.5-2.8,1.2-3.9l1.1,1.1
		c-0.5,0.8-0.8,1.8-0.8,2.8c0,3,2.4,5.4,5.4,5.4c1,0,2-0.3,2.8-0.8l1.2,1.2l-0.1,0l-0.1,0l-0.1,0l-0.1,0l-0.1,0l0,0h0
		c-1.1,0.6-2.3,1-3.6,1c-1.3,0-2.5-0.4-3.6-1h0h0l-0.1,0l-0.1,0l-0.1,0l-0.1,0l-0.1,0l-0.1,0l-0.1,0l-0.1,0l-0.1,0l-0.1,0l-0.1,0
		l-0.1,0.1l-0.1,0.1l-0.1,0.1l-0.1,0.1l-0.1,0.1v0v0l-8.2,13.7l0,0l0,0.1l0,0.1l0,0.1l0,0.1l0,0.1l0,0.1l0,0.1l0,0.1l0,0.1l0,0.1
		l0,0.1l0,0.1l0.1,0.1l0.1,0.1l0.1,0.1l0.1,0l0,0h0c3.7,2.2,8.1,3.5,12.8,3.5c4.7,0,9.2-1.3,12.9-3.6h0h0l0.1,0l0.1-0.1l0.1-0.1
		l0.1-0.1l0.1-0.1l0-0.1l0-0.1l0-0.1l0-0.1l0-0.1l0,0l0-0.1l0-0.1l0-0.1l0-0.1l-0.1-0.1l-7.6-12.5l15,15C47.2,59,40,62.1,32,62.1
		C23.7,62.1,16.2,58.8,10.7,53.3z M24.9,26.2c-0.9,1.2-1.5,2.7-1.7,4.4H9.1c0.2-5.5,2.4-10.5,5.8-14.4L24.9,26.2z M33.4,34.7
		c-0.4,0.2-0.9,0.3-1.4,0.3c-1,0-1.8-0.4-2.5-1c-0.6-0.6-1-1.5-1-2.5c0-0.5,0.1-1,0.3-1.4L33.4,34.7z M28.3,39.6
		c1.1,0.5,2.4,0.8,3.7,0.8c1.4,0,2.6-0.3,3.8-0.9l7.4,12.1c-3.3,1.8-7.1,2.9-11.1,2.9c-4,0-7.7-1-11-2.8L28.3,39.6z M53.9,52.6
		L35.6,34.3l0,0l0,0l-6.3-6.3l0,0l0,0l-2.4-2.4l0,0l0,0L15.6,14.2l0,0l0,0l-4.2-4.2C16.8,5,24,1.9,32,1.9c8.3,0,15.8,3.4,21.3,8.8
		c5.5,5.5,8.8,13,8.8,21.3C62.1,40,59,47.2,53.9,52.6z"/>
</g>
</svg>
