<?xml version="1.0" encoding="utf-8"?>
<!-- Generator: Adobe Illustrator 24.0.1, SVG Export Plug-In . SVG Version: 6.00 Build 0)  -->
<svg version="1.1" id="Слой_1" xmlns="http://www.w3.org/2000/svg" xmlns:xlink="http://www.w3.org/1999/xlink" x="0px" y="0px"
	 viewBox="0 0 80 80" style="enable-background:new 0 0 80 80;" xml:space="preserve">
<path d="M36.8,0c2.3,0,4.2,1.9,4.2,4.3l20.9,6c0.7-1.2,1.9-2,3.3-2c2.1,0,3.8,1.7,3.8,3.8
	c0,1.1-0.5,2.2-1.3,2.9l7.8,16.9c2.4-0.2,4.4,1.6,4.4,4c0,2-1.4,3.7-3.4,4l-4.6,18.9c0.3,0.2,0.5,0.4,0.8,0.6
	c0.7,0.7,1.1,1.6,1.1,2.6c0,2-1.6,3.7-3.6,3.7c-0.3,0-0.5,0-0.8-0.1l-3.9,8.3c0.6,0.7,1,1.5,1,2.5c0,2-1.6,3.7-3.6,3.7
	c-2,0-3.6-1.7-3.6-3.7c0-0.7,0.2-1.4,0.6-1.9L47.2,58c-0.5,0.2-1,0.3-1.5,0.3c-1.8,0-3.4-1.4-3.6-3.2l-10.4-0.9
	c-0.5,1.5-1.9,2.6-3.5,2.6c-2,0-3.6-1.7-3.6-3.7c0-0.3,0-0.6,0.1-0.9L7,39.1c-0.7,0.7-1.7,1.1-2.8,1.1c-2.3,0-4.2-1.9-4.2-4.3
	c0-2.5,2.2-4.5,4.7-4.3l5.2-14.9c-1.1-0.8-1.7-2-1.7-3.3c0-2.2,1.8-4,4-4c1.4,0,2.6,0.7,3.4,1.9l17.1-6.7C32.4,2.1,34.4,0,36.8,0z
	 M59.1,29.3l-5.4,5c0.3,0.4,0.5,0.9,0.6,1.4L72,35.5c0.1-1.3,0.9-2.5,2-3.1l-7.7-16.6c-0.3,0.1-0.7,0.2-1.1,0.2c-1,0-2-0.4-2.7-1.1
	c-0.2-0.2-0.4-0.4-0.5-0.7l-9.5,3.4c0.2,1.3-0.1,2.5-1,3.4c-0.3,0.3-0.7,0.6-1.2,0.8l0.5,11c0.8,0.1,1.6,0.4,2.2,1l5.4-5
	c-0.4-0.5-0.7-1.2-0.7-1.9c0-1.6,1.3-3,2.9-3c1.6,0,2.9,1.3,2.9,3c0,1.6-1.3,3-2.9,3C60.1,29.8,59.5,29.6,59.1,29.3z M60.7,25.5
	c-0.7,0-1.3,0.6-1.3,1.4c0,0.8,0.6,1.4,1.3,1.4s1.3-0.6,1.3-1.4C62.1,26.1,61.5,25.5,60.7,25.5z M40.2,40.1l6.9-1.9
	c-0.2-0.5-0.3-1-0.4-1.5l-15.6-3.4c-0.2,0.3-0.4,0.6-0.6,0.9c-0.5,0.5-1.1,0.9-1.8,1L29,49.6c1.5,0.3,2.6,1.6,2.8,3.1l10.4,0.9
	c0.5-1.4,1.7-2.4,3.2-2.5l3.4-11c-0.5-0.3-0.9-0.6-1.3-1.1l-6.9,1.9c0.1,0.3,0.2,0.6,0.2,0.9c0,1.6-1.3,3-2.9,3
	c-1.6,0-2.9-1.3-2.9-3s1.3-3,2.9-3C38.8,38.8,39.7,39.3,40.2,40.1z M37.8,40.4c-0.7,0-1.3,0.6-1.3,1.4s0.6,1.4,1.3,1.4
	s1.3-0.6,1.3-1.4S38.5,40.4,37.8,40.4z M28.1,17.1L15.8,15c-0.1,0.3-0.3,0.6-0.5,0.9l10.4,12.4c0.6-0.4,1.3-0.6,2.1-0.6
	c1,0,2,0.4,2.7,1.1l14.8-9.2c-0.1-0.4-0.2-0.8-0.2-1.3c0-0.9,0.3-1.7,0.8-2.3l-6.8-8c-0.6,0.4-1.4,0.6-2.2,0.6
	c-0.4,0-0.9-0.1-1.3-0.2l-3.2,6.5c0.9,0.5,1.5,1.5,1.5,2.6c0,1.6-1.3,3-2.9,3C29.2,20.5,27.8,18.9,28.1,17.1z M16,14.2l12.3,2.1
	c0.6-1.3,2-2,3.3-1.7l3.2-6.6c-0.8-0.4-1.5-1.1-1.9-2l-16.9,6.6c0,0.2,0.1,0.4,0.1,0.7C16.1,13.7,16.1,13.9,16,14.2z M30.1,16.6
	c-0.8,0.9-0.2,2.3,1,2.3c0.7,0,1.3-0.6,1.3-1.4C32.4,16.3,30.9,15.7,30.1,16.6z M75,39.8c-0.4-0.1-0.8-0.3-1.1-0.5l-7.6,8.2
	c0.5,0.7,0.9,1.6,0.9,2.6c0,1-0.3,2-0.9,2.7l3.2,5.6c0.4-0.1,0.7-0.1,1.1-0.1L75,39.8z M50.3,40.4L47,51.3c0.8,0.3,1.5,0.9,1.9,1.7
	l9.6-2.6c-0.1-1,0.2-2,0.8-2.9L52.3,40C51.7,40.3,51,40.4,50.3,40.4z M52.7,36.6c0-1.2-1-2.2-2.2-2.2c-1.2,0-2.2,1-2.2,2.2
	c0,1.2,1,2.2,2.2,2.2C51.7,38.8,52.7,37.8,52.7,36.6z M53.5,38.9l6.9,7.5c0.7-0.5,1.5-0.7,2.4-0.7c0.9,0,1.7,0.3,2.3,0.7l7.6-8.2
	c-0.2-0.3-0.4-0.7-0.5-1.1l-18,0.3C54.1,37.9,53.9,38.5,53.5,38.9z M62.8,52.9c0.8,0,1.5-0.3,2-0.8c0.5-0.5,0.8-1.2,0.8-2
	c0-1.6-1.2-2.8-2.8-2.8c-1.7,0-2.8,1.5-2.8,2.9C60.1,51.7,61.3,52.9,62.8,52.9z M76,38.3c1.3,0,2.4-1.1,2.4-2.4
	c0-1.3-1.1-2.4-2.4-2.4c-1.3,0-2.4,1.1-2.4,2.4C73.6,37.2,74.7,38.3,76,38.3z M48.8,22.1c-1,0-2-0.5-2.7-1.2l-14.8,9.2
	c0.2,0.4,0.3,0.9,0.3,1.4c0,0.1,0,0.2,0,0.3L47,35.1c0.4-1,1.3-1.8,2.3-2.1L48.8,22.1z M61.6,12.6c0-0.3,0-0.5,0-0.8L40.8,5.9
	c-0.1,0.4-0.3,0.7-0.6,1l6.9,8c0.5-0.3,1.2-0.5,1.8-0.5c1.2,0,2.4,0.6,3.1,1.6L61.6,12.6z M46.7,18.3c0,1.2,1,2.2,2.2,2.2
	c2.9,0,2.9-4.5,0-4.5C47.6,16,46.7,17,46.7,18.3z M14.1,16.9c-0.8,0.5-1.8,0.6-2.8,0.5L6.2,32.1c0.9,0.5,1.6,1.3,2,2.3L24,31.5l0,0
	c0-0.8,0.2-1.5,0.6-2.1L14.1,16.9z M25.6,31.5c0,2.9,4.4,2.9,4.4,0c0-1.2-1-2.2-2.2-2.2C26.6,29.2,25.6,30.2,25.6,31.5z M14.5,13.4
	c0-1.3-1.1-2.4-2.4-2.4c-1.3,0-2.4,1.1-2.4,2.4c0,1.3,1.1,2.4,2.4,2.4C13.5,15.8,14.5,14.7,14.5,13.4z M8.5,35.9
	c0,0.7-0.2,1.3-0.5,1.9l17.3,13c0.5-0.6,1.2-1.1,2-1.3l-0.3-14.4c-1.2-0.2-2.2-1.1-2.8-2.2L8.5,35.9z M49.3,54.5c0,0.1,0,0.1,0,0.2
	c0,0.9-0.3,1.8-0.9,2.4l12.5,16.2c0.3-0.2,0.7-0.4,1-0.5l0-18.3c-1.4-0.3-2.6-1.2-3.2-2.5L49.3,54.5z M63.6,72.7
	c0.2,0,0.5,0.1,0.7,0.2l3.8-8.1c-0.9-0.7-1.4-1.8-1.4-2.9c0-1.1,0.5-2.2,1.4-2.9l-3-5.2c-0.4,0.3-0.9,0.5-1.5,0.6L63.6,72.7z
	 M62.9,74.3c-1.1,0-2,0.9-2,2.1c0,1.1,0.9,2.1,2,2.1c1.1,0,2-0.9,2-2.1C64.9,75.2,64,74.3,62.9,74.3z M47.7,54.7
	c0-1.1-0.9-2.1-2-2.1c-1.1,0-2,0.9-2,2.1s0.9,2.1,2,2.1C46.8,56.7,47.7,55.8,47.7,54.7z M6.9,35.9c0-1.5-1.2-2.7-2.7-2.7
	c-1.5,0-2.7,1.2-2.7,2.7c0,1.5,1.2,2.7,2.7,2.7C5.7,38.5,6.9,37.3,6.9,35.9z M71.7,60.5c-0.8-0.8-2.1-0.8-2.9,0
	c-0.4,0.4-0.6,0.9-0.6,1.5c0,1.1,0.9,2.1,2,2.1c1.1,0,2-0.9,2-2.1C72.3,61.4,72.1,60.8,71.7,60.5z M28.2,51.1c-1.1,0-2,0.9-2,2.1
	c0,1.1,0.9,2.1,2,2.1c1.1,0,2-0.9,2-2.1C30.2,52.1,29.3,51.1,28.2,51.1z M65.3,9.8c-1.2,0-2.2,1-2.2,2.2c0,1.2,1,2.2,2.2,2.2
	c1.2,0,2.2-1,2.2-2.2C67.5,10.8,66.6,9.8,65.3,9.8z M36.8,1.6c-1.5,0-2.7,1.2-2.7,2.7c0,1.5,1.2,2.7,2.7,2.7c1.5,0,2.7-1.2,2.7-2.7
	C39.5,2.8,38.3,1.6,36.8,1.6z"/>
</svg>
