<?xml version="1.0" encoding="utf-8"?>
<!-- Generator: Adobe Illustrator 23.0.3, SVG Export Plug-In . SVG Version: 6.00 Build 0)  -->
<svg version="1.1" id="Calque_1" xmlns="http://www.w3.org/2000/svg" xmlns:xlink="http://www.w3.org/1999/xlink" x="0px" y="0px"
	 viewBox="0 0 108.5 116.8" style="enable-background:new 0 0 108.5 116.8;" xml:space="preserve">
<g>
	<path d="M106,19.2c-1.6-1.7-3.6-2.5-5.9-2.5h-8.3v-6.3c0-2.9-1-5.3-3.1-7.4c-2-2-4.5-3.1-7.4-3.1h-4.2c-2.9,0-5.3,1-7.4,3.1
		c-2,2-3.1,4.5-3.1,7.4v6.3h-25v-6.3c0-2.9-1-5.3-3.1-7.4c-2-2-4.5-3.1-7.4-3.1h-4.2c-2.9,0-5.3,1-7.4,3.1c-2,2-3.1,4.5-3.1,7.4v6.3
		H8.3c-2.3,0-4.2,0.8-5.9,2.5C0.8,20.8,0,22.8,0,25v83.4c0,2.3,0.8,4.2,2.5,5.9c1.7,1.7,3.6,2.5,5.9,2.5h91.8c2.3,0,4.2-0.8,5.9-2.5
		c1.7-1.7,2.5-3.6,2.5-5.9V25C108.5,22.8,107.6,20.8,106,19.2L106,19.2z M27.1,108.5H8.3V89.7h18.8V108.5z M27.1,85.5H8.3V64.7h18.8
		V85.5z M27.1,60.5H8.3V41.7h18.8V60.5z M25.6,30.7c-0.4-0.4-0.6-0.9-0.6-1.5V10.4c0-0.6,0.2-1.1,0.6-1.5c0.4-0.4,0.9-0.6,1.5-0.6
		h4.2c0.6,0,1.1,0.2,1.5,0.6c0.4,0.4,0.6,0.9,0.6,1.5v18.8c0,0.6-0.2,1.1-0.6,1.5c-0.4,0.4-0.9,0.6-1.5,0.6h-4.2
		C26.6,31.3,26.1,31.1,25.6,30.7L25.6,30.7z M52.1,108.5H31.3V89.7h20.9V108.5z M52.1,85.5H31.3V64.7h20.9V85.5z M52.1,60.5H31.3
		V41.7h20.9V60.5z M77.2,108.5H56.3V89.7h20.9V108.5z M77.2,85.5H56.3V64.7h20.9V85.5z M77.2,60.5H56.3V41.7h20.9V60.5z M75.7,30.7
		c-0.4-0.4-0.6-0.9-0.6-1.5V10.4c0-0.6,0.2-1.1,0.6-1.5c0.4-0.4,0.9-0.6,1.5-0.6h4.2c0.6,0,1.1,0.2,1.5,0.6c0.4,0.4,0.6,0.9,0.6,1.5
		v18.8c0,0.6-0.2,1.1-0.6,1.5c-0.4,0.4-0.9,0.6-1.5,0.6h-4.2C76.6,31.3,76.1,31.1,75.7,30.7L75.7,30.7z M100.1,108.5H81.3V89.7h18.8
		V108.5z M100.1,85.5H81.3V64.7h18.8V85.5z M100.1,60.5H81.3V41.7h18.8V60.5z M100.1,60.5"/>
</g>
</svg>
