<?xml version="1.0" encoding="utf-8"?>
<!-- Generator: Adobe Illustrator 23.0.3, SVG Export Plug-In . SVG Version: 6.00 Build 0)  -->
<svg version="1.1" id="Calque_1" xmlns="http://www.w3.org/2000/svg" xmlns:xlink="http://www.w3.org/1999/xlink" x="0px" y="0px"
	 viewBox="0 0 125.1 100.1" style="enable-background:new 0 0 125.1 100.1;" xml:space="preserve">
<g>
	<path d="M122.1,3.1c-2-2-4.5-3.1-7.4-3.1H10.4C7.6,0,5.1,1,3.1,3.1C1,5.1,0,7.6,0,10.4v79.3c0,2.9,1,5.3,3.1,7.4
		c2,2,4.5,3.1,7.4,3.1h104.3c2.9,0,5.3-1,7.4-3.1c2-2,3.1-4.5,3.1-7.4V10.4C125.1,7.6,124.1,5.1,122.1,3.1L122.1,3.1z M116.8,89.7
		c0,0.6-0.2,1.1-0.6,1.5c-0.4,0.4-0.9,0.6-1.5,0.6H10.4c-0.6,0-1.1-0.2-1.5-0.6c-0.4-0.4-0.6-0.9-0.6-1.5V50.1h108.5V89.7z
		 M116.8,25H8.3V10.4C8.3,9.9,8.5,9.4,9,9s0.9-0.6,1.5-0.6h104.3c0.6,0,1.1,0.2,1.5,0.6c0.4,0.4,0.6,0.9,0.6,1.5V25z M116.8,25"/>
	<rect x="16.7" y="75.1" width="16.7" height="8.3"/>
	<rect x="41.7" y="75.1" width="25" height="8.3"/>
</g>
</svg>
