<?xml version="1.0" encoding="utf-8"?>
<!-- Generator: Adobe Illustrator 24.0.1, SVG Export Plug-In . SVG Version: 6.00 Build 0)  -->
<svg version="1.1" id="Слой_1" xmlns="http://www.w3.org/2000/svg" xmlns:xlink="http://www.w3.org/1999/xlink" x="0px" y="0px"
	 viewBox="0 0 56 56" style="enable-background:new 0 0 56 56;" xml:space="preserve">
<path style="fill:#5683FF;" d="M54.8,35.4v-5.1l-12.5,2.6v5.5C46.4,37.4,50.6,36.4,54.8,35.4z M32.3,17.3l23-6.8
	c0.7-0.2,1,0.9,0.3,1.1l-23,6.8c-0.3,1.1-1.9,1.2-2.2,0.1l-14.1-2.8c-0.5,0.6-1.5,0.5-1.9-0.3l-6.6-0.5L1,18.4
	c-0.7,0.3-1.2-0.7-0.5-1l5.2-2.7l-5-0.4c-0.7-0.1-0.6-1.2,0.1-1.1l6.8,0.5l6.7-3.5c0.1-1.3,1.9-1.5,2.2-0.2l14,3.9
	c0.4-0.5,1.1-0.7,1.7-0.2l23-13.6c0.6-0.4,1.2,0.6,0.6,1C48,5.6,40.3,10.2,32.6,14.7c-0.2,1.1-1.7,1.3-2.2,0.3l-14.2-4
	c-0.4,0.4-1,0.4-1.4,0.1l-5.1,2.7l4.8,0.4c0.5-0.8,1.8-0.6,2,0.3l14.1,2.9C31.1,16.9,31.8,16.8,32.3,17.3z M49.7,33.9
	c0.4-0.1,0.5,0.5,0.1,0.5l-3.7,0.8c-0.4,0.1-0.5-0.5-0.1-0.5L49.7,33.9z M41.8,31.9l11.3-2.3l-13.4-4l-10.1,1.6L41.8,31.9z
	 M27.3,27.5l-4.7,0.7l13.1,5.2V40l5.4-1.3v-5.8L27.3,27.5z M36.9,40.8l1.5,0.6l11.5-2.8l-1.6-0.5C44.5,39,40.7,39.9,36.9,40.8z
	 M39.7,24.4c5.4,1.6,10.8,3.2,16.2,4.8v7.1l-5.5,1.3c0.7,0.2,1.4,0.5,2.1,0.7v7C39.8,48.9,27,52.4,14.2,56
	c-4.7-2.9-9.4-5.8-14.2-8.7C0,44.9,0,42.5,0,40l4.8-0.9l-2.7-1.3c0-2.5,0-4.9,0-7.4C14.6,28.4,27.2,26.4,39.7,24.4z M20.5,28.6
	L4.4,31.1l13.5,6.1l15.4-3.6L20.5,28.6z M34.7,34.5l-16.3,3.7l-0.2,5.9c5.5-1.3,11-2.6,16.4-3.9L34.7,34.5z M17.3,38.2L3.2,31.8
	l0,5.3L17.1,44L17.3,38.2z M17.6,45.5L6.4,39.9l-4.2,0.8l12.1,6.5l15.8-3.7l-1.5-0.7C24.9,43.7,21.3,44.6,17.6,45.5z M30.4,42.4
	l2,0.9v6.5l5.4-1.5v-5.9l-2.7-1.1L30.4,42.4z M25.7,48.8c0.4-0.1,0.5,0.5,0.1,0.5l-3.7,1c-0.4,0.1-0.5-0.5-0.1-0.5L25.7,48.8z
	 M38.9,48l12.5-3.5v-5.1l-12.5,3.1V48z M31.3,44.4l-16.5,3.9l0,1.1c0,0.7-1.1,0.7-1.1,0l0-1.2L1.1,41.4l0,5.3l12.6,7.7l0-1.9
	c0-0.7,1.1-0.7,1.1,0l0,2.2l16.5-4.6V44.4z"/>
</svg>
