<?xml version="1.0" encoding="utf-8"?>
<!-- Generator: Adobe Illustrator 24.0.1, SVG Export Plug-In . SVG Version: 6.00 Build 0)  -->
<svg version="1.1" id="Слой_1" xmlns="http://www.w3.org/2000/svg" xmlns:xlink="http://www.w3.org/1999/xlink" x="0px" y="0px"
	 viewBox="0 0 56 56" style="enable-background:new 0 0 56 56;" xml:space="preserve">
<path style="fill:#5683FF;" d="M50.7,28.4c-0.2-0.2-0.3-0.5-0.1-0.8c0.2-0.3,0.5-0.3,0.8-0.1c1.4,1,2.4,2.1,3.2,3.2
	c0.7,1.1,1.1,2.4,1.1,3.6v9c0,3.6-3.2,6.8-8.3,9.1c-5,2.2-11.9,3.6-19.5,3.6c-7.6,0-14.5-1.4-19.5-3.6C3.2,50.1,0,46.9,0,43.3v-9
	c0,0,0,0,0,0c0-3.6,3.2-6.8,8.3-9.1c5-2.2,11.9-3.6,19.5-3.6c2.6,0,5.1,0.2,7.4,0.5c2.4,0.3,4.8,0.8,6.9,1.3
	c0.3,0.1,0.5,0.4,0.4,0.7c-0.1,0.3-0.4,0.5-0.7,0.4c-2.1-0.6-4.3-1-6.7-1.3c-2.3-0.3-4.8-0.4-7.3-0.4c-7.5,0-14.2,1.3-19.1,3.5
	c-4.7,2.1-7.7,5-7.7,8.1c0,3.1,2.9,6,7.7,8.1c4.9,2.2,11.6,3.5,19.1,3.5c7.5,0,14.2-1.3,19.1-3.5c4.7-2.1,7.7-5,7.7-8.1
	c0-1-0.3-2-0.9-3C52.9,30.3,52,29.3,50.7,28.4z M46.7,22h0.6v0.6c0,0.7,0.3,1.4,0.8,1.9c0.5,0.5,1.2,0.8,1.9,0.8h0.6v1.1h-0.6
	c-0.7,0-1.4,0.3-1.9,0.8s-0.8,1.2-0.8,1.9v0.6h-1.1v-0.6c0-0.7-0.3-1.4-0.8-1.9c-0.5-0.5-1.2-0.8-1.9-0.8h-0.6v-1.1h0.6
	c0.7,0,1.4-0.3,1.9-0.8c0.5-0.5,0.8-1.2,0.8-1.9V22H46.7z M47.3,25.3c-0.2-0.2-0.4-0.5-0.6-0.7c-0.2,0.3-0.3,0.5-0.6,0.7
	c-0.2,0.2-0.4,0.4-0.7,0.6c0.3,0.2,0.5,0.3,0.7,0.6c0.2,0.2,0.4,0.5,0.6,0.7c0.2-0.3,0.3-0.5,0.6-0.7c0.2-0.2,0.4-0.4,0.7-0.6
	C47.7,25.7,47.5,25.5,47.3,25.3z M4.9,43.9c0-0.2,0.1-0.3,0.3-0.3s0.3,0.1,0.3,0.3v3.2c0,0.2-0.1,0.3-0.3,0.3s-0.3-0.1-0.3-0.3V43.9
	z M3,42.2c0-0.2,0.1-0.3,0.3-0.3s0.3,0.1,0.3,0.3v3.2c0,0.2-0.1,0.3-0.3,0.3S3,45.5,3,45.4V42.2z M42.6,47.5c0-0.2,0.1-0.3,0.3-0.3
	c0.2,0,0.3,0.1,0.3,0.3v3.2c0,0.2-0.1,0.3-0.3,0.3c-0.2,0-0.3-0.1-0.3-0.3V47.5z M45.2,46.6c0-0.2,0.1-0.3,0.3-0.3
	c0.2,0,0.3,0.1,0.3,0.3v3.2c0,0.2-0.1,0.3-0.3,0.3c-0.2,0-0.3-0.1-0.3-0.3V46.6z M47.3,45.8c0-0.2,0.1-0.3,0.3-0.3s0.3,0.1,0.3,0.3
	V49c0,0.2-0.1,0.3-0.3,0.3s-0.3-0.1-0.3-0.3V45.8z M49.4,44.4c0-0.2,0.1-0.3,0.3-0.3s0.3,0.1,0.3,0.3v3.2c0,0.2-0.1,0.3-0.3,0.3
	s-0.3-0.1-0.3-0.3V44.4z M51.4,42.9c0-0.2,0.1-0.3,0.3-0.3s0.3,0.1,0.3,0.3v3.2c0,0.2-0.1,0.3-0.3,0.3s-0.3-0.1-0.3-0.3V42.9z
	 M27.8,9.9h0.6v0.6c0,0.7,0.3,1.4,0.8,1.9c0.5,0.5,1.2,0.8,1.9,0.8h0.6v1.1H31c-0.7,0-1.4,0.3-1.9,0.8c-0.5,0.5-0.8,1.2-0.8,1.9v0.6
	h-1.1v-0.6c0-0.7-0.3-1.4-0.8-1.9c-0.5-0.5-1.2-0.8-1.9-0.8H24v-1.1h0.6c0.7,0,1.4-0.3,1.9-0.8c0.5-0.5,0.8-1.2,0.8-1.9V9.9H27.8z
	 M28.4,13.1c-0.2-0.2-0.4-0.5-0.6-0.7c-0.2,0.3-0.3,0.5-0.6,0.7c-0.2,0.2-0.4,0.4-0.7,0.6c0.3,0.2,0.5,0.3,0.7,0.6
	c0.2,0.2,0.4,0.5,0.6,0.7c0.2-0.3,0.3-0.5,0.6-0.7c0.2-0.2,0.4-0.4,0.7-0.6C28.8,13.5,28.6,13.3,28.4,13.1z M52.3,3.4h0.6v0.6
	c0,0.7,0.3,1.4,0.8,1.8s1.1,0.8,1.8,0.8H56v1.1h-0.6c-0.7,0-1.4,0.3-1.8,0.8c-0.5,0.5-0.8,1.1-0.8,1.8v0.6h-1.1v-0.6
	c0-0.7-0.3-1.4-0.8-1.8c-0.5-0.5-1.1-0.8-1.8-0.8h-0.6V6.6h0.6c0.7,0,1.4-0.3,1.8-0.8c0.5-0.5,0.8-1.1,0.8-1.8V3.4H52.3z M52.8,6.6
	c-0.2-0.2-0.4-0.4-0.5-0.7c-0.2,0.2-0.3,0.5-0.5,0.7c-0.2,0.2-0.4,0.4-0.7,0.5c0.2,0.2,0.5,0.3,0.7,0.5c0.2,0.2,0.4,0.4,0.5,0.7
	c0.2-0.2,0.3-0.5,0.5-0.7c0.2-0.2,0.4-0.4,0.7-0.5C53.3,7,53,6.8,52.8,6.6z M3.4,0H4v0.6c0,0.6,0.3,1.2,0.7,1.6
	c0.4,0.4,1,0.7,1.6,0.7h0.6v1.1H6.2C5.6,3.9,5,4.2,4.6,4.6C4.2,5,4,5.6,4,6.2v0.6H2.9V6.2c0-0.6-0.3-1.2-0.7-1.6
	c-0.4-0.4-1-0.7-1.6-0.7H0.1V2.8h0.6c0.6,0,1.2-0.3,1.6-0.7c0.4-0.4,0.7-1,0.7-1.6V0H3.4z M3.8,2.9C3.7,2.8,3.5,2.6,3.4,2.4
	C3.3,2.6,3.1,2.8,3,2.9C2.8,3.1,2.7,3.2,2.5,3.4C2.7,3.5,2.8,3.6,3,3.8C3.1,4,3.3,4.1,3.4,4.3C3.5,4.1,3.7,4,3.8,3.8
	C4,3.6,4.2,3.5,4.4,3.4C4.2,3.2,4,3.1,3.8,2.9z M22,39.4l8.1-12c0.6-1,1.5-1.4,2.3-1.4c0.3,0,0.6,0.1,0.8,0.2
	c0.2,0.1,0.4,0.3,0.6,0.5c0.3,0.5,0.4,1.2,0,1.8l0,0l-8.1,12h0c-0.5,0.8-1.7,1.1-2.5,1c-0.3,0-0.6-0.1-0.8-0.2
	c-0.3-0.1-0.5-0.4-0.6-0.6C21.5,40.4,21.6,39.9,22,39.4z M31,28l-8.1,12.1l0,0c-0.1,0.2-0.2,0.3-0.2,0.3c0,0,0,0,0.1,0.1
	c0.1,0.1,0.3,0.1,0.4,0.1c0.5,0.1,1.2-0.1,1.5-0.6l0,0l8.1-12c0.1-0.2,0.1-0.4,0-0.6c-0.1-0.1-0.1-0.1-0.2-0.2
	c-0.1-0.1-0.2-0.1-0.3-0.1C31.9,27.1,31.4,27.3,31,28L31,28z M37.7,41.5c-1.2,0-2.2-0.1-3.1-0.2c-0.9-0.1-1.6-0.4-2.2-0.7
	c-0.6-0.3-1-0.7-1.3-1.2c-0.3-0.5-0.5-1.1-0.5-1.8v-0.5c0-0.7,0.1-1.3,0.4-1.8c0.3-0.5,0.7-0.9,1.3-1.2c0.5-0.3,1.3-0.5,2.2-0.6
	c0.9-0.1,1.9-0.2,3.1-0.2c1.2,0,2.2,0.1,3.1,0.2c0.9,0.1,1.6,0.3,2.2,0.6c0.6,0.3,1,0.7,1.3,1.2c0.3,0.5,0.5,1.1,0.5,1.8v0.6
	c0,0.7-0.2,1.3-0.5,1.8c-0.3,0.5-0.8,0.9-1.4,1.2c-0.6,0.3-1.3,0.5-2.2,0.7C39.9,41.5,38.9,41.5,37.7,41.5z M34.8,40.2
	c0.8,0.1,1.8,0.2,2.9,0.2c1.1,0,2.1-0.1,2.9-0.2c0.8-0.1,1.4-0.3,1.8-0.5c0.4-0.2,0.7-0.5,0.9-0.8c0.2-0.3,0.3-0.7,0.3-1.2v-0.6
	c0-0.5-0.1-0.9-0.3-1.2c-0.2-0.3-0.5-0.6-0.9-0.8c-0.4-0.2-1.1-0.4-1.8-0.5c-0.8-0.1-1.8-0.2-2.9-0.2c-1.2,0-2.1,0.1-2.9,0.2
	c-0.8,0.1-1.4,0.3-1.8,0.5c-0.4,0.2-0.7,0.5-0.9,0.8c-0.2,0.3-0.3,0.7-0.3,1.2v0.5c0,0.5,0.1,0.9,0.3,1.2c0.2,0.3,0.5,0.6,0.9,0.8
	C33.4,39.9,34,40.1,34.8,40.2z M37,38.7c0.1,0,0.2,0,0.3,0.1c0.1,0,0.3,0,0.4,0c0.2,0,0.3,0,0.4,0c0.1,0,0.2,0,0.3-0.1
	c0.1,0,0.2,0,0.2-0.1c0.1,0,0.1,0,0.1-0.1c0,0,0,0,0,0c0,0,0-0.1,0.1-0.1c0-0.1,0-0.1,0.1-0.2c0-0.1,0-0.1,0-0.1c0-0.1,0-0.1,0-0.2
	c0-0.1,0-0.2,0-0.3v-0.4c0-0.2,0-0.3,0-0.4c0-0.1,0-0.2,0-0.2c0,0,0-0.1,0-0.1c0-0.1,0-0.1,0-0.2c0,0,0,0,0-0.1c0,0,0,0,0,0
	c0,0-0.1,0-0.2-0.1c-0.1,0-0.2,0-0.3-0.1c-0.1,0-0.2,0-0.3,0c-0.1,0-0.3,0-0.5,0c-0.2,0-0.3,0-0.5,0c-0.1,0-0.2,0-0.3,0
	c-0.1,0-0.2,0-0.3,0.1c-0.1,0-0.1,0-0.1,0.1c0,0,0,0,0,0c0,0,0,0,0,0.1c0,0,0,0.1,0,0.2c0,0,0,0.1,0,0.2c0,0.1,0,0.2,0,0.2
	c0,0.1,0,0.2,0,0.3v0.4c0,0.1,0,0.2,0,0.3c0,0.1,0,0.2,0,0.3c0,0.1,0,0.1,0,0.2c0,0.1,0,0.1,0.1,0.2c0,0,0,0.1,0.1,0.1c0,0,0,0,0,0
	c0,0,0.1,0,0.1,0.1C36.8,38.7,36.9,38.7,37,38.7z M37.2,39.9c-0.2,0-0.3,0-0.5-0.1c-0.1,0-0.3-0.1-0.4-0.1c-0.1,0-0.2-0.1-0.3-0.2
	c-0.1-0.1-0.2-0.2-0.3-0.3c-0.1-0.1-0.2-0.2-0.2-0.3c0-0.1-0.1-0.2-0.1-0.3c0-0.1,0-0.2-0.1-0.3c0-0.1,0-0.2,0-0.3
	c0-0.1,0-0.3,0-0.4v-0.4c0-0.1,0-0.2,0-0.4c0-0.1,0-0.2,0-0.3c0-0.1,0-0.2,0.1-0.3c0-0.1,0.1-0.2,0.1-0.3c0.1-0.1,0.1-0.3,0.2-0.4
	c0.1-0.1,0.2-0.2,0.3-0.3c0.1-0.1,0.2-0.1,0.3-0.1c0.1,0,0.2-0.1,0.4-0.1c0.1,0,0.3,0,0.5-0.1c0.2,0,0.3,0,0.5,0c0.2,0,0.4,0,0.5,0
	c0.2,0,0.3,0,0.5,0.1c0.1,0,0.3,0.1,0.4,0.1c0.1,0,0.2,0.1,0.3,0.1c0.1,0.1,0.2,0.2,0.3,0.3c0.1,0.1,0.2,0.2,0.2,0.4
	c0,0.1,0.1,0.2,0.1,0.3c0,0.1,0,0.2,0.1,0.3c0,0.1,0,0.2,0,0.3c0,0.2,0,0.3,0,0.4v0.4c0,0.1,0,0.2,0,0.4c0,0.1,0,0.2,0,0.3
	c0,0.1,0,0.2-0.1,0.3c0,0.1-0.1,0.2-0.1,0.3c-0.1,0.1-0.1,0.2-0.2,0.4c-0.1,0.1-0.2,0.2-0.3,0.3c-0.1,0.1-0.2,0.1-0.3,0.2
	c-0.1,0-0.3,0.1-0.4,0.1c-0.1,0-0.3,0.1-0.5,0.1c-0.2,0-0.4,0-0.5,0C37.5,39.9,37.3,39.9,37.2,39.9z M23.2,34
	c-0.6,0.3-1.3,0.5-2.2,0.7c-0.9,0.1-1.9,0.2-3.1,0.2c-1.2,0-2.2-0.1-3.1-0.2c-0.9-0.1-1.6-0.4-2.2-0.7c-0.6-0.3-1-0.7-1.3-1.2
	c-0.3-0.5-0.5-1.1-0.5-1.8v-0.5c0-0.7,0.1-1.3,0.4-1.8c0.3-0.5,0.7-0.9,1.3-1.2c0.5-0.3,1.3-0.5,2.2-0.6c0.9-0.1,1.9-0.2,3.1-0.2
	c1.2,0,2.2,0.1,3.1,0.2c0.9,0.1,1.6,0.3,2.2,0.6c0.6,0.3,1,0.7,1.3,1.2c0.3,0.5,0.5,1.1,0.5,1.8V31c0,0.7-0.2,1.3-0.5,1.8
	C24.2,33.3,23.8,33.7,23.2,34z M20.8,33.6c0.8-0.1,1.4-0.3,1.8-0.5c0.4-0.2,0.7-0.5,0.9-0.8c0.2-0.3,0.3-0.7,0.3-1.2v-0.6
	c0-0.5-0.1-0.9-0.3-1.2c-0.2-0.3-0.5-0.6-0.9-0.8c-0.4-0.2-1-0.4-1.8-0.5c-0.8-0.1-1.8-0.2-2.9-0.2c-1.2,0-2.1,0.1-2.9,0.2
	c-0.8,0.1-1.4,0.3-1.8,0.5c-0.4,0.2-0.7,0.5-0.9,0.8C12.1,29.6,12,30,12,30.5V31c0,0.5,0.1,0.9,0.3,1.2c0.2,0.3,0.5,0.6,0.9,0.8
	c0.4,0.2,1.1,0.4,1.8,0.5c0.8,0.1,1.8,0.2,2.9,0.2C19,33.8,20,33.7,20.8,33.6z M17.2,32.1c0.1,0,0.2,0,0.3,0.1c0.1,0,0.3,0,0.4,0
	c0.2,0,0.3,0,0.4,0c0.1,0,0.2,0,0.3-0.1c0.1,0,0.2,0,0.2-0.1C19,32,19,32,19,32c0,0,0,0,0,0c0,0,0-0.1,0.1-0.1c0-0.1,0-0.1,0.1-0.2
	c0-0.1,0-0.1,0-0.1c0-0.1,0-0.2,0-0.2c0-0.1,0-0.2,0-0.3v-0.4c0-0.2,0-0.3,0-0.4c0-0.1,0-0.2,0-0.2c0,0,0-0.1,0-0.1
	c0-0.1,0-0.1-0.1-0.2c0,0,0,0,0,0c0,0,0,0,0,0c0,0-0.1,0-0.1-0.1c-0.1,0-0.2,0-0.3-0.1c-0.1,0-0.2,0-0.3,0c-0.1,0-0.3,0-0.5,0
	c-0.2,0-0.3,0-0.5,0c-0.1,0-0.2,0-0.3,0c-0.1,0-0.2,0-0.3,0.1c-0.1,0-0.1,0-0.1,0.1c0,0,0,0,0,0c0,0,0,0,0,0c0,0.1,0,0.1,0,0.2
	c0,0,0,0.1,0,0.2c0,0.1,0,0.2,0,0.2c0,0.1,0,0.2,0,0.3v0.4c0,0.1,0,0.2,0,0.3c0,0.1,0,0.2,0,0.3c0,0,0,0.1,0,0.2
	c0,0.1,0,0.1,0.1,0.2c0,0,0,0.1,0.1,0.1c0,0,0,0,0,0c0,0,0.1,0,0.1,0.1C17,32,17.1,32.1,17.2,32.1z M17.4,33.3c-0.2,0-0.3,0-0.5-0.1
	c-0.1,0-0.3-0.1-0.4-0.1c-0.1,0-0.2-0.1-0.3-0.2c-0.1-0.1-0.2-0.2-0.3-0.3c-0.1-0.1-0.2-0.2-0.2-0.3c0-0.1-0.1-0.2-0.1-0.3
	c0-0.1,0-0.2-0.1-0.3c0-0.1,0-0.2,0-0.3c0-0.1,0-0.3,0-0.4v-0.4c0-0.1,0-0.2,0-0.4c0-0.1,0-0.2,0-0.3c0-0.1,0-0.2,0.1-0.3
	c0-0.1,0.1-0.2,0.1-0.3c0.1-0.1,0.1-0.3,0.2-0.4c0.1-0.1,0.2-0.2,0.3-0.3c0.1-0.1,0.2-0.1,0.3-0.1c0.1,0,0.2-0.1,0.4-0.1
	c0.1,0,0.3,0,0.5-0.1c0.2,0,0.3,0,0.5,0c0.2,0,0.4,0,0.5,0c0.2,0,0.3,0,0.5,0.1c0.1,0,0.3,0.1,0.4,0.1c0.1,0,0.2,0.1,0.3,0.1
	c0.1,0.1,0.2,0.2,0.3,0.3c0.1,0.1,0.2,0.2,0.2,0.4c0,0.1,0.1,0.2,0.1,0.3c0,0.1,0,0.2,0.1,0.3c0,0.1,0,0.2,0,0.3c0,0.2,0,0.3,0,0.4
	v0.4c0,0.1,0,0.2,0,0.4c0,0.1,0,0.2,0,0.3c0,0.1,0,0.2-0.1,0.3c0,0.1-0.1,0.2-0.1,0.3c-0.1,0.1-0.1,0.2-0.2,0.4
	c-0.1,0.1-0.2,0.2-0.3,0.3c-0.1,0.1-0.2,0.1-0.3,0.2c-0.1,0-0.2,0.1-0.4,0.1c-0.1,0-0.3,0.1-0.5,0.1c-0.2,0-0.4,0-0.5,0
	C17.7,33.3,17.6,33.3,17.4,33.3z M54.5,37.9c-1.3,2.1-3.9,4-7.2,5.5c-5,2.2-11.9,3.6-19.5,3.6c-7.6,0-14.5-1.4-19.5-3.6
	C5,41.9,2.5,40,1.1,37.9v5.4c0,3.1,2.9,6,7.7,8.1c4.9,2.2,11.6,3.5,19.1,3.5c7.5,0,14.2-1.3,19.1-3.5c4.7-2.1,7.7-5,7.7-8.1V37.9z"
	/>
</svg>
