<?xml version="1.0" encoding="utf-8"?>
<!-- Generator: Adobe Illustrator 23.0.3, SVG Export Plug-In . SVG Version: 6.00 Build 0)  -->
<svg version="1.1" id="Capa_1" xmlns="http://www.w3.org/2000/svg" xmlns:xlink="http://www.w3.org/1999/xlink" x="0px" y="0px"
	 viewBox="-49 141 480 512" style="enable-background:new -49 141 480 512;" xml:space="preserve">
<path d="M179,519.5c3,3.5,7.4,5.5,12,5.5s9-2,12-5.5l112-128c4.2-4.7,5.1-11.4,2.5-17.2s-8.3-9.4-14.6-9.4h-64V157
	c0-8.8-7.2-16-16-16h-64c-8.8,0-16,7.2-16,16v208H79c-6.3,0-12,3.7-14.6,9.4c-2.6,5.7-1.6,12.4,2.5,17.2L179,519.5z"/>
<path d="M367,493v96H15v-96h-64v128c0,17.7,14.3,32,32,32h416c17.7,0,32-14.3,32-32V493H367z"/>
</svg>
