<?xml version="1.0" encoding="utf-8"?>
<!-- Generator: Adobe Illustrator 24.0.1, SVG Export Plug-In . SVG Version: 6.00 Build 0)  -->
<svg version="1.1" id="Слой_1" xmlns="http://www.w3.org/2000/svg" xmlns:xlink="http://www.w3.org/1999/xlink" x="0px" y="0px"
	 viewBox="0 0 48 48" style="enable-background:new 0 0 48 48;" xml:space="preserve">
<path style="fill-rule:evenodd;clip-rule:evenodd;fill:#3B5998;" d="M24,48c13.3,0,24-10.7,24-24S37.3,0,24,0S0,10.7,0,24
	S10.7,48,24,48z"/>
<path style="fill:#FFFFFF;" d="M27.2,16H30c0.2,0,0.4-0.2,0.4-0.4v-3.2c0-0.2-0.2-0.4-0.4-0.4h-3.2c-3,0-5.2,2.2-5.2,5.2v3.6H18
	c-0.2,0-0.4,0.2-0.4,0.4v3.2c0,0.2,0.2,0.4,0.4,0.4h3.6v10.8c0,0.2,0.2,0.4,0.4,0.4h3.2c0.2,0,0.4-0.2,0.4-0.4V24.8h3.6
	c0.2,0,0.3-0.2,0.4-0.3l0.8-3.2c0-0.1,0-0.2-0.1-0.3c-0.1-0.1-0.2-0.2-0.3-0.2h-4.4v-3.2C25.6,16.7,26.3,16,27.2,16z"/>
</svg>
