<?xml version="1.0" encoding="utf-8"?>
<!-- Generator: Adobe Illustrator 24.0.1, SVG Export Plug-In . SVG Version: 6.00 Build 0)  -->
<svg version="1.1" id="Слой_1" xmlns="http://www.w3.org/2000/svg" xmlns:xlink="http://www.w3.org/1999/xlink" x="0px" y="0px"
	 viewBox="0 0 80 80" style="enable-background:new 0 0 80 80;" xml:space="preserve">
<g>
	<defs>
		<rect id="SVGID_1_" width="80" height="80"/>
	</defs>
	<clipPath id="SVGID_2_">
		<use xlink:href="#SVGID_1_"  style="overflow:visible;"/>
	</clipPath>
	<g style="clip-path:url(#SVGID_2_);">
		<g>
			<path style="fill:#5683FF;" d="M78.8,71.4h-1v-43c0-0.7-0.5-1.2-1.2-1.2h-8.6c-0.7,0-1.2,0.5-1.2,1.2v43h-3.3V38.5
				c0-0.7-0.5-1.2-1.2-1.2h-8.6c-0.7,0-1.2,0.5-1.2,1.2v32.9h-3.3V50c0-0.7-0.5-1.2-1.2-1.2h-8.6c-0.7,0-1.2,0.5-1.2,1.2v21.4H1.2
				c-0.7,0-1.2,0.5-1.2,1.2c0,0.7,0.5,1.2,1.2,1.2h77.6c0.7,0,1.2-0.5,1.2-1.2C80,71.9,79.5,71.4,78.8,71.4L78.8,71.4z M69.2,29.6
				h6.3v41.8h-6.3V29.6z M55,39.7h6.3v31.7H55V39.7z M40.7,51.1H47v20.2h-6.3V51.1z"/>
			<path style="fill:#F8F8FA;" d="M78.8,74H1.2c-0.8,0-1.4-0.6-1.4-1.4s0.6-1.4,1.4-1.4h36.9V50c0-0.8,0.6-1.4,1.4-1.4h8.6
				c0.8,0,1.4,0.6,1.4,1.4v21.2h2.8V38.5c0-0.8,0.6-1.4,1.4-1.4h8.6c0.8,0,1.4,0.6,1.4,1.4v32.6h2.8V28.4c0-0.8,0.6-1.4,1.4-1.4h8.6
				c0.8,0,1.4,0.6,1.4,1.4v42.7h0.7c0,0,0,0,0,0c0.4,0,0.7,0.1,1,0.4c0.3,0.3,0.4,0.6,0.4,1C80.2,73.3,79.6,74,78.8,74z M1.2,71.6
				c-0.5,0-0.9,0.4-0.9,0.9s0.4,0.9,0.9,0.9h77.6c0.5,0,0.9-0.4,0.9-0.9s-0.4-0.9-0.9-0.9v0h-1.2V28.4c0-0.5-0.4-0.9-0.9-0.9h-8.6
				c-0.5,0-0.9,0.4-0.9,0.9v43.2h-3.8V38.5c0-0.5-0.4-0.9-0.9-0.9h-8.6c-0.5,0-0.9,0.4-0.9,0.9v33.1h-3.8V50c0-0.5-0.4-0.9-0.9-0.9
				h-8.6c-0.5,0-0.9,0.4-0.9,0.9v21.7H1.2z M75.7,71.6H69V29.3h6.8V71.6z M69.5,71.1h5.8V29.8h-5.8V71.1z M61.5,71.6h-6.8V39.4h6.8
				V71.6z M55.2,71.1H61V39.9h-5.8V71.1z M47.2,71.6h-6.8V50.9h6.8V71.6z M41,71.1h5.8V51.4H41V71.1z"/>
		</g>
		<g>
			<path style="fill:#5683FF;" d="M36.3,35.5c0,0,0.1,0,0.1,0c0.3,0,6.8-0.7,14.8-4.5c4.6-2.1,8.9-4.9,12.7-8.3
				c3.9-3.4,7.1-7.5,9.7-12l1.9,9.5c0.1,0.6,0.6,0.9,1.2,1c0.1,0,0.2,0,0.2,0c0.6-0.1,1.1-0.8,0.9-1.4L75.3,7.4
				c-0.1-0.4-0.4-0.7-0.8-0.8c-0.4-0.2-0.8-0.2-1.1,0L61.5,9c-0.6,0.1-1.1,0.8-0.9,1.4c0.1,0.6,0.8,1.1,1.4,0.9l9.8-2
				c-2.4,4.4-5.6,8.4-9.4,11.7c-3.6,3.2-7.7,5.9-12.1,7.9c-7.7,3.6-14.1,4.3-14.2,4.3c-0.6,0.1-1.1,0.6-1.1,1.2
				C35.1,35,35.6,35.5,36.3,35.5z"/>
			<path style="fill:#F8F8FA;" d="M36.3,35.8C36.3,35.8,36.3,35.8,36.3,35.8c-0.8,0-1.4-0.6-1.4-1.4c0-0.8,0.5-1.4,1.3-1.5
				c0.1,0,6.4-0.7,14.1-4.3c4.4-2,8.4-4.6,12-7.8c3.6-3.2,6.6-7,9-11.2L62,11.6c-0.8,0.2-1.5-0.3-1.7-1.1c-0.1-0.4,0-0.8,0.2-1.1
				c0.2-0.3,0.5-0.5,0.9-0.6l12-2.5c0.4-0.2,0.9-0.2,1.3,0c0.4,0.2,0.7,0.5,0.9,1l2.5,12.5c0.2,0.8-0.4,1.5-1.1,1.7
				c-0.7,0.2-1.5-0.4-1.7-1.1l-1.8-8.8c-2.5,4.3-5.7,8.2-9.4,11.5c-3.8,3.4-8.1,6.2-12.8,8.3c-8.1,3.7-14.6,4.4-14.9,4.5
				C36.4,35.8,36.3,35.8,36.3,35.8z M36.3,35.3L36.3,35.3C36.3,35.3,36.3,35.3,36.3,35.3c0.4,0,6.8-0.7,14.9-4.4
				c4.6-2.1,8.9-4.9,12.6-8.2c3.9-3.4,7.1-7.4,9.6-11.9l0.3-0.6l2,10.1c0.1,0.5,0.6,0.8,1.1,0.7c0.5-0.1,0.8-0.6,0.7-1.1L75.1,7.4
				c-0.1-0.3-0.3-0.5-0.6-0.6c-0.3-0.1-0.6-0.1-0.9,0l-12,2.5c-0.2,0-0.5,0.2-0.6,0.4c-0.1,0.2-0.2,0.5-0.1,0.7
				c0.1,0.5,0.6,0.8,1.1,0.7l10.3-2.1L72,9.4c-2.5,4.4-5.6,8.4-9.4,11.8c-3.6,3.2-7.7,5.9-12.1,7.9c-7.7,3.6-14.2,4.3-14.2,4.3
				c-0.5,0.1-0.9,0.5-0.8,1C35.4,34.9,35.8,35.3,36.3,35.3C36.3,35.3,36.3,35.3,36.3,35.3z"/>
		</g>
		<g>
			<path style="fill:#5683FF;" d="M18.1,68.7c10,0,18.1-8.1,18.1-18c0-9.9-8.1-18-18.1-18c-10,0-18.1,8.1-18.1,18
				C0,60.6,8.1,68.7,18.1,68.7z M18.1,35c8.7,0,15.7,7,15.7,15.7c0,8.6-7,15.7-15.7,15.7c-8.7,0-15.7-7-15.7-15.7
				C2.4,42,9.4,35,18.1,35z"/>
			<path style="fill:#F8F8FA;" d="M18.1,68.9C8,68.9-0.2,60.7-0.2,50.6c0-10.1,8.2-18.3,18.3-18.3s18.3,8.2,18.3,18.3
				C36.4,60.7,28.2,68.9,18.1,68.9z M18.1,32.9c-9.8,0-17.8,8-17.8,17.8c0,9.8,8,17.8,17.8,17.8s17.8-8,17.8-17.8
				C35.9,40.9,27.9,32.9,18.1,32.9z M18.1,66.6c-8.8,0-15.9-7.1-15.9-15.9c0-8.8,7.2-15.9,15.9-15.9S34,41.9,34,50.6
				C34,59.4,26.9,66.6,18.1,66.6z M18.1,35.2c-8.5,0-15.4,6.9-15.4,15.4s6.9,15.4,15.4,15.4s15.4-6.9,15.4-15.4S26.6,35.2,18.1,35.2
				z"/>
		</g>
		<g>
			<path style="fill:#5683FF;" d="M18.1,59C18.1,59,18.1,59,18.1,59C18,59,18,59,18.1,59c-2.1,0-3.7-1.7-3.7-3.6
				c0-0.7-0.5-1.2-1.2-1.2c-0.7,0-1.2,0.5-1.2,1.2c0,2.9,2,5.3,4.8,5.9v1.8c0,0.7,0.5,1.2,1.2,1.2s1.2-0.5,1.2-1.2v-1.8
				c3-0.6,5.1-3.4,4.8-6.5c-0.3-3.1-2.9-5.4-6-5.4c-2,0-3.6-1.6-3.6-3.6c0-2,1.6-3.6,3.6-3.6c2,0,3.6,1.6,3.6,3.6
				c0,0.7,0.5,1.2,1.2,1.2c0.7,0,1.2-0.5,1.2-1.2c0-2.9-2-5.3-4.8-5.9v-1.6c0-0.7-0.5-1.2-1.2-1.2s-1.2,0.5-1.2,1.2v1.6
				c-3,0.6-5.1,3.4-4.8,6.5c0.3,3.1,2.9,5.4,6,5.4c2,0,3.6,1.6,3.6,3.6C21.7,57.3,20.1,59,18.1,59L18.1,59z"/>
			<path style="fill:#F8F8FA;" d="M18.1,64.5c-0.8,0-1.4-0.6-1.4-1.4v-1.6c-2.8-0.7-4.8-3.2-4.8-6.1c0-0.8,0.6-1.4,1.4-1.4
				c0.8,0,1.4,0.6,1.4,1.4c0,1.8,1.5,3.4,3.4,3.4l0.1,0c1.9,0,3.3-1.6,3.3-3.4c0-1.9-1.5-3.4-3.4-3.4c-3.2,0-5.9-2.4-6.2-5.6
				c-0.3-3.1,1.7-6,4.8-6.7v-1.4c0-0.8,0.6-1.4,1.4-1.4c0.8,0,1.4,0.6,1.4,1.4v1.4c2.8,0.7,4.8,3.2,4.8,6.1c0,0.8-0.6,1.4-1.4,1.4
				c-0.8,0-1.4-0.6-1.4-1.4c0-1.9-1.5-3.4-3.4-3.4c-0.9,0-1.8,0.4-2.4,1c-0.6,0.6-1,1.5-1,2.4c0,1.9,1.5,3.4,3.4,3.4
				c3.2,0,5.9,2.4,6.2,5.6c0.3,3.1-1.7,6-4.8,6.7v1.6C19.5,63.9,18.8,64.5,18.1,64.5z M13.2,54.4c-0.5,0-0.9,0.4-0.9,0.9
				c0,2.7,2,5.1,4.6,5.6l0.2,0v2c0,0.5,0.4,0.9,0.9,0.9s0.9-0.4,0.9-0.9v-2l0.2,0c2.9-0.6,4.9-3.3,4.6-6.2c-0.3-3-2.8-5.2-5.7-5.2
				c-2.1,0-3.9-1.7-3.9-3.9c0-1,0.4-2,1.1-2.8c0.7-0.7,1.7-1.1,2.8-1.1c2.1,0,3.9,1.7,3.9,3.9c0,0.5,0.4,0.9,0.9,0.9
				s0.9-0.4,0.9-0.9c0-2.7-2-5.1-4.6-5.6L19,40v-1.8c0-0.5-0.4-0.9-0.9-0.9s-0.9,0.4-0.9,0.9V40l-0.2,0c-2.9,0.6-4.9,3.3-4.6,6.2
				c0.3,3,2.8,5.2,5.7,5.2c2.1,0,3.9,1.7,3.9,3.9c0,2.1-1.7,3.9-3.8,3.9l-0.1,0l0,0c-2.1-0.1-3.8-1.8-3.8-3.9
				C14.2,54.9,13.7,54.4,13.2,54.4z"/>
		</g>
	</g>
</g>
</svg>
