<?xml version="1.0" encoding="utf-8"?>
<!-- Generator: Adobe Illustrator 23.0.3, SVG Export Plug-In . SVG Version: 6.00 Build 0)  -->
<svg version="1.1" id="_x2014_ÎÓÈ_x5F_1" xmlns="http://www.w3.org/2000/svg" xmlns:xlink="http://www.w3.org/1999/xlink"
	 x="0px" y="0px" viewBox="0 0 512.1 375" style="enable-background:new 0 0 512.1 375;" xml:space="preserve">
<g>
	<path d="M1.1,352.5l25.2-105l25.2-105c1.1-4.5,2.9-8.9,5.4-12.9c5.9-9.8,15.3-17.6,25.8-21.7
		c1.2-0.5,2.5-0.9,3.7-1.3c3.8-1.1,7.7-1.7,11.6-1.7h0h319.9H460V90c0-20.7-16.8-37.5-37.5-37.5H218.8L166.2,0H37.5
		C16.8,0,0,16.8,0,37.5v15v300c0,1.5,0.1,3,0.3,4.5c0.1-1,0.3-2.1,0.5-3.2C0.9,353.4,1,352.9,1.1,352.5z"/>
	<path d="M509.3,124.9c-2.5-3.2-6.6-4.9-11.8-4.9H98c-13.7,0-28.6,12.2-31.9,26L14.8,360.9
		c-0.1,3.9,1,7.3,3.2,9.8c2.5,2.9,6.5,4.4,11.4,4.4H437c10.2,0,19-6.9,21.6-16.4L511.4,139C512.8,133.3,512,128.3,509.3,124.9z"/>
</g>
</svg>
