<?xml version="1.0" encoding="utf-8"?>
<!-- Generator: Adobe Illustrator 24.0.1, SVG Export Plug-In . SVG Version: 6.00 Build 0)  -->
<svg version="1.1" id="Слой_1" xmlns="http://www.w3.org/2000/svg" xmlns:xlink="http://www.w3.org/1999/xlink" x="0px" y="0px"
	 viewBox="0 0 96 92" style="enable-background:new 0 0 96 92;" xml:space="preserve">
<path style="fill:#5683FF;" d="M22,92H10C4.5,92,0,87.5,0,82V50c0-5.5,4.5-10,10-10h20c1.1,0,2,0.9,2,2v0.8l0.5-0.2l11.5-25V4
	c0-0.6,0.3-1.2,0.8-1.6C44.9,2.3,47.8,0,52,0c4.6,0,12,7.3,12,16c0,5.5-2,12.3-3.2,16h24.7c5.4,0,10,4,10.4,9.1
	c0.3,2.9-0.7,5.6-2.6,7.6C95,50.4,96,52.6,96,55c0,3.5-2,6.5-4.9,8c0.6,1.2,0.9,2.6,0.9,4c0,3.5-2,6.5-4.9,8c0.9,1.8,1.2,3.9,0.7,6
	c-0.9,4-4.7,7-9.1,7H42c-2.8,0-7.3-0.9-10.6-2.6C30,89.2,26.3,92,22,92z M10,44c-3.3,0-6,2.7-6,6v32c0,3.3,2.7,6,6,6h12
	c3.3,0,6-2.7,6-6c0-0.8,0.5-1.5,1.2-1.8c0.7-0.3,1.6-0.1,2.2,0.4C33.3,82.5,38.8,84,42,84h36.7c2.5,0,4.7-1.6,5.2-3.8
	c0.4-1.8-0.1-3.5-1.4-4.8c-0.6-0.5-0.8-1.3-0.5-2.1c0.2-0.7,0.9-1.3,1.7-1.4c2.5-0.3,4.4-2.4,4.4-4.9c0-1.4-0.6-2.7-1.6-3.6
	c-0.6-0.5-0.8-1.3-0.5-2.1c0.2-0.7,0.9-1.3,1.7-1.4c2.5-0.3,4.4-2.4,4.4-4.9c0-1.9-1-3.6-2.7-4.4c-0.6-0.3-1.1-1-1.1-1.7
	s0.3-1.4,0.9-1.8c2-1.2,3.1-3.4,2.8-5.7c-0.3-3-3.1-5.4-6.4-5.4H58c-0.7,0-1.3-0.3-1.6-0.9c-0.4-0.5-0.5-1.2-0.2-1.8
	C56.2,33.2,60,23,60,16c0-6.6-5.8-12-8-12c-1.7,0-3.2,0.6-4,1.1V18c0,0.3-0.1,0.6-0.2,0.8l-12,26c-0.2,0.4-0.5,0.7-0.9,0.9l-4,2
	c-0.6,0.3-1.4,0.3-1.9-0.1c-0.6-0.4-1-1-1-1.7v-2H10z"/>
</svg>
