<?xml version="1.0" encoding="utf-8"?>
<!-- Generator: Adobe Illustrator 24.0.1, SVG Export Plug-In . SVG Version: 6.00 Build 0)  -->
<svg version="1.1" id="Слой_1" xmlns="http://www.w3.org/2000/svg" xmlns:xlink="http://www.w3.org/1999/xlink" x="0px" y="0px"
	 viewBox="0 0 80 80" style="enable-background:new 0 0 80 80;" xml:space="preserve">
<path d="M35,41.2c0.4,0.3,0.4,0.8,0.2,1.1c-0.3,0.4-0.8,0.4-1.1,0.2c-1.1-0.8-2.1-1.9-2.7-3.2
	c-0.6-1.2-1-2.6-1-4.1c0-2.5,1-4.8,2.7-6.4c1.6-1.6,3.9-2.7,6.4-2.7c0.6,0,1.2,0.1,1.8,0.2c2.1,0.4,3.9,1.6,5.2,3.2
	c1.3,1.6,2,3.6,2,5.7h0c0,0.6-0.1,1.2-0.2,1.8c-0.1,0.4-0.5,0.7-0.9,0.6s-0.7-0.5-0.6-0.9c0.1-0.5,0.1-1,0.1-1.5h0
	c0-1.8-0.6-3.4-1.7-4.7c-1.1-1.3-2.6-2.2-4.3-2.6c-0.5-0.1-1-0.1-1.5-0.1c-2.1,0-3.9,0.8-5.3,2.2c-1.3,1.3-2.2,3.2-2.2,5.3
	c0,1.2,0.3,2.3,0.8,3.3C33.4,39.6,34.1,40.5,35,41.2z M29.5,42.6c0.3-0.3,0.8-0.2,1.1,0.1c0.3,0.3,0.2,0.8-0.1,1.1L13.8,57.5
	c-0.3,0.3-0.8,0.2-1.1-0.1c-0.3-0.3-0.2-0.8,0.1-1.1L29.5,42.6z M30.7,26.7c0.3,0.3,0.4,0.8,0.1,1.1c-0.3,0.3-0.8,0.4-1.1,0.1
	L12.5,13.2c-0.3-0.3-0.4-0.8-0.1-1.1c0.3-0.3,0.8-0.4,1.1-0.1L30.7,26.7z M28.7,32.9c0.4,0.1,0.7,0.5,0.7,0.9s-0.5,0.7-0.9,0.7
	l-7-1.1c-0.4-0.1-0.7-0.5-0.7-0.9s0.5-0.7,0.9-0.7L28.7,32.9z M42.9,24.3c-0.1,0.4-0.5,0.7-1,0.6c-0.4-0.1-0.7-0.5-0.6-1l1.8-8.1
	c0.1-0.4,0.5-0.7,1-0.6c0.4,0.1,0.7,0.5,0.6,1L42.9,24.3z M49.3,28.2c-0.3,0.3-0.8,0.2-1.1-0.1c-0.3-0.3-0.2-0.8,0.1-1.1l18.3-15.6
	c0.3-0.3,0.8-0.2,1.1,0.1c0.3,0.3,0.2,0.8-0.1,1.1L49.3,28.2z M6.2,57c1.7,0,3.3,0.7,4.4,1.8c1.1,1.1,1.8,2.7,1.8,4.4
	c0,1.7-0.7,3.3-1.8,4.4c-1.1,1.1-2.7,1.8-4.4,1.8c-1.7,0-3.3-0.7-4.4-1.8C0.7,66.4,0,64.9,0,63.2c0-1.7,0.7-3.3,1.8-4.4
	C2.9,57.7,4.5,57,6.2,57z M9.4,59.9c-0.8-0.8-2-1.3-3.2-1.3c-1.3,0-2.4,0.5-3.2,1.3c-0.8,0.8-1.3,2-1.3,3.2c0,1.3,0.5,2.4,1.3,3.2
	c0.8,0.8,2,1.3,3.2,1.3c1.3,0,2.4-0.5,3.2-1.3c0.8-0.8,1.3-2,1.3-3.2C10.8,61.9,10.3,60.7,9.4,59.9z M14.3,26.6
	c1.3,0,2.5,0.5,3.4,1.4c0.9,0.9,1.4,2.1,1.4,3.4s-0.5,2.5-1.4,3.4c-0.9,0.9-2.1,1.4-3.4,1.4c-1.3,0-2.5-0.5-3.4-1.4
	c-0.9-0.9-1.4-2.1-1.4-3.4s0.5-2.5,1.4-3.4C11.8,27.1,13,26.6,14.3,26.6z M16.6,29.1c-0.6-0.6-1.4-0.9-2.2-0.9
	c-0.9,0-1.7,0.4-2.2,0.9c-0.6,0.6-0.9,1.4-0.9,2.2c0,0.9,0.4,1.7,0.9,2.2c0.6,0.6,1.4,0.9,2.2,0.9c0.9,0,1.7-0.4,2.2-0.9
	c0.6-0.6,0.9-1.4,0.9-2.2C17.5,30.5,17.1,29.7,16.6,29.1z M6.2,0c1.7,0,3.3,0.7,4.4,1.8c1.1,1.1,1.8,2.7,1.8,4.4
	c0,1.7-0.7,3.3-1.8,4.4c-1.1,1.1-2.7,1.8-4.4,1.8c-1.7,0-3.3-0.7-4.4-1.8C0.7,9.5,0,7.9,0,6.2c0-1.7,0.7-3.3,1.8-4.4
	C3,0.7,4.5,0,6.2,0z M9.5,3c-0.8-0.8-2-1.3-3.2-1.3S3.8,2.1,3,3c-0.8,0.8-1.3,2-1.3,3.2c0,1.3,0.5,2.4,1.3,3.2
	c0.8,0.8,2,1.3,3.2,1.3s2.4-0.5,3.2-1.3c0.8-0.8,1.3-2,1.3-3.2C10.8,4.9,10.3,3.8,9.5,3z M45.5,3c1.5,0,2.8,0.6,3.8,1.6
	c1,1,1.6,2.3,1.6,3.8c0,1.5-0.6,2.8-1.6,3.8c-1,1-2.3,1.6-3.8,1.6s-2.8-0.6-3.8-1.6c-1-1-1.6-2.3-1.6-3.8s0.6-2.8,1.6-3.8
	C42.6,3.6,44,3,45.5,3z M48.1,5.7c-0.7-0.7-1.6-1.1-2.7-1.1s-2,0.4-2.7,1.1c-0.7,0.7-1.1,1.6-1.1,2.7c0,1.1,0.4,2,1.1,2.7
	c0.7,0.7,1.6,1.1,2.7,1.1s2-0.4,2.7-1.1s1.1-1.6,1.1-2.7C49.3,7.3,48.8,6.4,48.1,5.7z M73.8,0c1.7,0,3.3,0.7,4.4,1.8
	C79.3,2.9,80,4.5,80,6.2c0,1.7-0.7,3.3-1.8,4.4c-1.1,1.1-2.7,1.8-4.4,1.8s-3.3-0.7-4.4-1.8c-1.1-1.1-1.8-2.7-1.8-4.4
	c0-1.7,0.7-3.3,1.8-4.4S72.1,0,73.8,0z M77.1,2.9c-0.8-0.8-2-1.3-3.2-1.3s-2.4,0.5-3.2,1.3s-1.3,2-1.3,3.2c0,1.3,0.5,2.4,1.3,3.2
	c0.8,0.8,2,1.3,3.2,1.3s2.4-0.5,3.2-1.3c0.8-0.8,1.3-2,1.3-3.2C78.4,4.9,77.9,3.8,77.1,2.9z M45.5,60.9c0,0,0-0.1,0-0.1L36,38.4l0,0
	c-0.9-2.2-0.5-4.1,0.5-5.3c0.4-0.5,0.9-0.9,1.5-1.2c0.6-0.3,1.2-0.4,1.9-0.3c1.6,0.1,3.2,1.1,4.2,3.3l0,0l3.1,7
	c0.2-0.2,0.3-0.3,0.5-0.5c0.6-0.4,1.3-0.7,2-0.9c0.8-0.2,1.6-0.2,2.4,0c0.9,0.2,1.7,0.6,2.4,1.3c0.4-0.5,0.9-1,1.4-1.3
	c0.5-0.3,1-0.5,1.6-0.6c0.6-0.1,1.2-0.1,1.7,0c1.2,0.2,2.3,0.8,3.1,2c0.2-0.2,0.3-0.4,0.5-0.6c0.6-0.5,1.3-1,2.1-1.2
	c0.8-0.2,1.7-0.2,2.5,0.1c0.9,0.3,1.7,1,2.3,2.1l0,0l3.4,6.9c0.7,1.4,2.2,5.3,3.3,9.5c0.8,2.9,1.4,5.9,1.6,8.5
	c0,0.4-0.3,0.8-0.7,0.9c-0.4,0-0.8-0.3-0.9-0.7c-0.2-2.5-0.8-5.4-1.6-8.2C74,55,72.5,51.3,71.9,50l-3.4-6.8
	c-0.4-0.7-0.9-1.2-1.5-1.4c-0.5-0.2-1-0.2-1.5,0c-0.5,0.1-1,0.4-1.4,0.8c-0.4,0.4-0.7,0.8-0.8,1.2l2.4,5.4c0.2,0.4,0,0.9-0.4,1.1
	s-0.9,0-1.1-0.4l-2.4-5.6c0,0,0-0.1,0-0.1l-0.4-1c-0.6-0.9-1.4-1.4-2.2-1.6c-0.4-0.1-0.8-0.1-1.2,0c-0.4,0.1-0.7,0.2-1.1,0.4
	c-0.6,0.3-1,0.8-1.2,1.4c0.1,0.1,0.1,0.3,0.2,0.4l0,0l3.6,8.5c0.2,0.4,0,0.9-0.4,1c-0.4,0.2-0.9,0-1-0.4l-3.6-8.5l0,0
	c-0.5-1.3-1.5-2-2.5-2.2c-0.6-0.1-1.2-0.1-1.7,0c-0.5,0.1-1,0.3-1.4,0.6c-0.4,0.3-0.6,0.6-0.7,1l5.1,11.4c0.2,0.4,0,0.9-0.4,1.1
	c-0.4,0.2-0.9,0-1.1-0.4l-5.1-11.5c0,0,0-0.1-0.1-0.1l-3.8-8.6l0,0c-0.7-1.6-1.8-2.3-2.9-2.4c-0.4,0-0.8,0-1.2,0.2
	c-0.4,0.2-0.7,0.4-0.9,0.7c-0.7,0.8-0.9,2.1-0.3,3.7l0,0l9.7,22.8l2.5,5.9c0.2,0.4,0,0.9-0.4,1.1c-0.4,0.2-0.9,0-1.1-0.4l-1.3-2.9
	l-6.3-5l0,0c-1.4-1-2.7-1.1-3.5-0.6c-0.3,0.2-0.6,0.5-0.9,0.8c-0.2,0.3-0.4,0.7-0.5,1.1c-0.2,1,0.2,2.2,1.4,3l0,0
	c0.7,0.5,2.1,1.7,4,3.3c1.9,1.7,4.2,3.9,6.7,6.5c1.2,1.3,2.5,2.3,4,3.2c1.4,0.8,2.9,1.5,4.5,1.8c0.4,0.1,0.7,0.5,0.6,1
	c-0.1,0.4-0.5,0.7-1,0.6c-1.7-0.4-3.4-1.1-5-2c-1.6-0.9-3-2.1-4.3-3.5c-2.4-2.6-4.7-4.8-6.6-6.4c-1.8-1.6-3.2-2.7-3.8-3.2l0,0
	c-1.8-1.3-2.4-3.1-2.1-4.6c0.1-0.6,0.4-1.2,0.7-1.7c0.4-0.5,0.8-0.9,1.4-1.3c1.4-0.7,3.3-0.7,5.2,0.7l0,0l4.1,3.2L45.5,60.9z"/>
</svg>
