<?xml version="1.0" encoding="utf-8"?>
<!-- Generator: Adobe Illustrator 24.0.1, SVG Export Plug-In . SVG Version: 6.00 Build 0)  -->
<svg version="1.1" id="Слой_1" xmlns="http://www.w3.org/2000/svg" xmlns:xlink="http://www.w3.org/1999/xlink" x="0px" y="0px"
	 viewBox="0 0 64 64" style="enable-background:new 0 0 64 64;" xml:space="preserve">
<g>
	<path style="fill-rule:evenodd;clip-rule:evenodd;" d="M64,32C64,14.4,49.6,0,32,0c-5.5,0-10.9,1.4-15.7,4.1h-3.9V0
		H6.2v13.1C2.1,18.6,0,25.1,0,32c0,17.6,14.4,32,32,32c3.9,0,7.8-0.7,11.4-2.1c2.1,1.3,4.5,2.1,7.2,2.1c3.2,0,6.3-1.2,8.8-3.3
		L58,59.2c-2.1,1.8-4.7,2.8-7.4,2.8c-6.3,0-11.4-5.1-11.4-11.4c0-6.3,5.1-11.4,11.4-11.4c6.3,0,11.4,5.1,11.4,11.4
		c0,2.6-0.9,5.1-2.5,7.1L61,59c1.9-2.4,3-5.4,3-8.4c0-2.6-0.8-5.1-2.1-7.2C63.3,39.8,64,35.9,64,32z M16.5,10.3h2.1v2.1v12.4h-2.1
		V10.3z M14.5,6.2h-2.1v18.6h2.1V8.3V6.2z M8.3,2.1h2.1v2.1v20.6H8.3V2.1z M2.1,33C2.6,48.7,15.3,61.4,31,61.9V33H2.1z M31,31H2.1
		c0.2-5,1.6-9.8,4.1-14.1v10h4.1h2.1h2.1h2.1h2.1h2.1h2.1h2.1h4.1V16.5h-4.1v-4.1h-4.1V8.3h-4.1V6.4c4.4-2.6,9.3-4.1,14.5-4.3V31z
		 M20.6,14.5v10.3h2.1v-8.3v-2.1H20.6z M24.8,24.8v-6.2h2.1v6.2H24.8z M53.1,31h8.8c-0.1-2.6-0.5-5.2-1.2-7.6L53.1,31z M56.7,15.1
		L45.2,26.7l1.5,1.5l11.2-11.2c0.8,1.4,1.5,2.8,2.1,4.3L50.2,31h-6.4l1.3-1.3l-1.5-1.5L40.9,31h-6.4l19.4-19.4
		C54.9,12.7,55.9,13.9,56.7,15.1z M40.6,3.3c-2.4-0.7-5-1.2-7.6-1.2v8.8L40.6,3.3z M33,23.1l12.5-12.5l-1.5-1.5L33,20.2v-6.4
		l9.8-9.8c1.5,0.6,2.9,1.3,4.3,2.1l-1.7,1.7l1.5,1.5l2-2c1.3,0.9,2.4,1.8,3.5,2.8L33,29.5V23.1z M37.2,50.6c0-7.4,6-13.4,13.4-13.4
		c3.9,0,7.4,1.7,9.8,4.3c0.9-2.7,1.4-5.5,1.5-8.4H33v28.9c2.9-0.1,5.7-0.6,8.4-1.5C38.8,58,37.2,54.5,37.2,50.6z"/>
	
		<rect x="10.9" y="43.4" transform="matrix(0.7071 -0.7071 0.7071 0.7071 -25.6376 26.8708)" style="fill:#5683FF;" width="17.5" height="1.9"/>
	<path style="fill-rule:evenodd;clip-rule:evenodd;" d="M20.6,48.4c0-1.7,1.4-3.1,3.1-3.1c1.7,0,3.1,1.4,3.1,3.1
		c0,1.7-1.4,3.1-3.1,3.1C22,51.5,20.6,50.1,20.6,48.4z M22.6,48.4c0,0.6,0.5,1,1,1c0.6,0,1-0.5,1-1c0-0.6-0.5-1-1-1
		C23.1,47.4,22.6,47.9,22.6,48.4z"/>
	<path style="fill-rule:evenodd;clip-rule:evenodd;" d="M12.5,40.3c0-1.7,1.4-3.1,3.1-3.1c1.7,0,3.1,1.4,3.1,3.1
		c0,1.7-1.4,3.1-3.1,3.1C13.9,43.4,12.5,42,12.5,40.3z M14.6,40.3c0,0.6,0.5,1,1,1c0.6,0,1-0.5,1-1c0-0.6-0.5-1-1-1
		C15,39.3,14.6,39.8,14.6,40.3z"/>
	<path d="M50.6,49.5c-1.2,0-2.1-0.9-2.1-2.1c0-1.1,0.9-2.1,2.1-2.1c1.2,0,2.1,0.9,2.1,2.1h2.1
		c0-1.9-1.3-3.5-3.1-4v-2.2h-2.1v2.2c-1.8,0.5-3.1,2.1-3.1,4c0,2.3,1.9,4.1,4.2,4.1c1.2,0,2.1,0.9,2.1,2.1c0,1.1-0.9,2.1-2.1,2.1
		c-1.2,0-2.1-0.9-2.1-2.1h-2.1c0,1.9,1.3,3.5,3.1,4v2.2h2.1v-2.2c1.8-0.5,3.1-2.1,3.1-4C54.8,51.3,52.9,49.5,50.6,49.5z"/>
	<rect x="57.9" y="49.5" width="1.9" height="1.9"/>
	<rect x="41.2" y="49.5" width="1.9" height="1.9"/>
</g>
</svg>
