<?xml version="1.0" encoding="utf-8"?>
<!-- Generator: Adobe Illustrator 24.0.1, SVG Export Plug-In . SVG Version: 6.00 Build 0)  -->
<svg version="1.1" id="Слой_1" xmlns="http://www.w3.org/2000/svg" xmlns:xlink="http://www.w3.org/1999/xlink" x="0px" y="0px"
	 viewBox="0 0 56.3 56.3" style="enable-background:new 0 0 56.3 56.3;" xml:space="preserve">
<g>
	<path style="fill-rule:evenodd;clip-rule:evenodd;fill:#5683FF;" d="M56,4c-0.1-0.2-0.3-0.3-0.6-0.3L43,2.6l-0.2-1.8
		c-0.1-0.5-0.5-0.8-0.9-0.7L30.3,1.6c0,0-0.1,0-0.1,0L14.3,0.2c-0.5,0-0.9,0.3-0.9,0.8l-0.2,2.7L0.9,5.2C0.4,5.3,0.1,5.7,0.2,6.1
		L6.4,55c0,0.1,0,0.2,0,0.2c0,0.1,0,0.3,0.1,0.4c0.1,0.3,0.4,0.5,0.8,0.5h41.2c0.5,0,0.8-0.4,0.8-0.8v-1.1l1.6,0.1
		c0.5,0,0.9-0.3,0.9-0.8l4.3-49.1C56.2,4.3,56.1,4.1,56,4z M6.4,41.8L1.9,6.7l4.5-0.6V41.8z M22.3,2.6L15,1.9l-0.1,1.5L22.3,2.6z
		 M41.2,1.9l0.4,3.4H14L41.2,1.9z M49.3,52.6l0.9,0.1l4.1-47.4L43.2,4.3l0.1,0.9h5.2c0.5,0,0.8,0.4,0.8,0.8v18.6
		c0,0.5-0.4,0.8-0.8,0.8c-0.5,0-0.8-0.4-0.8-0.8V6.9H8.1v47.6h39.6v-26c0-0.5,0.4-0.8,0.8-0.8c0.5,0,0.8,0.4,0.8,0.8V52.6z"/>
</g>
<g>
	<path style="fill:#FFFFFF;" d="M55.4,3.7l0,0.1l0,0L55.4,3.7z M56,4l-0.1,0.1v0L56,4z M43,2.6l-0.1,0l0,0.1l0.1,0L43,2.6z
		 M42.7,0.9l0.1,0v0L42.7,0.9z M41.8,0.2l0,0.1l0,0L41.8,0.2z M30.3,1.6l0,0.1l0,0l0,0L30.3,1.6z M30.1,1.6l0,0.1l0,0L30.1,1.6z
		 M14.3,0.2l0,0.1l0,0L14.3,0.2z M13.4,1l0.1,0v0L13.4,1z M13.2,3.7l0,0.1l0.1,0l0-0.1L13.2,3.7z M0.9,5.2l0-0.1h0L0.9,5.2z
		 M0.2,6.1L0,6.1l0,0L0.2,6.1z M6.4,55l0.1,0l0,0L6.4,55z M6.4,55.2l0.1,0L6.4,55.2z M6.5,55.6l-0.1,0.1h0L6.5,55.6z M49.3,54.3
		l0-0.1l-0.2,0v0.2H49.3z M51,54.4l0-0.1h0L51,54.4z M51.9,53.6l-0.1,0l0,0L51.9,53.6z M56.1,4.6l-0.1,0v0L56.1,4.6z M1.9,6.7l0-0.1
		l-0.1,0l0,0.1L1.9,6.7z M6.4,41.8l-0.1,0l0.3,0H6.4z M6.4,6.2h0.2V6L6.4,6L6.4,6.2z M15,1.9l0-0.1l-0.1,0l0,0.1L15,1.9z M22.3,2.6
		l0,0.1l0-0.3L22.3,2.6z M14.9,3.5l-0.1,0l0,0.2l0.2,0L14.9,3.5z M41.6,5.2v0.2h0.2l0-0.2L41.6,5.2z M41.2,1.9l0.1,0l0-0.1l-0.1,0
		L41.2,1.9z M14,5.2l0-0.1l0,0.3V5.2z M50.3,52.7l0,0.1l0.1,0l0-0.1L50.3,52.7z M49.3,52.6h-0.1v0.1l0.1,0L49.3,52.6z M54.4,5.2
		l0.1,0l0-0.1l-0.2,0L54.4,5.2z M43.2,4.3l0-0.1l-0.2,0l0,0.2L43.2,4.3z M43.3,5.2l-0.1,0l0,0.1h0.1V5.2z M47.7,6.9h0.2V6.7h-0.2
		V6.9z M8.1,6.9V6.7H8v0.2H8.1z M8.1,54.5H8v0.2h0.1V54.5z M47.7,54.5v0.2h0.1v-0.2H47.7z M55.4,3.8c0.2,0,0.4,0.1,0.5,0.2l0.2-0.2
		c-0.2-0.2-0.4-0.3-0.7-0.3L55.4,3.8z M42.9,2.8l12.4,1l0-0.3L43,2.5L42.9,2.8z M42.6,0.9l0.2,1.8l0.3,0l-0.2-1.8L42.6,0.9z
		 M41.8,0.3c0.4,0,0.7,0.2,0.8,0.6l0.3,0c-0.1-0.5-0.6-0.9-1.1-0.8L41.8,0.3z M30.3,1.7l11.5-1.4l0-0.3L30.3,1.4L30.3,1.7z
		 M30.1,1.7c0,0,0.1,0,0.1,0l0.1-0.3c-0.1,0-0.1,0-0.2,0L30.1,1.7z M14.3,0.4l15.8,1.3l0-0.3L14.3,0.1L14.3,0.4z M13.5,1
		c0-0.4,0.4-0.6,0.7-0.6l0-0.3c-0.5,0-1,0.4-1.1,0.9L13.5,1z M13.3,3.7L13.5,1l-0.3,0L13,3.7L13.3,3.7z M0.9,5.4l12.3-1.5l0-0.3
		L0.9,5.1L0.9,5.4z M0.3,6.1c0-0.4,0.2-0.7,0.6-0.8l0-0.3C0.3,5.1-0.1,5.6,0,6.1L0.3,6.1z M6.6,55L0.3,6.1L0,6.1L6.3,55L6.6,55z
		 M6.6,55.2c0-0.1,0-0.2,0-0.3l-0.3,0c0,0.1,0,0.1,0,0.2L6.6,55.2z M6.6,55.6c0-0.1,0-0.2,0-0.4l-0.3,0c0,0.1,0,0.3,0.1,0.5
		L6.6,55.6z M7.3,56c-0.3,0-0.5-0.2-0.6-0.4l-0.3,0.1c0.2,0.4,0.5,0.6,0.9,0.6V56z M48.5,56H7.3v0.3h41.2V56z M49.2,55.3
		c0,0.4-0.3,0.7-0.7,0.7v0.3c0.5,0,1-0.4,1-1H49.2z M49.2,54.3v1.1h0.3v-1.1H49.2z M51,54.2l-1.6-0.1l0,0.3l1.6,0.1L51,54.2z
		 M51.7,53.6c0,0.4-0.4,0.6-0.7,0.6l0,0.3c0.5,0,1-0.4,1.1-0.9L51.7,53.6z M56,4.5l-4.3,49.1l0.3,0l4.3-49.1L56,4.5z M55.8,4.1
		C56,4.2,56,4.4,56,4.5l0.3,0c0-0.3-0.1-0.5-0.2-0.7L55.8,4.1z M1.8,6.8l4.5,35.1l0.3,0L2.1,6.7L1.8,6.8z M6.4,6L1.9,6.6l0,0.3
		l4.5-0.6L6.4,6z M6.6,41.8V6.2H6.3v35.6H6.6z M15,2.1l7.4,0.6l0-0.3L15,1.8L15,2.1z M15,3.5L15.1,2l-0.3,0l-0.1,1.5L15,3.5z
		 M22.3,2.4l-7.5,0.9l0,0.3l7.5-0.9L22.3,2.4z M41.8,5.2l-0.4-3.4l-0.3,0l0.4,3.4L41.8,5.2z M14,5.4h27.6V5.1H14V5.4z M41.2,1.7
		L14,5.1l0,0.3L41.2,2L41.2,1.7z M50.3,52.5l-0.9-0.1l0,0.3l0.9,0.1L50.3,52.5z M54.3,5.2l-4.1,47.4l0.3,0l4.1-47.4L54.3,5.2z
		 M43.2,4.5l11.2,0.9l0-0.3L43.2,4.2L43.2,4.5z M43.4,5.2l-0.1-0.9l-0.3,0l0.1,0.9L43.4,5.2z M48.5,5.1h-5.2v0.3h5.2V5.1z M49.5,6.1
		c0-0.5-0.4-1-1-1v0.3c0.4,0,0.7,0.3,0.7,0.7H49.5z M49.5,24.7V6.1h-0.3v18.6H49.5z M48.5,25.6c0.5,0,1-0.4,1-1h-0.3
		c0,0.4-0.3,0.7-0.7,0.7V25.6z M47.5,24.7c0,0.5,0.4,1,1,1v-0.3c-0.4,0-0.7-0.3-0.7-0.7H47.5z M47.5,6.9v17.8h0.3V6.9H47.5z M8.1,7
		h39.6V6.7H8.1V7z M8.3,54.5V6.9H8v47.6H8.3z M47.7,54.4H8.1v0.3h39.6V54.4z M47.5,28.5v26h0.3v-26H47.5z M48.5,27.5
		c-0.5,0-1,0.4-1,1h0.3c0-0.4,0.3-0.7,0.7-0.7V27.5z M49.5,28.5c0-0.5-0.4-1-1-1v0.3c0.4,0,0.7,0.3,0.7,0.7H49.5z M49.5,52.6V28.5
		h-0.3v24.1H49.5z"/>
</g>
<g>
	<path style="fill-rule:evenodd;clip-rule:evenodd;fill:#5683FF;" d="M39.5,9.6H44c0.5,0,0.8,0.4,0.8,0.8c0,0.5-0.4,0.8-0.8,0.8h-4
		l-1.7,2.6c2.4,2.2,3.9,5.4,3.9,8.9c0,0.5-0.4,0.8-0.8,0.8H29.7c-0.5,0-0.8-0.4-0.8-0.8V11.3c0-0.5,0.4-0.8,0.8-0.8
		c2.7,0,5.2,0.8,7.3,2.3l1.9-2.8C39,9.8,39.3,9.6,39.5,9.6z M30.5,22h9.9c-0.2-2.6-1.4-5-3.2-6.7l-0.6,0.9c-0.3,0.4-0.9,0.5-1.2,0.2
		c-0.3-0.3-0.4-0.7-0.2-1.1l0.7-1.1c-1.6-1.1-3.4-1.8-5.5-2V22z"/>
</g>
<g>
	<path style="fill:#FFFFFF;" d="M40,11.3v-0.2h-0.1l0,0.1L40,11.3z M38.2,13.9l-0.1-0.1L38,13.9l0.1,0.1L38.2,13.9z M36.9,12.8
		l-0.1,0.1L37,13l0.1-0.1L36.9,12.8z M38.8,10l0.1,0.1v0L38.8,10z M40.5,22v0.1h0.2l0-0.2L40.5,22z M30.5,22h-0.1v0.1h0.1V22z
		 M37.3,15.3l0.1-0.1L37.3,15l-0.1,0.1L37.3,15.3z M36.6,16.2l0.1,0.1l0,0L36.6,16.2z M35.4,16.4l0.1-0.1l0,0L35.4,16.4z M35.3,15.3
		l0.1,0.1h0L35.3,15.3z M36,14.2l0.1,0.1l0.1-0.1l-0.1-0.1L36,14.2z M30.5,12.2l0-0.1l-0.2,0v0.2H30.5z M44,9.5h-4.5v0.3H44V9.5z
		 M45,10.5c0-0.5-0.4-1-1-1v0.3c0.4,0,0.7,0.3,0.7,0.7H45z M44,11.4c0.5,0,1-0.4,1-1h-0.3c0,0.4-0.3,0.7-0.7,0.7V11.4z M40,11.4h4
		v-0.3h-4V11.4z M38.4,13.9l1.7-2.6l-0.2-0.2l-1.7,2.6L38.4,13.9z M42.3,22.8c0-3.6-1.5-6.8-4-9L38.1,14c2.4,2.2,3.9,5.3,3.9,8.8
		H42.3z M41.3,23.8c0.5,0,1-0.4,1-1H42c0,0.4-0.3,0.7-0.7,0.7V23.8z M29.7,23.8h11.7v-0.3H29.7V23.8z M28.7,22.8c0,0.5,0.4,1,1,1
		v-0.3c-0.4,0-0.7-0.3-0.7-0.7H28.7z M28.7,11.3v11.4H29V11.3H28.7z M29.7,10.4c-0.5,0-1,0.4-1,1H29c0-0.4,0.3-0.7,0.7-0.7V10.4z
		 M37,12.7c-2.1-1.5-4.6-2.3-7.3-2.3v0.3c2.7,0,5.1,0.8,7.2,2.3L37,12.7z M38.7,9.9l-1.9,2.8l0.2,0.2l1.9-2.8L38.7,9.9z M39.5,9.5
		c-0.3,0-0.6,0.2-0.8,0.4l0.2,0.2c0.1-0.2,0.3-0.3,0.6-0.3V9.5z M40.5,21.8h-9.9v0.3h9.9V21.8z M37.2,15.4c1.8,1.7,2.9,4,3.1,6.6
		l0.3,0c-0.2-2.6-1.4-5-3.2-6.8L37.2,15.4z M36.8,16.3l0.6-0.9l-0.2-0.2l-0.6,0.9L36.8,16.3z M35.3,16.5c0.4,0.4,1.1,0.3,1.5-0.2
		l-0.2-0.2c-0.2,0.3-0.7,0.4-1,0.1L35.3,16.5z M35.1,15.2c-0.3,0.4-0.2,1,0.2,1.3l0.2-0.2c-0.3-0.2-0.3-0.6-0.1-0.9L35.1,15.2z
		 M35.9,14.1l-0.7,1.1l0.2,0.2l0.7-1.1L35.9,14.1z M30.5,12.4c2,0.2,3.9,0.9,5.4,2l0.2-0.2c-1.6-1.1-3.5-1.9-5.6-2L30.5,12.4z
		 M30.7,22v-9.8h-0.3V22H30.7z"/>
</g>
<g>
	<path style="fill-rule:evenodd;clip-rule:evenodd;fill:#5683FF;" d="M36.4,36.9H44c0.5,0,0.8,0.4,0.8,0.8c0,0.5-0.4,0.8-0.8,0.8
		h-8.1c-0.3,0-0.6-0.1-0.7-0.4l-1.4-2.2c-2.1,1.6-4.8,2.6-7.7,2.6c-6.9,0-12.5-5.5-12.5-12.3c0-6.8,5.6-12.3,12.5-12.3
		c0.5,0,0.8,0.4,0.8,0.8v10.6h10.8c0.5,0,0.8,0.4,0.8,0.8c0,3.3-1.3,6.3-3.5,8.5L36.4,36.9z M31,30c0.4-0.2,0.9-0.1,1.2,0.3l2,3.1
		c1.5-1.7,2.5-3.9,2.7-6.2H26.1c-0.5,0-0.8-0.4-0.8-0.8V15.7c-5.6,0.4-10,5-10,10.6c0,5.9,4.9,10.6,10.8,10.6c2.6,0,5-0.9,6.8-2.4
		l-2.2-3.4C30.5,30.7,30.6,30.2,31,30z"/>
</g>
<g>
	<path style="fill:#FFFFFF;" d="M36.4,36.9L36.3,37l0,0.1h0.1V36.9z M35.2,38.2l-0.1,0.1v0L35.2,38.2z M33.8,35.9l0.1-0.1l-0.1-0.1
		l-0.1,0.1L33.8,35.9z M26.9,25.5h-0.2v0.2h0.2V25.5z M35.1,34.8L35,34.7l-0.1,0.1l0.1,0.1L35.1,34.8z M32.2,30.3l-0.1,0.1l0,0
		L32.2,30.3z M31,30l0.1,0.1h0L31,30z M34.2,33.4L34,33.4l0.1,0.2l0.1-0.1L34.2,33.4z M36.9,27.1l0.1,0l0-0.2h-0.2V27.1z M25.2,15.7
		h0.1v-0.2l-0.2,0L25.2,15.7z M32.9,34.5l0.1,0.1l0.1-0.1L33,34.4L32.9,34.5z M30.8,31.1l0.1-0.1v0L30.8,31.1z M44,36.8h-7.6v0.3H44
		V36.8z M45,37.7c0-0.5-0.4-1-1-1v0.3c0.4,0,0.7,0.3,0.7,0.7H45z M44,38.7c0.5,0,1-0.4,1-1h-0.3c0,0.4-0.3,0.7-0.7,0.7V38.7z
		 M35.9,38.7H44v-0.3h-8.1V38.7z M35.1,38.3c0.2,0.3,0.5,0.5,0.8,0.5v-0.3c-0.2,0-0.5-0.1-0.6-0.3L35.1,38.3z M33.7,36l1.4,2.2
		l0.3-0.2l-1.4-2.2L33.7,36z M26.1,38.7c2.9,0,5.7-1,7.8-2.7l-0.2-0.2c-2.1,1.6-4.8,2.6-7.6,2.6V38.7z M13.4,26.3
		c0,6.8,5.7,12.4,12.6,12.4v-0.3c-6.8,0-12.3-5.4-12.3-12.1H13.4z M26.1,13.9c-7,0-12.6,5.6-12.6,12.4h0.3c0-6.7,5.5-12.1,12.3-12.1
		V13.9z M27.1,14.9c0-0.5-0.4-1-1-1v0.3c0.4,0,0.7,0.3,0.7,0.7H27.1z M27.1,25.5V14.9h-0.3v10.6H27.1z M37.7,25.3H26.9v0.3h10.8
		V25.3z M38.7,26.3c0-0.5-0.4-1-1-1v0.3c0.4,0,0.7,0.3,0.7,0.7H38.7z M35.2,34.9c2.2-2.2,3.5-5.3,3.5-8.6h-0.3
		c0,3.3-1.3,6.2-3.5,8.4L35.2,34.9z M36.5,36.8l-1.3-2.1l-0.3,0.2l1.3,2.1L36.5,36.8z M32.3,30.2c-0.3-0.5-0.9-0.6-1.4-0.3l0.2,0.3
		c0.3-0.2,0.8-0.1,1,0.2L32.3,30.2z M34.3,33.3l-2-3.1l-0.3,0.2l2,3.1L34.3,33.3z M36.7,27.1c-0.2,2.3-1.2,4.5-2.7,6.1l0.2,0.2
		c1.6-1.7,2.6-3.9,2.8-6.3L36.7,27.1z M26.1,27.3h10.8V27H26.1V27.3z M25.1,26.3c0,0.5,0.4,1,1,1V27c-0.4,0-0.7-0.3-0.7-0.7H25.1z
		 M25.1,15.7v10.6h0.3V15.7H25.1z M15.4,26.3c0-5.5,4.3-10,9.8-10.4l0-0.3c-5.6,0.4-10.1,5.1-10.1,10.7H15.4z M26.1,36.8
		c-5.9,0-10.7-4.7-10.7-10.5h-0.3c0,5.9,4.9,10.8,11,10.8V36.8z M32.8,34.4c-1.8,1.5-4.2,2.4-6.7,2.4v0.3c2.6,0,5-0.9,6.9-2.4
		L32.8,34.4z M30.6,31.2l2.2,3.4l0.3-0.2l-2.2-3.4L30.6,31.2z M30.9,29.9c-0.5,0.3-0.6,0.9-0.3,1.3l0.3-0.2
		c-0.2-0.3-0.1-0.7,0.2-0.9L30.9,29.9z"/>
</g>
<g>
	<path style="fill:#5683FF;" d="M18.9,41.3h-7.2c-0.5,0-0.8,0.4-0.8,0.8c0,0.5,0.4,0.8,0.8,0.8h7.2c0.5,0,0.8-0.4,0.8-0.8
		C19.8,41.7,19.4,41.3,18.9,41.3z"/>
	<path style="fill:#FFFFFF;" d="M18.9,43.1h-7.2c-0.5,0-1-0.4-1-1s0.4-1,1-1h7.2c0.5,0,1,0.4,1,1S19.5,43.1,18.9,43.1z M11.7,41.5
		c-0.4,0-0.7,0.3-0.7,0.7s0.3,0.7,0.7,0.7h7.2c0.4,0,0.7-0.3,0.7-0.7s-0.3-0.7-0.7-0.7H11.7z"/>
</g>
<g>
	<path style="fill:#5683FF;" d="M29.7,41.3h-7.2c-0.5,0-0.8,0.4-0.8,0.8c0,0.5,0.4,0.8,0.8,0.8h7.2c0.5,0,0.8-0.4,0.8-0.8
		C30.5,41.7,30.1,41.3,29.7,41.3z"/>
	<path style="fill:#FFFFFF;" d="M29.7,43.1h-7.2c-0.5,0-1-0.4-1-1s0.4-1,1-1h7.2c0.5,0,1,0.4,1,1S30.2,43.1,29.7,43.1z M22.5,41.5
		c-0.4,0-0.7,0.3-0.7,0.7s0.3,0.7,0.7,0.7h7.2c0.4,0,0.7-0.3,0.7-0.7s-0.3-0.7-0.7-0.7H22.5z"/>
</g>
<g>
	<path style="fill:#5683FF;" d="M23.4,45.7H11.7c-0.5,0-0.8,0.4-0.8,0.8c0,0.5,0.4,0.8,0.8,0.8h11.7c0.5,0,0.8-0.4,0.8-0.8
		C24.2,46.1,23.9,45.7,23.4,45.7z"/>
	<path style="fill:#FFFFFF;" d="M23.4,47.5H11.7c-0.5,0-1-0.4-1-1c0-0.5,0.4-1,1-1h11.7c0.5,0,1,0.4,1,1
		C24.4,47.1,23.9,47.5,23.4,47.5z M11.7,45.9c-0.4,0-0.7,0.3-0.7,0.7s0.3,0.7,0.7,0.7h11.7c0.4,0,0.7-0.3,0.7-0.7s-0.3-0.7-0.7-0.7
		H11.7z"/>
</g>
<g>
	<path style="fill:#5683FF;" d="M29.7,45.7H27c-0.5,0-0.8,0.4-0.8,0.8c0,0.5,0.4,0.8,0.8,0.8h2.7c0.5,0,0.8-0.4,0.8-0.8
		C30.5,46.1,30.1,45.7,29.7,45.7z"/>
	<path style="fill:#FFFFFF;" d="M29.7,47.5H27c-0.5,0-1-0.4-1-1c0-0.5,0.4-1,1-1h2.7c0.5,0,1,0.4,1,1C30.7,47.1,30.2,47.5,29.7,47.5
		z M27,45.9c-0.4,0-0.7,0.3-0.7,0.7s0.3,0.7,0.7,0.7h2.7c0.4,0,0.7-0.3,0.7-0.7s-0.3-0.7-0.7-0.7H27z"/>
</g>
<g>
	<path style="fill:#5683FF;" d="M15.3,50.1h-3.6c-0.5,0-0.8,0.4-0.8,0.8c0,0.5,0.4,0.8,0.8,0.8h3.6c0.5,0,0.8-0.4,0.8-0.8
		C16.2,50.5,15.8,50.1,15.3,50.1z"/>
	<path style="fill:#FFFFFF;" d="M15.3,51.9h-3.6c-0.5,0-1-0.4-1-1c0-0.5,0.4-1,1-1h3.6c0.5,0,1,0.4,1,1
		C16.3,51.5,15.9,51.9,15.3,51.9z M11.7,50.3c-0.4,0-0.7,0.3-0.7,0.7s0.3,0.7,0.7,0.7h3.6c0.4,0,0.7-0.3,0.7-0.7s-0.3-0.7-0.7-0.7
		H11.7z"/>
</g>
<g>
	<path style="fill:#5683FF;" d="M29.7,50.1H18.9c-0.5,0-0.8,0.4-0.8,0.8c0,0.5,0.4,0.8,0.8,0.8h10.8c0.5,0,0.8-0.4,0.8-0.8
		C30.5,50.5,30.1,50.1,29.7,50.1z"/>
	<path style="fill:#FFFFFF;" d="M29.7,51.9H18.9c-0.5,0-1-0.4-1-1c0-0.5,0.4-1,1-1h10.8c0.5,0,1,0.4,1,1
		C30.7,51.5,30.2,51.9,29.7,51.9z M18.9,50.3c-0.4,0-0.7,0.3-0.7,0.7s0.3,0.7,0.7,0.7h10.8c0.4,0,0.7-0.3,0.7-0.7s-0.3-0.7-0.7-0.7
		H18.9z"/>
</g>
</svg>
