<?xml version="1.0" encoding="utf-8"?>
<!-- Generator: Adobe Illustrator 23.0.3, SVG Export Plug-In . SVG Version: 6.00 Build 0)  -->
<svg version="1.1" id="Layer_1" xmlns="http://www.w3.org/2000/svg" xmlns:xlink="http://www.w3.org/1999/xlink" x="0px" y="0px"
	 viewBox="0 0 3284.6 838" style="enable-background:new 0 0 3284.6 838;" xml:space="preserve">
<g>
	
		<linearGradient id="SVGID_1_" gradientUnits="userSpaceOnUse" x1="1544.114" y1="1551.6678" x2="2123.4084" y2="1551.6678" gradientTransform="matrix(0 1 -1 0 1760.7791 -1544.1136)">
		<stop  offset="0" style="stop-color:#008ED1"/>
		<stop  offset="0.3104" style="stop-color:#0B77B7"/>
		<stop  offset="0.7657" style="stop-color:#1B5E9C"/>
		<stop  offset="1" style="stop-color:#1D5593"/>
	</linearGradient>
	<path style="fill:url(#SVGID_1_);" d="M55,489.2c42.5,65.1,90.9,85.9,102.4,90.1c-34.6-17.3-60.6-44-74.9-73.5
		c-1.4-4.1-54.4-163.4,250.1-290.2v0c0,0,91.2-32,80.3-121.4C405.1,30.7,343.3,5.6,303.8,1C168.1-14.9,31.8,159.3,4.5,371.7
		C16.3,420.7,35.3,458.9,55,489.2z"/>
</g>
<defs>
	<filter id="Adobe_OpacityMaskFilter" filterUnits="userSpaceOnUse" x="231.9" y="0" width="181.9" height="265.8">
		<feFlood  style="flood-color:white;flood-opacity:1" result="back"/>
		<feBlend  in="SourceGraphic" in2="back" mode="normal"/>
	</filter>
</defs>
<mask maskUnits="userSpaceOnUse" x="231.9" y="0" width="181.9" height="265.8" id="SVGID_2_">
	<g style="filter:url(#Adobe_OpacityMaskFilter);">
		<defs>
			<filter id="Adobe_OpacityMaskFilter_1_" filterUnits="userSpaceOnUse" x="231.9" y="0" width="181.9" height="265.8">
				<feFlood  style="flood-color:white;flood-opacity:1" result="back"/>
				<feBlend  in="SourceGraphic" in2="back" mode="normal"/>
			</filter>
		</defs>
		<mask maskUnits="userSpaceOnUse" x="231.9" y="0" width="181.9" height="265.8" id="SVGID_2_">
			<g style="filter:url(#Adobe_OpacityMaskFilter_1_);">
			</g>
		</mask>
		
			<linearGradient id="SVGID_3_" gradientUnits="userSpaceOnUse" x1="1677.0082" y1="1528.9072" x2="1677.0082" y2="1347.0389" gradientTransform="matrix(0 1 -1 0 1760.7791 -1544.1136)">
			<stop  offset="0" style="stop-color:#000000"/>
			<stop  offset="0.1249" style="stop-color:#252525"/>
			<stop  offset="0.4495" style="stop-color:#818181"/>
			<stop  offset="0.7133" style="stop-color:#C5C5C5"/>
			<stop  offset="0.903" style="stop-color:#EFEFEF"/>
			<stop  offset="1" style="stop-color:#FFFFFF"/>
		</linearGradient>
		<path style="mask:url(#SVGID_2_);fill:url(#SVGID_3_);" d="M231.9,265.8c28.2-17,61.5-33.9,100.7-50.2v0c0,0,91.2-32,80.3-121.4
			C405.1,30.7,343.3,5.6,303.8,1c-24.1-2.8-48.3,0.4-71.9,8.8V265.8z"/>
	</g>
</mask>
<linearGradient id="SVGID_4_" gradientUnits="userSpaceOnUse" x1="1677.0082" y1="1528.9072" x2="1677.0082" y2="1347.0389" gradientTransform="matrix(0 1 -1 0 1760.7791 -1544.1136)">
	<stop  offset="0" style="stop-color:#008ED1"/>
	<stop  offset="0.3104" style="stop-color:#0B77B7"/>
	<stop  offset="0.7657" style="stop-color:#1B5E9C"/>
	<stop  offset="1" style="stop-color:#1D5593"/>
</linearGradient>
<path style="fill:url(#SVGID_4_);" d="M231.9,265.8c28.2-17,61.5-33.9,100.7-50.2v0c0,0,91.2-32,80.3-121.4
	C405.1,30.7,343.3,5.6,303.8,1c-24.1-2.8-48.3,0.4-71.9,8.8V265.8z"/>
<g style="opacity:0.4;">
	
		<linearGradient id="SVGID_5_" gradientUnits="userSpaceOnUse" x1="1544.114" y1="1551.6661" x2="1919.3127" y2="1551.6661" gradientTransform="matrix(0 1 -1 0 1760.7791 -1544.1136)">
		<stop  offset="0" style="stop-color:#DBDCDD"/>
		<stop  offset="0.1513" style="stop-color:#CCCDCF"/>
		<stop  offset="0.7116" style="stop-color:#9B9C9F"/>
		<stop  offset="0.9785" style="stop-color:#898A8D"/>
	</linearGradient>
	<path style="fill:url(#SVGID_5_);" d="M303.8,10.9c39.6,4.6,101.4,29.7,109.1,93.2c0.4,3.3,0.7,6.6,0.8,9.8
		c0.3-6.2,0-12.8-0.8-19.6C405.1,30.7,343.3,5.6,303.8,1C168.1-14.9,31.8,159.3,4.5,371.7c0.3,1.2,0.6,2.3,0.9,3.5
		C34.5,165.7,169.5-4.8,303.8,10.9z"/>
	
		<linearGradient id="SVGID_6_" gradientUnits="userSpaceOnUse" x1="2022.3451" y1="1643.0867" x2="2123.4084" y2="1643.0867" gradientTransform="matrix(0 1 -1 0 1760.7791 -1544.1136)">
		<stop  offset="0" style="stop-color:#DBDCDD"/>
		<stop  offset="0.1513" style="stop-color:#CCCDCF"/>
		<stop  offset="0.7116" style="stop-color:#9B9C9F"/>
		<stop  offset="0.9785" style="stop-color:#898A8D"/>
	</linearGradient>
	<path style="fill:url(#SVGID_6_);" d="M82.4,515.7c4.1,8.5,9.3,16.8,15.3,24.7c27.8,25.9,52,36.1,59.6,38.9
		c-34.6-17.3-60.6-44-74.9-73.5c-0.3-1-3.7-11.1-4.3-27.6C77.4,500.5,82,514.5,82.4,515.7z"/>
</g>
<linearGradient id="SVGID_7_" gradientUnits="userSpaceOnUse" x1="1714.5706" y1="1679.875" x2="2123.4084" y2="1679.875" gradientTransform="matrix(0 1 -1 0 1760.7791 -1544.1136)">
	<stop  offset="0" style="stop-color:#DBDCDD"/>
	<stop  offset="0.6337" style="stop-color:#AFB0B3"/>
	<stop  offset="0.9785" style="stop-color:#9C9EA0"/>
</linearGradient>
<path style="fill:url(#SVGID_7_);" d="M82.4,505.8c-0.1-0.4-0.6-1.9-1.3-4.5c-0.3-0.5-71-133.1-13.3-330.8
	C36.6,228.7,14,297.9,4.5,371.7c11.8,49,30.8,87.2,50.5,117.4c42.5,65.1,90.9,85.9,102.4,90.1C122.7,562,96.7,535.3,82.4,505.8z"/>
<linearGradient id="SVGID_8_" gradientUnits="userSpaceOnUse" x1="1777.0464" y1="1246.5941" x2="1777.0464" y2="836.6484" gradientTransform="matrix(0 1 -1 0 1760.7791 -1544.1136)">
	<stop  offset="0" style="stop-color:#008ED1"/>
	<stop  offset="0.3104" style="stop-color:#0B77B7"/>
	<stop  offset="0.7657" style="stop-color:#1B5E9C"/>
	<stop  offset="1" style="stop-color:#1D5593"/>
</linearGradient>
<path style="fill:url(#SVGID_8_);" d="M838.1,116.5c-58.4-57.2-127.2-88.1-192.4-81.6c-4.4,0.1-8.8,0.5-13.2,1
	c-72.2,8.6-124.9,64.9-117.6,125.8c7.2,60.9,71.4,100.7,143.9,94.7c42.2-3.5,99.2,10.2,142.2,34.6c58.8,33.3,100.4,84.4,120.6,140.9
	C932.8,332.7,907.5,199.6,838.1,116.5z"/>
<linearGradient id="SVGID_9_" gradientUnits="userSpaceOnUse" x1="1807.3503" y1="1246.5936" x2="1807.3503" y2="837.7187" gradientTransform="matrix(0 1 -1 0 1760.7791 -1544.1136)">
	<stop  offset="0" style="stop-color:#DBDCDD"/>
	<stop  offset="0.1513" style="stop-color:#CCCDCF"/>
	<stop  offset="0.7116" style="stop-color:#9B9C9F"/>
	<stop  offset="0.9785" style="stop-color:#898A8D"/>
</linearGradient>
<path style="opacity:0.4;fill:url(#SVGID_9_);" d="M923.1,415.2c-21.2-52.9-61.5-100.6-117.2-132.1c-43.1-24.4-100-38.2-142.2-34.6
	c-72.5,6.1-136.6-33.8-143.9-94.6c-2.5-20.8,2.1-41.1,12-59.1c-13.2,19.9-19.7,43.1-16.8,67.1c7.2,60.9,71.4,100.7,143.9,94.7
	c42.2-3.5,99.2,10.2,142.2,34.6c58.8,33.3,100.4,84.4,120.6,140.9C922.2,426.4,922.7,420.8,923.1,415.2z"/>
<linearGradient id="SVGID_10_" gradientUnits="userSpaceOnUse" x1="1579.9133" y1="954.5063" x2="1975.9592" y2="954.5063" gradientTransform="matrix(0 1 -1 0 1760.7791 -1544.1136)">
	<stop  offset="0" style="stop-color:#DBDCDD"/>
	<stop  offset="0.1513" style="stop-color:#CCCDCF"/>
	<stop  offset="0.7116" style="stop-color:#9B9C9F"/>
	<stop  offset="0.9785" style="stop-color:#898A8D"/>
</linearGradient>
<path style="fill:url(#SVGID_10_);" d="M910.7,406.1L910.7,406.1c4.1,8.4,7.8,17,10.9,25.7c11.2-99.2-14-232.3-83.5-315.4
	C792.3,71.6,740.2,43,688.4,35.8C914.9,153.9,910.7,406.1,910.7,406.1z"/>
<g>
	
		<linearGradient id="SVGID_11_" gradientUnits="userSpaceOnUse" x1="1668.6964" y1="1240.2546" x2="1814.8765" y2="1094.0745" gradientTransform="matrix(0 1 -1 0 1760.7791 -1544.1136)">
		<stop  offset="0" style="stop-color:#DBDCDD"/>
		<stop  offset="0.6337" style="stop-color:#AFB0B3"/>
		<stop  offset="0.9785" style="stop-color:#9C9EA0"/>
	</linearGradient>
	<path style="fill:url(#SVGID_11_);" d="M681.4,256.1c-7.3-29.7-43.1-142.9-164.6-127.7c-2.6,10.8-3.3,22-1.9,33.4
		c7.2,60.9,71.4,100.7,143.9,94.7C665.9,255.8,673.5,255.7,681.4,256.1z"/>
</g>
<linearGradient id="SVGID_12_" gradientUnits="userSpaceOnUse" x1="1993.2246" y1="1760.7791" x2="1993.2246" y2="805.2871" gradientTransform="matrix(0 1 -1 0 1760.7791 -1544.1136)">
	<stop  offset="0" style="stop-color:#57B5BC"/>
	<stop  offset="0.1544" style="stop-color:#6AB8AD"/>
	<stop  offset="0.4793" style="stop-color:#91C389"/>
	<stop  offset="0.9455" style="stop-color:#CAD843"/>
</linearGradient>
<path style="fill:url(#SVGID_12_);" d="M492.5,482.6c0,0-20.3-39.4-15.8-75.3c87,56,130.7,344.1,294.4,335.1
	c127-7,208.1-193.8,178-390.4c-21-137.3-95.2-244.9-187-291.9c188.2,98.7,191.5,488.5,72.1,500.7
	c-120.6,12.4-146.6-245.5-146.6-245.5c-11.4-67.7-35.3-107.2-64.7-128.4c-29-26.3-71.3-40.9-116.7-36.4
	c-41.3,4.1-76.9,23.1-100.5,50.2l0,0c0,0-50.7,46.9-60.7,163.5c-2.7,31.1-2,67.7,6.9,109.3l0,0c4.3,21.2,2.4,42.7-6.6,62.4
	C318.2,595.2,236.5,615.8,163,582c-2.8-1.3-62.5-26.8-102.5-106.1C38,431.5,18.7,372.2,20,292.5c-7.4,27.7-13,56.5-16.4,85.9
	C-9.9,493.9,15.1,612.3,65.4,696.7v0c36.5,63.6,118.4,124.8,196.9,136.9C470.2,865.9,618.8,715.8,492.5,482.6z"/>
<g style="opacity:0.7;">
	
		<linearGradient id="SVGID_13_" gradientUnits="userSpaceOnUse" x1="2107.4905" y1="1760.7791" x2="2107.4905" y2="1494.4385" gradientTransform="matrix(0 1 -1 0 1760.7791 -1544.1136)">
		<stop  offset="0" style="stop-color:#DBDCDD"/>
		<stop  offset="0.6337" style="stop-color:#AFB0B3"/>
		<stop  offset="0.9785" style="stop-color:#9C9EA0"/>
	</linearGradient>
	<path style="fill:url(#SVGID_13_);" d="M54.1,462.6c-19.6-42.7-35.3-98.1-34-170.1c-7.4,27.7-13,56.5-16.4,85.9
		C-9.9,493.9,15.1,612.3,65.4,696.7v0c36.5,63.6,118.4,124.8,196.9,136.9c1.4,0.2,2.7,0.4,4.1,0.6
		C205.1,809.9,23.6,716.8,54.1,462.6z"/>
</g>
<defs>
	<filter id="Adobe_OpacityMaskFilter_2_" filterUnits="userSpaceOnUse" x="13.1" y="292.5" width="218.7" height="305.8">
		<feFlood  style="flood-color:white;flood-opacity:1" result="back"/>
		<feBlend  in="SourceGraphic" in2="back" mode="normal"/>
	</filter>
</defs>
<mask maskUnits="userSpaceOnUse" x="13.1" y="292.5" width="218.7" height="305.8" id="SVGID_14_">
	<g style="filter:url(#Adobe_OpacityMaskFilter_2_);">
		<defs>
			<filter id="Adobe_OpacityMaskFilter_3_" filterUnits="userSpaceOnUse" x="13.1" y="292.5" width="218.7" height="305.8">
				<feFlood  style="flood-color:white;flood-opacity:1" result="back"/>
				<feBlend  in="SourceGraphic" in2="back" mode="normal"/>
			</filter>
		</defs>
		<mask maskUnits="userSpaceOnUse" x="13.1" y="292.5" width="218.7" height="305.8" id="SVGID_14_">
			<g style="filter:url(#Adobe_OpacityMaskFilter_3_);">
			</g>
		</mask>
		
			<linearGradient id="SVGID_15_" gradientUnits="userSpaceOnUse" x1="1989.5118" y1="1747.6567" x2="1989.5118" y2="1528.9072" gradientTransform="matrix(0 1 -1 0 1760.7791 -1544.1136)">
			<stop  offset="0" style="stop-color:#E6E6E6"/>
			<stop  offset="0.1534" style="stop-color:#BCBCBC"/>
			<stop  offset="0.5412" style="stop-color:#585858"/>
			<stop  offset="0.8112" style="stop-color:#191919"/>
			<stop  offset="0.9383" style="stop-color:#000000"/>
		</linearGradient>
		<path style="mask:url(#SVGID_14_);fill:url(#SVGID_15_);" d="M155.6,582c25.3,11.6,51.6,16.8,76.3,16.2
			c-22.5-0.5-46.1-5.7-68.9-16.2c-2.8-1.3-62.5-26.8-102.5-106.1C38,431.5,18.7,372.2,20,292.5c-2.5,9.5-4.8,19.1-6.9,28.8
			c3.1,65.4,20.4,115.7,40,154.5C93.1,555.2,152.8,580.7,155.6,582z"/>
	</g>
</mask>
<linearGradient id="SVGID_16_" gradientUnits="userSpaceOnUse" x1="1989.5118" y1="1747.6567" x2="1989.5118" y2="1528.9072" gradientTransform="matrix(0 1 -1 0 1760.7791 -1544.1136)">
	<stop  offset="0" style="stop-color:#FFFFFF"/>
	<stop  offset="0.9383" style="stop-color:#FFFFFF"/>
</linearGradient>
<path style="opacity:0.9;fill:url(#SVGID_16_);" d="M155.6,582c25.3,11.6,51.6,16.8,76.3,16.2c-22.5-0.5-46.1-5.7-68.9-16.2
	c-2.8-1.3-62.5-26.8-102.5-106.1C38,431.5,18.7,372.2,20,292.5c-2.5,9.5-4.8,19.1-6.9,28.8c3.1,65.4,20.4,115.7,40,154.5
	C93.1,555.2,152.8,580.7,155.6,582z"/>
<linearGradient id="SVGID_17_" gradientUnits="userSpaceOnUse" x1="1945.567" y1="1000.7065" x2="1945.567" y2="805.2871" gradientTransform="matrix(0 1 -1 0 1760.7791 -1544.1136)">
	<stop  offset="0" style="stop-color:#57B5BC"/>
	<stop  offset="0.1544" style="stop-color:#6AB8AD"/>
	<stop  offset="0.4793" style="stop-color:#91C389"/>
	<stop  offset="0.9455" style="stop-color:#CAD843"/>
</linearGradient>
<path style="opacity:0.4;fill:url(#SVGID_17_);" d="M830,116.3c55.5,56.5,97.1,138.7,111.9,235.9c30,196.5-51,383.4-178,390.4
	c-1.3,0.1-2.5,0.1-3.8,0.1c3.7,0.1,7.3,0.1,11.1-0.1c127-7,208.1-193.8,178-390.4c-21-137.3-95.2-244.9-187-291.9
	C788.3,73.9,810.8,93.2,830,116.3z"/>
<defs>
	<filter id="Adobe_OpacityMaskFilter_4_" filterUnits="userSpaceOnUse" x="519" y="149.9" width="303.3" height="411.4">
		<feFlood  style="flood-color:white;flood-opacity:1" result="back"/>
		<feBlend  in="SourceGraphic" in2="back" mode="normal"/>
	</filter>
</defs>
<mask maskUnits="userSpaceOnUse" x="519" y="149.9" width="303.3" height="411.4" id="SVGID_18_">
	<g style="filter:url(#Adobe_OpacityMaskFilter_4_);">
		<defs>
			<filter id="Adobe_OpacityMaskFilter_5_" filterUnits="userSpaceOnUse" x="519" y="149.9" width="303.3" height="411.4">
				<feFlood  style="flood-color:white;flood-opacity:1" result="back"/>
				<feBlend  in="SourceGraphic" in2="back" mode="normal"/>
			</filter>
		</defs>
		<mask maskUnits="userSpaceOnUse" x="519" y="149.9" width="303.3" height="411.4" id="SVGID_18_">
			<g style="filter:url(#Adobe_OpacityMaskFilter_5_);">
			</g>
		</mask>
		
			<linearGradient id="SVGID_19_" gradientUnits="userSpaceOnUse" x1="1899.7592" y1="1241.7529" x2="1899.7592" y2="938.4506" gradientTransform="matrix(0 1 -1 0 1760.7791 -1544.1136)">
			<stop  offset="6.168290e-02" style="stop-color:#000000"/>
			<stop  offset="0.1888" style="stop-color:#191919"/>
			<stop  offset="0.4588" style="stop-color:#585858"/>
			<stop  offset="0.8466" style="stop-color:#BCBCBC"/>
			<stop  offset="1" style="stop-color:#E6E6E6"/>
		</linearGradient>
		<path style="mask:url(#SVGID_18_);fill:url(#SVGID_19_);" d="M680.3,315.5c0,0,25.4,251.2,142,245.8
			C712,556.1,687.7,315.5,687.7,315.5c-11.4-67.7-35.3-107.2-64.7-128.4c-26.2-23.8-63.4-38-103.9-37.1c37.7,0.9,72,14.7,96.6,37.1
			C645,208.3,669,247.8,680.3,315.5z"/>
	</g>
</mask>
<linearGradient id="SVGID_20_" gradientUnits="userSpaceOnUse" x1="1899.7592" y1="1241.7529" x2="1899.7592" y2="938.4506" gradientTransform="matrix(0 1 -1 0 1760.7791 -1544.1136)">
	<stop  offset="6.168290e-02" style="stop-color:#FFFFFF"/>
	<stop  offset="1" style="stop-color:#FFFFFF"/>
</linearGradient>
<path style="opacity:0.9;fill:url(#SVGID_20_);" d="M680.3,315.5c0,0,25.4,251.2,142,245.8C712,556.1,687.7,315.5,687.7,315.5
	c-11.4-67.7-35.3-107.2-64.7-128.4c-26.2-23.8-63.4-38-103.9-37.1c37.7,0.9,72,14.7,96.6,37.1C645,208.3,669,247.8,680.3,315.5z"/>
<g>
	<defs>
		<filter id="Adobe_OpacityMaskFilter_6_" filterUnits="userSpaceOnUse" x="476.8" y="299.5" width="443.1" height="443.2">
			<feFlood  style="flood-color:white;flood-opacity:1" result="back"/>
			<feBlend  in="SourceGraphic" in2="back" mode="normal"/>
		</filter>
	</defs>
	<mask maskUnits="userSpaceOnUse" x="476.8" y="299.5" width="443.1" height="443.2" id="SVGID_21_">
		<g style="filter:url(#Adobe_OpacityMaskFilter_6_);">
			<defs>
				<filter id="Adobe_OpacityMaskFilter_7_" filterUnits="userSpaceOnUse" x="476.8" y="299.5" width="443.1" height="443.2">
					<feFlood  style="flood-color:white;flood-opacity:1" result="back"/>
					<feBlend  in="SourceGraphic" in2="back" mode="normal"/>
				</filter>
			</defs>
			<mask maskUnits="userSpaceOnUse" x="476.8" y="299.5" width="443.1" height="443.2" id="SVGID_21_">
				<g style="filter:url(#Adobe_OpacityMaskFilter_7_);">
				</g>
			</mask>
			
				<linearGradient id="SVGID_22_" gradientUnits="userSpaceOnUse" x1="1842.2158" y1="1222.8545" x2="2266.614" y2="925.6877" gradientTransform="matrix(0 1 -1 0 1760.7791 -1544.1136)">
				<stop  offset="5.414940e-02" style="stop-color:#CCCCCC"/>
				<stop  offset="0.2409" style="stop-color:#919191"/>
				<stop  offset="0.4277" style="stop-color:#5E5E5E"/>
				<stop  offset="0.6035" style="stop-color:#353535"/>
				<stop  offset="0.7628" style="stop-color:#181818"/>
				<stop  offset="0.9002" style="stop-color:#060606"/>
				<stop  offset="1" style="stop-color:#000000"/>
			</linearGradient>
			<path style="mask:url(#SVGID_21_);fill:url(#SVGID_22_);" d="M870.7,624c-77.5,96.6-182.5,29-215.5-125.3
				c-40.9-190.9-91.3-217.3-131.9-190.4c-39.5,26.1-46.5,99-46.5,99c87,56,130.7,344.1,294.4,335.1c64-3.5,116.4-52.7,148.7-125.9
				L870.7,624z"/>
		</g>
	</mask>
	
		<linearGradient id="SVGID_23_" gradientUnits="userSpaceOnUse" x1="1842.2158" y1="1222.8545" x2="2266.614" y2="925.6877" gradientTransform="matrix(0 1 -1 0 1760.7791 -1544.1136)">
		<stop  offset="5.414940e-02" style="stop-color:#8D8E91"/>
		<stop  offset="7.657564e-02" style="stop-color:#8F9193"/>
		<stop  offset="0.3587" style="stop-color:#AFB0B2"/>
		<stop  offset="0.6162" style="stop-color:#C7C8CA"/>
		<stop  offset="0.8385" style="stop-color:#D6D7D8"/>
		<stop  offset="1" style="stop-color:#DBDCDD"/>
	</linearGradient>
	<path style="fill:url(#SVGID_23_);" d="M870.7,624c-77.5,96.6-182.5,29-215.5-125.3c-40.9-190.9-91.3-217.3-131.9-190.4
		c-39.5,26.1-46.5,99-46.5,99c87,56,130.7,344.1,294.4,335.1c64-3.5,116.4-52.7,148.7-125.9L870.7,624z"/>
</g>
<defs>
	<filter id="Adobe_OpacityMaskFilter_8_" filterUnits="userSpaceOnUse" x="56.1" y="476.9" width="482.9" height="361.1">
		<feFlood  style="flood-color:white;flood-opacity:1" result="back"/>
		<feBlend  in="SourceGraphic" in2="back" mode="normal"/>
	</filter>
</defs>
<mask maskUnits="userSpaceOnUse" x="56.1" y="476.9" width="482.9" height="361.1" id="SVGID_24_">
	<g style="filter:url(#Adobe_OpacityMaskFilter_8_);">
		<defs>
			<filter id="Adobe_OpacityMaskFilter_9_" filterUnits="userSpaceOnUse" x="56.1" y="476.9" width="482.9" height="361.1">
				<feFlood  style="flood-color:white;flood-opacity:1" result="back"/>
				<feBlend  in="SourceGraphic" in2="back" mode="normal"/>
			</filter>
		</defs>
		<mask maskUnits="userSpaceOnUse" x="56.1" y="476.9" width="482.9" height="361.1" id="SVGID_24_">
			<g style="filter:url(#Adobe_OpacityMaskFilter_9_);">
			</g>
		</mask>
		
			<linearGradient id="SVGID_25_" gradientUnits="userSpaceOnUse" x1="2201.5376" y1="1704.666" x2="2201.5376" y2="1221.7191" gradientTransform="matrix(0 1 -1 0 1760.7791 -1544.1136)">
			<stop  offset="0.289" style="stop-color:#000000"/>
			<stop  offset="0.4256" style="stop-color:#030303"/>
			<stop  offset="0.5207" style="stop-color:#0C0C0C"/>
			<stop  offset="0.6031" style="stop-color:#1B1B1B"/>
			<stop  offset="0.6784" style="stop-color:#313131"/>
			<stop  offset="0.7488" style="stop-color:#4E4E4E"/>
			<stop  offset="0.8156" style="stop-color:#707070"/>
			<stop  offset="0.8796" style="stop-color:#9A9A9A"/>
			<stop  offset="0.9398" style="stop-color:#C8C8C8"/>
			<stop  offset="0.9978" style="stop-color:#FDFDFD"/>
			<stop  offset="1" style="stop-color:#FFFFFF"/>
		</linearGradient>
		<path style="mask:url(#SVGID_24_);fill:url(#SVGID_25_);" d="M492.5,482.6c0,0-1.1-2.1-2.7-5.8c36.2,84.5,44.9,225.8-68.7,283.1
			c-132.6,66.9-275.7-17.2-332.4-120.1l-32.6,40.5c3,5.6,6.1,11.1,9.3,16.5v0c36.5,63.6,118.4,124.8,196.9,136.9
			C470.2,865.9,618.8,715.8,492.5,482.6z"/>
	</g>
</mask>
<linearGradient id="SVGID_26_" gradientUnits="userSpaceOnUse" x1="2201.5376" y1="1704.666" x2="2201.5376" y2="1221.7191" gradientTransform="matrix(0 1 -1 0 1760.7791 -1544.1136)">
	<stop  offset="0.289" style="stop-color:#FFFFFF"/>
	<stop  offset="0.9146" style="stop-color:#FFFFFF"/>
	<stop  offset="1" style="stop-color:#FFFFFF"/>
</linearGradient>
<path style="opacity:0.2;fill:url(#SVGID_26_);" d="M492.5,482.6c0,0-1.1-2.1-2.7-5.8c36.2,84.5,44.9,225.8-68.7,283.1
	c-132.6,66.9-275.7-17.2-332.4-120.1l-32.6,40.5c3,5.6,6.1,11.1,9.3,16.5v0c36.5,63.6,118.4,124.8,196.9,136.9
	C470.2,865.9,618.8,715.8,492.5,482.6z"/>
<g style="opacity:0.5;">
	<defs>
		<filter id="Adobe_OpacityMaskFilter_10_" filterUnits="userSpaceOnUse" x="364.6" y="170.4" width="216.2" height="212.7">
			<feFlood  style="flood-color:white;flood-opacity:1" result="back"/>
			<feBlend  in="SourceGraphic" in2="back" mode="normal"/>
		</filter>
	</defs>
	<mask maskUnits="userSpaceOnUse" x="364.6" y="170.4" width="216.2" height="212.7" id="SVGID_27_">
		<g style="filter:url(#Adobe_OpacityMaskFilter_10_);">
			<defs>
				<filter id="Adobe_OpacityMaskFilter_11_" filterUnits="userSpaceOnUse" x="364.6" y="170.4" width="216.2" height="212.7">
					<feFlood  style="flood-color:white;flood-opacity:1" result="back"/>
					<feBlend  in="SourceGraphic" in2="back" mode="normal"/>
				</filter>
			</defs>
			<mask maskUnits="userSpaceOnUse" x="364.6" y="170.4" width="216.2" height="212.7" id="SVGID_27_">
				<g style="filter:url(#Adobe_OpacityMaskFilter_11_);">
				</g>
			</mask>
			
				<linearGradient id="SVGID_28_" gradientUnits="userSpaceOnUse" x1="1765.3457" y1="1352.6034" x2="1835.2286" y2="1282.7205" gradientTransform="matrix(0 1 -1 0 1760.7791 -1544.1136)">
				<stop  offset="0" style="stop-color:#FFFFFF"/>
				<stop  offset="2.234844e-03" style="stop-color:#FDFDFD"/>
				<stop  offset="6.017093e-02" style="stop-color:#C8C8C8"/>
				<stop  offset="0.1204" style="stop-color:#9A9A9A"/>
				<stop  offset="0.1844" style="stop-color:#707070"/>
				<stop  offset="0.2512" style="stop-color:#4E4E4E"/>
				<stop  offset="0.3216" style="stop-color:#313131"/>
				<stop  offset="0.3969" style="stop-color:#1B1B1B"/>
				<stop  offset="0.4793" style="stop-color:#0C0C0C"/>
				<stop  offset="0.5744" style="stop-color:#030303"/>
				<stop  offset="0.711" style="stop-color:#000000"/>
			</linearGradient>
			<path style="mask:url(#SVGID_27_);fill:url(#SVGID_28_);" d="M364.7,383.1l216.1-194.7c-22.4-13.5-50.4-20.2-80-17.3
				c-34.6,3.4-64.5,19.4-84.2,42.1l0,0c0,0-42.5,39.3-50.8,137C364.9,360.5,364.4,371.5,364.7,383.1z"/>
		</g>
	</mask>
	
		<linearGradient id="SVGID_29_" gradientUnits="userSpaceOnUse" x1="1765.3457" y1="1352.6034" x2="1835.2286" y2="1282.7205" gradientTransform="matrix(0 1 -1 0 1760.7791 -1544.1136)">
		<stop  offset="0" style="stop-color:#FFFFFF"/>
		<stop  offset="8.544888e-02" style="stop-color:#FFFFFF"/>
		<stop  offset="0.711" style="stop-color:#FFFFFF"/>
	</linearGradient>
	<path style="opacity:0.6;fill:url(#SVGID_29_);" d="M364.7,383.1l216.1-194.7c-22.4-13.5-50.4-20.2-80-17.3
		c-34.6,3.4-64.5,19.4-84.2,42.1l0,0c0,0-42.5,39.3-50.8,137C364.9,360.5,364.4,371.5,364.7,383.1z"/>
	
		<linearGradient id="SVGID_30_" gradientUnits="userSpaceOnUse" x1="1611.5945" y1="998.5624" x2="1611.5945" y2="974.246" gradientTransform="matrix(0 1 -1 0 1760.7791 -1544.1136)">
		<stop  offset="0" style="stop-color:#402B79"/>
		<stop  offset="6.148824e-02" style="stop-color:#492C7C"/>
		<stop  offset="0.3277" style="stop-color:#722A86"/>
		<stop  offset="0.4546" style="stop-color:#84298B"/>
		<stop  offset="0.6563" style="stop-color:#A0316D"/>
		<stop  offset="0.9785" style="stop-color:#CF4233"/>
	</linearGradient>
	<path style="fill:url(#SVGID_30_);" d="M786.5,74.4c-7.9-5.2-16.1-9.9-24.3-14.2c8.2,4.3,16,9.2,23.5,14.5L786.5,74.4z"/>
</g>
<defs>
	<filter id="Adobe_OpacityMaskFilter_12_" filterUnits="userSpaceOnUse" x="641.5" y="647.1" width="244.1" height="84.4">
		<feFlood  style="flood-color:white;flood-opacity:1" result="back"/>
		<feBlend  in="SourceGraphic" in2="back" mode="normal"/>
	</filter>
</defs>
<mask maskUnits="userSpaceOnUse" x="641.5" y="647.1" width="244.1" height="84.4" id="SVGID_31_">
	<g style="filter:url(#Adobe_OpacityMaskFilter_12_);">
		<defs>
			<filter id="Adobe_OpacityMaskFilter_13_" filterUnits="userSpaceOnUse" x="641.5" y="647.1" width="244.1" height="84.4">
				<feFlood  style="flood-color:white;flood-opacity:1" result="back"/>
				<feBlend  in="SourceGraphic" in2="back" mode="normal"/>
			</filter>
		</defs>
		<mask maskUnits="userSpaceOnUse" x="641.5" y="647.1" width="244.1" height="84.4" id="SVGID_31_">
			<g style="filter:url(#Adobe_OpacityMaskFilter_13_);">
			</g>
		</mask>
		
			<linearGradient id="SVGID_32_" gradientUnits="userSpaceOnUse" x1="2191.262" y1="997.2639" x2="2275.6125" y2="997.2639" gradientTransform="matrix(0 1 -1 0 1760.7791 -1544.1136)">
			<stop  offset="0.289" style="stop-color:#000000"/>
			<stop  offset="0.4256" style="stop-color:#030303"/>
			<stop  offset="0.5207" style="stop-color:#0C0C0C"/>
			<stop  offset="0.6031" style="stop-color:#1B1B1B"/>
			<stop  offset="0.6784" style="stop-color:#313131"/>
			<stop  offset="0.7488" style="stop-color:#4E4E4E"/>
			<stop  offset="0.8156" style="stop-color:#707070"/>
			<stop  offset="0.8796" style="stop-color:#9A9A9A"/>
			<stop  offset="0.9398" style="stop-color:#C8C8C8"/>
			<stop  offset="0.9978" style="stop-color:#FDFDFD"/>
			<stop  offset="1" style="stop-color:#FFFFFF"/>
		</linearGradient>
		<path style="mask:url(#SVGID_31_);fill:url(#SVGID_32_);" d="M769.9,731.3c48.3-2.5,88.6-34.9,115.7-84.2H641.5
			C673.4,696,712.9,734.3,769.9,731.3z"/>
	</g>
</mask>
<linearGradient id="SVGID_33_" gradientUnits="userSpaceOnUse" x1="2191.262" y1="997.2639" x2="2275.6125" y2="997.2639" gradientTransform="matrix(0 1 -1 0 1760.7791 -1544.1136)">
	<stop  offset="0.289" style="stop-color:#FFFFFF"/>
	<stop  offset="0.9146" style="stop-color:#FFFFFF"/>
	<stop  offset="1" style="stop-color:#FFFFFF"/>
</linearGradient>
<path style="opacity:0.5;fill:url(#SVGID_33_);" d="M769.9,731.3c48.3-2.5,88.6-34.9,115.7-84.2H641.5
	C673.4,696,712.9,734.3,769.9,731.3z"/>
<g>
	<g>
		<path d="M1108.5,240.6c-1.3-3-2.1-6.8-2.1-10.3c0-14.5,12.4-25.6,26.9-25.6c12.8,0,22.6,8.1,26.1,19.2l68.8,205.4l67.5-204.6
			c4.3-12.4,13.2-20.9,26.5-20.9h3.8c13.2,0,22.6,8.5,26.5,20.9l67.5,204.6l68.8-205.9c3.8-10.7,12.8-18.8,25.6-18.8
			c14.1,0,26.1,11.1,26.1,25.2c0,3.4-1.3,7.7-2.6,10.7l-88.4,247.7c-4.7,13.2-14.5,21.8-27.3,21.8h-5.1c-12.8,0-22.2-8.1-26.9-21.8
			l-66.6-195.2l-66.6,195.2c-4.7,13.7-14.5,21.8-27.3,21.8h-5.1c-12.8,0-22.2-8.1-27.3-21.8L1108.5,240.6z"/>
		<path d="M1671.9,511c-65.3,0-115.7-47.4-115.7-117v-0.9c0-64.5,45.7-117.5,110.2-117.5c71.8,0,107.2,58.9,107.2,111
			c0,14.5-11.1,24.8-24.3,24.8h-141.4c5.6,36.7,31.6,57.2,64.9,57.2c21.8,0,38.9-7.7,53.4-19.6c3.8-3,7.3-4.7,13.2-4.7
			c11.5,0,20.5,9,20.5,20.9c0,6.4-3,12-6.8,15.8C1732.5,499.5,1706.9,511,1671.9,511z M1723.1,377.3c-3.4-33.3-23.1-59.4-57.2-59.4
			c-31.6,0-53.8,24.3-58.5,59.4H1723.1z"/>
		<path d="M1826.5,217.6c0-14.5,11.1-25.6,25.6-25.6s26.1,11.1,26.1,25.6v100.4c16.7-23.5,40.1-42.3,76.9-42.3
			c53,0,104.6,41.9,104.6,117v0.9c0,74.7-51.3,117-104.6,117c-37.6,0-61.1-18.8-76.9-39.7v11.5c0,14.1-11.5,25.6-26.1,25.6
			c-14.1,0-25.6-11.5-25.6-25.6V217.6z M2007.1,393.5v-0.9c0-43.6-29.5-72.2-64.5-72.2c-35,0-65.8,29-65.8,72.2v0.9
			c0,43.1,30.8,72.2,65.8,72.2C1978.1,465.7,2007.1,438,2007.1,393.5z"/>
		<path d="M2113.1,217.6c0-14.5,11.1-25.6,25.6-25.6s26.1,11.1,26.1,25.6v100.4c16.7-23.5,40.1-42.3,76.9-42.3
			c53,0,104.6,41.9,104.6,117v0.9c0,74.7-51.3,117-104.6,117c-37.6,0-61.1-18.8-76.9-39.7v11.5c0,14.1-11.5,25.6-26.1,25.6
			c-14.1,0-25.6-11.5-25.6-25.6V217.6z M2293.7,393.5v-0.9c0-43.6-29.5-72.2-64.5-72.2c-35,0-65.8,29-65.8,72.2v0.9
			c0,43.1,30.8,72.2,65.8,72.2C2264.7,465.7,2293.7,438,2293.7,393.5z"/>
		<path d="M2503,511c-65.3,0-115.7-47.4-115.7-117v-0.9c0-64.5,45.7-117.5,110.2-117.5c71.8,0,107.2,58.9,107.2,111
			c0,14.5-11.1,24.8-24.3,24.8h-141.4c5.6,36.7,31.6,57.2,64.9,57.2c21.8,0,38.9-7.7,53.4-19.6c3.8-3,7.3-4.7,13.2-4.7
			c11.5,0,20.5,9,20.5,20.9c0,6.4-3,12-6.8,15.8C2563.7,499.5,2538,511,2503,511z M2554.3,377.3c-3.4-33.3-23.1-59.4-57.2-59.4
			c-31.6,0-53.8,24.3-58.5,59.4H2554.3z"/>
		<path d="M2879.3,482.4c0,14.5-11.5,25.6-25.6,25.6c-14.5,0-26.1-11.1-26.1-25.6v-14.1c-16.7,23.5-40.1,42.3-76.9,42.3
			c-53,0-104.6-42.3-104.6-117v-0.9c0-74.7,50.8-117,104.6-117c37.2,0,60.6,18.4,76.9,39.7v-97.8c0-14.5,11.5-25.6,25.6-25.6
			c14.5,0,26.1,11.1,26.1,25.6V482.4z M2698.2,392.7v0.9c0,43.6,29.9,72.2,64.9,72.2c34.6,0,65.3-29,65.3-72.2v-0.9
			c0-43.6-30.8-72.2-65.3-72.2C2727.7,320.5,2698.2,347.8,2698.2,392.7z"/>
		<path d="M2943.3,219.7c0-15.4,12.8-25.2,29.5-25.2s29.5,9.8,29.5,25.2v2.6c0,15.4-12.8,25.6-29.5,25.6s-29.5-10.3-29.5-25.6V219.7
			z M2947.2,303.8c0-14.5,11.1-26.1,25.6-26.1c14.5,0,26.1,11.5,26.1,26.1v178.5c0,14.5-11.5,25.6-26.1,25.6
			c-14.1,0-25.6-11.1-25.6-25.6V303.8z"/>
		<path d="M3051.4,441v-0.9c0-48.7,38-72.6,93.1-72.6c25.2,0,43.1,3.8,60.6,9.4v-5.6c0-32-19.6-49.1-56-49.1c-19.6,0-35.9,3.4-50,9
			c-3,0.9-5.6,1.3-8.1,1.3c-12,0-21.8-9.4-21.8-21.4c0-9.4,6.4-17.5,14.1-20.5c21.4-8.1,43.1-13.2,72.6-13.2
			c33.7,0,58.9,9,74.7,25.2c16.7,16.2,24.3,40.1,24.3,69.6v111c0,14.1-11.1,24.8-25.2,24.8c-14.9,0-25.2-10.3-25.2-21.8v-8.5
			c-15.4,18.4-38.9,32.9-73.5,32.9C3089,510.6,3051.4,486.2,3051.4,441z M3206,424.7v-15.4c-13.2-5.1-30.8-9-51.3-9
			c-33.3,0-53,14.1-53,37.6v0.9c0,21.8,19.2,34.2,44,34.2C3180,473,3206,453.3,3206,424.7z"/>
	</g>
	<g>
		<path d="M1506.9,706.6c-1.4-0.9-2.2-2.5-2.2-4.5c0-3.3,2.5-5.8,5.7-5.8c1.5,0,2.9,0.6,3.6,1.4c9.9,8.4,19.8,12.4,33.1,12.4
			c14.1,0,23.4-7.5,23.4-17.8v-0.3c0-9.8-5.2-15.3-27.3-19.9c-24.1-5.2-35.2-13-35.2-30.3v-0.3c0-16.5,14.5-28.6,34.5-28.6
			c13.8,0,23.8,3.5,33.4,10.3c1.2,0.9,2.5,2.5,2.5,4.8c0,3.2-2.5,5.7-5.7,5.7c-1.3,0-2.4-0.3-3.4-1c-8.8-6.5-17.4-9.1-27.1-9.1
			c-13.6,0-22.3,7.5-22.3,16.9v0.3c0,9.9,5.4,15.4,28.5,20.4c23.4,5.1,34.2,13.6,34.2,29.7v0.3c0,18-15,29.7-35.8,29.7
			C1531.3,720.7,1518.6,715.9,1506.9,706.6z"/>
		<path d="M1606.6,713.2v-93c0-3.3,2.7-6,5.8-6h65.2c3,0,5.4,2.4,5.4,5.4s-2.4,5.4-5.4,5.4h-59.2v35.8h52.5c3,0,5.4,2.5,5.4,5.4
			c0,3-2.4,5.4-5.4,5.4h-52.5v36.7h60c3,0,5.4,2.4,5.4,5.4s-2.4,5.4-5.4,5.4h-66C1609.3,719.2,1606.6,716.5,1606.6,713.2z"/>
		<path d="M1702.5,667v-0.3c0-28.9,21.7-54.3,53.7-54.3c31.9,0,53.4,25,53.4,54v0.3c0,28.9-21.8,54.3-53.7,54.3
			S1702.5,696,1702.5,667z M1797.3,667v-0.3c0-23.8-17.4-43.3-41.4-43.3s-41.1,19.2-41.1,43v0.3c0,23.8,17.4,43.3,41.4,43.3
			S1797.3,690.9,1797.3,667z"/>
		<path d="M1952.7,718.5l-13.6-14.2c-9.6,10.3-20.8,16.5-34.5,16.5c-18.9,0-33-11.8-33-29.4V691c0-13.9,9.3-24,25.3-30.3
			c-7.2-8.4-10.5-14.8-10.5-23.1v-0.3c0-13.8,11.1-24.9,27.7-24.9c14.7,0,25.5,10.6,25.5,23.7v0.3c0,13.3-9.5,21.9-24.7,27.3
			l24,24.4c3.9-5.8,7.6-12.6,10.9-19.9c0.6-1.2,2.1-3.1,4.8-3.1c3,0,5.4,2.4,5.4,5.4c0,0.8-0.3,1.8-0.8,2.7
			c-3.9,8.2-8.2,15.9-13,22.3l14.5,14.8c1.4,1.5,2.2,2.5,2.2,4.6c0,3.2-2.4,5.5-5.5,5.5C1955.4,720.6,1954.2,719.8,1952.7,718.5z
			 M1931.8,696.9l-28.2-28.8c-13.9,5.1-20.1,13.6-20.1,22.5v0.3c0,11.2,9,19.8,21.9,19.8C1915.5,710.7,1924.2,705.4,1931.8,696.9z
			 M1928.5,637v-0.3c0-8.4-6.3-14.5-14.8-14.5c-9.5,0-15.9,6.6-15.9,15.1v0.3c0,6.1,2.5,10.8,10.5,19.3
			C1921.6,652.5,1928.5,646.2,1928.5,637z"/>
		<path d="M2025.3,706.6c-1.3-0.9-2.2-2.5-2.2-4.5c0-3.3,2.5-5.8,5.7-5.8c1.5,0,2.8,0.6,3.6,1.4c9.9,8.4,19.8,12.4,33.1,12.4
			c14.1,0,23.4-7.5,23.4-17.8v-0.3c0-9.8-5.2-15.3-27.3-19.9c-24.1-5.2-35.2-13-35.2-30.3v-0.3c0-16.5,14.5-28.6,34.5-28.6
			c13.8,0,23.8,3.5,33.4,10.3c1.2,0.9,2.5,2.5,2.5,4.8c0,3.2-2.5,5.7-5.7,5.7c-1.4,0-2.4-0.3-3.5-1c-8.8-6.5-17.4-9.1-27.1-9.1
			c-13.6,0-22.3,7.5-22.3,16.9v0.3c0,9.9,5.4,15.4,28.5,20.4c23.4,5.1,34.2,13.6,34.2,29.7v0.3c0,18-15,29.7-35.8,29.7
			C2049.7,720.7,2037,715.9,2025.3,706.6z"/>
		<path d="M2125,619.6c0-3.2,2.7-5.8,5.8-5.8h1.3c2.5,0,4.3,1.3,5.5,3.1l37.5,56.4l37.5-56.4c1.2-2,3.2-3.1,5.5-3.1h1.3
			c3.2,0,5.9,2.7,5.9,5.8V714c0,3.3-2.7,6-5.9,6c-3.3,0-6-2.8-6-6v-78.3l-33.6,49.3c-1.4,1.9-2.9,3-5,3s-3.8-1.1-5.1-3l-33.4-49.2
			v78.3c0,3.3-2.5,5.8-5.8,5.8c-3.1,0-5.7-2.5-5.7-5.8V619.6z"/>
		<path d="M2251.5,706.6c-1.3-0.9-2.2-2.5-2.2-4.5c0-3.3,2.5-5.8,5.7-5.8c1.5,0,2.8,0.6,3.6,1.4c9.9,8.4,19.8,12.4,33.1,12.4
			c14.1,0,23.4-7.5,23.4-17.8v-0.3c0-9.8-5.2-15.3-27.3-19.9c-24.1-5.2-35.2-13-35.2-30.3v-0.3c0-16.5,14.5-28.6,34.5-28.6
			c13.8,0,23.8,3.5,33.4,10.3c1.2,0.9,2.5,2.5,2.5,4.8c0,3.2-2.5,5.7-5.7,5.7c-1.4,0-2.4-0.3-3.5-1c-8.8-6.5-17.4-9.1-27.1-9.1
			c-13.6,0-22.3,7.5-22.3,16.9v0.3c0,9.9,5.4,15.4,28.5,20.4c23.4,5.1,34.2,13.6,34.2,29.7v0.3c0,18-15,29.7-35.8,29.7
			C2275.9,720.7,2263.2,715.9,2251.5,706.6z"/>
		<path d="M2396.2,713.2v-93c0-3.3,2.7-6,5.8-6h65.2c3,0,5.4,2.4,5.4,5.4s-2.4,5.4-5.4,5.4h-59.2v35.8h52.5c3,0,5.4,2.5,5.4,5.4
			c0,3-2.4,5.4-5.4,5.4h-52.5v36.7h60c3,0,5.4,2.4,5.4,5.4s-2.4,5.4-5.4,5.4h-66C2398.9,719.2,2396.2,716.5,2396.2,713.2z"/>
		<path d="M2492.4,711l25.3-31.2l-23.8-29.2c-1.2-1.3-1.8-2.7-1.8-4.2c0-3.3,2.4-5.4,5.4-5.4c2.2,0,3.8,1,5.1,2.7l22.3,28.3
			l22.2-28.2c1.4-1.6,2.9-2.8,5-2.8c3,0,5.2,2.2,5.2,5.2c0,1.5-0.6,2.7-1.5,3.8l-24.1,29.5l25.2,30.9c1,1.3,1.6,2.7,1.6,4.2
			c0,3.1-2.4,5.4-5.4,5.4c-2.2,0-3.8-1-5.1-2.7l-23.5-29.8l-23.4,29.7c-1.3,1.6-2.8,2.8-5,2.8c-3,0-5.2-2.4-5.2-5.2
			C2490.9,713.2,2491.3,712,2492.4,711z"/>
		<path d="M2580.4,646.8c0-3.3,2.5-5.8,5.7-5.8c3.3,0,5.8,2.5,5.8,5.8v10.5c6.3-9.3,15.4-17.2,29.7-17.2c18.6,0,37,14.7,37,40.2v0.3
			c0,25.3-18.3,40.3-37,40.3c-14.4,0-23.7-7.8-29.7-16.5v33.7c0,3.3-2.4,5.8-5.7,5.8s-5.8-2.5-5.8-5.8V646.8z M2646.9,680.7v-0.3
			c0-18.3-12.6-30-27.3-30c-14.4,0-28,12.2-28,29.8v0.3c0,18,13.6,30,28,30C2634.6,710.5,2646.9,699.4,2646.9,680.7z"/>
		<path d="M2713.9,721c-21.3,0-38.7-16.3-38.7-40.3v-0.3c0-22.3,15.7-40.3,37.2-40.3c22.9,0,36,18.7,36,39.3c0,3.2-2.5,5.4-5.4,5.4
			h-56.1c1.7,16.8,13.5,26.2,27.3,26.2c9.6,0,16.6-3.7,22.3-9c0.9-0.8,2-1.4,3.3-1.4c2.8,0,5.1,2.2,5.1,5c0,1.3-0.6,2.7-1.8,3.8
			C2735.8,716.4,2727.1,721,2713.9,721z M2736.9,676.2c-1.2-14.1-9.3-26.4-24.7-26.4c-13.5,0-23.7,11.2-25.2,26.4H2736.9z"/>
		<path d="M2768.8,646.8c0-3.1,2.5-5.8,5.7-5.8c3.3,0,5.8,2.5,5.8,5.8v14.5c5.7-12.9,16.9-20.7,26.7-20.7c3.5,0,5.7,2.5,5.7,5.8
			c0,3.2-2.1,5.4-5.1,5.8c-15,1.8-27.3,13-27.3,35.4v26.4c0,3.1-2.4,5.8-5.7,5.8s-5.8-2.5-5.8-5.8V646.8z"/>
		<path d="M2833.6,698.7v-46.8h-6.3c-2.7,0-5.1-2.4-5.1-5.1c0-2.8,2.4-5.1,5.1-5.1h6.3v-18.3c0-3.2,2.4-5.9,5.7-5.9
			c3.1,0,5.8,2.7,5.8,5.9v18.3h20.1c2.9,0,5.2,2.4,5.2,5.1c0,2.9-2.4,5.1-5.2,5.1h-20.1v45.3c0,9.4,5.2,12.9,13,12.9c4,0,6.2-1,7-1
			c2.7,0,5,2.2,5,4.9c0,2.1-1.3,3.8-3.3,4.5c-3.3,1.3-6.9,2.1-11.4,2.1C2843.1,720.6,2833.6,714.4,2833.6,698.7z"/>
	</g>
</g>
</svg>
