<?xml version="1.0" encoding="utf-8"?>
<!-- Generator: Adobe Illustrator 23.0.3, SVG Export Plug-In . SVG Version: 6.00 Build 0)  -->
<svg version="1.1" id="Calque_1" xmlns="http://www.w3.org/2000/svg" xmlns:xlink="http://www.w3.org/1999/xlink" x="0px" y="0px"
	 viewBox="0 0 116.8 91.8" style="enable-background:new 0 0 116.8 91.8;" xml:space="preserve">
<g>
	<path d="M14.6,25H2.1c-0.6,0-1.1,0.2-1.5,0.6C0.2,26.1,0,26.6,0,27.1v12.5c0,0.6,0.2,1.1,0.6,1.5c0.4,0.4,0.9,0.6,1.5,0.6h12.5
		c0.6,0,1-0.2,1.5-0.6c0.4-0.4,0.6-0.9,0.6-1.5V27.1c0-0.6-0.2-1.1-0.6-1.5S15.2,25,14.6,25L14.6,25z M14.6,25"/>
	<path d="M14.6,75.1H2.1c-0.6,0-1.1,0.2-1.5,0.6C0.2,76.1,0,76.6,0,77.2v12.5c0,0.6,0.2,1.1,0.6,1.5c0.4,0.4,0.9,0.6,1.5,0.6h12.5
		c0.6,0,1-0.2,1.5-0.6s0.6-0.9,0.6-1.5V77.2c0-0.6-0.2-1.1-0.6-1.5C15.7,75.3,15.2,75.1,14.6,75.1L14.6,75.1z M14.6,75.1"/>
	<path d="M14.6,50.1H2.1c-0.6,0-1.1,0.2-1.5,0.6C0.2,51.1,0,51.6,0,52.1v12.5c0,0.6,0.2,1.1,0.6,1.5c0.4,0.4,0.9,0.6,1.5,0.6h12.5
		c0.6,0,1-0.2,1.5-0.6c0.4-0.4,0.6-0.9,0.6-1.5V52.1c0-0.6-0.2-1-0.6-1.5S15.2,50.1,14.6,50.1L14.6,50.1z M14.6,50.1"/>
	<path d="M14.6,0H2.1C1.5,0,1,0.2,0.6,0.6C0.2,1,0,1.5,0,2.1v12.5c0,0.6,0.2,1.1,0.6,1.5c0.4,0.4,0.9,0.6,1.5,0.6h12.5
		c0.6,0,1-0.2,1.5-0.6s0.6-0.9,0.6-1.5V2.1c0-0.6-0.2-1.1-0.6-1.5C15.7,0.2,15.2,0,14.6,0L14.6,0z M14.6,0"/>
	<path d="M114.7,75.1H27.1c-0.6,0-1.1,0.2-1.5,0.6c-0.4,0.4-0.6,0.9-0.6,1.5v12.5c0,0.6,0.2,1.1,0.6,1.5c0.4,0.4,0.9,0.6,1.5,0.6
		h87.6c0.6,0,1.1-0.2,1.5-0.6c0.4-0.4,0.6-0.9,0.6-1.5V77.2c0-0.6-0.2-1.1-0.6-1.5C115.8,75.3,115.3,75.1,114.7,75.1L114.7,75.1z
		 M114.7,75.1"/>
	<path d="M114.7,50.1H27.1c-0.6,0-1.1,0.2-1.5,0.6c-0.4,0.4-0.6,0.9-0.6,1.5v12.5c0,0.6,0.2,1.1,0.6,1.5c0.4,0.4,0.9,0.6,1.5,0.6
		h87.6c0.6,0,1.1-0.2,1.5-0.6c0.4-0.4,0.6-0.9,0.6-1.5V52.1c0-0.6-0.2-1-0.6-1.5C115.8,50.3,115.3,50.1,114.7,50.1L114.7,50.1z
		 M114.7,50.1"/>
	<path d="M116.2,0.6c-0.4-0.4-0.9-0.6-1.5-0.6H27.1c-0.6,0-1.1,0.2-1.5,0.6C25.2,1,25,1.5,25,2.1v12.5c0,0.6,0.2,1.1,0.6,1.5
		c0.4,0.4,0.9,0.6,1.5,0.6h87.6c0.6,0,1.1-0.2,1.5-0.6c0.4-0.4,0.6-0.9,0.6-1.5V2.1C116.8,1.5,116.6,1,116.2,0.6L116.2,0.6z
		 M116.2,0.6"/>
	<path d="M114.7,25H27.1c-0.6,0-1.1,0.2-1.5,0.6c-0.4,0.4-0.6,0.9-0.6,1.5v12.5c0,0.6,0.2,1.1,0.6,1.5c0.4,0.4,0.9,0.6,1.5,0.6h87.6
		c0.6,0,1.1-0.2,1.5-0.6c0.4-0.4,0.6-0.9,0.6-1.5V27.1c0-0.6-0.2-1.1-0.6-1.5C115.8,25.2,115.3,25,114.7,25L114.7,25z M114.7,25"/>
</g>
</svg>
