<?xml version="1.0" encoding="utf-8"?>
<!-- Generator: Adobe Illustrator 24.0.1, SVG Export Plug-In . SVG Version: 6.00 Build 0)  -->
<svg version="1.1" id="Слой_1" xmlns="http://www.w3.org/2000/svg" xmlns:xlink="http://www.w3.org/1999/xlink" x="0px" y="0px"
	 viewBox="0 0 128.2 171" style="enable-background:new 0 0 128.2 171;" xml:space="preserve">
<path style="fill:#5683FF;" d="M63.8,171l0.3,0.1l0.3-0.1c0.6-0.1,63.8-14.7,63.8-64.1V28.9c0-1.1-0.6-2-1.6-2.5L65.2,0.2
	c-0.7-0.3-1.4-0.3-2.1,0L1.6,26.4c-1,0.4-1.6,1.4-1.6,2.5v77.9C0,156.2,63.2,170.8,63.8,171z M2.7,28.9L64.1,2.7l61.5,26.2v77.9
	c0,45.6-56.9,60.4-61.4,61.5c-4.6-1.1-61.5-15.9-61.5-61.5L2.7,28.9z"/>
<path style="fill:#5683FF;" d="M63.6,157c0.2,0.1,0.4,0.1,0.6,0.1c0.2,0,0.4,0,0.6-0.1l0,0c11.8-3.5,50.2-17.3,50.2-50.2V37.2
	c0-0.8-0.5-1.5-1.2-1.8L64.9,14.7c-0.5-0.2-1.1-0.2-1.6,0L14.6,35.4c-0.7,0.3-1.2,1-1.2,1.8v69.5C13.4,139.7,51.8,153.6,63.6,157z
	 M16,37.7l48.1-20.5l48.1,20.4v69.1c0,30.9-36.5,44.2-48.1,47.6C52.6,151,16,137.7,16,106.8V37.7z"/>
<path style="fill:#5683FF;" d="M64.1,105.8c-5.2,0-9.4-4.2-9.4-9.4c0-0.7-0.6-1.3-1.3-1.3c-0.7,0-1.3,0.6-1.3,1.3
	c0,6.2,4.7,11.3,10.7,11.9v4.1c0,0.7,0.6,1.3,1.3,1.3c0.7,0,1.3-0.6,1.3-1.3v-4.1c6-0.7,10.7-5.8,10.7-11.9c0-5.6-4.3-10-11.7-12
	c-4.4-1.2-9.7-3.8-9.7-9.4c0-5.2,4.2-9.4,9.4-9.4c5.2,0,9.4,4.2,9.4,9.4c0,0.7,0.6,1.3,1.3,1.3c0.7,0,1.3-0.6,1.3-1.3
	c0-6.2-4.7-11.3-10.7-11.9v-4.1c0-0.7-0.6-1.3-1.3-1.3c-0.7,0-1.3,0.6-1.3,1.3v4.1c-6,0.7-10.7,5.8-10.7,11.9c0,5.7,4.1,10,11.7,12
	c2.9,0.8,9.7,3.3,9.7,9.4C73.5,101.6,69.3,105.8,64.1,105.8z"/>
<path style="fill:#5683FF;" d="M64.1,119.2c18.4,0,33.4-15,33.4-33.4c0-18.4-15-33.4-33.4-33.4c-18.4,0-33.4,15-33.4,33.4
	C30.7,104.2,45.7,119.2,64.1,119.2z M64.1,55.1c16.9,0,30.7,13.8,30.7,30.7c0,16.9-13.8,30.7-30.7,30.7c-16.9,0-30.7-13.8-30.7-30.7
	C33.4,68.9,47.2,55.1,64.1,55.1z"/>
</svg>
