<?xml version="1.0" encoding="utf-8"?>
<!-- Generator: Adobe Illustrator 24.0.1, SVG Export Plug-In . SVG Version: 6.00 Build 0)  -->
<svg version="1.1" id="Слой_1" xmlns="http://www.w3.org/2000/svg" xmlns:xlink="http://www.w3.org/1999/xlink" x="0px" y="0px"
	 viewBox="0 0 128.9 200" style="enable-background:new 0 0 128.9 200;" xml:space="preserve">
<path style="fill:#32B8E3;" d="M75.2,55.4l-8.5-4.9C66,50.2,65.2,50,64.5,50c-0.8,0-1.5,0.2-2.2,0.5l-8.5,4.9
	c-0.6,0.4-1.2,1-1.5,1.6c-0.4,0.7-0.6,1.4-0.6,2.1v9.8c0,0.8,0.3,1.5,0.6,2.1c0.4,0.7,0.9,1.2,1.5,1.6l8.5,4.9
	c0.7,0.3,1.4,0.5,2.2,0.5c0.8,0,1.5-0.2,2.2-0.5l8.5-4.9c0.6-0.4,1.2-1,1.5-1.6c0.4-0.7,0.6-1.4,0.6-2.1v-9.8c0-0.8-0.3-1.5-0.6-2.1
	C76.3,56.4,75.8,55.8,75.2,55.4z M72.7,68.8l-8.2,4.7l-8.2-4.7v-9.4l8.2-4.7l8.2,4.7V68.8z"/>
<path style="fill:#FFFFFF;" d="M64.5,160.2c1.3,0,2.3-1,2.3-2.3c0-1.3-1-2.3-2.3-2.3c-1.3,0-2.3,1-2.3,2.3
	C62.1,159.1,63.2,160.2,64.5,160.2z"/>
<path style="fill:#FFFFFF;" d="M64.5,169.5c1.3,0,2.3-1,2.3-2.3c0-1.3-1-2.3-2.3-2.3c-1.3,0-2.3,1-2.3,2.3
	C62.1,168.5,63.2,169.5,64.5,169.5z"/>
<path style="fill:#C75695;" d="M99.8,77.6c0.7,0.3,1.4,0.5,2.2,0.5c0.8,0,1.5-0.2,2.2-0.5l8.5-4.9c0.6-0.4,1.2-1,1.5-1.6
	c0.4-0.7,0.6-1.4,0.6-2.1v-9.8c0-0.8-0.3-1.5-0.6-2.1c-0.4-0.7-0.9-1.2-1.5-1.6l-8.5-4.9c-0.7-0.3-1.4-0.5-2.2-0.5
	c-0.8,0-1.5,0.2-2.2,0.5l-8.5,4.9c-0.6,0.4-1.2,1-1.5,1.6c-0.4,0.7-0.6,1.4-0.6,2.1v9.8c0,0.8,0.3,1.5,0.6,2.1
	c0.4,0.7,0.9,1.2,1.5,1.6L99.8,77.6z M93.7,59.4l8.2-4.7l8.2,4.7v9.4l-8.2,4.7l-8.2-4.7V59.4z"/>
<path style="fill:#FFFFFF;" d="M78.5,148.4c1.3,0,2.3-1,2.3-2.3c0-1.3-1-2.3-2.3-2.3c-1.3,0-2.3,1-2.3,2.3
	C76.2,147.4,77.2,148.4,78.5,148.4z"/>
<path style="fill:#FFFFFF;" d="M78.5,157.8c1.3,0,2.3-1,2.3-2.3s-1-2.3-2.3-2.3c-1.3,0-2.3,1-2.3,2.3S77.2,157.8,78.5,157.8z"/>
<path style="fill:#5683FF;" d="M37.7,55.4l-8.5-4.9C28.5,50.2,27.7,50,27,50c-0.8,0-1.5,0.2-2.2,0.5l-8.5,4.9
	c-0.6,0.4-1.2,1-1.5,1.6c-0.4,0.7-0.6,1.4-0.6,2.1v9.8c0,0.8,0.3,1.5,0.6,2.1c0.4,0.7,0.9,1.2,1.5,1.6l8.5,4.9
	c0.7,0.3,1.4,0.5,2.2,0.5c0.8,0,1.5-0.2,2.2-0.5l8.5-4.9c0.6-0.4,1.2-1,1.5-1.6c0.4-0.7,0.6-1.4,0.6-2.1v-9.8c0-0.8-0.3-1.5-0.6-2.1
	C38.8,56.4,38.3,55.8,37.7,55.4z M35.2,68.8L27,73.4l-8.2-4.7v-9.4l8.2-4.7l8.2,4.7V68.8z"/>
<path style="fill:#FFFFFF;" d="M50.4,148.4c1.3,0,2.3-1,2.3-2.3c0-1.3-1-2.3-2.3-2.3c-1.3,0-2.3,1-2.3,2.3
	C48,147.4,49.1,148.4,50.4,148.4z"/>
<path style="fill:#FFFFFF;" d="M50.4,157.8c1.3,0,2.3-1,2.3-2.3s-1-2.3-2.3-2.3c-1.3,0-2.3,1-2.3,2.3S49.1,157.8,50.4,157.8z"/>
<path style="fill:#FFFFFF;" d="M0,112.5v71.9c0,0.5,0.1,1,0.3,1.5c0.2,0.5,0.5,0.9,0.9,1.3c0.4,0.4,0.8,0.6,1.3,0.8
	c0.5,0.2,1,0.3,1.5,0.3h49.9v7h-7c-0.6,0-1.2,0.2-1.7,0.7c-0.4,0.4-0.7,1-0.7,1.7c0,0.6,0.2,1.2,0.7,1.7c0.4,0.4,1,0.7,1.7,0.7H82
	c0.6,0,1.2-0.2,1.7-0.7c0.4-0.4,0.7-1,0.7-1.7c0-0.6-0.2-1.2-0.7-1.7c-0.4-0.4-1-0.7-1.7-0.7h-8.2v-7h51c0.5,0,1-0.1,1.5-0.3
	c0.5-0.2,0.9-0.5,1.3-0.8c0.4-0.4,0.7-0.8,0.9-1.3c0.2-0.5,0.3-1,0.3-1.5v-71.9c0-0.5-0.1-1-0.3-1.5c-0.2-0.5-0.5-0.9-0.9-1.3
	c-0.4-0.4-0.8-0.6-1.3-0.8s-1-0.3-1.5-0.3H85.5v4.7h38.7v60.9H4.7v-60.9h38.7v-4.7H4.1c-0.5,0-1,0.1-1.5,0.3s-0.9,0.5-1.3,0.8
	c-0.4,0.4-0.7,0.8-0.9,1.3C0.1,111.5,0,112,0,112.5z M69.1,195.3H58.6v-7h10.5V195.3z M4.7,178.9h119.5v4.7H4.7V178.9z"/>
<path style="fill:#FFFFFF;" d="M70.4,139.5c-0.5-0.3-1.1-0.5-1.8-0.3s-1.1,0.5-1.5,1l-0.4,0.6V85.2c0-0.6-0.2-1.2-0.7-1.7
	c-0.4-0.4-1-0.7-1.7-0.7c-0.6,0-1.2,0.2-1.7,0.7c-0.4,0.4-0.7,1-0.7,1.7v55.5l-0.4-0.6c-0.2-0.3-0.4-0.5-0.6-0.6
	c-0.3-0.2-0.5-0.3-0.8-0.4c-0.3-0.1-0.6-0.1-0.9,0c-0.3,0.1-0.6,0.2-0.8,0.3c-0.3,0.2-0.5,0.4-0.6,0.6c-0.2,0.3-0.3,0.5-0.4,0.8
	c-0.1,0.3-0.1,0.6,0,0.9c0.1,0.3,0.2,0.6,0.3,0.8l4.7,7c0.2,0.3,0.5,0.6,0.8,0.8c0.3,0.2,0.7,0.3,1.1,0.3c0.4,0,0.8-0.1,1.1-0.3
	c0.3-0.2,0.6-0.4,0.8-0.8l4.7-7c0.3-0.5,0.5-1.1,0.3-1.8C71.3,140.3,71,139.8,70.4,139.5z"/>
<path style="fill:#FFFFFF;" d="M76.2,103.5V129l-0.4-0.6c-0.3-0.5-0.9-0.9-1.5-1c-0.6-0.1-1.2,0-1.8,0.3c-0.5,0.3-0.9,0.9-1,1.5
	c-0.1,0.6,0,1.2,0.3,1.8l4.7,7c0.2,0.3,0.5,0.6,0.8,0.8c0.3,0.2,0.7,0.3,1.1,0.3c0.4,0,0.8-0.1,1.1-0.3c0.3-0.2,0.6-0.4,0.8-0.8
	l4.7-7c0.2-0.3,0.3-0.5,0.3-0.8c0.1-0.3,0.1-0.6,0-0.9s-0.2-0.6-0.4-0.8c-0.2-0.3-0.4-0.5-0.6-0.6c-0.3-0.2-0.5-0.3-0.8-0.3
	c-0.3-0.1-0.6-0.1-0.9,0c-0.3,0.1-0.6,0.2-0.8,0.4c-0.3,0.2-0.5,0.4-0.6,0.6l-0.4,0.6v-25.5c0-0.1,0.1-0.3,0.2-0.4l0.1-0.1
	l15.5-16.2c0.4-0.5,0.6-1,0.6-1.6c0-0.6-0.3-1.2-0.7-1.6c-0.4-0.4-1-0.6-1.6-0.6c-0.6,0-1.2,0.2-1.6,0.7L77.8,99.7
	C76.8,100.7,76.2,102.1,76.2,103.5z"/>
<path style="fill:#FFFFFF;" d="M35.7,83.5c-0.2-0.2-0.5-0.4-0.7-0.6c-0.3-0.1-0.6-0.2-0.9-0.2c-0.3,0-0.6,0-0.9,0.1
	s-0.6,0.3-0.8,0.5c-0.2,0.2-0.4,0.5-0.5,0.8c-0.1,0.3-0.2,0.6-0.2,0.9c0,0.3,0.1,0.6,0.2,0.9s0.3,0.6,0.5,0.8l15.6,16.3
	c0.1,0.1,0.1,0.2,0.2,0.4V129l-0.4-0.6c-0.2-0.3-0.4-0.5-0.6-0.6c-0.3-0.2-0.5-0.3-0.8-0.4c-0.3-0.1-0.6-0.1-0.9,0s-0.6,0.2-0.8,0.3
	c-0.3,0.2-0.5,0.4-0.6,0.6c-0.2,0.3-0.3,0.5-0.4,0.8c-0.1,0.3-0.1,0.6,0,0.9c0.1,0.3,0.2,0.6,0.3,0.8l4.7,7c0.2,0.3,0.5,0.6,0.8,0.8
	c0.3,0.2,0.7,0.3,1.1,0.3s0.8-0.1,1.1-0.3c0.3-0.2,0.6-0.4,0.8-0.8l4.7-7c0.3-0.5,0.5-1.2,0.3-1.8c-0.1-0.6-0.5-1.1-1-1.5
	c-0.5-0.3-1.2-0.5-1.8-0.3c-0.6,0.1-1.1,0.5-1.5,1l-0.4,0.6v-25.5c0-1.4-0.6-2.7-1.6-3.7L35.7,83.5z"/>
<path style="fill:#FFFFFF;" d="M46.5,0v15.9h-3.3l-6.5-9.3v9.3H33V0h3.3l6.5,9.3V0H46.5z"/>
<path style="fill:#FFFFFF;" d="M60.2,12.5c-0.2,0.5-0.4,0.9-0.7,1.4c-0.3,0.4-0.7,0.8-1.2,1.2c-0.5,0.3-1,0.6-1.6,0.8
	c-0.6,0.2-1.3,0.3-2,0.3c-0.8,0-1.6-0.2-2.3-0.5c-0.7-0.3-1.3-0.7-1.9-1.3c-0.5-0.6-1-1.2-1.3-1.9c-0.3-0.7-0.5-1.5-0.5-2.4
	c0-0.9,0.2-1.6,0.5-2.4C49.6,7,50,6.3,50.6,5.8c0.5-0.6,1.2-1,1.9-1.3C53.2,4.2,54,4,54.8,4c0.8,0,1.6,0.1,2.2,0.4
	c0.7,0.3,1.3,0.7,1.8,1.2c0.5,0.5,0.9,1.2,1.2,1.9c0.3,0.7,0.5,1.6,0.5,2.5c0,0.1,0,0.3,0,0.4c0,0.1,0,0.2-0.1,0.4
	c0,0.1,0,0.3-0.1,0.4h-8.1c0.1,0.4,0.4,0.8,0.8,1.2c0.4,0.4,1,0.6,1.6,0.6c0.3,0,0.6,0,0.8-0.1c0.2-0.1,0.4-0.2,0.6-0.3
	c0.2-0.1,0.3-0.2,0.4-0.4L60.2,12.5z M54.8,7.2c-0.6,0-1.2,0.2-1.6,0.6c-0.4,0.4-0.7,0.8-0.8,1.3h4.9c-0.1-0.5-0.4-0.9-0.8-1.3
	C56,7.4,55.5,7.2,54.8,7.2z"/>
<path style="fill:#FFFFFF;" d="M64.8,4.3l2.6,7.6l2.6-7.6h3.7l-4.5,11.6h-3.6L61.1,4.3H64.8z"/>
<path style="fill:#FFFFFF;" d="M85.8,12.5c-0.2,0.5-0.4,0.9-0.7,1.4c-0.3,0.4-0.7,0.8-1.2,1.2c-0.5,0.3-1,0.6-1.6,0.8
	c-0.6,0.2-1.3,0.3-2,0.3c-0.8,0-1.6-0.2-2.3-0.5c-0.7-0.3-1.3-0.7-1.9-1.3c-0.5-0.6-1-1.2-1.3-1.9c-0.3-0.7-0.5-1.5-0.5-2.4
	c0-0.9,0.2-1.6,0.5-2.4c0.3-0.7,0.8-1.4,1.3-1.9c0.5-0.6,1.2-1,1.9-1.3C78.8,4.2,79.6,4,80.4,4c0.8,0,1.6,0.1,2.2,0.4
	c0.7,0.3,1.3,0.7,1.8,1.2c0.5,0.5,0.9,1.2,1.2,1.9c0.3,0.7,0.5,1.6,0.5,2.5c0,0.1,0,0.3,0,0.4c0,0.1,0,0.2-0.1,0.4
	c0,0.1,0,0.3-0.1,0.4H78c0.1,0.4,0.4,0.8,0.8,1.2c0.4,0.4,1,0.6,1.6,0.6c0.3,0,0.6,0,0.8-0.1c0.2-0.1,0.4-0.2,0.6-0.3
	c0.2-0.1,0.3-0.2,0.4-0.4L85.8,12.5z M80.4,7.2c-0.6,0-1.2,0.2-1.6,0.6c-0.4,0.4-0.7,0.8-0.8,1.3h4.9c-0.1-0.5-0.4-0.9-0.8-1.3
	C81.6,7.4,81,7.2,80.4,7.2z"/>
<path style="fill:#FFFFFF;" d="M93.9,4.2c0.2,0,0.3,0,0.4,0c0.1,0,0.2,0,0.3,0.1c0.1,0,0.2,0,0.3,0.1v3.5c-0.1,0-0.2-0.1-0.4-0.1
	c-0.1,0-0.3-0.1-0.4-0.1c-0.2,0-0.3-0.1-0.5-0.1c-0.6,0-1.2,0.2-1.6,0.6c-0.4,0.4-0.6,1-0.6,1.8v5.9h-3.5V4.3h2.6l0.5,1.3
	c0.2-0.3,0.5-0.5,0.7-0.7c0.2-0.2,0.5-0.3,0.9-0.5C93.1,4.2,93.5,4.2,93.9,4.2z"/>
<path style="fill:#FFFFFF;" d="M41.3,34h-3.7V21.6H33v-3.5h12.9v3.5h-4.6V34z"/>
<path style="fill:#FFFFFF;" d="M50.9,23.5c0.2-0.2,0.5-0.4,0.8-0.6c0.3-0.2,0.6-0.3,1-0.4c0.4-0.1,0.9-0.2,1.5-0.2
	c0.6,0,1.2,0.1,1.8,0.4c0.6,0.2,1,0.5,1.4,1c0.4,0.4,0.7,0.9,0.9,1.5c0.2,0.6,0.4,1.3,0.4,2V34h-3.5v-6.2c0-0.8-0.2-1.3-0.6-1.8
	c-0.4-0.4-0.9-0.6-1.6-0.6c-0.6,0-1.2,0.2-1.6,0.6c-0.4,0.4-0.6,1-0.6,1.8V34h-3.5V18.1h3.5V23.5z"/>
<path style="fill:#FFFFFF;" d="M64.7,34h-3.5V22.4h3.5V34z M61.2,19.3c0-0.5,0.2-0.9,0.6-1.3c0.4-0.4,0.8-0.6,1.4-0.6
	c0.5,0,1,0.2,1.3,0.6c0.4,0.4,0.6,0.8,0.6,1.3c0,0.5-0.2,0.9-0.6,1.3c-0.4,0.4-0.8,0.6-1.3,0.6c-0.5,0-1-0.2-1.4-0.6
	C61.3,20.2,61.2,19.8,61.2,19.3z"/>
<path style="fill:#FFFFFF;" d="M74.1,22.3c0.7,0,1.3,0.1,1.9,0.4c0.6,0.2,1.1,0.5,1.5,1c0.4,0.4,0.8,0.9,1,1.5
	c0.2,0.6,0.4,1.3,0.4,2V34h-3.5v-6.2c0-0.8-0.2-1.3-0.6-1.8c-0.4-0.4-0.9-0.6-1.6-0.6c-0.6,0-1.2,0.2-1.6,0.6
	c-0.4,0.4-0.6,1-0.6,1.8V34h-3.5V22.4h2.6l0.5,1.1c0.3-0.2,0.6-0.4,0.9-0.6c0.3-0.2,0.7-0.3,1.1-0.4C73.1,22.3,73.6,22.3,74.1,22.3z
	"/>
<path style="fill:#FFFFFF;" d="M88.3,34l-3.6-5.2V34h-3.5V18.1h3.5v8.9l3.2-4.7h4l-4,5.5l4.3,6H88.3z"/>
</svg>
