<?xml version="1.0" encoding="utf-8"?>
<!-- Generator: Adobe Illustrator 23.0.3, SVG Export Plug-In . SVG Version: 6.00 Build 0)  -->
<svg version="1.1" id="Capa_1" xmlns="http://www.w3.org/2000/svg" xmlns:xlink="http://www.w3.org/1999/xlink" x="0px" y="0px"
	 viewBox="79 173 266 298.7" style="enable-background:new 79 173 266 298.7;" xml:space="preserve">
<path style="fill:#03A9F4;" d="M329,247.4c-10.3-9.8-25.3-13-38.8-8.3c-3.8,1.3-6.6,4.6-7.2,8.5l-3,20.5c-4.5,31-31.1,54-62.4,54.1
	H175c-4.9,0-9.2,3.3-10.3,8.1l-32,128c-1.4,5.7,2.1,11.5,7.8,12.9c0.8,0.2,1.7,0.3,2.6,0.3h53.3c4.9,0,9.2-3.3,10.3-8.1l19.3-77.2
	h41.6c31.9,0.1,59.8-21.7,67.4-52.7l7.9-31.6C348.4,282.7,343.1,261.8,329,247.4z"/>
<path style="fill:#283593;" d="M293.7,191.5c-10.2-11.7-25.1-18.5-40.7-18.5H132.3c-5.2,0-9.6,3.7-10.5,8.8L79.2,416.4
	c-1,5.8,2.8,11.3,8.6,12.4c0.6,0.1,1.3,0.2,1.9,0.2h64c4.9,0,9.2-3.3,10.3-8.1l19.3-77.2h34.3c42-0.2,77.5-31,83.5-72.5l5.3-36.5
	l0,0C308.7,219.1,304.1,203.3,293.7,191.5z"/>
</svg>
