<?xml version="1.0" encoding="utf-8"?>
<!-- Generator: Adobe Illustrator 24.0.1, SVG Export Plug-In . SVG Version: 6.00 Build 0)  -->
<svg version="1.1" id="Слой_1" xmlns="http://www.w3.org/2000/svg" xmlns:xlink="http://www.w3.org/1999/xlink" x="0px" y="0px"
	 viewBox="0 0 64 64" style="enable-background:new 0 0 64 64;" xml:space="preserve">
<path style="fill-rule:evenodd;clip-rule:evenodd;" d="M1.1,49.2h3.4c0.2,0,0.3,0.1,0.3,0.3v2.6c0,0.2-0.1,0.3-0.3,0.3
	H1.1c-0.2,0-0.3-0.1-0.3-0.3v-2.6C0.9,49.3,1,49.2,1.1,49.2z M3.8,10.2c-2.6,0.4-4.2-2.6-3.6-4.9C2.3,5.3,4,7.7,3.8,10.2z
	 M14.1,24.2c-2.4,2-4.6,1.5-5.9-0.5C10.1,22.3,13.5,21.8,14.1,24.2z M11.5,19.3c-1.5-1.6-1.4-5.1,0.5-6
	C13.9,14.3,13.7,18.4,11.5,19.3z M10,21.3c-2.3,1.6-5.3,1.3-5.8-1.2C6.4,18.8,9.2,19.4,10,21.3z M4.8,14.4c-2.7,0.4-4.4-0.7-4.8-3.7
	C2.6,9.9,4.7,12.2,4.8,14.4z M7.2,18.2c-2.7,1.3-4.7-0.1-5.5-2.7C4.3,14.8,6.4,15.8,7.2,18.2z M15.6,22.5c-1.9-1-2.7-4.3-1.3-6.1
	C16.7,16.9,17.6,21,15.6,22.5z M5,6C2.8,4.5,3.2,1,5.2,0C6.7,1.4,7.1,4.7,5,6z M8.6,4.8c1.1,1.9,0.7,5-1.9,5.5
	C5.5,9.1,6.4,5.3,8.6,4.8z M9.3,9.9c2,1.7,1,5.3-0.7,5.8C7.6,14.5,7,11.1,9.3,9.9z M16.2,24.2l-3.2-2c-1.5-1.1-2.8-2.1-4.2-3.6
	C6.2,16,4.2,12,4.4,8c0.1-1.3,1.2-0.8,1.1,0c-0.7,5.3,4.6,11.9,11.1,15.1C18,23.9,17.3,24.8,16.2,24.2z M1.3,38.6
	c-0.4,0.2-0.8,0.1-1-0.3c-0.2-0.4-0.1-0.8,0.3-1c5-2.8,10.7-2.3,16.5-1.7c3.2,0.3,6.4,0.6,9.5,0.4c1.7-1.4,3.3-3.1,5-5.2
	c4.4-5.5,8.6-9.8,13.3-12.7c1.3-3.8,3-8.2,5.8-11.8c2.9-3.7,6.9-6.4,12.7-6.3C63.7,0,64,0.4,64,0.8c0,0.4-0.3,0.7-0.8,0.7
	C58,1.4,54.4,3.8,51.8,7.2c-2.2,2.8-3.8,6.4-5,9.7c4.8-2.6,10.1-3.9,16.5-3.9c0.4,0,0.7,0.3,0.7,0.8s-0.3,0.8-0.7,0.8
	c-6.5,0-11.9,1.4-16.7,4.3c-0.2,0.1-0.3,0.2-0.5,0.3c-4.7,14-11.6,17.8-18.9,18.4c-2.7,2.2-5.5,3.7-8.6,4.6
	c-5,1.5-10.7,1.6-17.7,1.4c-0.4,0-0.7-0.4-0.7-0.8c0-0.4,0.3-0.7,0.8-0.7c6.9,0.2,12.4,0.1,17.2-1.4c2.2-0.7,4.3-1.7,6.3-3.1
	c-2.5,0-5-0.2-7.5-0.5C11.3,36.5,5.8,36,1.3,38.6z M29.2,35.6c5.7-1.2,10.9-5,14.8-15.2c-3.9,2.8-7.5,6.5-11.3,11.3
	C31.5,33.1,30.4,34.4,29.2,35.6z M34.3,10.2c2.6,0.4,4.2-2.6,3.6-4.9C35.8,5.3,34.1,7.7,34.3,10.2z M24,24.2c2.4,2,4.6,1.5,5.9-0.5
	C28,22.3,24.6,21.8,24,24.2z M26.6,19.3c1.5-1.6,1.4-5.1-0.5-6C24.2,14.3,24.4,18.4,26.6,19.3z M28.1,21.3c2.3,1.6,5.3,1.3,5.8-1.2
	C31.7,18.8,28.9,19.4,28.1,21.3z M33.3,14.4c2.7,0.4,4.4-0.7,4.8-3.7C35.5,9.9,33.3,12.2,33.3,14.4z M30.9,18.2
	c2.7,1.3,4.7-0.1,5.5-2.7C33.8,14.8,31.7,15.8,30.9,18.2z M22.5,22.5c1.9-1,2.7-4.3,1.3-6.1C21.4,16.9,20.5,21,22.5,22.5z M33.1,6
	c2.3-1.5,1.8-5-0.2-6C31.4,1.4,31,4.7,33.1,6z M29.5,4.8c-1.1,1.9-0.7,5,1.9,5.5C32.6,9.1,31.7,5.3,29.5,4.8z M28.7,9.9
	c-2,1.7-1,5.3,0.7,5.8C30.5,14.5,31,11.1,28.7,9.9z M21.9,24.2l3.2-2c1.5-1.1,2.8-2.1,4.2-3.6C31.8,16,33.9,12,33.7,8
	c-0.1-1.3-1.2-0.8-1.1,0c0.7,5.3-4.6,11.9-11.1,15.1C20.1,23.9,20.8,24.8,21.9,24.2z M59.4,49.2h3.3c0.2,0,0.4-0.2,0.4-0.4v-16
	c0-0.2-0.2-0.4-0.4-0.4h-3.3c-0.2,0-0.4,0.2-0.4,0.4v16C59.1,49,59.2,49.2,59.4,49.2z M53,49.2h3.3c0.2,0,0.4-0.2,0.4-0.4V25.6
	c0-0.2-0.2-0.4-0.4-0.4H53c-0.2,0-0.4,0.2-0.4,0.4v23.2C52.6,49,52.8,49.2,53,49.2z M46.5,49.2h3.3c0.2,0,0.4-0.2,0.4-0.4V30.5
	c0-0.2-0.2-0.4-0.4-0.4h-3.3c-0.2,0-0.4,0.2-0.4,0.4v18.3C46.1,49,46.3,49.2,46.5,49.2z M40,49.2h3.3c0.2,0,0.4-0.2,0.4-0.4V36.7
	c0-0.2-0.2-0.4-0.4-0.4H40c-0.2,0-0.4,0.2-0.4,0.4v12.1C39.7,49,39.8,49.2,40,49.2z M33.6,49.2h3.3c0.2,0,0.4-0.2,0.4-0.4v-3.3
	c0-0.2-0.2-0.4-0.4-0.4h-3.3c-0.2,0-0.4,0.2-0.4,0.4v3.3C33.2,49,33.4,49.2,33.6,49.2z M27.1,49.2h3.4c0.2,0,0.3,0.1,0.3,0.3v2.9
	c0,0.2-0.1,0.3-0.3,0.3h-3.4c-0.2,0-0.3-0.1-0.3-0.3v-2.9C26.7,49.3,26.9,49.2,27.1,49.2z M20.6,49.2h3.3c0.2,0,0.4,0.2,0.4,0.4
	v10.5c0,0.2-0.2,0.4-0.4,0.4h-3.3c-0.2,0-0.4-0.2-0.4-0.4V49.5C20.3,49.3,20.4,49.2,20.6,49.2z M14.2,49.2h3.3
	c0.2,0,0.4,0.2,0.4,0.4v14.1c0,0.2-0.2,0.4-0.4,0.4h-3.3c-0.2,0-0.4-0.2-0.4-0.4V49.5C13.8,49.3,14,49.2,14.2,49.2z M7.7,49.2H11
	c0.2,0,0.4,0.2,0.4,0.4v7c0,0.2-0.2,0.4-0.4,0.4H7.7c-0.2,0-0.4-0.2-0.4-0.4v-7C7.3,49.3,7.5,49.2,7.7,49.2z"/>
</svg>
