<?xml version="1.0" encoding="utf-8"?>
<!-- Generator: Adobe Illustrator 24.0.1, SVG Export Plug-In . SVG Version: 6.00 Build 0)  -->
<svg version="1.1" id="Слой_1" xmlns="http://www.w3.org/2000/svg" xmlns:xlink="http://www.w3.org/1999/xlink" x="0px" y="0px"
	 viewBox="0 0 56 56" style="enable-background:new 0 0 56 56;" xml:space="preserve">
<g>
	<defs>
		<rect id="SVGID_1_" width="56" height="56"/>
	</defs>
	<clipPath id="SVGID_2_">
		<use xlink:href="#SVGID_1_"  style="overflow:visible;"/>
	</clipPath>
	<g style="clip-path:url(#SVGID_2_);">
		<g>
			<path d="M0.7,33.2l-0.1-1.5l25.7-1.5l0.1,1.5L0.7,33.2z M45.6,30.9c-0.4,0-0.7-0.3-0.7-0.7
				c0-0.4,0.3-0.8,0.7-0.8l9.7-0.6c0.4,0,0.8,0.3,0.8,0.7c0,0.4-0.3,0.8-0.7,0.8L45.6,30.9C45.6,30.9,45.6,30.9,45.6,30.9z"/>
		</g>
		<g>
			<path d="M38.4,42c-0.3,0-0.7,0-1-0.1c-1-0.3-1.7-0.9-2-1.8c-0.2-0.7-0.6-0.9-1-1.1c-0.6-0.3-1.4-0.7-1.6-2
				v0c0-0.1,0-0.4,0-0.7c0-1.1,0-2.4-0.9-2.8c-1.2-0.6-2.5-1.7-2.5-3.1c0-1.2,0.9-2.2,2.7-3c2.6-1.1,5.5-1,7.8,0.3
				c2.1,1.2,3.5,3.4,3.8,5.9c0.3,2.6-0.8,5.6-2.9,7.6C40.3,41.7,39.3,42,38.4,42z M34.4,36.7c0.1,0.6,0.3,0.7,0.8,1
				c0.6,0.3,1.4,0.7,1.7,2c0.1,0.5,0.6,0.7,0.9,0.8c0.7,0.2,1.6,0,2-0.4c1.8-1.6,2.7-4.1,2.5-6.3c-0.2-2.1-1.3-3.8-3.1-4.8
				c-1.9-1.1-4.2-1.2-6.4-0.2c-1.2,0.5-1.8,1.1-1.8,1.6c0,0.6,0.7,1.3,1.6,1.7c1.9,0.9,1.8,3.1,1.8,4.2
				C34.3,36.4,34.3,36.6,34.4,36.7z"/>
		</g>
		<g>
			<path d="M33.8,43.3C33.8,43.3,33.8,43.3,33.8,43.3c-3.5-0.1-3.9-0.9-4.2-3.3l0-0.2c0-0.3-0.1-0.6-0.1-0.9
				c-0.2-1.1-0.3-2.2,0.1-3c0.3-0.7,0.2-1.1,0-1.7c-0.2-0.6-0.5-1.3-0.2-2.3l0-0.2c0.1-0.3,0.2-0.7,0.3-1c0.2-0.4,0.6-0.6,1-0.4
				c0.4,0.2,0.6,0.6,0.4,1c-0.1,0.3-0.2,0.6-0.3,0.8l0,0.2c-0.1,0.5,0,0.9,0.2,1.4c0.3,0.7,0.6,1.5,0,2.8c-0.2,0.4-0.1,1.3,0.1,2.2
				c0,0.3,0.1,0.6,0.1,1l0,0.2c0.2,1.9,0.2,1.9,2.7,2c0.4,0,0.7,0.4,0.7,0.8C34.5,43,34.2,43.3,33.8,43.3z"/>
		</g>
		<g>
			<path d="M32.9,45.3C32.9,45.3,32.9,45.3,32.9,45.3c-0.4,0-0.8-0.4-0.8-0.8c0-0.8-0.2-1.4-0.3-1.5
				c-0.3-0.3-0.4-0.7-0.1-1c0.3-0.3,0.7-0.4,1.1-0.1c0.7,0.5,0.9,1.8,0.9,2.7C33.6,45,33.3,45.3,32.9,45.3z"/>
		</g>
		<g>
			<path d="M40.3,44.8c-0.2,0-0.4-0.1-0.5-0.2c-0.8-0.7-1.1-2.5-1.2-3.5c0-0.4,0.3-0.8,0.7-0.8c0,0,0,0,0,0
				c0.4,0,0.7,0.3,0.8,0.7c0,1.1,0.4,2.2,0.7,2.4c0.3,0.3,0.3,0.7,0.1,1.1C40.8,44.7,40.6,44.8,40.3,44.8z"/>
		</g>
		<g>
			<path d="M31.5,48.3c-0.2,0-0.5-0.1-0.6-0.3c-0.6-0.9-0.8-1.7-0.5-2.3c0.4-1,1.5-1.3,2.5-1.5
				c1-0.2,1.9-0.2,2.9-0.2c1.4,0,2.9,0.1,4.6-0.6c0.4-0.2,0.8,0,1,0.4c0.2,0.4,0,0.8-0.4,1c-2,0.8-3.7,0.8-5.2,0.7
				c-0.9,0-1.8-0.1-2.6,0.1c-1.1,0.3-1.4,0.5-1.4,0.6c0,0.1,0,0.4,0.4,0.9c0.2,0.3,0.1,0.8-0.2,1C31.8,48.2,31.6,48.3,31.5,48.3z"/>
		</g>
		<g>
			<path d="M51.4,56C51.4,56,51.4,56,51.4,56c-0.4,0-0.8-0.4-0.8-0.8c0.1-4.2-1.4-8.1-3.7-9.8
				c-1.6-1.2-3.6-1.4-5.9-0.7c-0.4,0.1-0.8-0.1-0.9-0.5c-0.1-0.4,0.1-0.8,0.5-0.9c2.7-0.9,5.3-0.6,7.3,0.9c2.8,2.1,4.5,6.4,4.4,11.1
				C52.1,55.7,51.8,56,51.4,56z"/>
		</g>
		<g>
			<path d="M25.6,56c-0.1,0-0.1,0-0.2,0c-0.4-0.1-0.7-0.5-0.6-0.9c0.5-2.2,1.4-4,2.8-5.4
				c3.5-3.5,6.1-4.2,9.2-5.2c1.2-0.4,2.4-0.7,3.8-1.3c0.4-0.2,0.8,0,1,0.4c0.2,0.4,0,0.8-0.4,1c-1.5,0.6-2.7,1-4,1.3
				c-3,0.9-5.4,1.6-8.5,4.8c-1.2,1.2-2,2.8-2.4,4.7C26.2,55.8,25.9,56,25.6,56z"/>
		</g>
		<g>
			<path d="M32.9,56c-0.4,0-0.7-0.3-0.7-0.7C32,53.2,30.5,51,29.1,51c-0.4,0-1.1,0.3-1.6,1.3
				c-0.2,0.4-0.7,0.5-1,0.3c-0.4-0.2-0.5-0.7-0.3-1c0.7-1.3,1.9-2.1,3-2.1c2.3,0.1,4.3,3.1,4.5,5.7C33.7,55.6,33.4,56,32.9,56
				C33,56,33,56,32.9,56z"/>
		</g>
		<g>
			<path d="M33.1,39.6c-0.2,0-0.4,0-0.5-0.1c-0.4-0.2-0.6-0.6-0.4-1c0.2-0.4,0.6-0.6,1-0.4c0,0,0,0,0.1-0.1
				c0-0.1,0-0.2-0.1-0.4c-0.2-0.4,0-0.8,0.4-1c0.4-0.2,0.8,0,1,0.4c0.4,0.8,0.3,1.6-0.2,2.1C33.9,39.5,33.5,39.6,33.1,39.6z"/>
		</g>
		<g>
			<path d="M1.3,23.4c-0.3,0-0.5-0.1-0.8-0.2C0,22.8-0.1,22-0.1,21.1V7.2c0-1.8,0.5-2.2,1.8-2.5
				C4.1,4.1,6.6,3.5,9,3c2.6-0.6,5.4-1.2,8.1-1.9c0.4-0.1,1-0.3,1.4,0.1c0.5,0.4,0.5,1,0.4,1.7l-0.2,15.4L2.6,23.1
				C2.2,23.2,1.7,23.4,1.3,23.4z M17.4,2.5C14.7,3.2,12,3.8,9.3,4.4C6.9,5,4.5,5.5,2.1,6.1C1.7,6.2,1.5,6.3,1.5,6.3
				c0,0-0.1,0.1-0.1,0.9v13.9c0,0.4,0,0.6,0,0.8c0.2,0,0.6-0.2,0.7-0.2l15.1-4.5l0.1-14.3C17.4,2.8,17.4,2.7,17.4,2.5z M18,17.8
				L18,17.8L18,17.8z"/>
		</g>
		<g>
			<path d="M17.9,18.5c-0.4,0-0.7-0.3-0.7-0.7c0-0.4,0.3-0.8,0.7-0.8l17.6-1.3l0-14.2c0,0,0,0,0,0
				c0,0-0.1,0-0.1,0L17.8,2.4c-0.4,0-0.8-0.3-0.8-0.7s0.3-0.8,0.7-0.8L35.2,0c0.4,0,0.9,0,1.3,0.4c0.4,0.3,0.4,0.8,0.4,1.2l0,15.6
				L17.9,18.5C17.9,18.5,17.9,18.5,17.9,18.5z"/>
		</g>
		<g>
			<path d="M54.1,18.6c-0.1,0-0.3,0-0.4,0l-18-1.4c-0.4,0-0.7-0.4-0.7-0.8c0-0.4,0.4-0.7,0.8-0.7l18,1.4
				c0.3,0,0.5,0,0.6-0.1c0.1-0.1,0.1-0.3,0.1-0.5l0-12.7c0-0.9,0-0.9-0.7-1L35.5,1.5c-0.4,0-0.7-0.4-0.7-0.8c0-0.4,0.4-0.7,0.8-0.7
				L54,1.4c1.9,0.1,2.1,1.3,2.1,2.5l0,12.7c0,0.7-0.2,1.3-0.6,1.6C55.1,18.5,54.7,18.6,54.1,18.6z"/>
		</g>
		<g>
			<path d="M26.1,20.2C26.1,20.2,26.1,20.2,26.1,20.2c-0.5,0-0.8-0.4-0.7-0.8l0.1-2c0-0.4,0.4-0.7,0.8-0.7
				c0.4,0,0.7,0.4,0.7,0.8l-0.1,2C26.8,19.9,26.5,20.2,26.1,20.2z"/>
		</g>
		<g>
			<path d="M27.6,23.9c-0.3,0-0.7-0.1-1-0.2c-0.8-0.3-1.4-0.9-1.5-1.8c-0.1-0.4,0.2-0.8,0.6-0.9
				c0.4-0.1,0.8,0.2,0.9,0.6c0.1,0.3,0.2,0.5,0.5,0.6c0.5,0.2,1.2,0,1.5-0.2c0.1-0.1,0.1-0.2,0.1-0.2l-0.8-4.7
				c-0.1-0.4,0.2-0.8,0.6-0.9c0.4-0.1,0.8,0.2,0.9,0.6l0.8,4.7c0.1,0.6-0.1,1.1-0.6,1.6C29.1,23.7,28.3,23.9,27.6,23.9z"/>
		</g>
		<g>
			<path d="M37.1,23.5c-0.1,0-0.3,0-0.4,0l-7.3-0.3c-0.4,0-0.7-0.4-0.7-0.8c0-0.4,0.4-0.7,0.8-0.7l7.5,0.3
				c0.2,0,0.3,0,0.3,0c-0.1-0.2-0.2-0.3-0.3-0.3L28.8,20c-0.4-0.1-0.7-0.5-0.6-0.9c0.1-0.4,0.5-0.7,0.9-0.6l8.2,1.7
				c1.2,0.4,1.6,1.4,1.4,2.1C38.6,22.9,38,23.5,37.1,23.5z"/>
		</g>
		<g>
			<path d="M18.5,25.2c-0.6,0-1.3-0.4-1.5-1.1c-0.3-0.8,0-1.6,0.8-2l7.9-3.6c0.4-0.2,0.8,0,1,0.4
				c0.2,0.4,0,0.8-0.4,1l-7.9,3.6c0,0.1,0.1,0.2,0.1,0.2L26,22c0.4-0.1,0.8,0.2,0.9,0.6s-0.2,0.8-0.6,0.9l-7.5,1.6
				C18.7,25.2,18.6,25.2,18.5,25.2z"/>
		</g>
		<g>
			<path d="M4.8,18.3c-0.4,0-0.8-0.3-0.8-0.8v-3.9c0-0.4,0.3-0.8,0.8-0.8s0.8,0.3,0.8,0.8v3.9
				C5.6,18,5.2,18.3,4.8,18.3z"/>
		</g>
		<g>
			<path d="M6.6,16.4c-0.4,0-0.8-0.3-0.8-0.8V8.8C5.8,8.3,6.1,8,6.6,8s0.8,0.3,0.8,0.8v6.9
				C7.3,16,7,16.4,6.6,16.4z"/>
		</g>
		<g>
			<path d="M8.3,16.4c-0.4,0-0.8-0.3-0.8-0.8v-3.2c0-0.4,0.3-0.8,0.8-0.8S9,12,9,12.4v3.2
				C9,16,8.7,16.4,8.3,16.4z"/>
		</g>
		<g>
			<path d="M10,17.9c-0.4,0-0.8-0.3-0.8-0.8v-3.3c0-0.4,0.3-0.8,0.8-0.8s0.8,0.3,0.8,0.8v3.3
				C10.8,17.5,10.4,17.9,10,17.9z"/>
		</g>
		<g>
			<path d="M11.7,15.7c-0.4,0-0.8-0.3-0.8-0.8v-4.1c0-0.4,0.3-0.8,0.8-0.8s0.8,0.3,0.8,0.8v4.1
				C12.5,15.3,12.2,15.7,11.7,15.7z"/>
		</g>
		<g>
			<path d="M13.5,13.3c-0.4,0-0.8-0.3-0.8-0.8V6.3c0-0.4,0.3-0.8,0.8-0.8s0.8,0.3,0.8,0.8v6.3
				C14.2,13,13.9,13.3,13.5,13.3z"/>
		</g>
		<g>
			<path d="M23,15.4c-0.4,0-0.8-0.3-0.9-0.7c-0.1-0.2-0.1-0.4-0.2-0.6c-0.1-0.3-0.2-0.8-0.3-0.9
				c0,0-0.1,0-0.1,0.1c-0.4,0.2-0.8,0-1-0.4s0-0.8,0.4-1c0.6-0.3,1.1-0.2,1.4-0.1c0.5,0.2,0.7,0.7,0.9,1.1c0-0.1,0.1-0.2,0.1-0.3
				c0.2-0.5,0.5-1.1,1.1-1.3c0.3-0.1,0.5,0,0.7,0.1c0,0,0,0,0,0c0.2-0.7,0.7-1.2,1.2-1.2c0.2,0,0.7,0,1,0.6c0.3-0.3,0.6-0.6,1.1-0.5
				l0.4,0.1l0.2,0.5c0.1,0.2,0.1,0.3,0.2,0.5c0,0,0.1-0.1,0.1-0.1c0.1-0.1,0.2-0.1,0.3-0.2c0.7-0.5,1.1-0.8,1.6-0.6
				c0.5,0.2,0.6,0.6,0.6,1l0,0.2c0.2,0.8,0.3,0.8,0.5,0.8c0.4-0.1,0.8,0.2,0.9,0.6c0.1,0.4-0.2,0.8-0.6,0.9c-0.6,0.1-1.7,0-2.1-1.6
				l-0.2,0.2c-0.4,0.3-0.9,0.7-1.5,0.5c-0.3-0.1-0.6-0.4-0.8-0.7c-0.3,0.2-0.7,0.4-1.2,0.3c-0.2,0-0.3-0.1-0.4-0.2
				c-0.2,0.4-0.5,0.7-0.9,0.8c-0.3,0.1-0.6,0-0.8-0.1c0,0,0,0.1,0,0.1c-0.1,0.4-0.2,0.8-0.2,0.9C24.2,14.8,23.7,15.4,23,15.4
				C23.1,15.4,23.1,15.4,23,15.4z M23.4,14l0.2,0L23.4,14C23.4,14,23.4,14,23.4,14z M23,13.9c-0.1,0-0.1,0-0.2,0l0.4,0.1
				c0,0-0.1,0-0.1-0.1C23.1,13.9,23.1,13.9,23,13.9z M25,11.9L25,11.9L25,11.9z M27.5,11.4L27.5,11.4L27.5,11.4z"/>
		</g>
		<g>
			<path d="M27.2,9.8C27.2,9.8,27.2,9.8,27.2,9.8c-0.6,0-1.1-0.4-1.2-2.1c0-0.1,0-0.2,0-0.3
				c-0.2,0.3-0.5,0.4-0.6,0.5c-0.1,0-0.1,0.1-0.1,0.1c-0.4,0.7-0.9,1.1-1.5,1.1c-0.2,0-0.8-0.2-1-0.9l-0.1-0.4
				c0-0.1-0.1-0.1-0.1-0.2c-0.1,0-0.4-0.1-1,0.1c-0.4,0.2-0.8,0-1-0.4c-0.2-0.4,0-0.8,0.4-1c1.1-0.4,1.8-0.3,2.2-0.1
				c0.4,0.2,0.7,0.5,0.8,0.9c0.2-0.3,0.5-0.5,0.7-0.5c0,0,0.1-0.1,0.1-0.1c0.4-1.9,1.2-2,1.6-1.9c0.3,0,0.8,0.2,1,1
				c0.2-0.5,0.5-0.8,1-0.8c0.4,0,0.7,0.2,1,0.5c0.4-1.7,0.7-2.2,1.2-2.4c0.5-0.2,0.9,0.1,1.2,0.3c0.3,0.2,0.5,0.4,1,0.1
				c0.4-0.2,0.8-0.1,1,0.3c0.2,0.4,0.1,0.8-0.3,1c-1.1,0.6-1.9,0.3-2.4,0c-0.1,0.3-0.2,0.8-0.4,1.7c-0.2,1.1-1,1.2-1.2,1.2
				c-0.3,0-0.7-0.1-0.9-0.4l-0.1,0.5C28.4,8.4,28.2,9.8,27.2,9.8z M28.9,6.1L28.9,6.1L28.9,6.1z"/>
		</g>
		<g>
			<path d="M41.2,5.1C41.2,5.1,41.2,5.1,41.2,5.1L39.3,5c-0.4,0-0.7-0.4-0.7-0.8c0-0.4,0.4-0.7,0.8-0.7
				l1.8,0.1C41.7,3.7,42,4,42,4.4C41.9,4.8,41.6,5.1,41.2,5.1z"/>
		</g>
		<g>
			<path d="M52.2,6C52.2,6,52.2,6,52.2,6l-8.7-0.7c-0.4,0-0.7-0.4-0.7-0.8c0-0.4,0.4-0.7,0.8-0.7l8.7,0.7
				c0.4,0,0.7,0.4,0.7,0.8C52.9,5.7,52.6,6,52.2,6z"/>
		</g>
		<g>
			<path d="M41.2,7.4C41.2,7.4,41.2,7.4,41.2,7.4l-1.9-0.2c-0.4,0-0.7-0.4-0.7-0.8c0-0.4,0.4-0.7,0.8-0.7
				l1.8,0.2c0.4,0,0.7,0.4,0.7,0.8C41.9,7.1,41.6,7.4,41.2,7.4z"/>
		</g>
		<g>
			<path d="M41.2,9.8C41.2,9.8,41.2,9.8,41.2,9.8l-1.9-0.2c-0.4,0-0.7-0.4-0.7-0.8c0-0.4,0.4-0.7,0.8-0.7
				l1.9,0.1c0.4,0,0.7,0.4,0.7,0.8C42,9.5,41.6,9.8,41.2,9.8z"/>
		</g>
		<g>
			<path d="M41.2,12.1C41.2,12.1,41.2,12.1,41.2,12.1L39.3,12c-0.4,0-0.7-0.4-0.7-0.8c0-0.4,0.4-0.7,0.8-0.7
				l1.8,0.2c0.4,0,0.7,0.4,0.7,0.8C41.9,11.8,41.6,12.1,41.2,12.1z"/>
		</g>
		<g>
			<path d="M41.2,14.5C41.2,14.5,41.2,14.5,41.2,14.5l-1.9-0.2c-0.4,0-0.7-0.4-0.7-0.8s0.4-0.7,0.8-0.7
				l1.8,0.2c0.4,0,0.7,0.4,0.7,0.8C41.9,14.2,41.6,14.5,41.2,14.5z"/>
		</g>
		<g>
			<path d="M47.3,7.9C47.2,7.9,47.2,7.9,47.3,7.9l-3.8-0.3c-0.4,0-0.7-0.4-0.7-0.8s0.4-0.7,0.8-0.7l3.7,0.3
				c0.4,0,0.7,0.4,0.7,0.8C48,7.6,47.7,7.9,47.3,7.9z"/>
		</g>
		<g>
			<path d="M45.4,10.1C45.3,10.1,45.3,10.1,45.4,10.1l-1.9-0.2c-0.4,0-0.7-0.4-0.7-0.8c0-0.4,0.4-0.7,0.8-0.7
				l1.8,0.1c0.4,0,0.7,0.4,0.7,0.8C46.1,9.8,45.7,10.1,45.4,10.1z"/>
		</g>
		<g>
			<path d="M48.5,12.7C48.5,12.7,48.5,12.7,48.5,12.7l-5.1-0.4c-0.4,0-0.7-0.4-0.7-0.8c0-0.4,0.4-0.7,0.8-0.7
				l5,0.4c0.4,0,0.7,0.4,0.7,0.8C49.2,12.4,48.9,12.7,48.5,12.7z"/>
		</g>
		<g>
			<path d="M45,14.8C45,14.8,45,14.8,45,14.8l-1.6-0.1c-0.4,0-0.7-0.4-0.7-0.8c0-0.4,0.4-0.7,0.8-0.7l1.5,0.1
				c0.4,0,0.7,0.4,0.7,0.8C45.8,14.5,45.4,14.8,45,14.8z"/>
		</g>
	</g>
</g>
</svg>
