<?xml version="1.0" encoding="utf-8"?>
<!-- Generator: Adobe Illustrator 24.0.1, SVG Export Plug-In . SVG Version: 6.00 Build 0)  -->
<svg version="1.1" id="Слой_1" xmlns="http://www.w3.org/2000/svg" xmlns:xlink="http://www.w3.org/1999/xlink" x="0px" y="0px"
	 viewBox="0 0 185 175.2" style="enable-background:new 0 0 185 175.2;" xml:space="preserve">
<path stroke="#fff" stroke-width="2" style="fill-rule:evenodd;clip-rule:evenodd;fill:#5683FF;" d="M39,27c0,8.2,3.7,15.5,9.5,20.5L35.7,65.3
	c-3.1-1.5-6.6-2.4-10.3-2.4C12.5,62.9,2,73.4,2,86.3s10.5,23.3,23.4,23.3c5.7,0,11-2.1,15.1-5.5l16.4,15.2c0.5,0.5,1.3,0.8,1.9,0.8
	c0.8,0,1.5-0.3,2.1-0.9c1.1-1.1,1-3-0.2-4L44.3,100c2.8-3.8,4.4-8.6,4.5-13.7c0-7.1-3.2-13.5-8.3-17.8l12.7-17.7
	c3.8,2.1,8.2,3.3,12.9,3.3c14,0,25.5-10.6,26.9-24.2h28.4c1.3,5.3,6,9.2,11.7,9.2c0.5,0,1,0,1.5-0.1l9.9,26.5
	c-7.5,3.9-12.6,11.7-12.6,20.7c0,4.8,1.5,9.3,4,13L117.6,115c-1.2,1-1.3,2.8-0.3,4c0.6,0.6,1.4,1,2.2,1c0.6,0,1.3-0.2,1.9-0.7
	l18.4-15.8c4.1,3.7,9.6,6,15.6,6c12.9,0,23.4-10.5,23.4-23.4s-10.5-23.4-23.4-23.4c-1.9,0-3.7,0.2-5.5,0.6l-10-26.7
	c3.1-2.2,5.2-5.8,5.2-9.9c0-6.6-5.4-12-12-12c-5.6,0-10.4,3.9-11.7,9.1H93C91.5,10.6,80,0,66.1,0C51.2,0,39,12.1,39,27z M137.6,86.3
	c0-7.5,4.7-13.9,11.3-16.5c0.1,0,0.2,0,0.3-0.1c0.1,0,0.2-0.1,0.3-0.1c1.8-0.7,3.8-1,5.9-1c9.7,0,17.7,8,17.7,17.7
	c0,9.8-8,17.7-17.7,17.7C145.5,104,137.6,96,137.6,86.3z M87.4,26.9c0-11.7-9.6-21.3-21.3-21.3c-11.8,0-21.3,9.6-21.3,21.3
	c0,11.8,9.6,21.3,21.3,21.3C77.9,48.3,87.4,38.7,87.4,26.9L87.4,26.9L87.4,26.9z M126.7,27L126.7,27L126.7,27c0-3.5,2.8-6.3,6.3-6.3
	s6.3,2.8,6.3,6.3s-2.8,6.3-6.3,6.3C129.6,33.3,126.7,30.4,126.7,27z M38.6,98.1c2.8-3.1,4.5-7.3,4.5-11.8c0-9.7-8-17.7-17.7-17.7
	S7.7,76.5,7.7,86.3c0,9.7,7.9,17.7,17.7,17.7c5,0,9.5-2.1,12.8-5.4c0.1-0.1,0.1-0.2,0.2-0.2C38.4,98.2,38.5,98.1,38.6,98.1z
	 M73.5,117.2c0,9.4,7.7,17,17.1,17s17-7.6,17.1-17c0-9.4-7.7-17-17.1-17S73.5,107.8,73.5,117.2z M79.2,117.3
	c0-6.3,5.1-11.4,11.4-11.4s11.3,5.1,11.4,11.4c0,6.3-5.1,11.4-11.4,11.4S79.2,123.5,79.2,117.3z M68.8,138.7l0.3,0.8l10.6-5.6
	c1.4-0.7,3.1-0.2,3.8,1.2s0.2,3.1-1.2,3.8l-11.1,5.8l9.9,24.6h14c0.6-4.2,4-7.6,8.3-8.2l9.4-1.1l-4.4-5c-1-1.2-0.9-3,0.3-4
	c1.2-1,3-0.9,4,0.3l6.9,7.9l1.9-0.2c1.6-0.2,3,0.9,3.1,2.5c0.2,1.6-0.9,3-2.5,3.2l-18,2.2c-1.5,0.2-2.7,1.2-3.2,2.6h29.3v-0.9
	c0-4.3-1.5-8.5-4.1-11.9l-7-8.8c-2.6-3.3-6.3-5.6-10.3-6.7l-10.1-2.6c-1.5-0.4-2.4-1.9-2-3.4s1.9-2.4,3.5-2l10.1,2.6
	c5.3,1.3,10,4.4,13.3,8.7l7,8.8c3.5,4.4,5.4,9.8,5.4,15.4v0.9h46.2c1.6,0,2.8,1.3,2.8,2.8c0,1.6-1.3,2.8-2.8,2.8h-103l0,0l0,0H2.8
	c-1.6,0-2.8-1.3-2.8-2.8c0-1.6,1.3-2.8,2.8-2.8h25.4l-9.6-28.7c-0.3-0.9-0.2-1.8,0.4-2.6c0.5-0.8,1.4-1.2,2.3-1.2h44.8
	C67.3,136.9,68.3,137.6,68.8,138.7z M64.2,142.6L75,169.4H34.3l-9-26.8H64.2z M20.8,95.5c-0.7,0-1.4-0.3-2-0.8l-6.3-6.3
	c-1.1-1.1-1.1-2.9,0-4l6.4-6.4c1.1-1.1,2.9-1.1,4,0s1.1,2.9,0,4l-4.4,4.4l4.3,4.3c1.1,1.1,1.1,2.9,0,4
	C22.3,95.2,21.5,95.5,20.8,95.5z M28,94.7c0.6,0.6,1.3,0.8,2,0.8s1.4-0.3,2-0.8l6.3-6.3c1.1-1.1,1.1-2.9,0-4L31.9,78
	c-1.1-1.1-2.9-1.1-4,0s-1.1,2.9,0,4l4.4,4.4l-4.2,4.3C26.9,91.7,26.9,93.6,28,94.7z M148.7,94.7c0.6,0.6,1.3,0.8,2,0.8
	s1.5-0.3,2-0.8c1.1-1.1,1.1-2.9,0-4l-4.3-4.3l4.4-4.4c1.1-1.1,1.1-2.9,0-4s-2.9-1.1-4,0l-6.4,6.4c-1.1,1.1-1.1,2.9,0,4L148.7,94.7z
	 M159.9,95.5c-0.7,0-1.4-0.3-2-0.8c-1.1-1.1-1.1-2.9,0-4l4.3-4.3l-4.5-4.4c-1.1-1.1-1.1-2.9,0-4s2.9-1.1,4,0l6.4,6.4
	c1.1,1.1,1.1,2.9,0,4l-6.3,6.3C161.3,95.2,160.6,95.5,159.9,95.5z M60.7,37.3c-0.7,0-1.4-0.3-2-0.8l-7.4-7.4c-0.5-0.5-0.8-1.2-0.8-2
	s0.3-1.5,0.8-2l7.6-7.6c1.1-1.1,2.9-1.1,4,0c1.1,1.1,1.1,2.9,0,4l-5.6,5.6l5.4,5.4c1.1,1.1,1.1,2.9,0,4C62.1,37,61.4,37.3,60.7,37.3
	z M69.5,36.5c0.6,0.6,1.3,0.8,2,0.8s1.4-0.3,2-0.8l7.4-7.4c0.5-0.5,0.8-1.2,0.8-2s-0.3-1.5-0.8-2l-7.6-7.6c-1.1-1.1-2.9-1.1-4,0
	s-1.1,2.9,0,4l5.6,5.6l-5.4,5.3C68.4,33.5,68.4,35.4,69.5,36.5z"/>
<path style="fill:#31B984;" d="M65.4,52.3c14.7,0,26.4-11,26.4-24.5S79.9,3.2,65.4,3.2S39,14.2,39,27.7S50.7,52.3,65.4,52.3z"/>
<defs>
	<filter id="Adobe_OpacityMaskFilter" filterUnits="userSpaceOnUse" x="38.5" y="0" width="55.6" height="55.5">
		<feColorMatrix  type="matrix" values="1 0 0 0 0  0 1 0 0 0  0 0 1 0 0  0 0 0 1 0"/>
	</filter>
</defs>
<mask maskUnits="userSpaceOnUse" x="38.5" y="0" width="55.6" height="55.5" id="path-1-outside-1_1_">
	<rect x="38.5" style="fill:#FFFFFF;filter:url(#Adobe_OpacityMaskFilter);" width="55.7" height="55.7"/>
	<path d="M66.3,52.3c13.6,0,24.5-11,24.5-24.5S79.8,3.2,66.3,3.2s-24.5,11-24.5,24.5S52.7,52.3,66.3,52.3z"/>
</mask>
<path style="mask:url(#path-1-outside-1_1_);fill:#FFFFFF;" d="M66.3,55.5c15.3,0,27.8-12.4,27.8-27.7h-6.5
	c0,11.7-9.5,21.3-21.3,21.3V55.5z M94,27.8C94,12.5,81.6,0.1,66.2,0.1v6.4C78,6.5,87.5,16,87.5,27.8H94z M66.3,0
	C50.9,0,38.5,12.4,38.5,27.8H45C45,16,54.5,6.5,66.3,6.5V0z M38.5,27.8c0,15.3,12.4,27.7,27.8,27.7V49C54.5,49,45,39.5,45,27.8H38.5
	z"/>
<path style="fill-rule:evenodd;clip-rule:evenodd;fill:#FFFFFF;" d="M50.7,21.4h4.7c0.7,0,1.4,0.1,1.8,0.2c0.5,0.1,0.9,0.4,1.2,0.7
	c0.8,0.7,1.3,1.7,1.3,3c0,1.1-0.4,2.1-1.1,2.9c-0.4,0.4-0.8,0.6-1.2,0.8c-0.4,0.2-1,0.2-1.6,0.2h-2.5v4.1h-2.5V21.4H50.7z
	 M53.2,23.7V27h2.3c0.5,0,0.8-0.1,1.1-0.4s0.5-0.7,0.5-1.2s-0.2-0.9-0.5-1.2c-0.4-0.3-0.8-0.4-1.5-0.4L53.2,23.7L53.2,23.7z
	 M61.4,21.4h5c0.8,0,1.4,0,1.8,0.1s0.8,0.2,1.1,0.5c0.4,0.3,0.7,0.7,1,1.1c0.3,0.6,0.5,1.2,0.5,1.8c0,1.1-0.5,2.1-1.5,2.8
	c0.5,0.1,0.8,0.3,1,0.6c0.2,0.3,0.3,0.8,0.3,1.5v1.9c0,0.3,0,0.6,0.1,0.8s0.3,0.4,0.5,0.7H69c-0.2,0-0.3,0-0.4,0s-0.2-0.1-0.3-0.2
	c-0.1-0.1-0.2-0.3-0.2-0.4c0-0.1,0-0.4,0-0.9v-1.5c0-0.4-0.1-0.7-0.4-1c-0.3-0.2-0.6-0.4-1.1-0.4h-2.7v4.4h-2.5
	C61.4,33.2,61.4,21.4,61.4,21.4z M63.9,23.7v3.1h2.6c0.4,0,0.8-0.1,1.1-0.3c0.3-0.3,0.5-0.7,0.5-1.2s-0.1-0.8-0.4-1.1
	c-0.3-0.3-0.7-0.4-1.1-0.4h-2.7V23.7z M78.5,21.3c1.5,0,2.7,0.4,3.7,1.3c0.5,0.5,1,1.1,1.3,1.8c0.4,0.9,0.6,1.9,0.6,3
	c0,1.5-0.4,2.7-1.1,3.9c-1,1.5-2.5,2.3-4.5,2.3c-1.4,0-2.6-0.4-3.6-1.3c-0.6-0.5-1-1.1-1.4-1.9c-0.4-0.9-0.6-2-0.6-3.1
	c0-0.6,0.1-1.3,0.3-2c0.2-0.7,0.5-1.3,0.8-1.8c0.6-0.9,1.3-1.5,2.2-1.9C77,21.5,77.7,21.3,78.5,21.3z M78.6,23.6
	c-0.9,0-1.6,0.3-2.2,1s-0.9,1.6-0.9,2.8c0,1.3,0.3,2.3,0.9,3c0.5,0.6,1.3,0.9,2.2,0.9c0.9,0,1.6-0.3,2.2-0.9c0.6-0.7,0.9-1.7,0.9-3
	s-0.3-2.3-0.8-2.9C80.3,23.9,79.5,23.6,78.6,23.6z"/>
</svg>
