<?xml version="1.0" encoding="utf-8"?>
<!-- Generator: Adobe Illustrator 24.0.1, SVG Export Plug-In . SVG Version: 6.00 Build 0)  -->
<svg version="1.1" id="Слой_1" xmlns="http://www.w3.org/2000/svg" xmlns:xlink="http://www.w3.org/1999/xlink" x="0px" y="0px"
	 viewBox="0 0 66 65" style="enable-background:new 0 0 66 65;" xml:space="preserve">
<g>
	<g>
		<path style="fill-rule:evenodd;clip-rule:evenodd;" d="M60.5,11c-0.9,0-1.8-0.3-2.5-0.8l-4.4,15h-4l-5.4-6.6
			c-0.3-0.3-0.7-0.5-1.1-0.5h-4.8L32.8,4.7c-0.2-0.6-0.8-1-1.5-0.9C30.7,3.9,30.2,4.4,30,5l-5.6,28.7h-3.7l-5.4-10.6
			c-0.3-0.5-0.8-0.8-1.4-0.8c-0.6,0.1-1.1,0.5-1.3,1L6.9,43.1l-5.7,9.8c-0.4,0.7-0.2,1.6,0.5,1.9C2,55,2.2,55,2.4,55
			c0.5,0,1-0.3,1.3-0.7l5.8-10l0.1-0.3l4.8-16.4l4.1,8.1c0.2,0.5,0.7,0.8,1.3,0.8h5.8c0.7,0,1.3-0.5,1.4-1.2L32,10.3l4,9.7
			c0.2,0.5,0.8,0.9,1.3,0.9h5.1l5.4,6.6c0.3,0.3,0.7,0.5,1.1,0.5h5.8c0.6,0,1.2-0.4,1.4-1l4.7-16.1L60.5,11z"/>
	</g>
	<g>
		<path style="fill:#F8F8FA;" d="M2.4,55.3c-0.3,0-0.6-0.1-0.8-0.2c-0.4-0.2-0.7-0.6-0.8-1c-0.1-0.4-0.1-0.9,0.2-1.3L6.7,43
			l5.7-19.7c0.2-0.7,0.8-1.1,1.5-1.2c0.7-0.1,1.4,0.3,1.7,0.9l5.3,10.5h3.3L29.8,5c0.1-0.7,0.8-1.3,1.5-1.4c0.8-0.1,1.5,0.3,1.7,1
			l5.4,13.2h4.6c0.5,0,1,0.2,1.3,0.6l5.3,6.5h3.7l4.4-15.2l0.3,0.2c0.7,0.5,1.5,0.8,2.4,0.8l0.6-0.1l-4.8,16.4
			c-0.2,0.7-0.9,1.2-1.6,1.2h-5.8c-0.5,0-1-0.2-1.3-0.6l-5.3-6.5h-5c-0.7,0-1.3-0.4-1.6-1L32,11.2l-4.7,24.3
			c-0.2,0.8-0.9,1.4-1.7,1.4h-5.8c-0.6,0-1.2-0.4-1.5-0.9l-3.8-7.5L9.9,44.1l-0.1,0.3l-5.8,10C3.6,55,3.1,55.3,2.4,55.3z M14.1,22.6
			c0,0-0.1,0-0.1,0c-0.5,0-0.9,0.4-1,0.8L7.1,43.2L1.4,53c-0.2,0.3-0.2,0.6-0.1,0.9c0.1,0.3,0.3,0.6,0.6,0.7
			c0.6,0.3,1.3,0.1,1.6-0.4l5.8-10L9.4,44l4.9-17l4.4,8.7c0.2,0.4,0.6,0.6,1.1,0.6h5.8c0.6,0,1.1-0.4,1.2-1l5-25.9l4.3,10.5
			c0.2,0.4,0.6,0.7,1.1,0.7h5.2l0.1,0.1l5.4,6.6c0.2,0.3,0.6,0.4,0.9,0.4h5.8c0.5,0,1-0.3,1.2-0.9l4.6-15.7c-0.8,0-1.6-0.2-2.3-0.7
			l-4.3,14.9h-4.3l-0.1-0.1L44,18.8c-0.2-0.3-0.6-0.4-0.9-0.4h-5L32.6,4.8c-0.2-0.5-0.7-0.8-1.2-0.7c-0.5,0-1,0.4-1.1,0.9L24.7,34
			h-4.1l-5.5-10.7C14.9,22.8,14.5,22.6,14.1,22.6z"/>
	</g>
	<g>
		<path style="fill-rule:evenodd;clip-rule:evenodd;" d="M59.3,3.8c-1.6,0-2.8,1.3-2.8,2.8c0,1.6,1.3,2.8,2.8,2.8
			c1.6,0,2.8-1.3,2.8-2.8C62.2,5.1,60.9,3.8,59.3,3.8z M59.3,12.4c-3.1,0-5.7-2.6-5.7-5.7c0-3.1,2.6-5.7,5.7-5.7
			C62.4,1,65,3.6,65,6.7C65,9.8,62.4,12.4,59.3,12.4z"/>
	</g>
	<g>
		<path style="fill:#F8F8FA;" d="M59.3,3.6c-1.7,0-3.1,1.4-3.1,3.1h0.5c0-1.4,1.2-2.6,2.6-2.6V3.6z M56.2,6.7c0,1.7,1.4,3.1,3.1,3.1
			V9.3c-1.4,0-2.6-1.2-2.6-2.6H56.2z M59.3,9.8c1.7,0,3.1-1.4,3.1-3.1h-0.5c0,1.4-1.2,2.6-2.6,2.6V9.8z M62.4,6.7
			c0-1.7-1.4-3.1-3.1-3.1v0.5c1.4,0,2.6,1.2,2.6,2.6H62.4z M59.3,12.1c-3,0-5.4-2.4-5.4-5.4h-0.5c0,3.3,2.7,5.9,5.9,5.9V12.1z
			 M53.9,6.7c0-3,2.4-5.4,5.4-5.4V0.8c-3.3,0-5.9,2.7-5.9,5.9H53.9z M59.3,1.2c3,0,5.4,2.4,5.4,5.4h0.5c0-3.3-2.7-5.9-5.9-5.9V1.2z
			 M64.8,6.7c0,3-2.4,5.4-5.4,5.4v0.5c3.3,0,5.9-2.7,5.9-5.9H64.8z"/>
	</g>
	<g>
		<path style="fill-rule:evenodd;clip-rule:evenodd;" d="M55.7,44.5l-2.8,3.4h-4.3l-5.3-6.6c-0.3-0.4-0.7-0.6-1.2-0.5
			c-0.5,0-0.9,0.3-1.1,0.6l-5.3,7.9h-4.2l-5.3-7.9c-0.2-0.4-0.6-0.6-1-0.6c-0.4,0-0.8,0.1-1.1,0.4l-5.3,5.3h-5.1
			c-0.4,0-0.7,0.2-1,0.4l-5.3,5.3H2.4c-0.8,0-1.4,0.6-1.4,1.4C1,54.4,1.6,55,2.4,55h5.7c0.4,0,0.7-0.1,1-0.4l5.3-5.3h5.1
			c0.4,0,0.7-0.1,1-0.4l4.5-4.5l4.7,7.1c0.3,0.4,0.7,0.6,1.2,0.6h5.7c0.5,0,0.9-0.2,1.2-0.6l4.6-6.9l4.5,5.6
			c0.3,0.3,0.7,0.5,1.1,0.5h5.7c0.4,0,0.8-0.2,1.1-0.5l3.2-4C57,45.9,56.2,45.3,55.7,44.5z"/>
	</g>
	<g>
		<path style="fill:#F8F8FA;" d="M8.1,55.3H2.4c-0.9,0-1.7-0.8-1.7-1.7S1.5,52,2.4,52h5l5.2-5.2c0.3-0.3,0.7-0.5,1.2-0.5h5l5.2-5.2
			c0.4-0.4,0.8-0.5,1.3-0.5c0.5,0.1,0.9,0.3,1.2,0.7l5.2,7.8h3.9l5.2-7.8c0.3-0.4,0.8-0.7,1.3-0.7c0.5,0,1,0.2,1.4,0.6l5.2,6.5h4.1
			l2.9-3.6l0.2,0.3c0.5,0.8,1.2,1.4,2.1,1.7l0.3,0.1l-3.4,4.3c-0.3,0.4-0.8,0.6-1.3,0.6h-5.7c-0.5,0-1-0.2-1.3-0.6l-4.3-5.3
			l-4.4,6.6c-0.3,0.5-0.8,0.7-1.4,0.7h-5.7c-0.6,0-1.1-0.3-1.4-0.7l-4.6-6.8l-4.2,4.2c-0.3,0.3-0.7,0.5-1.2,0.5h-5l-5.2,5.2
			C9,55.1,8.6,55.3,8.1,55.3z M2.4,52.5c-0.6,0-1.2,0.5-1.2,1.2s0.5,1.2,1.2,1.2h5.7c0.3,0,0.6-0.1,0.8-0.3l5.3-5.3h5.2
			c0.3,0,0.6-0.1,0.8-0.3l4.7-4.7l4.9,7.3c0.2,0.3,0.6,0.5,1,0.5h5.7c0.4,0,0.8-0.2,1-0.5l4.8-7.2l4.7,5.9c0.2,0.3,0.6,0.4,0.9,0.4
			h5.7c0.4,0,0.7-0.2,0.9-0.4l3-3.7c-0.7-0.3-1.4-0.8-1.8-1.5l-2.6,3.3h-4.6l-5.3-6.7c-0.2-0.3-0.6-0.5-1-0.4
			c-0.4,0-0.7,0.2-0.9,0.5l-5.3,8h-4.4l-5.3-8c-0.2-0.3-0.5-0.5-0.9-0.5c-0.4,0-0.7,0.1-0.9,0.3L19,46.8h-5.2
			c-0.3,0-0.6,0.1-0.8,0.3l-5.3,5.3H2.4z"/>
	</g>
	<g>
		<path style="fill-rule:evenodd;clip-rule:evenodd;" d="M59.3,39.4c-1.6,0-2.8,1.3-2.8,2.8c0,1.6,1.3,2.8,2.8,2.8
			c1.6,0,2.8-1.3,2.8-2.8C62.2,40.7,60.9,39.4,59.3,39.4z M59.3,47.9c-3.1,0-5.7-2.6-5.7-5.7c0-3.1,2.6-5.7,5.7-5.7
			c3.1,0,5.7,2.6,5.7,5.7C65,45.4,62.4,47.9,59.3,47.9z"/>
	</g>
	<g>
		<path style="fill:#F8F8FA;" d="M59.3,39.1c-1.7,0-3.1,1.4-3.1,3.1h0.5c0-1.4,1.2-2.6,2.6-2.6V39.1z M56.2,42.2
			c0,1.7,1.4,3.1,3.1,3.1v-0.5c-1.4,0-2.6-1.2-2.6-2.6H56.2z M59.3,45.3c1.7,0,3.1-1.4,3.1-3.1h-0.5c0,1.4-1.2,2.6-2.6,2.6V45.3z
			 M62.4,42.2c0-1.7-1.4-3.1-3.1-3.1v0.5c1.4,0,2.6,1.2,2.6,2.6H62.4z M59.3,47.7c-3,0-5.4-2.4-5.4-5.4h-0.5c0,3.3,2.7,5.9,5.9,5.9
			V47.7z M53.9,42.2c0-3,2.4-5.4,5.4-5.4v-0.5c-3.3,0-5.9,2.7-5.9,5.9H53.9z M59.3,36.8c3,0,5.4,2.4,5.4,5.4h0.5
			c0-3.3-2.7-5.9-5.9-5.9V36.8z M64.8,42.2c0,3-2.4,5.4-5.4,5.4v0.5c3.3,0,5.9-2.7,5.9-5.9H64.8z"/>
	</g>
</g>
</svg>
