<?xml version="1.0" encoding="utf-8"?>
<!-- Generator: Adobe Illustrator 24.0.1, SVG Export Plug-In . SVG Version: 6.00 Build 0)  -->
<svg version="1.1" id="Слой_1" xmlns="http://www.w3.org/2000/svg" xmlns:xlink="http://www.w3.org/1999/xlink" x="0px" y="0px"
	 viewBox="0 0 192 183" style="enable-background:new 0 0 192 183;" xml:space="preserve">
<g>
	<path style="fill:#32B8E3;" d="M168,48H24C10.8,48,0,37.2,0,24S10.8,0,24,0h144c13.2,0,24,10.8,24,24S181.2,48,168,48z M24,2.5
		C12.1,2.5,2.5,12.1,2.5,24S12.1,45.5,24,45.5h144c11.9,0,21.5-9.6,21.5-21.5S179.9,2.5,168,2.5H24z"/>
</g>
<g>
	<path style="fill:#FFFFFF;" d="M47.7,30V18.7h8.9V30h-2.4v-9.2h-4.1V30H47.7z M58.7,21.8H61v0.8c0.3-0.4,0.6-0.6,1-0.8
		c0.4-0.2,0.8-0.2,1.4-0.2c0.8,0,1.4,0.2,2,0.6c1,0.7,1.5,1.9,1.5,3.4c0,0.6-0.1,1.2-0.2,1.7c-0.2,0.6-0.4,1.1-0.7,1.5
		c-0.7,0.9-1.5,1.4-2.6,1.4c-0.9,0-1.6-0.3-2.3-0.9v4h-2.2V21.8z M62.8,23.3c-0.5,0-0.8,0.2-1.2,0.5c-0.4,0.5-0.7,1.2-0.7,2
		c0,0.8,0.2,1.5,0.6,1.9c0.3,0.4,0.7,0.5,1.2,0.5c0.5,0,0.9-0.2,1.2-0.5c0.5-0.5,0.7-1.2,0.7-2c0-0.4-0.1-0.8-0.2-1.2
		c-0.1-0.4-0.3-0.7-0.5-0.9C63.6,23.5,63.3,23.3,62.8,23.3z M72.1,21.5c1.2,0,2.1,0.4,2.9,1.1c0.9,0.8,1.3,1.9,1.3,3.3
		c0,1.3-0.4,2.4-1.3,3.2c-0.4,0.3-0.8,0.6-1.3,0.8c-0.5,0.2-1,0.3-1.6,0.3c-0.5,0-1.1-0.1-1.6-0.3c-0.5-0.2-0.9-0.5-1.3-0.8
		c-0.8-0.8-1.2-1.9-1.2-3.4c0-1.3,0.4-2.3,1.2-3C69.9,21.9,70.9,21.6,72.1,21.5z M72.1,23.4c-0.6,0-1,0.2-1.4,0.7
		c-0.3,0.4-0.5,1-0.5,1.7c0,0.8,0.2,1.5,0.6,1.9c0.3,0.4,0.8,0.6,1.3,0.6c0.6,0,1.1-0.2,1.4-0.7c0.3-0.4,0.4-1,0.4-1.7
		c0-0.9-0.2-1.5-0.6-1.9C73,23.6,72.6,23.4,72.1,23.4z M77.7,30v-8.3h4.8c0.6,0,1.2,0.2,1.6,0.6c0.4,0.4,0.6,0.9,0.6,1.5
		c0,0.9-0.5,1.5-1.4,1.9c1,0.3,1.5,1,1.5,2c0,0.8-0.3,1.5-1,1.9c-0.4,0.3-0.9,0.4-1.5,0.4H77.7z M80,28.1h1.9c0.1,0,0.3,0,0.4-0.1
		c0.3-0.2,0.4-0.4,0.4-0.7c0-0.2-0.1-0.4-0.2-0.6c-0.2-0.2-0.3-0.2-0.6-0.2H80V28.1z M80,24.9h1.9c0.2,0,0.4-0.1,0.5-0.2
		c0.1-0.1,0.2-0.3,0.2-0.5c0-0.2-0.1-0.4-0.2-0.5c-0.1-0.1-0.3-0.2-0.5-0.2H80V24.9z M86.3,24.5c0-0.7,0.2-1.2,0.4-1.5
		c0.6-0.9,1.7-1.4,3.4-1.4c1.2,0,2.1,0.3,2.7,0.8c0.3,0.2,0.5,0.5,0.6,0.7c0.1,0.2,0.1,0.6,0.1,1.1V30h-2.2v-0.9
		c-0.3,0.3-0.6,0.5-0.9,0.7c-0.5,0.3-1.1,0.4-1.8,0.4c-0.9,0-1.5-0.2-2-0.7c-0.4-0.4-0.7-1-0.7-1.8c0-0.8,0.2-1.3,0.6-1.7
		c0.4-0.4,1.2-0.7,2.3-0.9l1.6-0.3c0.3-0.1,0.5-0.1,0.5-0.1c0.2-0.1,0.3-0.3,0.3-0.5c0-0.2-0.1-0.4-0.4-0.6
		c-0.2-0.1-0.5-0.2-0.9-0.2c-0.5,0-0.9,0.1-1.2,0.3c-0.3,0.2-0.5,0.5-0.5,0.8H86.3z M91.3,26.1l-1.7,0.4c-0.5,0.1-0.9,0.3-1.1,0.4
		c-0.2,0.2-0.3,0.4-0.3,0.7c0,0.3,0.1,0.5,0.3,0.7c0.2,0.2,0.5,0.2,0.9,0.2c0.5,0,1-0.2,1.3-0.5c0.4-0.4,0.6-0.8,0.6-1.3V26.1z
		 M95.3,30v-8.3h2.2v4.9l2.9-3.8v-1.1h2.2V30h-2.2v-5l-2.9,3.8V30H95.3z M96.8,18.8h1c0,0.3,0.1,0.5,0.3,0.7
		c0.2,0.1,0.5,0.2,0.8,0.2c0.4,0,0.6-0.1,0.8-0.2c0.2-0.1,0.3-0.4,0.3-0.7h1c0,0.5-0.1,0.9-0.4,1.2c-0.4,0.5-1,0.8-1.8,0.8
		c-0.4,0-0.8-0.1-1.1-0.2c-0.3-0.2-0.6-0.4-0.8-0.7C96.9,19.7,96.8,19.3,96.8,18.8z M103.9,31.7v-3.6h0.9c0.4,0,0.7-0.2,0.9-0.5
		c0.2-0.3,0.3-0.8,0.3-1.4v-4.6h6.5v6.4h0.7v3.6h-2.2V30h-4.8v1.7H103.9z M110.3,28.1v-4.6h-2.1V26c0,1-0.3,1.7-1,2.2H110.3z
		 M122.1,27.5c-0.1,0.9-0.5,1.5-1.1,2c-0.7,0.5-1.6,0.8-2.7,0.8c-1,0-1.8-0.3-2.5-0.8c-1-0.8-1.4-1.9-1.4-3.5c0-1.4,0.4-2.5,1.1-3.3
		c0.7-0.7,1.7-1,2.9-1c1.3,0,2.3,0.4,3,1.2c0.7,0.8,1.1,1.9,1.1,3.3c0,0.1,0,0.2,0,0.4h-5.8c0,0.7,0.1,1.2,0.4,1.5
		c0.3,0.3,0.7,0.5,1.3,0.5c1,0,1.5-0.3,1.5-1H122.1z M116.6,24.9h3.6c0-0.5-0.2-0.8-0.4-1.1c-0.3-0.4-0.8-0.5-1.4-0.5
		c-0.5,0-1,0.1-1.3,0.4C116.8,24,116.6,24.4,116.6,24.9z M123.8,21.8h2.2v0.8c0.3-0.4,0.6-0.6,1-0.8c0.4-0.2,0.8-0.2,1.4-0.2
		c0.8,0,1.4,0.2,2,0.6c1,0.7,1.5,1.9,1.5,3.4c0,0.6-0.1,1.2-0.2,1.7c-0.2,0.6-0.4,1.1-0.7,1.5c-0.7,0.9-1.5,1.4-2.6,1.4
		c-0.9,0-1.6-0.3-2.3-0.9v4h-2.2V21.8z M127.9,23.3c-0.5,0-0.8,0.2-1.2,0.5c-0.4,0.5-0.7,1.2-0.7,2c0,0.8,0.2,1.5,0.6,1.9
		c0.3,0.4,0.7,0.5,1.2,0.5c0.5,0,0.9-0.2,1.2-0.5c0.5-0.5,0.7-1.2,0.7-2c0-0.4-0.1-0.8-0.2-1.2c-0.1-0.4-0.3-0.7-0.5-0.9
		C128.7,23.5,128.4,23.3,127.9,23.3z M137.6,20.9c1,0,1.8-0.2,2.4-0.6c0.5-0.4,0.8-0.9,0.9-1.6h2.1V30h-2.4v-7.6h-2.9V20.9z"/>
</g>
<g>
	<path style="fill:#2677FB;" d="M168,108H24C10.8,108,0,97.2,0,84c0-13.2,10.8-24,24-24h144c13.2,0,24,10.8,24,24
		C192,97.2,181.2,108,168,108z M24,62.5C12.1,62.5,2.5,72.1,2.5,84c0,11.9,9.6,21.5,21.5,21.5h144c11.9,0,21.5-9.6,21.5-21.5
		c0-11.9-9.6-21.5-21.5-21.5H24z"/>
</g>
<g>
	<path style="fill:#FFFFFF;" d="M47.7,90V78.7h8.9V90h-2.4v-9.2h-4.1V90H47.7z M58.7,81.8H61v0.8c0.3-0.4,0.6-0.6,1-0.8
		c0.4-0.2,0.8-0.2,1.4-0.2c0.8,0,1.4,0.2,2,0.6c1,0.7,1.5,1.9,1.5,3.4c0,0.6-0.1,1.2-0.2,1.7c-0.2,0.6-0.4,1.1-0.7,1.5
		c-0.7,0.9-1.5,1.4-2.6,1.4c-0.9,0-1.6-0.3-2.3-0.9v4h-2.2V81.8z M62.8,83.3c-0.5,0-0.8,0.2-1.2,0.5c-0.4,0.5-0.7,1.2-0.7,2
		c0,0.8,0.2,1.5,0.6,1.9c0.3,0.4,0.7,0.5,1.2,0.5c0.5,0,0.9-0.2,1.2-0.5c0.5-0.5,0.7-1.2,0.7-2c0-0.4-0.1-0.8-0.2-1.2
		c-0.1-0.4-0.3-0.7-0.5-0.9C63.6,83.5,63.3,83.3,62.8,83.3z M72.1,81.5c1.2,0,2.1,0.4,2.9,1.1c0.9,0.8,1.3,1.9,1.3,3.3
		c0,1.3-0.4,2.4-1.3,3.2c-0.4,0.3-0.8,0.6-1.3,0.8c-0.5,0.2-1,0.3-1.6,0.3c-0.5,0-1.1-0.1-1.6-0.3c-0.5-0.2-0.9-0.5-1.3-0.8
		c-0.8-0.8-1.2-1.9-1.2-3.4c0-1.3,0.4-2.3,1.2-3C69.9,81.9,70.9,81.6,72.1,81.5z M72.1,83.4c-0.6,0-1,0.2-1.4,0.7
		c-0.3,0.4-0.5,1-0.5,1.7c0,0.8,0.2,1.5,0.6,1.9c0.3,0.4,0.8,0.6,1.3,0.6c0.6,0,1.1-0.2,1.4-0.7c0.3-0.4,0.4-1,0.4-1.7
		c0-0.9-0.2-1.5-0.6-1.9C73,83.6,72.6,83.4,72.1,83.4z M77.7,90v-8.3h4.8c0.6,0,1.2,0.2,1.6,0.6c0.4,0.4,0.6,0.9,0.6,1.5
		c0,0.9-0.5,1.5-1.4,1.9c1,0.3,1.5,1,1.5,2c0,0.8-0.3,1.5-1,1.9c-0.4,0.3-0.9,0.4-1.5,0.4H77.7z M80,88.1h1.9c0.1,0,0.3,0,0.4-0.1
		c0.3-0.2,0.4-0.4,0.4-0.7c0-0.2-0.1-0.4-0.2-0.6c-0.2-0.2-0.3-0.2-0.6-0.2H80V88.1z M80,84.9h1.9c0.2,0,0.4-0.1,0.5-0.2
		c0.1-0.1,0.2-0.3,0.2-0.5c0-0.2-0.1-0.4-0.2-0.5c-0.1-0.1-0.3-0.2-0.5-0.2H80V84.9z M86.3,84.5c0-0.7,0.2-1.2,0.4-1.5
		c0.6-0.9,1.7-1.4,3.4-1.4c1.2,0,2.1,0.3,2.7,0.8c0.3,0.2,0.5,0.5,0.6,0.7c0.1,0.2,0.1,0.6,0.1,1.1V90h-2.2v-0.9
		c-0.3,0.3-0.6,0.5-0.9,0.7c-0.5,0.3-1.1,0.4-1.8,0.4c-0.9,0-1.5-0.2-2-0.7c-0.4-0.4-0.7-1-0.7-1.8c0-0.8,0.2-1.3,0.6-1.7
		c0.4-0.4,1.2-0.7,2.3-0.9l1.6-0.3c0.3-0.1,0.5-0.1,0.5-0.1c0.2-0.1,0.3-0.3,0.3-0.5c0-0.2-0.1-0.4-0.4-0.6
		c-0.2-0.1-0.5-0.2-0.9-0.2c-0.5,0-0.9,0.1-1.2,0.3c-0.3,0.2-0.5,0.5-0.5,0.8H86.3z M91.3,86.1l-1.7,0.4c-0.5,0.1-0.9,0.3-1.1,0.4
		c-0.2,0.2-0.3,0.4-0.3,0.7c0,0.3,0.1,0.5,0.3,0.7c0.2,0.2,0.5,0.2,0.9,0.2c0.5,0,1-0.2,1.3-0.5c0.4-0.4,0.6-0.8,0.6-1.3V86.1z
		 M95.3,90v-8.3h2.2v4.9l2.9-3.8v-1.1h2.2V90h-2.2v-5l-2.9,3.8V90H95.3z M96.8,78.8h1c0,0.3,0.1,0.5,0.3,0.7
		c0.2,0.1,0.5,0.2,0.8,0.2c0.4,0,0.6-0.1,0.8-0.2c0.2-0.1,0.3-0.4,0.3-0.7h1c0,0.5-0.1,0.9-0.4,1.2c-0.4,0.5-1,0.8-1.8,0.8
		c-0.4,0-0.8-0.1-1.1-0.2s-0.6-0.4-0.8-0.7C96.9,79.7,96.8,79.3,96.8,78.8z M103.9,91.7v-3.6h0.9c0.4,0,0.7-0.2,0.9-0.5
		c0.2-0.3,0.3-0.8,0.3-1.4v-4.6h6.5v6.4h0.7v3.6h-2.2V90h-4.8v1.7H103.9z M110.3,88.1v-4.6h-2.1V86c0,1-0.3,1.7-1,2.2H110.3z
		 M122.1,87.5c-0.1,0.9-0.5,1.5-1.1,2c-0.7,0.5-1.6,0.8-2.7,0.8c-1,0-1.8-0.3-2.5-0.8c-1-0.8-1.4-1.9-1.4-3.5c0-1.4,0.4-2.5,1.1-3.3
		c0.7-0.7,1.7-1,2.9-1c1.3,0,2.3,0.4,3,1.2c0.7,0.8,1.1,1.9,1.1,3.3c0,0.1,0,0.2,0,0.4h-5.8c0,0.7,0.1,1.2,0.4,1.5
		c0.3,0.3,0.7,0.5,1.3,0.5c1,0,1.5-0.3,1.5-1H122.1z M116.6,84.9h3.6c0-0.5-0.2-0.8-0.4-1.1c-0.3-0.4-0.8-0.5-1.4-0.5
		c-0.5,0-1,0.1-1.3,0.4C116.8,84,116.6,84.4,116.6,84.9z M123.8,81.8h2.2v0.8c0.3-0.4,0.6-0.6,1-0.8c0.4-0.2,0.8-0.2,1.4-0.2
		c0.8,0,1.4,0.2,2,0.6c1,0.7,1.5,1.9,1.5,3.4c0,0.6-0.1,1.2-0.2,1.7c-0.2,0.6-0.4,1.1-0.7,1.5c-0.7,0.9-1.5,1.4-2.6,1.4
		c-0.9,0-1.6-0.3-2.3-0.9v4h-2.2V81.8z M127.9,83.3c-0.5,0-0.8,0.2-1.2,0.5c-0.4,0.5-0.7,1.2-0.7,2c0,0.8,0.2,1.5,0.6,1.9
		c0.3,0.4,0.7,0.5,1.2,0.5c0.5,0,0.9-0.2,1.2-0.5c0.5-0.5,0.7-1.2,0.7-2c0-0.4-0.1-0.8-0.2-1.2c-0.1-0.4-0.3-0.7-0.5-0.9
		C128.7,83.5,128.4,83.3,127.9,83.3z M137.2,82.9c0-1.2,0.2-2.1,0.6-2.7c0.3-0.5,0.8-0.9,1.4-1.2c0.5-0.2,1.1-0.4,1.8-0.4
		c1.2,0,2.2,0.4,2.8,1.2c0.6,0.7,0.9,1.6,0.9,2.6c0,0.6-0.1,1.1-0.3,1.6c-0.2,0.4-0.6,0.9-1,1.4c-0.3,0.3-0.6,0.5-0.8,0.7
		c-0.2,0.2-0.6,0.5-1.2,0.9c-0.8,0.5-1.2,0.9-1.3,1.1h4.7v2h-7.7v-0.4c0-0.8,0.3-1.6,0.9-2.4c0.6-0.7,1.5-1.6,2.9-2.5
		c0.6-0.4,1-0.8,1.3-1.1c0.2-0.3,0.3-0.7,0.3-1.2c0-0.5-0.1-0.9-0.4-1.2c-0.2-0.3-0.6-0.5-1-0.5c-0.5,0-0.9,0.2-1.2,0.6
		c-0.3,0.4-0.4,0.9-0.4,1.6H137.2z"/>
</g>
<g>
	<circle style="fill:#FFFFFF;" cx="89" cy="121.5" r="1.5"/>
</g>
<g>
	<circle style="fill:#FFFFFF;" cx="96" cy="121.5" r="1.5"/>
</g>
<g>
	<circle style="fill:#FFFFFF;" cx="103" cy="121.5" r="1.5"/>
</g>
<g>
	<path style="fill:#C75695;" d="M168,183H24c-13.2,0-24-10.8-24-24s10.8-24,24-24h144c13.2,0,24,10.8,24,24S181.2,183,168,183z
		 M24,137.5c-11.9,0-21.5,9.6-21.5,21.5s9.6,21.5,21.5,21.5h144c11.9,0,21.5-9.6,21.5-21.5s-9.6-21.5-21.5-21.5H24z"/>
</g>
<g>
	<path style="fill:#FFFFFF;" d="M47.6,165v-11.3h8.9V165h-2.4v-9.2H50v9.2H47.6z M58.6,156.8h2.2v0.8c0.3-0.4,0.6-0.6,1-0.8
		c0.4-0.2,0.8-0.2,1.4-0.2c0.8,0,1.4,0.2,2,0.6c1,0.7,1.5,1.9,1.5,3.4c0,0.6-0.1,1.2-0.2,1.7c-0.2,0.6-0.4,1.1-0.7,1.5
		c-0.7,0.9-1.5,1.4-2.6,1.4c-0.9,0-1.6-0.3-2.3-0.9v4h-2.2V156.8z M62.6,158.3c-0.5,0-0.8,0.2-1.2,0.5c-0.4,0.5-0.7,1.2-0.7,2
		c0,0.8,0.2,1.5,0.6,1.9c0.3,0.4,0.7,0.5,1.2,0.5c0.5,0,0.9-0.2,1.2-0.5c0.5-0.5,0.7-1.2,0.7-2c0-0.4-0.1-0.8-0.2-1.2
		c-0.1-0.4-0.3-0.7-0.5-0.9C63.4,158.5,63.1,158.3,62.6,158.3z M71.9,156.5c1.2,0,2.1,0.4,2.9,1.1c0.9,0.8,1.3,1.9,1.3,3.3
		c0,1.3-0.4,2.4-1.3,3.2c-0.4,0.3-0.8,0.6-1.3,0.8c-0.5,0.2-1,0.3-1.6,0.3c-0.5,0-1.1-0.1-1.6-0.3c-0.5-0.2-0.9-0.5-1.3-0.8
		c-0.8-0.8-1.2-1.9-1.2-3.4c0-1.3,0.4-2.3,1.2-3C69.8,156.9,70.7,156.6,71.9,156.5z M71.9,158.4c-0.6,0-1,0.2-1.4,0.7
		c-0.3,0.4-0.5,1-0.5,1.7c0,0.8,0.2,1.5,0.6,1.9c0.3,0.4,0.8,0.6,1.3,0.6c0.6,0,1.1-0.2,1.4-0.7c0.3-0.4,0.4-1,0.4-1.7
		c0-0.9-0.2-1.5-0.6-1.9C72.8,158.6,72.4,158.4,71.9,158.4z M77.6,165v-8.3h4.8c0.6,0,1.2,0.2,1.6,0.6c0.4,0.4,0.6,0.9,0.6,1.5
		c0,0.9-0.5,1.5-1.4,1.9c1,0.3,1.5,1,1.5,2c0,0.8-0.3,1.5-1,1.9c-0.4,0.3-0.9,0.4-1.5,0.4H77.6z M79.8,163.1h1.9
		c0.1,0,0.3,0,0.4-0.1c0.3-0.2,0.4-0.4,0.4-0.7c0-0.2-0.1-0.4-0.2-0.6c-0.2-0.2-0.3-0.2-0.6-0.2h-1.9V163.1z M79.8,159.9h1.9
		c0.2,0,0.4-0.1,0.5-0.2c0.1-0.1,0.2-0.3,0.2-0.5c0-0.2-0.1-0.4-0.2-0.5c-0.1-0.1-0.3-0.2-0.5-0.2h-1.9V159.9z M86.1,159.5
		c0-0.7,0.2-1.2,0.4-1.5c0.6-0.9,1.7-1.4,3.4-1.4c1.2,0,2.1,0.3,2.7,0.8c0.3,0.2,0.5,0.5,0.6,0.7c0.1,0.2,0.1,0.6,0.1,1.1v5.8h-2.2
		v-0.9c-0.3,0.3-0.6,0.5-0.9,0.7c-0.5,0.3-1.1,0.4-1.8,0.4c-0.9,0-1.5-0.2-2-0.7c-0.4-0.4-0.7-1-0.7-1.8c0-0.8,0.2-1.3,0.6-1.7
		c0.4-0.4,1.2-0.7,2.3-0.9l1.6-0.3c0.3-0.1,0.5-0.1,0.5-0.1c0.2-0.1,0.3-0.3,0.3-0.5c0-0.2-0.1-0.4-0.4-0.6
		c-0.2-0.1-0.5-0.2-0.9-0.2c-0.5,0-0.9,0.1-1.2,0.3c-0.3,0.2-0.5,0.5-0.5,0.8H86.1z M91.1,161.1l-1.7,0.4c-0.5,0.1-0.9,0.3-1.1,0.4
		c-0.2,0.2-0.3,0.4-0.3,0.7s0.1,0.5,0.3,0.7c0.2,0.2,0.5,0.2,0.9,0.2c0.5,0,1-0.2,1.3-0.5c0.4-0.4,0.6-0.8,0.6-1.3V161.1z M95.1,165
		v-8.3h2.2v4.9l2.9-3.8v-1.1h2.2v8.3h-2.2v-5l-2.9,3.8v1.1H95.1z M96.6,153.8h1c0,0.3,0.1,0.5,0.3,0.7c0.2,0.1,0.5,0.2,0.8,0.2
		c0.4,0,0.6-0.1,0.8-0.2c0.2-0.1,0.3-0.4,0.3-0.7h1c0,0.5-0.1,0.9-0.4,1.2c-0.4,0.5-1,0.8-1.8,0.8c-0.4,0-0.8-0.1-1.1-0.2
		c-0.3-0.2-0.6-0.4-0.8-0.7C96.7,154.7,96.7,154.3,96.6,153.8z M103.7,166.7v-3.6h0.9c0.4,0,0.7-0.2,0.9-0.5
		c0.2-0.3,0.3-0.8,0.3-1.4v-4.6h6.5v6.4h0.7v3.6h-2.2V165H106v1.7H103.7z M110.1,163.1v-4.6H108v2.4c0,1-0.3,1.7-1,2.2H110.1z
		 M121.9,162.5c-0.1,0.9-0.5,1.5-1.1,2c-0.7,0.5-1.6,0.8-2.7,0.8c-1,0-1.8-0.3-2.5-0.8c-1-0.8-1.4-1.9-1.4-3.5
		c0-1.4,0.4-2.5,1.1-3.3c0.7-0.7,1.7-1,2.9-1c1.3,0,2.3,0.4,3,1.2c0.7,0.8,1.1,1.9,1.1,3.3c0,0.1,0,0.2,0,0.4h-5.8
		c0,0.7,0.2,1.2,0.4,1.5c0.3,0.3,0.7,0.5,1.3,0.5c1,0,1.5-0.3,1.5-1H121.9z M116.4,159.9h3.6c0-0.5-0.2-0.8-0.4-1.1
		c-0.3-0.4-0.8-0.5-1.4-0.5c-0.5,0-1,0.1-1.3,0.4C116.6,159,116.4,159.4,116.4,159.9z M123.7,156.8h2.2v0.8c0.3-0.4,0.6-0.6,1-0.8
		c0.4-0.2,0.8-0.2,1.4-0.2c0.8,0,1.4,0.2,2,0.6c1,0.7,1.5,1.9,1.5,3.4c0,0.6-0.1,1.2-0.2,1.7c-0.2,0.6-0.4,1.1-0.7,1.5
		c-0.7,0.9-1.5,1.4-2.6,1.4c-0.9,0-1.6-0.3-2.3-0.9v4h-2.2V156.8z M127.7,158.3c-0.5,0-0.8,0.2-1.2,0.5c-0.4,0.5-0.7,1.2-0.7,2
		c0,0.8,0.2,1.5,0.6,1.9c0.3,0.4,0.7,0.5,1.2,0.5c0.5,0,0.9-0.2,1.2-0.5c0.5-0.5,0.7-1.2,0.7-2c0-0.4-0.1-0.8-0.2-1.2
		c-0.1-0.4-0.3-0.7-0.5-0.9C128.5,158.5,128.2,158.3,127.7,158.3z M137.5,156.8h2.2v1c0.6-0.8,1.4-1.2,2.3-1.2
		c0.7,0,1.3,0.2,1.8,0.7c0.6,0.5,0.9,1.3,0.9,2.3v5.4h-2.2v-4.9c0-0.3,0-0.5-0.1-0.7c-0.1-0.2-0.2-0.3-0.3-0.4
		c-0.3-0.2-0.6-0.3-0.9-0.3c-0.4,0-0.8,0.2-1.1,0.5c-0.2,0.3-0.4,0.7-0.4,1.2v4.7h-2.2V156.8z"/>
</g>
</svg>
