<?xml version="1.0" encoding="utf-8"?>
<!-- Generator: Adobe Illustrator 24.0.1, SVG Export Plug-In . SVG Version: 6.00 Build 0)  -->
<svg version="1.1" id="Слой_1" xmlns="http://www.w3.org/2000/svg" xmlns:xlink="http://www.w3.org/1999/xlink" x="0px" y="0px"
	 viewBox="0 0 147 147" style="enable-background:new 0 0 147 147;" xml:space="preserve">
<path style="fill:#5683FF;" d="M99.9,120.4l13.5,10.5l8.4-6.8l22.3,18.1v-7.7c0-2.1,2.9-2.1,2.9,0v10.9c0,0.9-0.7,1.6-1.5,1.6
	c-3.9,0-7.9,0-11.8,0c-1.9,0-1.9-3.1,0-3.1l7.4,0l-19.4-15.7l-8.4,6.8L99,123.6c-7.3,5.6-16.5,8.2-25.5,8.2
	c-10.3,0-19.6-3.4-26.3-8.9c-6.9-5.6-11.1-13.4-11.1-22c0-4.5,1.2-8.9,3.3-12.8c1-1.8,3.5-0.2,2.5,1.6C40.1,93.2,39,97,39,100.9
	c0,7.6,3.8,14.5,10,19.5c6.3,5.1,15,8.3,24.6,8.3c8.2,0,16.7-2.4,23.5-7.5C97.9,120.7,98.8,119.6,99.9,120.4z M94.5,93.2l8.3,3.6
	c1.8,0.8,0.7,3.7-1.1,2.9l-6.9-3c-1.4-0.6-1.2-0.8-1.6,0.6c-0.3,1.2-1,4.3-1.6,5c-0.8,0.9-1.9,1.8-3.2,1.8c-0.6,0-0.7,0.6-0.8,1.2
	c-0.5,3.4-1.6,4-4.6,4.5c-2.2,0.4-5.6,0.9-8.1,5.4c0,0.1-0.1,0.2-0.1,0.3c-0.6,1.1-2,1.1-2.6,0c-0.1-0.1-0.1-0.3-0.2-0.4
	c-2.6-4.6-5.9-5.3-8.2-5.8c-1.1-0.2-1.9-0.4-2.7-0.9c-1.4-1-1.6-2.3-1.8-3.6c-0.1-0.6-0.2-1.2-0.8-1.2c-2.9,0-3.8-3-4.5-5.4
	c-0.7-2.2-0.2-2.1-2.1-1.3l-6.6,2.8c-1.8,0.8-2.9-2.1-1.1-2.9l7-3c2-0.9,0.8-0.4,1.2-2c0.3-1.2,1.5-1.9,2.7-2.5l5.4-2.7v-4.9
	c-2.4-2.8-4.3-6.3-5.2-10.1c-1,0.4-2.6-0.7-3.2-1.5c-1-1.5-0.8-4.8-1.9-7c-0.5-1-0.7-1.9-0.8-2.7c-0.2-2.1,0.9-3.8,2.7-4.5
	c-0.1-1.6-0.3-3.3-0.6-5.1c-0.6-4-1.2-8.3-0.3-13c1.6-7.8,7.3-13.1,14.5-14.8c3.6-0.8,7.3-0.9,10.4,0.1c2.5,0.7,4.7,2.1,6.1,4.1
	c1.7,2.4,2.1,0.7,5.9,2c4.4,1.5,6.7,5.3,7.7,9.8c0.9,4.2,0.7,8.9,0.2,12.6c-0.2,1.6-0.5,3.1-0.8,4.2c-0.4,1.4-0.5,0.7,0.5,1.5
	c1.8,1.5,1.7,4.2,0.6,6.4c-0.7,1.5-0.8,2.6-1,4c-0.3,2.4-0.7,3.8-3.1,4.5c-1.1,0.3-0.7-0.6-1.2,0.8c-1,3.1-2.6,6.1-4.7,8.5
	c-0.6,0.7-0.4,0.3-0.4,1.3v2.6c0,1.3-0.1,1,1,1.6l4.4,2.2C93.4,90.1,95,91.1,94.5,93.2z M56.9,97.3c0.7,2.4,0.4,2.9,2.5,3.2
	c2.4,0.3,2.6,2,2.9,3.8c0.1,0.6,0.2,1.3,0.5,1.5c0.2,0.2,0.9,0.3,1.6,0.5c2,0.4,4.7,1,7.2,3.5c-0.9-3.9-3.5-6.5-5.9-8.9
	c-2.7-2.8-5.2-5.3-5.2-9.2c0-2,0.2-1.7-1.4-0.9l-2.7,1.4C54.7,92.8,56.5,95.9,56.9,97.3z M75.3,109.8c2.6-2.4,5.3-2.8,7.3-3.1
	c1.7-0.3,1.9,0,2.1-1.8c0.3-1.7,0.5-3.4,2.6-3.8c2.4-0.4,1.9-0.3,2.7-3.3c0.3-1.2,0.7-2.6,1.1-3.8c0.5-1.5,0.2-1.5-1.5-2.3L88,90.8
	c-1.7-0.9-1.5-1.2-1.5,0.8c0,3.8-2.5,6.4-5.2,9.2C78.9,103.3,76.3,106,75.3,109.8z M73.5,106c1.4-3,3.6-5.3,5.7-7.4
	c2.3-2.3,4.3-4.4,4.3-6.9v-5.8c0-1,0.1-1-0.6-0.4c-5.9,4.4-12.2,4.4-18.2,0.1c-1.3-1-1.1-1.2-1.1,0.7v5.5c0,2.5,2,4.6,4.3,6.9
	C69.9,100.7,72.1,103,73.5,106z M55,67.7c0-0.9,0.6-1.6,1.4-1.6c0.8,0,1.5,0.6,1.5,1.5c0,0.8,0.1,1.7,0.3,2.5
	c0.8,4.2,3.1,8.1,6,10.9c6.2,6.1,13,6.1,19.1,0c3.6-3.5,6-8.2,6.2-13.5c0.1-2.1,3-1.9,2.9,0.1c-0.1,1.8,0.2,1.9,0.4,0.2
	c0.3-2.1,0.5-3.6,1.4-5.5c1.7-3.5-1.8-3.3-2.5-1.9c-0.3,0.8-1.2,1.1-2,0.8c-1-0.5-0.8-1.4-0.7-2.3c0.8-7.9,1.1-12.5-5.6-17.4
	c-2.7,3.3-7,3.8-11.4,4.3c-6.3,0.8-13,1.6-14,12.6c0.8,1.9-1.8,3.2-2.7,1.3c-0.8-1.7-4-1.4-2.5,1.9c0.9,1.9,1.1,3.3,1.3,5
	c0,0.3,0.1,0.7,0.1,1C54.7,68.4,55,69,55,67.7z M92.7,55.8c0.3-1.1,0.7-2.6,0.9-4.5c0.5-3.4,0.7-7.7-0.2-11.4
	c-0.8-3.5-2.5-6.4-5.7-7.5c-2.8-0.9-5.3,0.9-6.9-2.3c-0.9-1.9-2.8-3.1-5.1-3.8c-2.7-0.8-5.9-0.8-9,0c-6,1.4-10.9,5.8-12.2,12.4
	c-0.8,4.2-0.3,8.2,0.3,11.8c0.3,1.9,0.5,3.8,0.6,5.5c0,0,0.1,0,0.1,0c1.8-11.5,9.3-12.4,16.3-13.3c5.1-0.6,8-0.6,10.9-5.5
	c8,5.3,10.3,8.6,9.6,18.4C92.2,57.1,92.4,56.7,92.7,55.8z M18.2,24.7c-6,1.5-14.4,1.4-17.6-5.4c-1.3-2.9-0.6-6,1.1-8.5
	C2.3,9.9,3.1,9,3.9,8.2L1.5,6.3C-2,3.6,2.1-2.4,6.6,1.1l3.4,2.7C11.5,3,13,2.4,14.4,2c2.9-0.8,6.2-1,9.1-0.2c1,0.2,2.2,0.7,3.1,1.3
	c1.4,1,2,2.7,1,4.3c-0.8,1.3-3.5,3-4.7,3.9c-3.8,2.5-4.7-0.8-8,0.3c-2.3,0.8-4,2.5-0.8,3.6c2.5,0.9,9.4-2.1,12.3-2.9
	c2-0.5,3.9-0.8,5.6-0.9c3.5-0.2,6.7,0.8,9.5,3c3.9,3,4.9,7.4,2,11.8c-0.5,0.8-1.2,1.7-2,2.5l2.5,2c3.3,2.8-1.8,7.9-5.4,5.2l-3.2-2.5
	c-1.5,0.8-3,1.5-4.5,2.1c-4.4,1.5-9,1.6-13.3-0.3c-2.5-1.1-3-2.4-2.4-3.9c0.6-1.5,3.7-3.4,5.1-4.4c1.6-1.2,2.7-2,5.6-0.7
	c1.9,0.8,4.1,0,5.8-1.1c1.3-0.9,1.8-1.5,0.3-2.5C28.6,20.3,21.5,23.9,18.2,24.7z M33.3,19.7c3.4,2.2,2.8,5.7-0.3,7.8
	c-2.5,1.7-5.6,2.6-8.4,1.4c-1.5-0.6-2-0.2-2.9,0.4c-0.8,0.6-1.5,1.1-2.3,1.6c-1.3,0.9-1.9,0.8,0.1,1.5c3.6,1.2,6.7,1.1,10.3-0.2
	c2-0.7,3.7-1.7,5.6-2.8l4.4,3.4c1,0.8,2.8,0.6,1.3-0.6l-4.5-3.5c1.6-1.3,3.2-2.6,4.4-4.4c2-3,1.3-5.4-1.3-7.5
	c-2.2-1.7-4.7-2.5-7.6-2.4c-1.5,0.1-3.2,0.3-5,0.8c-3.8,1-10,4.1-13.8,2.8c-4.2-1.5-5.4-5.6-1.4-8.4c0.7-0.5,1.5-0.9,2.2-1.2
	c3.2-1.1,5.9,1,7.3,0.1c0.4-0.2,1.9-1.3,2.9-2.1c1-0.8,1.1-0.8-0.2-1.3c-2.7-1.1-6.2-1-8.9-0.2c-1.9,0.5-3.5,1.4-5.3,2.4l-5-3.8
	c-1-0.7-2.2,0-1,0.7l4.9,3.8c-1.6,1.4-3.3,2.7-4.6,4.5c-1,1.5-1.7,3.5-0.8,5.3c2.5,5.3,9.8,4.9,14.3,3.8
	C22.3,20.5,28.7,16.7,33.3,19.7z M83.8,142.1c0.5-0.1,1,0.1,1.4,0.6c4.5-0.8,9-2.2,13.3-4.1c0.9-0.4,1.4,1.1,0.6,1.5
	c-4.5,1.9-9,3.3-13.7,4.2c-0.2,0.5-0.6,0.9-1.2,1c-16.5,2.7-34.9-1.1-48.5-11.6c-0.4-0.3-0.7-0.9-0.6-1.5
	c-9.4-7.6-15.7-18.4-15.7-31.2c0-1,1.5-1,1.5,0c0,12.3,6.1,22.6,15.1,30c0.5-0.2,1-0.2,1.4,0.2C50.4,141.1,68.1,144.7,83.8,142.1z
	 M103.2,66.5c-1.7-1-0.3-3.7,1.4-2.8c7.1,4,13.5,9.6,17.9,16.8c0.3,0.5,0.3,1.1,0.1,1.6c3.3,5.7,5.1,12.1,5.1,18.9c0,1-1.5,1-1.5,0
	c0-6.4-1.8-12.5-4.9-18c-0.5,0-1-0.2-1.3-0.7C115.9,75.5,109.9,70.2,103.2,66.5z M0.7,58.2C0,57.6-0.1,56.7,0.4,56
	c0.5-0.7,1.4-0.8,2-0.3l23,18.4l8.9-6.3l12.1,9.6c1.7,1.4,1.1,1.2,2.9,0c0.8-0.6,1.6-1.1,2.6-1.6c1.7-1,3.1,1.8,1.4,2.8
	c-1.1,0.6-2.2,1.3-3.2,2.1c-2.4,1.8-2.1,2-4.3,0.2l-11.6-9.2l-8.9,6.3L0.7,58.2z M95.8,79.7c-1.6-1.1-0.1-3.8,1.6-2.7
	c12,8.2,18.1,23.2,10,37.2c-1,1.8-3.5,0.1-2.5-1.6C112.1,100.1,106.4,86.9,95.8,79.7z"/>
</svg>
