<?xml version="1.0" encoding="utf-8"?>
<!-- Generator: Adobe Illustrator 23.0.3, SVG Export Plug-In . SVG Version: 6.00 Build 0)  -->
<svg version="1.1" id="Capa_1" xmlns="http://www.w3.org/2000/svg" xmlns:xlink="http://www.w3.org/1999/xlink" x="0px" y="0px"
	 viewBox="-49 141 512 512" style="enable-background:new -49 141 512 512;" xml:space="preserve">
<path d="M207,141C65.5,141-49,255.5-49,397c0,141.5,114.5,256,256,256c141.5,0,256-114.5,256-256C463,255.5,348.5,141,207,141z
	 M207,613C87.6,613-9,516.4-9,397c0-119.4,96.6-216,216-216c119.4,0,216,96.6,216,216C423,516.4,326.4,613,207,613z M287,349.5
	c0,37.2-25.5,68.6-60,77.5v32.5c0,11-9,20-20,20s-20-9-20-20v-50c0-11,9-20,20-20c22.1,0,40-17.9,40-40s-17.9-40-40-40
	s-40,17.9-40,40c0,11-9,20-20,20s-20-9-20-20c0-44.1,35.9-80,80-80S287,305.4,287,349.5z M232,519.5c0,13.8-11.2,25-25,25
	s-25-11.2-25-25s11.2-25,25-25S232,505.7,232,519.5z"/>
</svg>
