<?xml version="1.0" encoding="utf-8"?>
<!-- Generator: Adobe Illustrator 23.0.3, SVG Export Plug-In . SVG Version: 6.00 Build 0)  -->
<svg version="1.1" id="Calque_1" xmlns="http://www.w3.org/2000/svg" xmlns:xlink="http://www.w3.org/1999/xlink" x="0px" y="0px"
	 viewBox="0 0 20.8 20.8" style="enable-background:new 0 0 20.8 20.8;" xml:space="preserve">
<g>
	<path d="M10.4,0C4.6,0,0,4.6,0,10.4c0,5.8,4.6,10.4,10.4,10.4c5.8,0,10.4-4.6,10.4-10.4C20.8,4.6,16.2,0,10.4,0L10.4,0z M10.4,17.6
		c-4,0-7.2-3.2-7.2-7.2c0-4,3.2-7.2,7.2-7.2c4,0,7.2,3.2,7.2,7.2C17.6,14.4,14.4,17.6,10.4,17.6L10.4,17.6z M10.4,17.6"/>
	<path d="M13.8,7.4c-0.2-0.2-0.4-0.2-0.6-0.2c-0.2,0-0.4,0.1-0.6,0.2l-2.9,2.6c-0.2,0.2-0.4,0.2-0.6,0L8.1,9C7.8,8.7,7.3,8.7,7,9
		l-1.1,1.1c-0.2,0.2-0.2,0.4-0.2,0.6c0,0.2,0.1,0.4,0.2,0.6L9,14.2c0.2,0.2,0.3,0.2,0.6,0.2c0.2,0,0.4-0.1,0.6-0.2L15,9.7
		c0.2-0.2,0.2-0.4,0.2-0.6c0-0.2-0.1-0.4-0.2-0.6L13.8,7.4z M13.8,7.4"/>
</g>
</svg>
