<?xml version="1.0" encoding="utf-8"?>
<!-- Generator: Adobe Illustrator 23.0.3, SVG Export Plug-In . SVG Version: 6.00 Build 0)  -->
<svg version="1.1" id="Calque_1" xmlns="http://www.w3.org/2000/svg" xmlns:xlink="http://www.w3.org/1999/xlink" x="0px" y="0px"
	 viewBox="0 0 383 383.9" style="enable-background:new 0 0 383 383.9;" xml:space="preserve">
<g>
	<g>
		<defs>
			<rect id="SVGID_1_" y="0.2" width="382.8" height="383.8"/>
		</defs>
		<clipPath id="SVGID_2_">
			<use xlink:href="#SVGID_1_"  style="overflow:visible;"/>
		</clipPath>
		<path style="clip-path:url(#SVGID_2_);" d="M363.4,151.3l-26.9-4.6c-2.8-9-6.4-17.8-10.8-26.1l15.8-22.2
			c6.7-9.4,5.7-22.3-2.6-30.5l-23.8-23.8c-4.5-4.5-10.4-7-16.7-7c-5,0-9.7,1.5-13.7,4.4l-22.2,15.8c-8.6-4.6-17.7-8.3-27-11.1
			L231,19.8C229,8.3,219.2,0,207.6,0h-33.7c-11.6,0-21.4,8.3-23.4,19.8L145.9,47c-9,2.8-17.7,6.5-26,11l-22-15.8
			c-4-2.9-8.8-4.4-13.8-4.4c-6.3,0-12.3,2.5-16.7,7L43.5,68.5c-8.2,8.2-9.3,21-2.6,30.5l16,22.5c-4.4,8.4-7.9,17.1-10.6,26.2
			l-26.6,4.5C8.3,154,0,163.8,0,175.4v33.7c0,11.6,8.3,21.4,19.8,23.4l27.2,4.6c2.8,9,6.5,17.7,11,26L42.2,285
			c-6.7,9.4-5.7,22.3,2.6,30.5l23.8,23.8c4.5,4.5,10.4,7,16.7,7c5,0,9.7-1.5,13.7-4.4l22.5-16c8.1,4.2,16.6,7.7,25.3,10.4l4.5,26.9
			c1.9,11.4,11.8,19.8,23.4,19.8h33.8c11.6,0,21.4-8.3,23.4-19.8l4.6-26.9c9-2.8,17.8-6.4,26.1-10.8l22.2,15.8
			c4,2.9,8.8,4.4,13.8,4.4c6.3,0,12.2-2.5,16.7-7l23.8-23.8c8.2-8.2,9.3-21,2.6-30.5l-15.8-22.2c4.4-8.4,8.1-17.1,10.8-26.1
			l26.9-4.5c11.4-1.9,19.8-11.8,19.8-23.4v-33.7C383.1,163,374.8,153.2,363.4,151.3L363.4,151.3z M361.5,208.3c0,1-0.7,1.9-1.8,2.1
			l-33.6,5.6c-4.2,0.7-7.6,3.8-8.6,7.9c-3,11.8-7.7,23-13.9,33.5c-2.2,3.7-2,8.2,0.5,11.8l19.8,27.8c0.6,0.8,0.5,2-0.2,2.7
			l-23.8,23.8c-0.6,0.6-1.1,0.6-1.5,0.6c-0.5,0-0.9-0.2-1.2-0.4l-27.8-19.8c-3.4-2.5-8.1-2.6-11.8-0.5
			c-10.5,6.2-21.8,10.9-33.5,13.9c-4.2,1-7.3,4.5-7.9,8.6l-5.7,33.6c-0.2,1-1,1.8-2.1,1.8h-33.7c-1,0-1.9-0.7-2.1-1.8l-5.6-33.6
			c-0.7-4.2-3.8-7.6-7.9-8.6c-11.4-3-22.5-7.5-32.8-13.4c-1.7-1-3.6-1.4-5.4-1.4c-2.2,0-4.4,0.6-6.2,2l-28,19.9
			c-0.4,0.2-0.8,0.4-1.2,0.4c-0.3,0-1-0.1-1.5-0.6L60,300.5c-0.7-0.7-0.8-1.8-0.2-2.7l19.7-27.6c2.5-3.5,2.6-8.2,0.5-11.8
			c-6.2-10.4-11-21.7-14.1-33.4c-1.1-4.1-4.5-7.2-8.6-7.9l-33.8-5.8c-1-0.2-1.8-1-1.8-2.1v-33.7c0-1,0.7-1.9,1.8-2.1l33.4-5.6
			c4.2-0.7,7.7-3.8,8.7-8c3-11.8,7.5-23.1,13.7-33.6c2.2-3.7,1.9-8.2-0.6-11.7l-19.9-28c-0.6-0.8-0.5-2,0.2-2.7l23.8-23.8
			c0.6-0.6,1.1-0.6,1.5-0.6c0.5,0,0.9,0.2,1.2,0.4L113,79.4c3.5,2.5,8.2,2.6,11.8,0.5c10.4-6.2,21.7-11,33.4-14.1
			c4.1-1.1,7.2-4.5,7.9-8.6l5.8-33.8c0.2-1,1-1.8,2.1-1.8h33.7c1,0,1.9,0.7,2.1,1.8l5.6,33.4c0.7,4.2,3.8,7.7,8,8.7
			c12.1,3,23.6,7.8,34.3,14.1c3.7,2.2,8.2,2,11.8-0.5l27.6-19.8c0.4-0.2,0.8-0.4,1.2-0.4c0.3,0,1,0.1,1.5,0.6l23.8,23.8
			c0.7,0.7,0.8,1.8,0.2,2.7l-19.8,27.8c-2.5,3.4-2.6,8.1-0.5,11.8c6.2,10.5,10.9,21.8,13.9,33.5c1,4.2,4.5,7.3,8.6,7.9l33.6,5.7
			c1,0.2,1.8,1,1.8,2.1L361.5,208.3L361.5,208.3z M361.5,208.3"/>
	</g>
	<path d="M191.5,108.8c-45.6,0-82.6,37-82.6,82.6c0,45.6,37,82.6,82.6,82.6c45.6,0,82.6-37,82.6-82.6
		C274.2,145.8,237.1,108.8,191.5,108.8L191.5,108.8z M191.5,252.5c-33.7,0-61-27.4-61-61c0-33.7,27.4-61,61-61c33.7,0,61,27.4,61,61
		C252.6,225.1,225.2,252.5,191.5,252.5L191.5,252.5z M191.5,252.5"/>
</g>
</svg>
