<?xml version="1.0" encoding="utf-8"?>
<!-- Generator: Adobe Illustrator 24.0.1, SVG Export Plug-In . SVG Version: 6.00 Build 0)  -->
<svg version="1.1" id="Слой_1" xmlns="http://www.w3.org/2000/svg" xmlns:xlink="http://www.w3.org/1999/xlink" x="0px" y="0px"
	 viewBox="0 0 48 48" style="enable-background:new 0 0 48 48;" xml:space="preserve">
<path style="fill-rule:evenodd;clip-rule:evenodd;fill:#3299E3;" d="M24,48c13.3,0,24-10.7,24-24S37.3,0,24,0S0,10.7,0,24
	S10.7,48,24,48z"/>
<path style="fill:#FFFFFF;" d="M33.2,13.4l-21.3,8.7c0,0-1,0.4-0.9,1c0.1,0.7,0.9,1,0.9,1l5.4,1.9c0,0,1.6,5.5,1.9,6.6
	c0.3,1,0.6,1.1,0.6,1.1c0.3,0.1,0.6-0.1,0.6-0.1l3.5-3.3l5.4,4.3c1.5,0.7,2-0.7,2-0.7L34.9,14C34.9,12.6,33.2,13.4,33.2,13.4z
	 M29.4,32.3l-5.8-4.6l-1.8,1.7l0.4-3.6l7.7-7.2l-10.5,6.1l-4.7-1.6l17.8-7.3L29.4,32.3z"/>
</svg>
