<?xml version="1.0" encoding="utf-8"?>
<!-- Generator: Adobe Illustrator 24.0.1, SVG Export Plug-In . SVG Version: 6.00 Build 0)  -->
<svg version="1.1" id="Слой_1" xmlns="http://www.w3.org/2000/svg" xmlns:xlink="http://www.w3.org/1999/xlink" x="0px" y="0px"
	 viewBox="0 0 80 80" style="enable-background:new 0 0 80 80;" xml:space="preserve">
<path d="M36,31.9H1.6c-0.4,0-0.8-0.2-1.1-0.5C0.2,31.2,0,30.8,0,30.4V1.6c0-0.4,0.2-0.8,0.5-1.1S1.2,0,1.6,0
	h49.6c0.4,0,0.8,0.2,1.1,0.5c0.3,0.3,0.5,0.7,0.5,1.1v11.5c1.6-1.4,3.3-2.5,5.4-3.3c1.4-0.5,1.6-0.5,3-0.2l0,0h0
	c2.3,0.4,5.2,1.1,8.1,2c2.8,0.9,5.5,1.9,7.6,2.8c0.4,0.2,0.5,0.2,0.6,0.3c0.7,0.3,1.1,0.5,1.2,1c0.1,0.7-0.3,0.9-1.2,1.1
	c-0.1,0-0.3,0.1-0.5,0.2c-0.2,0.1-0.5,0.2-0.7,0.3l0,0c0.6,0.2,1.2,0.4,1.8,0.7c0.2,0.1,0.4,0.2,0.6,0.2c0.7,0.3,1.1,0.4,1.2,1
	c0.1,0.7-0.3,0.8-1.1,1.1c-0.2,0.1-0.4,0.1-0.5,0.2c-6.6,2.6-9.7,7.6-12.8,12.5c-3.9,6.2-7.9,12.5-18.5,14.7l-0.1,0
	c-0.5,0.1-0.8,0.2-1.1,0.2c-0.3,0-0.5-0.1-0.9-0.2c-0.1,0-0.2-0.1-0.4-0.1c-1.7-0.5-5-1.6-8.2-2.7c-3.4-1.2-6.7-2.5-8.1-3.1
	c-1-0.4-1.3-0.8-1-1.4c0.2-0.4,0.5-0.5,0.9-0.6c0.1,0,0.1,0,0.3-0.1c0.8-0.2,1.5-0.4,2.1-0.6c-1.7-0.6-3.1-1.2-3.9-1.6
	c-1-0.5-1.3-0.9-0.9-1.5c0.2-0.4,0.5-0.5,0.9-0.5c0.1,0,0.1,0,0.2-0.1C30.6,34.8,33.6,33.5,36,31.9z M79.2,38.2
	c0-0.2,0.2-0.4,0.4-0.4c0.2,0,0.4,0.2,0.4,0.4v9.4c0,0.2-0.2,0.4-0.4,0.4c-0.2,0-0.4-0.2-0.4-0.4V38.2z M76.8,44
	c0-0.2,0.2-0.4,0.4-0.4c0.2,0,0.4,0.2,0.4,0.4v6.6c0,0.2-0.2,0.4-0.4,0.4c-0.2,0-0.4-0.2-0.4-0.4V44z M74.4,45.9
	c0-0.2,0.2-0.4,0.4-0.4c0.2,0,0.4,0.2,0.4,0.4v8c0,0.2-0.2,0.4-0.4,0.4c-0.2,0-0.4-0.2-0.4-0.4V45.9z M72,49.3
	c0-0.2,0.2-0.4,0.4-0.4s0.4,0.2,0.4,0.4v19.4c0,0.2-0.2,0.4-0.4,0.4S72,68.9,72,68.6V49.3z M69.6,56.3c0-0.2,0.2-0.4,0.4-0.4
	c0.2,0,0.4,0.2,0.4,0.4v14.5c0,0.2-0.2,0.4-0.4,0.4c-0.2,0-0.4-0.2-0.4-0.4V56.3z M67.2,59.3c0-0.2,0.2-0.4,0.4-0.4
	c0.2,0,0.4,0.2,0.4,0.4v6.2c0,0.2-0.2,0.4-0.4,0.4c-0.2,0-0.4-0.2-0.4-0.4V59.3z M64.8,57.5c0-0.2,0.2-0.4,0.4-0.4
	c0.2,0,0.4,0.2,0.4,0.4v11.7c0,0.2-0.2,0.4-0.4,0.4c-0.2,0-0.4-0.2-0.4-0.4V57.5z M62.4,67c0-0.2,0.2-0.4,0.4-0.4
	c0.2,0,0.4,0.2,0.4,0.4v7.1c0,0.2-0.2,0.4-0.4,0.4c-0.2,0-0.4-0.2-0.4-0.4V67z M60,72.1c0-0.2,0.2-0.4,0.4-0.4s0.4,0.2,0.4,0.4v3.8
	c0,0.2-0.2,0.4-0.4,0.4S60,76.1,60,75.9V72.1z M57.6,67.9c0-0.2,0.2-0.4,0.4-0.4s0.4,0.2,0.4,0.4v9.7c0,0.2-0.2,0.4-0.4,0.4
	s-0.4-0.2-0.4-0.4V67.9z M55.2,72.7c0-0.2,0.2-0.4,0.4-0.4c0.2,0,0.4,0.2,0.4,0.4v6.9c0,0.2-0.2,0.4-0.4,0.4c-0.2,0-0.4-0.2-0.4-0.4
	V72.7z M52.8,62.7c0-0.2,0.2-0.4,0.4-0.4s0.4,0.2,0.4,0.4v13.8c0,0.2-0.2,0.4-0.4,0.4s-0.4-0.2-0.4-0.4V62.7z M50.4,59
	c0-0.2,0.2-0.4,0.4-0.4s0.4,0.2,0.4,0.4v5.3c0,0.2-0.2,0.4-0.4,0.4s-0.4-0.2-0.4-0.4V59z M48.1,63.1c0-0.2,0.2-0.4,0.4-0.4
	s0.4,0.2,0.4,0.4v2.3c0,0.2-0.2,0.4-0.4,0.4s-0.4-0.2-0.4-0.4V63.1z M45.7,58.4c0-0.2,0.2-0.4,0.4-0.4s0.4,0.2,0.4,0.4v9.3
	c0,0.2-0.2,0.4-0.4,0.4s-0.4-0.2-0.4-0.4V58.4z M43.3,56.2c0-0.2,0.2-0.4,0.4-0.4c0.2,0,0.4,0.2,0.4,0.4v3.3c0,0.2-0.2,0.4-0.4,0.4
	c-0.2,0-0.4-0.2-0.4-0.4V56.2z M40.9,57.7c0-0.2,0.2-0.4,0.4-0.4c0.2,0,0.4,0.2,0.4,0.4v4.3c0,0.2-0.2,0.4-0.4,0.4
	c-0.2,0-0.4-0.2-0.4-0.4V57.7z M38.5,57.6c0-0.2,0.2-0.4,0.4-0.4c0.2,0,0.4,0.2,0.4,0.4v6.5c0,0.2-0.2,0.4-0.4,0.4
	c-0.2,0-0.4-0.2-0.4-0.4V57.6z M36.1,54.7c0-0.2,0.2-0.4,0.4-0.4c0.2,0,0.4,0.2,0.4,0.4v5.2c0,0.2-0.2,0.4-0.4,0.4
	c-0.2,0-0.4-0.2-0.4-0.4V54.7z M33.7,52.1c0-0.2,0.2-0.4,0.4-0.4s0.4,0.2,0.4,0.4v3.8c0,0.2-0.2,0.4-0.4,0.4s-0.4-0.2-0.4-0.4V52.1z
	 M31.3,54c0-0.2,0.2-0.4,0.4-0.4s0.4,0.2,0.4,0.4v5.7c0,0.2-0.2,0.4-0.4,0.4s-0.4-0.2-0.4-0.4V54z M28.9,54c0-0.2,0.2-0.4,0.4-0.4
	s0.4,0.2,0.4,0.4v4.4c0,0.2-0.2,0.4-0.4,0.4s-0.4-0.2-0.4-0.4V54z M26.5,51.8c0-0.2,0.2-0.4,0.4-0.4s0.4,0.2,0.4,0.4v3.4
	c0,0.2-0.2,0.4-0.4,0.4s-0.4-0.2-0.4-0.4V51.8z M24.1,56c0-0.2,0.2-0.4,0.4-0.4s0.4,0.2,0.4,0.4v5c0,0.2-0.2,0.4-0.4,0.4
	s-0.4-0.2-0.4-0.4V56z M21.7,57.6c0-0.2,0.2-0.4,0.4-0.4s0.4,0.2,0.4,0.4v4.5c0,0.2-0.2,0.4-0.4,0.4s-0.4-0.2-0.4-0.4V57.6z
	 M19.3,54.8c0-0.2,0.2-0.4,0.4-0.4c0.2,0,0.4,0.2,0.4,0.4v3.9c0,0.2-0.2,0.4-0.4,0.4c-0.2,0-0.4-0.2-0.4-0.4V54.8z M16.9,54.6
	c0-0.2,0.2-0.4,0.4-0.4c0.2,0,0.4,0.2,0.4,0.4v6.1c0,0.2-0.2,0.4-0.4,0.4c-0.2,0-0.4-0.2-0.4-0.4V54.6z M14.5,57.8
	c0-0.2,0.2-0.4,0.4-0.4c0.2,0,0.4,0.2,0.4,0.4v6.1c0,0.2-0.2,0.4-0.4,0.4c-0.2,0-0.4-0.2-0.4-0.4V57.8z M12.1,55.9
	c0-0.2,0.2-0.4,0.4-0.4c0.2,0,0.4,0.2,0.4,0.4v6.8c0,0.2-0.2,0.4-0.4,0.4c-0.2,0-0.4-0.2-0.4-0.4V55.9z M9.7,54.6
	c0-0.2,0.2-0.4,0.4-0.4c0.2,0,0.4,0.2,0.4,0.4v4.1c0,0.2-0.2,0.4-0.4,0.4c-0.2,0-0.4-0.2-0.4-0.4V54.6z M7.3,54.2
	c0-0.2,0.2-0.4,0.4-0.4c0.2,0,0.4,0.2,0.4,0.4v9.6c0,0.2-0.2,0.4-0.4,0.4c-0.2,0-0.4-0.2-0.4-0.4V54.2z M4.9,59.2
	c0-0.2,0.2-0.4,0.4-0.4c0.2,0,0.4,0.2,0.4,0.4V71c0,0.2-0.2,0.4-0.4,0.4c-0.2,0-0.4-0.2-0.4-0.4V59.2z M2.5,67
	c0-0.2,0.2-0.4,0.4-0.4c0.2,0,0.4,0.2,0.4,0.4v3.4c0,0.2-0.2,0.4-0.4,0.4c-0.2,0-0.4-0.2-0.4-0.4V67z M0.1,61.3
	c0-0.2,0.2-0.4,0.4-0.4c0.2,0,0.4,0.2,0.4,0.4v8.5c0,0.2-0.2,0.4-0.4,0.4c-0.2,0-0.4-0.2-0.4-0.4V61.3z M39.9,35.3
	c-0.2-0.1-0.3-0.3-0.3-0.5c0.1-0.2,0.3-0.3,0.5-0.3l3.9,1.2c0.2,0.1,0.3,0.3,0.3,0.5c-0.1,0.2-0.3,0.3-0.5,0.3L39.9,35.3z
	 M42.7,32.9c-0.2-0.1-0.3-0.3-0.3-0.5c0.1-0.2,0.3-0.3,0.5-0.3l7.4,2.3c0.2,0.1,0.3,0.3,0.3,0.5c-0.1,0.2-0.3,0.3-0.5,0.3L42.7,32.9
	z M47.1,28.5c-0.2-0.1-0.3-0.3-0.3-0.5c0.1-0.2,0.3-0.3,0.5-0.3l3.9,1.2c0.2,0.1,0.3,0.3,0.3,0.5c-0.1,0.2-0.3,0.3-0.5,0.3
	L47.1,28.5z M49.3,26c-0.2-0.1-0.3-0.3-0.3-0.5c0.1-0.2,0.3-0.3,0.5-0.3l7.4,2.3c0.2,0.1,0.3,0.3,0.3,0.5c-0.1,0.2-0.3,0.3-0.5,0.3
	L49.3,26z M52.2,21.9c-0.2-0.1-0.3-0.3-0.3-0.5c0.1-0.2,0.3-0.3,0.5-0.3l3.9,1.2c0.2,0.1,0.3,0.3,0.3,0.5c-0.1,0.2-0.3,0.3-0.5,0.3
	L52.2,21.9z M53.9,19.4c-0.2-0.1-0.3-0.3-0.3-0.5c0.1-0.2,0.3-0.3,0.5-0.3l7.4,2.3c0.2,0.1,0.3,0.3,0.3,0.5
	c-0.1,0.2-0.3,0.3-0.5,0.3L53.9,19.4z M57.5,15.3c-0.2-0.1-0.3-0.3-0.3-0.5c0.1-0.2,0.3-0.3,0.5-0.3l8.2,2.3
	c0.2,0.1,0.3,0.3,0.3,0.5c-0.1,0.2-0.3,0.3-0.5,0.3L57.5,15.3z M74.2,18.3c-6.4,3.2-9.4,8-12.2,12.6c-3.5,5.8-6.9,11.2-16.5,13.1
	l0,0c-0.6,0.1-0.8,0.2-1.2,0.1c-0.3,0-0.5-0.1-0.8-0.2c-0.1,0-0.2-0.1-0.4-0.1c-2-0.7-6.4-2.2-10.2-3.6c-0.6,0.2-1.2,0.4-1.8,0.6
	c-0.3,0.1-0.6,0.2-0.9,0.3c1.6,0.6,4.1,1.6,6.6,2.5c3.2,1.1,6.5,2.2,8.1,2.7c0.1,0,0.3,0.1,0.4,0.1c0.3,0.1,0.4,0.1,0.5,0.1
	c0.1,0,0.3,0,0.7-0.1l0.1,0c9.9-2.1,13.7-8.1,17.4-14c3.2-5,6.4-10,13-12.9c-0.4-0.2-0.9-0.3-1.3-0.5C75.3,18.7,74.8,18.5,74.2,18.3
	z M78.3,19.4L78.3,19.4C78.3,19.6,78.3,19.7,78.3,19.4C78.3,19.4,78.3,19.4,78.3,19.4z M78.3,19.4C78.3,19.3,78.3,19.3,78.3,19.4
	L78.3,19.4L78.3,19.4z M51.2,14.7C51.2,14.6,51.2,14.6,51.2,14.7l0-13.1H1.6v28.8h36.7c1.9-1.5,3.5-3.3,4.9-5h-4.3
	c-0.2,0-0.4-0.2-0.4-0.4s0.2-0.4,0.4-0.4h4.9c1-1.3,1.9-2.6,2.8-3.9C48.2,18.5,49.6,16.4,51.2,14.7z M48,21.5
	c-4.2,6-8.8,12.6-19.3,15.3c1.2,0.5,2.8,1.1,4.6,1.8c3.8,1.4,8.2,3,10.3,3.6c0.2,0.1,0.3,0.1,0.4,0.1c0.3,0.1,0.4,0.1,0.5,0.1
	c0.1,0,0.3,0,0.7-0.1l0,0c8.9-1.7,12-6.9,15.4-12.4c3.3-5.3,6.7-10.9,15.4-14.3c-2-0.9-4.5-1.8-7.1-2.6c-2.8-0.9-5.7-1.6-7.9-2v0h0
	c-1.1-0.2-1.2-0.2-2.2,0.2C53.9,13,51.1,17.1,48,21.5z M77.1,15.9c0-0.1,0-0.1,0-0.1C77.1,16,77.1,16.2,77.1,15.9z M20.4,39.3
	c0.3,0.3,0.4,0.8,0.1,1.1c-0.3,0.3-0.8,0.4-1.1,0.1l-2-1.8v8.9c0,0.4-0.4,0.8-0.8,0.8c-0.4,0-0.8-0.4-0.8-0.8v-8.9l-2,1.8
	c-0.3,0.3-0.8,0.3-1.1-0.1c-0.3-0.3-0.3-0.8,0.1-1.1l3.3-3c0,0,0.1-0.1,0.1-0.1l0,0c0,0,0,0,0,0l0,0c0,0,0,0,0,0l0,0c0,0,0,0,0,0
	c0,0,0,0,0,0l0,0c0,0,0,0,0,0l0,0c0.1,0,0.2-0.1,0.3-0.1h0c0,0,0,0,0,0l0,0c0,0,0,0,0,0c0,0,0,0,0,0c0,0,0,0,0,0c0,0,0,0,0,0l0,0
	c0,0,0,0,0,0h0c0.1,0,0.2,0,0.3,0.1l0,0c0,0,0,0,0,0l0,0c0,0,0,0,0,0l0,0c0,0,0,0,0,0c0,0,0,0,0,0l0,0c0,0,0,0,0,0l0,0
	c0.1,0,0.1,0.1,0.1,0.1L20.4,39.3z M11.8,44c0.3-0.3,0.8-0.3,1.1,0.1c0.3,0.3,0.3,0.8-0.1,1.1l-3.3,2.9c-0.1,0.1-0.3,0.2-0.6,0.2
	c-0.2,0-0.4-0.1-0.6-0.2l-3.3-2.9c-0.3-0.3-0.4-0.8-0.1-1.1c0.3-0.3,0.8-0.4,1.1-0.1l2,1.8v-8.7c0-0.4,0.4-0.8,0.8-0.8
	s0.8,0.4,0.8,0.8v8.7L11.8,44z M11.6,14.9h-1.3v1.1h1.3V14.9z M10.3,14.5h1.3v-1h-1.3V14.5z M11.9,16.3c0,0-0.1,0.1-0.1,0.1h-1.5V17
	c0,0.1,0,0.1,0.1,0.2c0,0,0.1,0.1,0.2,0.1h3.3v-1.1v-1.5v-1.6l1.7,0v-0.9c0-0.1,0-0.1-0.1-0.2c0,0-0.1-0.1-0.2-0.1H12v4.2
	C12,16.2,11.9,16.2,11.9,16.3z M10.3,13.1h1.3v-1.1h-1.1c-0.1,0-0.1,0-0.2,0.1c0,0-0.1,0.1-0.1,0.2V13.1z M15.5,16.3h-1.3v0.9h1.1
	c0.1,0,0.1,0,0.2-0.1c0,0,0.1-0.1,0.1-0.2V16.3z M14.2,15.9h1.3v-1.1h-1.3V15.9z M14.2,14.5h1.3v-1l-1.3,0V14.5z M15.3,18h-4.8
	c-0.3,0-0.5-0.1-0.7-0.3c-0.2-0.2-0.3-0.4-0.3-0.7v-4.8c0-0.3,0.1-0.5,0.3-0.7c0.2-0.2,0.4-0.3,0.7-0.3h4.8c0.3,0,0.5,0.1,0.7,0.3
	c0.2,0.2,0.3,0.4,0.3,0.7V17c0,0.3-0.1,0.5-0.3,0.7C15.8,17.9,15.5,18,15.3,18z M28.1,25.3c-0.2,0-0.4-0.2-0.4-0.4s0.2-0.4,0.4-0.4
	h6.8c0.2,0,0.4,0.2,0.4,0.4s-0.2,0.4-0.4,0.4H28.1z M17.2,25.3c-0.2,0-0.4-0.2-0.4-0.4s0.2-0.4,0.4-0.4H24c0.2,0,0.4,0.2,0.4,0.4
	s-0.2,0.4-0.4,0.4H17.2z M6.4,25.3c-0.2,0-0.4-0.2-0.4-0.4s0.2-0.4,0.4-0.4h6.8c0.2,0,0.4,0.2,0.4,0.4s-0.2,0.4-0.4,0.4H6.4z"/>
</svg>
