<?xml version="1.0" encoding="utf-8"?>
<!-- Generator: Adobe Illustrator 24.0.1, SVG Export Plug-In . SVG Version: 6.00 Build 0)  -->
<svg version="1.1" id="Слой_1" xmlns="http://www.w3.org/2000/svg" xmlns:xlink="http://www.w3.org/1999/xlink" x="0px" y="0px"
	 viewBox="0 0 80 80" style="enable-background:new 0 0 80 80;" xml:space="preserve">
<path d="M35.2,21.4V18c0-1.2,1.9-1.2,1.9,0v3.3h6.1V18c0-1.2,1.9-1.2,1.9,0v3.3c2,0,4.1-0.1,6.1,0V18
	c0-1.2,1.9-1.2,1.9,0v3.7c2.6,0.8,4.6,2.9,5.3,5.5h3.8c1.2,0,1.2,1.9,0,1.9h-3.6c0,2,0,4,0,6.1h3.6c1.2,0,1.2,1.9,0,1.9h-3.6V43h3.6
	c1.2,0,1.2,1.9,0,1.9h-3.6c0,2,0.1,4.1,0,6.1h3.6c1.2,0,1.2,1.9,0,1.9h-3.9c-0.7,2.5-2.7,4.5-5.2,5.2v3.9c0,1.2-1.9,1.2-1.9,0v-3.6
	c-2,0.1-4.1,0-6.1,0v3.6c0,1.2-1.9,1.2-1.9,0v-3.6h-6.1v3.6c0,1.2-1.9,1.2-1.9,0v-3.6c-2,0-4,0-6.1,0v3.6c0,1.2-1.9,1.2-1.9,0v-3.8
	c-2.6-0.7-4.7-2.7-5.5-5.3h-3.6c-1.2,0-1.2-1.9,0-1.9h3.3c-0.1-2,0-4.1,0-6.1h-3.3c-1.2,0-1.2-1.9,0-1.9h3.3V37h-3.3
	c-1.2,0-1.2-1.9,0-1.9h3.3c0-2,0-4,0-6.1h-3.3c-1.2,0-1.2-1.9,0-1.9h3.6c0.7-2.7,2.8-4.9,5.6-5.5V18c0-1.2,1.9-1.2,1.9,0v3.3
	C31.2,21.4,33.2,21.4,35.2,21.4z M0.2,32.2L2,29.6c0.7-1,2.2,0.1,1.5,1.1l-1.5,2.2l1.5,2.2C4.3,35.9,2.7,37,2,36l-1.8-2.7
	C0,33,0,32.6,0.2,32.2z M4.5,32.2l1.8-2.7c0.7-1,2.2,0.1,1.5,1.1l-1.5,2.2l1.5,2.2c0.7,1-0.8,2.1-1.5,1.1l-1.8-2.7
	C4.3,33,4.3,32.6,4.5,32.2z M7.9,46.7c0.2,0.3,0.2,0.8,0,1.1l-1.8,2.7c-0.7,1-2.2-0.1-1.5-1.1L6,47.2l-1.5-2.2
	c-0.7-1,0.8-2.1,1.5-1.1L7.9,46.7z M3.6,46.7c0.2,0.3,0.2,0.8,0,1.1l-1.8,2.7c-0.7,1-2.2-0.1-1.5-1.1l1.5-2.2l-1.5-2.2
	C-0.5,44.1,1,43,1.7,44L3.6,46.7z M72.1,47.8c-0.2-0.3-0.2-0.8,0-1.1l1.8-2.7c0.7-1,2.2,0.1,1.5,1.1L74,47.2l1.5,2.2
	c0.7,1-0.8,2.1-1.5,1.1L72.1,47.8z M76.4,47.8c-0.2-0.3-0.2-0.8,0-1.1l1.8-2.7c0.7-1,2.2,0.1,1.5,1.1l-1.5,2.2l1.5,2.2
	c0.7,1-0.8,2.1-1.5,1.1L76.4,47.8z M79.8,33.3L78,36c-0.7,1-2.2-0.1-1.5-1.1l1.5-2.2l-1.5-2.2c-0.7-1,0.8-2.1,1.5-1.1l1.8,2.7
	C80,32.6,80,33,79.8,33.3z M75.5,33.3L73.6,36c-0.7,1-2.2-0.1-1.5-1.1l1.5-2.2l-1.5-2.2c-0.7-1,0.8-2.1,1.5-1.1l1.8,2.7
	C75.7,32.6,75.7,33,75.5,33.3z M32.2,79.8L29.6,78c-1-0.7,0.1-2.2,1.1-1.5l2.2,1.5l2.2-1.5c1-0.7,2.1,0.8,1.1,1.5l-2.7,1.8
	C33,80,32.6,80,32.2,79.8z M32.2,75.5l-2.7-1.8c-1-0.7,0.1-2.2,1.1-1.5l2.2,1.5l2.2-1.5c1-0.7,2.1,0.8,1.1,1.5l-2.7,1.8
	C33,75.7,32.6,75.7,32.2,75.5z M46.7,72.1c0.3-0.2,0.8-0.2,1.1,0l2.7,1.8c1,0.7-0.1,2.2-1.1,1.5L47.2,74l-2.2,1.5
	c-1,0.7-2.1-0.8-1.1-1.5L46.7,72.1z M46.7,76.4c0.3-0.2,0.8-0.2,1.1,0l2.7,1.8c1,0.7-0.1,2.2-1.1,1.5l-2.2-1.5l-2.2,1.5
	c-1,0.7-2.1-0.8-1.1-1.5L46.7,76.4z M47.8,7.9c-0.3,0.2-0.8,0.2-1.1,0L44,6.1c-1-0.7,0.1-2.2,1.1-1.5L47.2,6l2.2-1.5
	c1-0.7,2.1,0.8,1.1,1.5L47.8,7.9z M47.8,3.6c-0.3,0.2-0.8,0.2-1.1,0L44,1.7c-1-0.7,0.1-2.2,1.1-1.5l2.2,1.5l2.2-1.5
	c1-0.7,2.1,0.8,1.1,1.5L47.8,3.6z M33.3,0.2L36,2c1,0.7-0.1,2.2-1.1,1.5l-2.2-1.5l-2.2,1.5c-1,0.7-2.1-0.8-1.1-1.5l2.7-1.8
	C32.6,0,33,0,33.3,0.2z M33.3,4.5L36,6.4c1,0.7-0.1,2.2-1.1,1.5l-2.2-1.5l-2.2,1.5c-1,0.7-2.1-0.8-1.1-1.5l2.7-1.8
	C32.6,4.3,33,4.3,33.3,4.5z M39.2,49.5c-0.4,1-2,0.5-1.8-0.5l1.8-8.5c-0.6,0-1.4,0.1-1.9,0c-1.4,0-1.7-0.3-1.7-1.3
	c0-2.4,1.3-5.7,1.8-8.2c0.4-2.3,5.6-1.7,4.7,0l-3.4,7.6c1.1,0,2.3,0,3.4,0c2.2-0.1,1.7,1.2,1.1,2.5L39.2,49.5z M23.4,50.7
	c0,3.2,2.6,5.8,5.8,5.8h21.6c3.2,0,5.8-2.6,5.8-5.8V29.1c0-3.2-2.6-5.8-5.8-5.8c-7.2,0-14.4,0-21.6,0c-3.2,0-5.8,2.6-5.8,5.8
	C23.4,36.3,23.4,43.5,23.4,50.7z"/>
</svg>
