<?xml version="1.0" encoding="utf-8"?>
<!-- Generator: Adobe Illustrator 23.0.3, SVG Export Plug-In . SVG Version: 6.00 Build 0)  -->
<svg version="1.1" id="Calque_1" xmlns="http://www.w3.org/2000/svg" xmlns:xlink="http://www.w3.org/1999/xlink" x="0px" y="0px"
	 viewBox="0 0 391.9 380.9" style="enable-background:new 0 0 391.9 380.9;" xml:space="preserve">
<g>
	<g>
		<defs>
			<rect id="SVGID_1_" width="391.9" height="380.9"/>
		</defs>
		<clipPath id="SVGID_2_">
			<use xlink:href="#SVGID_1_"  style="overflow:visible;"/>
		</clipPath>
		<path style="clip-path:url(#SVGID_2_);" d="M388.5,61.5L299,1.3c-4.9-3.3-11.4,0.2-11.4,6.1v32.6h-255
			c-15.3,0-27.7,12.4-27.7,27.7v147.1h55.4V95.4h227.3V128c0,5.9,6.6,9.4,11.4,6.1l89.5-60.3C392.8,70.9,392.8,64.5,388.5,61.5
			L388.5,61.5z M388.5,61.5"/>
		<path style="clip-path:url(#SVGID_2_);" d="M331.6,284.5H104.3v-32.6c0-5.9-6.6-9.4-11.4-6.1L3.2,306.1c-4.3,2.9-4.3,9.3,0,12.2
			l89.5,60.3c4.9,3.3,11.4-0.2,11.4-6.1v-32.6h255c15.3,0,27.7-12.4,27.7-27.7V165.1h-55.4L331.6,284.5L331.6,284.5z M331.6,284.5"
			/>
	</g>
</g>
</svg>
