<?xml version="1.0" encoding="utf-8"?>
<!-- Generator: Adobe Illustrator 24.0.1, SVG Export Plug-In . SVG Version: 6.00 Build 0)  -->
<svg version="1.1" id="Слой_1" xmlns="http://www.w3.org/2000/svg" xmlns:xlink="http://www.w3.org/1999/xlink" x="0px" y="0px"
	 viewBox="0 0 148.1 141.9" style="enable-background:new 0 0 148.1 141.9;" xml:space="preserve">
<path style="fill-rule:evenodd;clip-rule:evenodd;fill:#5683FF;" d="M132.3,66.3c-3,0-5.9-0.9-8.3-2.6l-7.6,7.3l7.6,7.3
	c2.4-1.7,5.3-2.6,8.3-2.6c3,0,5.9,0.8,8.4,2.4c2.5,1.6,4.4,3.9,5.5,6.5c1.1,2.7,1.3,5.6,0.6,8.3c-0.7,2.8-2.2,5.3-4.4,7.2
	c-2.2,1.9-5,3.1-7.9,3.5c-2.9,0.4-5.9-0.1-8.6-1.5c-2.6-1.3-4.8-3.4-6.2-5.9l-31.1,9.9c0.1,0.7,0.2,1.4,0.2,2.1
	c0,3.1-1.1,6.1-3.1,8.6c-2,2.5-4.8,4.2-8,5c-3.2,0.8-6.5,0.5-9.5-0.8c-3-1.3-5.4-3.5-6.9-6.2l-31.1,9.9c0.1,0.7,0.2,1.4,0.2,2.1
	c0,3.1-1.1,6.2-3.1,8.6c-2,2.5-4.8,4.2-8,4.9c-3.2,0.7-6.5,0.4-9.5-0.9c-3-1.3-5.4-3.5-6.9-6.3c-1.5-2.8-2-6-1.4-9
	c0.6-3.1,2.3-5.9,4.8-7.9s5.6-3.3,8.8-3.4c3.3-0.2,6.5,0.7,9.2,2.6L40.4,100l-11.8-3.8c-1.5,2.8-4,4.9-6.9,6.2
	c-3,1.3-6.3,1.5-9.5,0.8c-3.2-0.8-6-2.5-8-5c-2-2.5-3.1-5.5-3.1-8.6c0-3.1,1.1-6.2,3.1-8.6c2-2.5,4.8-4.2,8-5
	c3.2-0.8,6.5-0.5,9.5,0.8c3,1.3,5.4,3.5,6.9,6.2l31.1-9.9c-0.3-1.4-0.3-2.9,0-4.3l-31.1-9.9c-1.5,2.8-4,4.9-6.9,6.2
	c-3,1.3-6.3,1.5-9.5,0.8c-3.2-0.8-6-2.5-8-5c-2-2.5-3.1-5.5-3.1-8.6s1.1-6.2,3.1-8.6c2-2.5,4.8-4.2,8-5c3.2-0.8,6.5-0.5,9.5,0.8
	c3,1.3,5.4,3.5,6.9,6.2L40.4,42L24.1,26.5c-2.7,1.8-5.9,2.7-9.2,2.6c-3.3-0.2-6.4-1.4-8.9-3.4c-2.5-2.1-4.2-4.9-4.8-8
	c-0.6-3.1-0.1-6.3,1.4-9.1c1.5-2.8,4-5,6.9-6.3c3-1.3,6.4-1.6,9.5-0.9c3.2,0.7,6,2.5,8,5c2,2.5,3.1,5.5,3.1,8.7
	c0,0.7-0.1,1.4-0.2,2.1l31.1,9.9c1.5-2.8,4-4.9,6.9-6.2c3-1.3,6.3-1.6,9.5-0.8c3.2,0.8,6,2.5,8,5c2,2.5,3.1,5.5,3.1,8.6
	c0,0.7-0.1,1.4-0.2,2.1l31.1,9.9c1.4-2.5,3.5-4.6,6.2-5.9c2.6-1.3,5.6-1.8,8.6-1.5c2.9,0.4,5.7,1.6,7.9,3.5c2.2,1.9,3.8,4.4,4.4,7.2
	c0.7,2.8,0.5,5.7-0.6,8.3c-1.1,2.6-3,4.9-5.4,6.5C138.1,65.5,135.2,66.4,132.3,66.3z M76.9,94.6c2,0.4,4,1.2,5.7,2.3l16.3-15.6
	L87,77.6c-1,1.8-2.3,3.3-4,4.5c-1.6,1.2-3.5,2.1-5.6,2.5c-2,0.5-4.1,0.5-6.2,0.1c-2-0.4-4-1.2-5.7-2.3L49.4,98l11.8,3.8
	c1-1.8,2.3-3.3,4-4.5c1.6-1.2,3.5-2.1,5.6-2.5C72.7,94.2,74.8,94.2,76.9,94.6z M82.5,45.1c-2.5,1.7-5.4,2.6-8.4,2.6
	c-2.6,0-5.2-0.7-7.5-2c-2.3-1.3-4.1-3.2-5.4-5.4l-11.8,3.8l16.3,15.6c1.7-1.2,3.6-2,5.7-2.3c2-0.4,4.1-0.3,6.2,0.1
	c2,0.5,3.9,1.3,5.6,2.5c1.6,1.2,3,2.8,4,4.5l11.8-3.8L82.5,45.1z M66,65.8c-1.1,1.5-1.6,3.3-1.6,5.2c0,2.5,1,4.8,2.8,6.6
	c1.8,1.7,4.3,2.7,6.9,2.7c1.9,0,3.8-0.5,5.4-1.6c1.6-1,2.8-2.5,3.6-4.2c0.7-1.7,0.9-3.6,0.6-5.4c-0.4-1.8-1.3-3.5-2.7-4.8
	c-1.4-1.3-3.1-2.2-5-2.6c-1.9-0.4-3.8-0.2-5.6,0.5C68.6,63.1,67,64.3,66,65.8z M88.5,68.9c0.3,1.4,0.3,2.9,0,4.3l14.1,4.5l6.9-6.7
	l-6.9-6.7L88.5,68.9z M119.6,58.9l-11.8,3.8l5.2,5l7.6-7.3C120.2,60,119.9,59.5,119.6,58.9z M137.8,44.6c-1.6-1-3.5-1.6-5.4-1.6
	c-2.6,0-5.1,1-6.9,2.7c-1.8,1.7-2.8,4.1-2.8,6.6c0,1.8,0.6,3.6,1.6,5.2s2.6,2.7,4.4,3.4c1.8,0.7,3.7,0.9,5.6,0.5
	c1.9-0.4,3.6-1.2,5-2.6c1.4-1.3,2.3-3,2.7-4.8c0.4-1.8,0.2-3.7-0.6-5.4C140.7,47.1,139.4,45.6,137.8,44.6z M118,54.5
	c-0.3-1.4-0.3-2.9,0-4.3l-31.1-9.9c-0.3,0.5-0.6,1-1,1.5l18,17.2L118,54.5z M79.5,26c-1.6-1-3.5-1.6-5.4-1.6c-2.6,0-5.1,1-6.9,2.7
	s-2.8,4.1-2.8,6.6c0,1.8,0.6,3.6,1.6,5.2c1.1,1.5,2.6,2.7,4.4,3.4c1.8,0.7,3.7,0.9,5.6,0.5c1.9-0.4,3.6-1.2,5-2.6
	c1.4-1.3,2.3-3,2.7-4.8c0.4-1.8,0.2-3.7-0.6-5.4C82.3,28.5,81.1,27,79.5,26z M7.6,9.9C6.5,11.4,6,13.2,6,15.1c0,2.5,1,4.8,2.8,6.6
	s4.3,2.7,6.9,2.7c1.9,0,3.8-0.5,5.4-1.6s2.8-2.5,3.6-4.2c0.7-1.7,0.9-3.6,0.6-5.4c-0.4-1.8-1.3-3.5-2.7-4.8s-3.1-2.2-5-2.6
	c-1.9-0.4-3.8-0.2-5.6,0.5C10.2,7.2,8.7,8.4,7.6,9.9z M28.6,21.6c-0.3,0.5-0.6,1-1,1.5l18,17.2l14.1-4.5c-0.3-1.4-0.3-2.9,0-4.3
	L28.6,21.6z M10.3,60.1c1.6,1,3.5,1.6,5.4,1.6c2.6,0,5.1-1,6.9-2.7c1.8-1.7,2.8-4.1,2.8-6.6c0-1.8-0.6-3.6-1.6-5.2
	c-1.1-1.5-2.6-2.7-4.4-3.4c-1.8-0.7-3.7-0.9-5.6-0.5c-1.9,0.4-3.6,1.2-5,2.6c-1.4,1.3-2.3,3-2.7,4.8c-0.4,1.8-0.2,3.7,0.6,5.4
	C7.4,57.6,8.7,59.1,10.3,60.1z M44.2,45.7l-14.1,4.5c0.3,1.4,0.3,2.9,0,4.3l31.1,9.9c0.3-0.5,0.6-1,1-1.5L44.2,45.7z M10.3,97.4
	c1.6,1,3.5,1.6,5.4,1.6c2.6,0,5.1-1,6.9-2.7c1.8-1.7,2.8-4.1,2.8-6.6c0-1.8-0.6-3.6-1.6-5.2c-1.1-1.5-2.6-2.7-4.4-3.4
	c-1.8-0.7-3.7-0.9-5.6-0.5s-3.6,1.2-5,2.6c-1.4,1.3-2.3,3-2.7,4.8c-0.4,1.8-0.2,3.7,0.6,5.4C7.4,94.9,8.7,96.4,10.3,97.4z
	 M61.2,77.6l-31.1,9.9c0.3,1.4,0.3,2.9,0,4.3l14.1,4.5l18-17.2C61.8,78.6,61.5,78.1,61.2,77.6z M10.3,134.7c1.6,1,3.5,1.6,5.4,1.6
	c2.6,0,5.1-1,6.9-2.7c1.8-1.7,2.8-4.1,2.8-6.6c0-1.8-0.6-3.6-1.6-5.2c-1.1-1.5-2.6-2.7-4.4-3.4c-1.8-0.7-3.7-0.9-5.6-0.5
	c-1.9,0.4-3.6,1.2-5,2.6c-1.4,1.3-2.3,3-2.7,4.8c-0.4,1.8-0.2,3.7,0.6,5.4C7.4,132.2,8.7,133.7,10.3,134.7z M27.6,118.9
	c0.4,0.5,0.7,1,1,1.5l31.1-9.9c-0.3-1.4-0.3-2.9,0-4.3l-14.1-4.5L27.6,118.9z M68.7,116.1c1.6,1,3.5,1.6,5.4,1.6
	c2.6,0,5.1-1,6.9-2.7c1.8-1.7,2.8-4.1,2.8-6.6c0-1.8-0.6-3.6-1.6-5.2c-1.1-1.5-2.6-2.7-4.4-3.4c-1.8-0.7-3.7-0.9-5.6-0.5
	c-1.9,0.4-3.6,1.2-5,2.6c-1.4,1.3-2.3,3-2.7,4.8c-0.4,1.8-0.2,3.7,0.6,5.4C65.8,113.6,67.1,115,68.7,116.1z M86,100.2
	c0.4,0.5,0.7,1,1,1.5l31.1-9.9c-0.3-1.4-0.3-2.9,0-4.3L103.9,83L86,100.2z M140.5,94.8c1.1-1.5,1.6-3.3,1.6-5.2c0-2.5-1-4.8-2.9-6.6
	c-1.8-1.7-4.3-2.7-6.9-2.7c-1.9,0-3.8,0.5-5.4,1.6c-1.6,1-2.8,2.5-3.6,4.2c-0.7,1.7-0.9,3.6-0.6,5.4c0.4,1.8,1.3,3.5,2.7,4.8
	c1.4,1.3,3.1,2.2,5,2.6c1.9,0.4,3.8,0.2,5.6-0.5C137.9,97.6,139.5,96.4,140.5,94.8z M119.6,83.1c0.3-0.5,0.6-1,1-1.5l-7.6-7.3
	l-5.2,5L119.6,83.1z M12.2,11.8c0.9-0.9,2.1-1.4,3.4-1.4c0.6,0,1.3,0.2,1.7,0.7c0.5,0.4,0.7,1,0.7,1.6c0,0.6-0.3,1.2-0.7,1.6
	c-0.5,0.4-1.1,0.7-1.7,0.7c0,0.6-0.3,1.2-0.7,1.6c-0.5,0.4-1.1,0.7-1.7,0.7s-1.3-0.2-1.7-0.7c-0.5-0.4-0.7-1-0.7-1.6
	C10.8,13.8,11.3,12.7,12.2,11.8z M12.2,86.4c0.9-0.9,2.1-1.4,3.4-1.4c0.6,0,1.3,0.2,1.7,0.7c0.5,0.4,0.7,1,0.7,1.6
	c0,0.6-0.3,1.2-0.7,1.6c-0.5,0.4-1.1,0.7-1.7,0.7c0,0.6-0.3,1.2-0.7,1.6c-0.5,0.4-1.1,0.7-1.7,0.7s-1.3-0.2-1.7-0.7
	c-0.5-0.4-0.7-1-0.7-1.6C10.8,88.4,11.3,87.2,12.2,86.4z M15.7,47.7c-1.3,0-2.5,0.5-3.4,1.4c-0.9,0.9-1.4,2.1-1.4,3.3
	c0,0.6,0.3,1.2,0.7,1.6c0.5,0.4,1.1,0.7,1.7,0.7s1.3-0.2,1.7-0.7c0.5-0.4,0.7-1,0.7-1.6c0.6,0,1.3-0.2,1.7-0.7
	c0.5-0.4,0.7-1,0.7-1.6c0-0.6-0.3-1.2-0.7-1.6C17,48,16.3,47.7,15.7,47.7z M12.2,123.7c0.9-0.9,2.1-1.4,3.4-1.4
	c0.6,0,1.3,0.2,1.7,0.7c0.5,0.4,0.7,1,0.7,1.6c0,0.6-0.3,1.2-0.7,1.6c-0.5,0.4-1.1,0.7-1.7,0.7c0,0.6-0.3,1.2-0.7,1.6
	c-0.5,0.4-1.1,0.7-1.7,0.7s-1.3-0.2-1.7-0.7c-0.5-0.4-0.7-1-0.7-1.6C10.8,125.7,11.3,124.5,12.2,123.7z M76.5,68.7
	c0-0.6-0.3-1.2-0.7-1.6c-0.5-0.4-1.1-0.7-1.7-0.7c-1.3,0-2.5,0.5-3.4,1.4c-0.9,0.9-1.4,2.1-1.4,3.3c0,0.6,0.3,1.2,0.7,1.6
	c0.5,0.4,1.1,0.7,1.7,0.7c0.6,0,1.3-0.2,1.7-0.7c0.5-0.4,0.7-1,0.7-1.6c0.6,0,1.3-0.2,1.7-0.7C76.2,69.9,76.5,69.3,76.5,68.7z
	 M73.4,35.4c-0.5,0.4-1.1,0.7-1.7,0.7c-0.6,0-1.3-0.2-1.7-0.7c-0.5-0.4-0.7-1-0.7-1.6c0-1.2,0.5-2.4,1.4-3.3
	c0.9-0.9,2.1-1.4,3.4-1.4c0.6,0,1.3,0.2,1.7,0.7c0.5,0.4,0.7,1,0.7,1.6c0,0.6-0.3,1.2-0.7,1.6c-0.5,0.4-1.1,0.7-1.7,0.7
	C74.1,34.3,73.8,34.9,73.4,35.4z M74.1,103.7c-1.3,0-2.5,0.5-3.4,1.4c-0.9,0.9-1.4,2.1-1.4,3.3c0,0.6,0.3,1.2,0.7,1.6
	c0.5,0.4,1.1,0.7,1.7,0.7c0.6,0,1.3-0.2,1.7-0.7c0.5-0.4,0.7-1,0.7-1.6c0.6,0,1.3-0.2,1.7-0.7c0.5-0.4,0.7-1,0.7-1.6
	c0-0.6-0.3-1.2-0.7-1.6C75.3,103.9,74.7,103.7,74.1,103.7z M131.7,54c-0.5,0.4-1.1,0.7-1.7,0.7s-1.3-0.2-1.7-0.7
	c-0.5-0.4-0.7-1-0.7-1.6c0-1.2,0.5-2.4,1.4-3.3c0.9-0.9,2.1-1.4,3.4-1.4c0.6,0,1.3,0.2,1.7,0.7c0.5,0.4,0.7,1,0.7,1.6
	c0,0.6-0.3,1.2-0.7,1.6c-0.5,0.4-1.1,0.7-1.7,0.7C132.4,53,132.2,53.6,131.7,54z M130,92c0.6,0,1.3-0.2,1.7-0.7
	c0.5-0.4,0.7-1,0.7-1.6c0.6,0,1.3-0.2,1.7-0.7c0.5-0.4,0.7-1,0.7-1.6c0-0.6-0.3-1.2-0.7-1.6c-0.5-0.4-1.1-0.7-1.7-0.7
	c-1.3,0-2.5,0.5-3.4,1.4c-0.9,0.9-1.4,2.1-1.4,3.3c0,0.6,0.3,1.2,0.7,1.6C128.7,91.8,129.4,92,130,92z"/>
<defs>
	<filter id="Adobe_OpacityMaskFilter" filterUnits="userSpaceOnUse" x="0" y="0" width="148.1" height="141.9">
		<feColorMatrix  type="matrix" values="1 0 0 0 0  0 1 0 0 0  0 0 1 0 0  0 0 0 1 0"/>
	</filter>
</defs>
<mask maskUnits="userSpaceOnUse" x="0" y="0" width="148.1" height="141.9" id="path-1-inside-1_1_">
	<path style="fill-rule:evenodd;clip-rule:evenodd;fill:#FFFFFF;filter:url(#Adobe_OpacityMaskFilter);" d="M132.3,66.3
		c-3,0-5.9-0.9-8.3-2.6l-7.6,7.3l7.6,7.3c2.4-1.7,5.3-2.6,8.3-2.6c3,0,5.9,0.8,8.4,2.4c2.5,1.6,4.4,3.9,5.5,6.5
		c1.1,2.7,1.3,5.6,0.6,8.3c-0.7,2.8-2.2,5.3-4.4,7.2c-2.2,1.9-5,3.1-7.9,3.5c-2.9,0.4-5.9-0.1-8.6-1.5c-2.6-1.3-4.8-3.4-6.2-5.9
		l-31.1,9.9c0.1,0.7,0.2,1.4,0.2,2.1c0,3.1-1.1,6.1-3.1,8.6c-2,2.5-4.8,4.2-8,5c-3.2,0.8-6.5,0.5-9.5-0.8c-3-1.3-5.4-3.5-6.9-6.2
		l-31.1,9.9c0.1,0.7,0.2,1.4,0.2,2.1c0,3.1-1.1,6.2-3.1,8.6c-2,2.5-4.8,4.2-8,4.9c-3.2,0.7-6.5,0.4-9.5-0.9c-3-1.3-5.4-3.5-6.9-6.3
		c-1.5-2.8-2-6-1.4-9c0.6-3.1,2.3-5.9,4.8-7.9s5.6-3.3,8.8-3.4c3.3-0.2,6.5,0.7,9.2,2.6L40.4,100l-11.8-3.8c-1.5,2.8-4,4.9-6.9,6.2
		c-3,1.3-6.3,1.5-9.5,0.8c-3.2-0.8-6-2.5-8-5c-2-2.5-3.1-5.5-3.1-8.6c0-3.1,1.1-6.2,3.1-8.6c2-2.5,4.8-4.2,8-5
		c3.2-0.8,6.5-0.5,9.5,0.8c3,1.3,5.4,3.5,6.9,6.2l31.1-9.9c-0.3-1.4-0.3-2.9,0-4.3l-31.1-9.9c-1.5,2.8-4,4.9-6.9,6.2
		c-3,1.3-6.3,1.5-9.5,0.8c-3.2-0.8-6-2.5-8-5c-2-2.5-3.1-5.5-3.1-8.6s1.1-6.2,3.1-8.6c2-2.5,4.8-4.2,8-5c3.2-0.8,6.5-0.5,9.5,0.8
		c3,1.3,5.4,3.5,6.9,6.2L40.4,42L24.1,26.5c-2.7,1.8-5.9,2.7-9.2,2.6c-3.3-0.2-6.4-1.4-8.9-3.4c-2.5-2.1-4.2-4.9-4.8-8
		c-0.6-3.1-0.1-6.3,1.4-9.1c1.5-2.8,4-5,6.9-6.3c3-1.3,6.4-1.6,9.5-0.9c3.2,0.7,6,2.5,8,5c2,2.5,3.1,5.5,3.1,8.7
		c0,0.7-0.1,1.4-0.2,2.1l31.1,9.9c1.5-2.8,4-4.9,6.9-6.2c3-1.3,6.3-1.6,9.5-0.8c3.2,0.8,6,2.5,8,5c2,2.5,3.1,5.5,3.1,8.6
		c0,0.7-0.1,1.4-0.2,2.1l31.1,9.9c1.4-2.5,3.5-4.6,6.2-5.9c2.6-1.3,5.6-1.8,8.6-1.5c2.9,0.4,5.7,1.6,7.9,3.5
		c2.2,1.9,3.8,4.4,4.4,7.2c0.7,2.8,0.5,5.7-0.6,8.3c-1.1,2.6-3,4.9-5.4,6.5C138.1,65.5,135.2,66.4,132.3,66.3z M76.9,94.6
		c2,0.4,4,1.2,5.7,2.3l16.3-15.6L87,77.6c-1,1.8-2.3,3.3-4,4.5c-1.6,1.2-3.5,2.1-5.6,2.5c-2,0.5-4.1,0.5-6.2,0.1
		c-2-0.4-4-1.2-5.7-2.3L49.4,98l11.8,3.8c1-1.8,2.3-3.3,4-4.5c1.6-1.2,3.5-2.1,5.6-2.5C72.7,94.2,74.8,94.2,76.9,94.6z M82.5,45.1
		c-2.5,1.7-5.4,2.6-8.4,2.6c-2.6,0-5.2-0.7-7.5-2c-2.3-1.3-4.1-3.2-5.4-5.4l-11.8,3.8l16.3,15.6c1.7-1.2,3.6-2,5.7-2.3
		c2-0.4,4.1-0.3,6.2,0.1c2,0.5,3.9,1.3,5.6,2.5c1.6,1.2,3,2.8,4,4.5l11.8-3.8L82.5,45.1z M66,65.8c-1.1,1.5-1.6,3.3-1.6,5.2
		c0,2.5,1,4.8,2.8,6.6c1.8,1.7,4.3,2.7,6.9,2.7c1.9,0,3.8-0.5,5.4-1.6c1.6-1,2.8-2.5,3.6-4.2c0.7-1.7,0.9-3.6,0.6-5.4
		c-0.4-1.8-1.3-3.5-2.7-4.8c-1.4-1.3-3.1-2.2-5-2.6c-1.9-0.4-3.8-0.2-5.6,0.5C68.6,63.1,67,64.3,66,65.8z M88.5,68.9
		c0.3,1.4,0.3,2.9,0,4.3l14.1,4.5l6.9-6.7l-6.9-6.7L88.5,68.9z M119.6,58.9l-11.8,3.8l5.2,5l7.6-7.3C120.2,60,119.9,59.5,119.6,58.9
		z M137.8,44.6c-1.6-1-3.5-1.6-5.4-1.6c-2.6,0-5.1,1-6.9,2.7c-1.8,1.7-2.8,4.1-2.8,6.6c0,1.8,0.6,3.6,1.6,5.2s2.6,2.7,4.4,3.4
		c1.8,0.7,3.7,0.9,5.6,0.5c1.9-0.4,3.6-1.2,5-2.6c1.4-1.3,2.3-3,2.7-4.8c0.4-1.8,0.2-3.7-0.6-5.4C140.7,47.1,139.4,45.6,137.8,44.6z
		 M118,54.5c-0.3-1.4-0.3-2.9,0-4.3l-31.1-9.9c-0.3,0.5-0.6,1-1,1.5l18,17.2L118,54.5z M79.5,26c-1.6-1-3.5-1.6-5.4-1.6
		c-2.6,0-5.1,1-6.9,2.7s-2.8,4.1-2.8,6.6c0,1.8,0.6,3.6,1.6,5.2c1.1,1.5,2.6,2.7,4.4,3.4c1.8,0.7,3.7,0.9,5.6,0.5
		c1.9-0.4,3.6-1.2,5-2.6c1.4-1.3,2.3-3,2.7-4.8c0.4-1.8,0.2-3.7-0.6-5.4C82.3,28.5,81.1,27,79.5,26z M7.6,9.9
		C6.5,11.4,6,13.2,6,15.1c0,2.5,1,4.8,2.8,6.6s4.3,2.7,6.9,2.7c1.9,0,3.8-0.5,5.4-1.6s2.8-2.5,3.6-4.2c0.7-1.7,0.9-3.6,0.6-5.4
		c-0.4-1.8-1.3-3.5-2.7-4.8s-3.1-2.2-5-2.6c-1.9-0.4-3.8-0.2-5.6,0.5C10.2,7.2,8.7,8.4,7.6,9.9z M28.6,21.6c-0.3,0.5-0.6,1-1,1.5
		l18,17.2l14.1-4.5c-0.3-1.4-0.3-2.9,0-4.3L28.6,21.6z M10.3,60.1c1.6,1,3.5,1.6,5.4,1.6c2.6,0,5.1-1,6.9-2.7
		c1.8-1.7,2.8-4.1,2.8-6.6c0-1.8-0.6-3.6-1.6-5.2c-1.1-1.5-2.6-2.7-4.4-3.4c-1.8-0.7-3.7-0.9-5.6-0.5c-1.9,0.4-3.6,1.2-5,2.6
		c-1.4,1.3-2.3,3-2.7,4.8c-0.4,1.8-0.2,3.7,0.6,5.4C7.4,57.6,8.7,59.1,10.3,60.1z M44.2,45.7l-14.1,4.5c0.3,1.4,0.3,2.9,0,4.3
		l31.1,9.9c0.3-0.5,0.6-1,1-1.5L44.2,45.7z M10.3,97.4c1.6,1,3.5,1.6,5.4,1.6c2.6,0,5.1-1,6.9-2.7c1.8-1.7,2.8-4.1,2.8-6.6
		c0-1.8-0.6-3.6-1.6-5.2c-1.1-1.5-2.6-2.7-4.4-3.4c-1.8-0.7-3.7-0.9-5.6-0.5s-3.6,1.2-5,2.6c-1.4,1.3-2.3,3-2.7,4.8
		c-0.4,1.8-0.2,3.7,0.6,5.4C7.4,94.9,8.7,96.4,10.3,97.4z M61.2,77.6l-31.1,9.9c0.3,1.4,0.3,2.9,0,4.3l14.1,4.5l18-17.2
		C61.8,78.6,61.5,78.1,61.2,77.6z M10.3,134.7c1.6,1,3.5,1.6,5.4,1.6c2.6,0,5.1-1,6.9-2.7c1.8-1.7,2.8-4.1,2.8-6.6
		c0-1.8-0.6-3.6-1.6-5.2c-1.1-1.5-2.6-2.7-4.4-3.4c-1.8-0.7-3.7-0.9-5.6-0.5c-1.9,0.4-3.6,1.2-5,2.6c-1.4,1.3-2.3,3-2.7,4.8
		c-0.4,1.8-0.2,3.7,0.6,5.4C7.4,132.2,8.7,133.7,10.3,134.7z M27.6,118.9c0.4,0.5,0.7,1,1,1.5l31.1-9.9c-0.3-1.4-0.3-2.9,0-4.3
		l-14.1-4.5L27.6,118.9z M68.7,116.1c1.6,1,3.5,1.6,5.4,1.6c2.6,0,5.1-1,6.9-2.7c1.8-1.7,2.8-4.1,2.8-6.6c0-1.8-0.6-3.6-1.6-5.2
		c-1.1-1.5-2.6-2.7-4.4-3.4c-1.8-0.7-3.7-0.9-5.6-0.5c-1.9,0.4-3.6,1.2-5,2.6c-1.4,1.3-2.3,3-2.7,4.8c-0.4,1.8-0.2,3.7,0.6,5.4
		C65.8,113.6,67.1,115,68.7,116.1z M86,100.2c0.4,0.5,0.7,1,1,1.5l31.1-9.9c-0.3-1.4-0.3-2.9,0-4.3L103.9,83L86,100.2z M140.5,94.8
		c1.1-1.5,1.6-3.3,1.6-5.2c0-2.5-1-4.8-2.9-6.6c-1.8-1.7-4.3-2.7-6.9-2.7c-1.9,0-3.8,0.5-5.4,1.6c-1.6,1-2.8,2.5-3.6,4.2
		c-0.7,1.7-0.9,3.6-0.6,5.4c0.4,1.8,1.3,3.5,2.7,4.8c1.4,1.3,3.1,2.2,5,2.6c1.9,0.4,3.8,0.2,5.6-0.5
		C137.9,97.6,139.5,96.4,140.5,94.8z M119.6,83.1c0.3-0.5,0.6-1,1-1.5l-7.6-7.3l-5.2,5L119.6,83.1z M12.2,11.8
		c0.9-0.9,2.1-1.4,3.4-1.4c0.6,0,1.3,0.2,1.7,0.7c0.5,0.4,0.7,1,0.7,1.6c0,0.6-0.3,1.2-0.7,1.6c-0.5,0.4-1.1,0.7-1.7,0.7
		c0,0.6-0.3,1.2-0.7,1.6c-0.5,0.4-1.1,0.7-1.7,0.7s-1.3-0.2-1.7-0.7c-0.5-0.4-0.7-1-0.7-1.6C10.8,13.8,11.3,12.7,12.2,11.8z
		 M12.2,86.4c0.9-0.9,2.1-1.4,3.4-1.4c0.6,0,1.3,0.2,1.7,0.7c0.5,0.4,0.7,1,0.7,1.6c0,0.6-0.3,1.2-0.7,1.6c-0.5,0.4-1.1,0.7-1.7,0.7
		c0,0.6-0.3,1.2-0.7,1.6c-0.5,0.4-1.1,0.7-1.7,0.7s-1.3-0.2-1.7-0.7c-0.5-0.4-0.7-1-0.7-1.6C10.8,88.4,11.3,87.2,12.2,86.4z
		 M15.7,47.7c-1.3,0-2.5,0.5-3.4,1.4c-0.9,0.9-1.4,2.1-1.4,3.3c0,0.6,0.3,1.2,0.7,1.6c0.5,0.4,1.1,0.7,1.7,0.7s1.3-0.2,1.7-0.7
		c0.5-0.4,0.7-1,0.7-1.6c0.6,0,1.3-0.2,1.7-0.7c0.5-0.4,0.7-1,0.7-1.6c0-0.6-0.3-1.2-0.7-1.6C17,48,16.3,47.7,15.7,47.7z
		 M12.2,123.7c0.9-0.9,2.1-1.4,3.4-1.4c0.6,0,1.3,0.2,1.7,0.7c0.5,0.4,0.7,1,0.7,1.6c0,0.6-0.3,1.2-0.7,1.6
		c-0.5,0.4-1.1,0.7-1.7,0.7c0,0.6-0.3,1.2-0.7,1.6c-0.5,0.4-1.1,0.7-1.7,0.7s-1.3-0.2-1.7-0.7c-0.5-0.4-0.7-1-0.7-1.6
		C10.8,125.7,11.3,124.5,12.2,123.7z M76.5,68.7c0-0.6-0.3-1.2-0.7-1.6c-0.5-0.4-1.1-0.7-1.7-0.7c-1.3,0-2.5,0.5-3.4,1.4
		c-0.9,0.9-1.4,2.1-1.4,3.3c0,0.6,0.3,1.2,0.7,1.6c0.5,0.4,1.1,0.7,1.7,0.7c0.6,0,1.3-0.2,1.7-0.7c0.5-0.4,0.7-1,0.7-1.6
		c0.6,0,1.3-0.2,1.7-0.7C76.2,69.9,76.5,69.3,76.5,68.7z M73.4,35.4c-0.5,0.4-1.1,0.7-1.7,0.7c-0.6,0-1.3-0.2-1.7-0.7
		c-0.5-0.4-0.7-1-0.7-1.6c0-1.2,0.5-2.4,1.4-3.3c0.9-0.9,2.1-1.4,3.4-1.4c0.6,0,1.3,0.2,1.7,0.7c0.5,0.4,0.7,1,0.7,1.6
		c0,0.6-0.3,1.2-0.7,1.6c-0.5,0.4-1.1,0.7-1.7,0.7C74.1,34.3,73.8,34.9,73.4,35.4z M74.1,103.7c-1.3,0-2.5,0.5-3.4,1.4
		c-0.9,0.9-1.4,2.1-1.4,3.3c0,0.6,0.3,1.2,0.7,1.6c0.5,0.4,1.1,0.7,1.7,0.7c0.6,0,1.3-0.2,1.7-0.7c0.5-0.4,0.7-1,0.7-1.6
		c0.6,0,1.3-0.2,1.7-0.7c0.5-0.4,0.7-1,0.7-1.6c0-0.6-0.3-1.2-0.7-1.6C75.3,103.9,74.7,103.7,74.1,103.7z M131.7,54
		c-0.5,0.4-1.1,0.7-1.7,0.7s-1.3-0.2-1.7-0.7c-0.5-0.4-0.7-1-0.7-1.6c0-1.2,0.5-2.4,1.4-3.3c0.9-0.9,2.1-1.4,3.4-1.4
		c0.6,0,1.3,0.2,1.7,0.7c0.5,0.4,0.7,1,0.7,1.6c0,0.6-0.3,1.2-0.7,1.6c-0.5,0.4-1.1,0.7-1.7,0.7C132.4,53,132.2,53.6,131.7,54z
		 M130,92c0.6,0,1.3-0.2,1.7-0.7c0.5-0.4,0.7-1,0.7-1.6c0.6,0,1.3-0.2,1.7-0.7c0.5-0.4,0.7-1,0.7-1.6c0-0.6-0.3-1.2-0.7-1.6
		c-0.5-0.4-1.1-0.7-1.7-0.7c-1.3,0-2.5,0.5-3.4,1.4c-0.9,0.9-1.4,2.1-1.4,3.3c0,0.6,0.3,1.2,0.7,1.6C128.7,91.8,129.4,92,130,92z"/>
</mask>
<path style="mask:url(#path-1-inside-1_1_);fill:#FFFFFF;" d="M124,63.8l0.6-0.8l-0.7-0.5l-0.6,0.6L124,63.8z M132.3,66.3l0-1
	L132.3,66.3z M116.4,71l-0.7-0.7L115,71l0.8,0.7L116.4,71z M124,78.3l-0.7,0.7l0.6,0.6l0.7-0.5L124,78.3z M132.3,75.7l0,1
	L132.3,75.7z M140.6,78.1l0.5-0.8L140.6,78.1z M146.7,92.9l1,0.2L146.7,92.9z M134.3,103.6l-0.1-1L134.3,103.6z M125.7,102.1
	l-0.4,0.9L125.7,102.1z M119.6,96.2l0.9-0.5L120,95l-0.8,0.3L119.6,96.2z M88.5,106.2l-0.3-1l-0.8,0.3l0.1,0.9L88.5,106.2z
	 M88.7,108.3l1,0l0,0L88.7,108.3z M77.6,121.9l0.2,1L77.6,121.9z M68.1,121.1l0.4-0.9L68.1,121.1z M61.2,114.9l0.9-0.5l-0.4-0.7
	l-0.8,0.2L61.2,114.9z M30.1,124.8l-0.3-1l-0.8,0.3l0.1,0.9L30.1,124.8z M30.3,127l1,0l0,0L30.3,127z M27.2,135.6l-0.8-0.6
	L27.2,135.6z M9.7,139.7l0.4-0.9h0L9.7,139.7z M1.4,124.4l1,0.2l0,0L1.4,124.4z M6.1,116.4l-0.6-0.8l0,0L6.1,116.4z M15,113l0-1l0,0
	L15,113z M24.1,115.6l-0.6,0.8l0.7,0.5l0.6-0.6L24.1,115.6z M40.4,100l0.7,0.7l1.2-1.2l-1.6-0.5L40.4,100z M28.6,96.2l0.3-1L28.1,95
	l-0.4,0.7L28.6,96.2z M21.6,102.4l-0.4-0.9l0,0L21.6,102.4z M12.2,103.2l0.2-1l0,0L12.2,103.2z M4.2,98.3l-0.8,0.6L4.2,98.3z
	 M4.2,81.1l-0.8-0.6L4.2,81.1z M12.2,76.1l0.2,1l0,0L12.2,76.1z M21.6,76.9L22,76l0,0L21.6,76.9z M28.6,83.1l-0.9,0.5l0.4,0.7
	l0.8-0.2L28.6,83.1z M59.7,73.2l0.3,1l0.8-0.3L60.7,73L59.7,73.2z M59.7,68.9l1,0.2l0.2-0.9L60,67.9L59.7,68.9z M28.6,58.9l0.3-1
	l-0.8-0.2l-0.4,0.7L28.6,58.9z M21.6,65.1l0.4,0.9L21.6,65.1z M12.2,65.9l0.2-1l0,0L12.2,65.9z M4.2,61l-0.8,0.6L4.2,61z M4.2,43.8
	l-0.8-0.6L4.2,43.8z M28.6,45.8l-0.9,0.5l0.4,0.7l0.8-0.3L28.6,45.8z M40.4,42l0.3,1l1.6-0.5l-1.2-1.2L40.4,42z M24.1,26.5l0.7-0.7
	l-0.6-0.6l-0.7,0.5L24.1,26.5z M14.9,29l0-1l0,0L14.9,29z M6,25.6l0.6-0.8l0,0L6,25.6z M1.3,17.7l1-0.2L1.3,17.7z M2.6,8.6l0.9,0.5
	L2.6,8.6z M9.6,2.3L9.2,1.3l0,0L9.6,2.3z M19.1,1.4l-0.2,1L19.1,1.4z M30.3,15.1l1,0v0L30.3,15.1z M30.1,17.2l-1-0.2L29,17.9
	l0.8,0.3L30.1,17.2z M61.2,27.2l-0.3,1l0.8,0.3l0.4-0.7L61.2,27.2z M77.6,20.1l-0.2,1L77.6,20.1z M85.6,25.1l-0.8,0.6l0,0L85.6,25.1
	z M88.7,33.7l1,0v0L88.7,33.7z M88.5,35.9l-1-0.2l-0.1,0.9l0.8,0.3L88.5,35.9z M119.6,45.8l-0.3,1L120,47l0.4-0.7L119.6,45.8z
	 M134.3,38.5l-0.1,1L134.3,38.5z M146.7,49.1l-1,0.2L146.7,49.1z M146,57.5l0.9,0.4l0,0L146,57.5z M140.6,64l-0.5-0.8l0,0L140.6,64z
	 M82.5,96.9l-0.6,0.8l0.7,0.5l0.6-0.6L82.5,96.9z M76.9,94.6l0.2-1L76.9,94.6z M98.8,81.4l0.7,0.7l1.2-1.2l-1.6-0.5L98.8,81.4z
	 M87,77.6l0.3-1l-0.8-0.3l-0.4,0.7L87,77.6z M83,82.1l0.6,0.8l0,0L83,82.1z M77.4,84.6l0.2,1l0,0L77.4,84.6z M71.3,84.7l0.2-1l0,0
	L71.3,84.7z M65.6,82.4l0.6-0.8l-0.7-0.5l-0.6,0.6L65.6,82.4z M49.4,98l-0.7-0.7l-1.2,1.2l1.6,0.5L49.4,98z M61.2,101.8l-0.3,1
	l0.8,0.2l0.4-0.7L61.2,101.8z M65.1,97.2l-0.6-0.8L65.1,97.2z M70.7,94.7l0.2,1L70.7,94.7z M74.1,47.7l0,1h0V47.7z M82.5,45.1
	l0.7-0.7l-0.6-0.6l-0.7,0.5L82.5,45.1z M66.5,45.7l-0.5,0.9L66.5,45.7z M61.2,40.3l0.9-0.5l-0.4-0.7l-0.8,0.2L61.2,40.3z M49.4,44.1
	l-0.3-1l-1.6,0.5l1.2,1.2L49.4,44.1z M65.6,59.6l-0.7,0.7l0.6,0.6l0.7-0.5L65.6,59.6z M71.3,57.3l-0.2-1l0,0L71.3,57.3z M77.4,57.4
	l0.2-1L77.4,57.4z M83,59.9l-0.6,0.8l0,0L83,59.9z M87,64.5l-0.9,0.5l0.4,0.7l0.8-0.3L87,64.5z M98.8,60.7l0.3,1l1.6-0.5L99.4,60
	L98.8,60.7z M66,65.8l-0.8-0.6L66,65.8z M67.2,77.6l0.7-0.7l0,0L67.2,77.6z M79.5,78.8l0.5,0.8l0,0L79.5,78.8z M83.1,74.6L84,75l0,0
	L83.1,74.6z M83.6,69.2l-1,0.2l0,0L83.6,69.2z M80.9,64.4l-0.7,0.7l0,0L80.9,64.4z M76,61.9l-0.2,1L76,61.9z M70.3,62.4L70,61.5
	L70.3,62.4z M88.5,73.2l-1-0.2l-0.2,0.9l0.8,0.3L88.5,73.2z M88.5,68.9l-0.3-1l-0.8,0.3l0.2,0.9L88.5,68.9z M102.6,77.7l-0.3,1
	l0.6,0.2l0.4-0.4L102.6,77.7z M109.5,71l0.7,0.7L111,71l-0.8-0.7L109.5,71z M102.6,64.4l0.7-0.7l-0.4-0.4l-0.6,0.2L102.6,64.4z
	 M107.8,62.7l-0.3-1l-1.6,0.5l1.2,1.2L107.8,62.7z M119.6,58.9l0.9-0.5l-0.4-0.7l-0.8,0.2L119.6,58.9z M113,67.7l-0.7,0.7l0.7,0.7
	l0.7-0.7L113,67.7z M120.6,60.5l0.7,0.7l0.6-0.6l-0.5-0.7L120.6,60.5z M137.8,44.6l0.5-0.8v0L137.8,44.6z M124.3,57.6l0.8-0.6l0,0
	L124.3,57.6z M128.7,61l-0.4,0.9l0,0L128.7,61z M139.3,59l0.7,0.7l0,0L139.3,59z M142,54.2l-1-0.2L142,54.2z M141.4,48.8l-0.9,0.4
	l0,0L141.4,48.8z M118,50.2l1,0.2l0.2-0.9l-0.8-0.3L118,50.2z M118,54.5l0.3,1l0.8-0.3l-0.2-0.9L118,54.5z M86.9,40.3l0.3-1
	l-0.8-0.2l-0.4,0.7L86.9,40.3z M85.9,41.8l-0.8-0.6l-0.5,0.7l0.6,0.6L85.9,41.8z M103.9,59l-0.7,0.7l0.4,0.4l0.6-0.2L103.9,59z
	 M79.5,26l-0.5,0.8L79.5,26z M67.2,27.1l0.7,0.7L67.2,27.1z M70.3,42.3l0.4-0.9L70.3,42.3z M76,42.9l-0.2-1L76,42.9z M80.9,40.3
	l-0.7-0.7L80.9,40.3z M83.6,35.5l-1-0.2l0,0L83.6,35.5z M83.1,30.2l0.9-0.4l0,0L83.1,30.2z M7.6,9.9l0.8,0.6l0,0L7.6,9.9z M8.8,21.7
	l0.7-0.7l0,0L8.8,21.7z M21.1,22.8L20.6,22L21.1,22.8z M24.7,18.6l-0.9-0.4L24.7,18.6z M22.6,8.5l0.7-0.7l0,0L22.6,8.5z M17.6,5.9
	l0.2-1L17.6,5.9z M27.6,23.2l-0.8-0.6l-0.5,0.7l0.6,0.6L27.6,23.2z M28.6,21.6l0.3-1l-0.8-0.2l-0.4,0.7L28.6,21.6z M45.5,40.4
	l-0.7,0.7l0.4,0.4l0.6-0.2L45.5,40.4z M59.7,35.9l0.3,1l0.8-0.3l-0.2-0.9L59.7,35.9z M59.7,31.6l1,0.2l0.2-0.9L60,30.6L59.7,31.6z
	 M10.3,60.1L9.7,61l0,0L10.3,60.1z M22.6,59l0.7,0.7L22.6,59z M19.4,43.8l0.4-0.9L19.4,43.8z M8.8,45.8l-0.7-0.7L8.8,45.8z
	 M6.1,50.6l-1-0.2L6.1,50.6z M30.1,50.2l-0.3-1L29,49.5l0.2,0.9L30.1,50.2z M44.2,45.7l0.7-0.7l-0.4-0.4l-0.6,0.2L44.2,45.7z
	 M30.1,54.5l-1-0.2L29,55.2l0.8,0.3L30.1,54.5z M61.2,64.5l-0.3,1l0.8,0.2l0.4-0.7L61.2,64.5z M62.2,62.9l0.8,0.6l0.5-0.7l-0.6-0.6
	L62.2,62.9z M10.3,97.4l-0.5,0.8l0,0L10.3,97.4z M22.6,96.3l-0.7-0.7l0,0L22.6,96.3z M23.8,84.5L23,85.1l0,0L23.8,84.5z M19.4,81.1
	L19,82l0,0L19.4,81.1z M13.8,80.5l-0.2-1l0,0L13.8,80.5z M8.8,83.1l0.7,0.7l0,0L8.8,83.1z M6.1,87.8l-1-0.2L6.1,87.8z M30.1,87.5
	l-0.3-1L29,86.8l0.2,0.9L30.1,87.5z M61.2,77.6l0.9-0.5l-0.4-0.7l-0.8,0.2L61.2,77.6z M30.1,91.8l-1-0.2L29,92.5l0.8,0.3L30.1,91.8z
	 M44.2,96.3l-0.3,1l0.6,0.2l0.4-0.4L44.2,96.3z M62.2,79.1l0.7,0.7l0.6-0.6L63,78.5L62.2,79.1z M10.3,134.7l-0.5,0.8L10.3,134.7z
	 M22.6,133.6l-0.7-0.7l0,0L22.6,133.6z M23.8,121.8l0.8-0.6l0,0L23.8,121.8z M19.4,118.3l0.4-0.9L19.4,118.3z M13.8,117.8l0.2,1l0,0
	L13.8,117.8z M8.8,120.4l-0.7-0.7l0,0L8.8,120.4z M6.1,125.1l1,0.2L6.1,125.1z M28.6,120.4l-0.9,0.5l0.4,0.7l0.8-0.2L28.6,120.4z
	 M27.6,118.9l-0.7-0.7l-0.6,0.6l0.5,0.7L27.6,118.9z M59.7,110.5l0.3,1l0.8-0.3l-0.2-0.9L59.7,110.5z M59.7,106.2l1,0.2l0.2-0.9
	l-0.8-0.3L59.7,106.2z M45.5,101.7l0.3-1l-0.6-0.2l-0.4,0.4L45.5,101.7z M68.7,116.1l0.5-0.8l0,0L68.7,116.1z M80.9,114.9l0.7,0.7
	L80.9,114.9z M82.2,103.1l-0.8,0.6L82.2,103.1z M72.2,99.2l0.2,1L72.2,99.2z M67.2,101.7l0.7,0.7l0,0L67.2,101.7z M64.5,106.5l1,0.2
	l0,0L64.5,106.5z M65.1,111.9l-0.9,0.4l0,0L65.1,111.9z M87,101.8l-0.9,0.5l0.4,0.7l0.8-0.2L87,101.8z M86,100.2l-0.7-0.7l-0.6,0.6
	l0.5,0.7L86,100.2z M118,91.8l0.3,1l0.8-0.3l-0.2-0.9L118,91.8z M118,87.5l1,0.2l0.2-0.9l-0.8-0.3L118,87.5z M103.9,83l0.3-1
	l-0.6-0.2l-0.4,0.4L103.9,83z M140.5,94.8l0.8,0.6l0,0L140.5,94.8z M139.3,83.1l0.7-0.7L139.3,83.1z M127,81.9l-0.5-0.8L127,81.9z
	 M123.5,86.1l0.9,0.4l0,0L123.5,86.1z M122.9,91.5l-1,0.2L122.9,91.5z M125.6,96.3l0.7-0.7l0,0L125.6,96.3z M130.5,98.8l-0.2,1
	L130.5,98.8z M136.2,98.3l-0.4-0.9L136.2,98.3z M120.6,81.6l0.8,0.6l0.5-0.7l-0.6-0.6L120.6,81.6z M119.6,83.1l-0.3,1l0.8,0.2
	l0.4-0.7L119.6,83.1z M113,74.3l0.7-0.7l-0.7-0.7l-0.7,0.7L113,74.3z M107.8,79.3l-0.7-0.7l-1.2,1.2l1.6,0.5L107.8,79.3z M17.4,11.1
	l0.7-0.7l0,0L17.4,11.1z M17.4,14.4l0.7,0.7l0,0L17.4,14.4z M15.7,15.1v-1h-1v1H15.7z M15,16.7L14.3,16l0,0L15,16.7z M11.5,16.7
	l-0.7,0.7l0,0L11.5,16.7z M12.2,86.4l0.7,0.7l0,0L12.2,86.4z M17.4,85.7l-0.7,0.7l0,0L17.4,85.7z M17.4,89l-0.7-0.7l0,0L17.4,89z
	 M15.7,89.7v-1h-1v1H15.7z M15,91.3l-0.7-0.7v0L15,91.3z M11.5,91.3l0.7-0.7v0L11.5,91.3z M12.2,49.1l0.7,0.7l0,0L12.2,49.1z
	 M11.5,54l0.7-0.7l0,0L11.5,54z M15,54l-0.7-0.7l0,0L15,54z M15.7,52.4v-1h-1v1H15.7z M17.4,51.7L16.7,51l0,0L17.4,51.7z M17.4,48.4
	l-0.7,0.7l0,0L17.4,48.4z M12.2,123.7l-0.7-0.7l0,0L12.2,123.7z M17.4,123l0.7-0.7l0,0L17.4,123z M17.4,126.3l-0.7-0.7l0,0
	L17.4,126.3z M15.7,127v-1h-1v1H15.7z M15,128.6l0.7,0.7l0,0L15,128.6z M11.5,128.6l-0.7,0.7l0,0L11.5,128.6z M75.8,67l-0.7,0.7l0,0
	L75.8,67z M70.6,67.7L69.9,67L70.6,67.7z M69.9,72.7l0.7-0.7l0,0L69.9,72.7z M73.4,72.7l-0.7-0.7l0,0L73.4,72.7z M74.1,71v-1h-1v1
	H74.1z M75.8,70.3l-0.7-0.7l0,0L75.8,70.3z M73.4,35.4l0.7,0.7l0,0L73.4,35.4z M69.9,35.4l0.7-0.7l0,0L69.9,35.4z M70.6,30.4
	l0.7,0.7v0L70.6,30.4z M75.8,29.7l-0.7,0.7l0,0L75.8,29.7z M75.8,33l-0.7-0.7l0,0L75.8,33z M74.1,33.7v-1h-1v1H74.1z M70.6,105
	l0.7,0.7l0,0L70.6,105z M69.9,110l0.7-0.7l0,0L69.9,110z M73.4,110l-0.7-0.7l0,0L73.4,110z M74.1,108.3v-1h-1v1H74.1z M75.8,107.6
	l-0.7-0.7l0,0L75.8,107.6z M75.8,104.3l-0.7,0.7l0,0L75.8,104.3z M131.7,54l-0.7-0.7l0,0L131.7,54z M128.3,54l0.7-0.7l0,0L128.3,54z
	 M129,49.1l0.7,0.7l0,0L129,49.1z M134.2,48.4l-0.7,0.7l0,0L134.2,48.4z M134.2,51.7l-0.7-0.7l0,0L134.2,51.7z M132.4,52.4v-1h-1v1
	H132.4z M131.7,91.3l-0.7-0.7v0L131.7,91.3z M132.4,89.7v-1h-1v1H132.4z M134.2,89l-0.7-0.7v0L134.2,89z M134.2,85.7l-0.7,0.7l0,0
	L134.2,85.7z M129,86.4l0.7,0.7l0,0L129,86.4z M128.3,91.3l0.7-0.7v0L128.3,91.3z M123.4,64.6c2.6,1.8,5.7,2.7,8.8,2.8l0-2
	c-2.8,0-5.5-0.9-7.7-2.4L123.4,64.6z M117.1,71.7l7.6-7.3l-1.4-1.4l-7.6,7.3L117.1,71.7z M124.7,77.6l-7.6-7.3l-1.4,1.4l7.6,7.3
	L124.7,77.6z M132.3,74.7c-3.2,0-6.2,1-8.8,2.8l1.1,1.7c2.3-1.5,5-2.4,7.7-2.4L132.3,74.7z M141.2,77.2c-2.6-1.7-5.7-2.6-8.9-2.5
	l0,2c2.8,0,5.5,0.7,7.8,2.2L141.2,77.2z M147,84.2c-1.2-2.8-3.2-5.3-5.8-7l-1.1,1.7c2.3,1.5,4.1,3.6,5.1,6.1L147,84.2z M147.7,93.2
	c0.7-3,0.5-6.1-0.7-8.9l-1.9,0.8c1,2.5,1.2,5.1,0.6,7.7L147.7,93.2z M142.9,100.9c2.4-2,4-4.7,4.8-7.7l-1.9-0.5
	c-0.6,2.6-2.1,4.9-4.1,6.7L142.9,100.9z M134.4,104.6c3.1-0.4,6.1-1.7,8.5-3.7l-1.3-1.5c-2.1,1.8-4.6,2.9-7.4,3.2L134.4,104.6z
	 M125.3,103c2.8,1.4,6,1.9,9.1,1.6l-0.2-2c-2.8,0.3-5.6-0.1-8-1.4L125.3,103z M118.7,96.7c1.5,2.7,3.8,4.9,6.6,6.3l0.9-1.8
	c-2.5-1.2-4.5-3.1-5.8-5.5L118.7,96.7z M88.8,107.1l31.1-9.9l-0.6-1.9l-31.1,9.9L88.8,107.1z M89.7,108.3c0-0.8-0.1-1.5-0.2-2.3
	l-2,0.3c0.1,0.7,0.2,1.3,0.2,2L89.7,108.3z M86.3,117.5c2.1-2.6,3.3-5.9,3.3-9.2l-2,0c0,2.9-1,5.7-2.9,8L86.3,117.5z M77.8,122.8
	c3.4-0.8,6.4-2.7,8.5-5.3l-1.5-1.3c-1.9,2.3-4.5,3.9-7.4,4.6L77.8,122.8z M67.7,122c3.2,1.4,6.7,1.6,10.1,0.8l-0.5-1.9
	c-2.9,0.7-6.1,0.4-8.8-0.7L67.7,122z M60.3,115.4c1.6,3,4.3,5.3,7.4,6.6l0.8-1.8c-2.8-1.2-5-3.2-6.5-5.8L60.3,115.4z M30.4,125.8
	l31.1-9.9l-0.6-1.9l-31.1,9.9L30.4,125.8z M31.3,127c0-0.8-0.1-1.5-0.2-2.3l-2,0.3c0.1,0.7,0.2,1.3,0.2,2L31.3,127z M27.9,136.2
	c2.2-2.6,3.3-5.9,3.3-9.3l-2,0c0,2.9-1,5.7-2.9,8L27.9,136.2z M19.4,141.5c3.4-0.8,6.4-2.7,8.6-5.3l-1.5-1.3
	c-1.9,2.3-4.5,3.9-7.5,4.6L19.4,141.5z M9.3,140.6c3.2,1.4,6.7,1.7,10.1,0.9l-0.5-1.9c-3,0.7-6.1,0.4-8.9-0.8L9.3,140.6z M1.9,133.9
	c1.6,3,4.2,5.4,7.4,6.7l0.8-1.8c-2.8-1.2-5-3.3-6.4-5.9L1.9,133.9z M0.4,124.2c-0.7,3.3-0.1,6.7,1.5,9.7l1.8-1
	c-1.4-2.6-1.8-5.5-1.3-8.4L0.4,124.2z M5.5,115.7c-2.6,2.2-4.4,5.2-5.1,8.5l2,0.4c0.6-2.8,2.1-5.4,4.4-7.3L5.5,115.7z M14.9,112
	c-3.5,0.2-6.8,1.4-9.4,3.6l1.3,1.5c2.3-1.9,5.2-3,8.3-3.2L14.9,112z M24.7,114.7c-2.8-1.9-6.3-2.9-9.8-2.7l0.1,2
	c3.1-0.1,6.1,0.7,8.5,2.4L24.7,114.7z M39.7,99.3l-16.3,15.6l1.4,1.4l16.3-15.6L39.7,99.3z M28.3,97.2l11.8,3.8l0.6-1.9l-11.8-3.8
	L28.3,97.2z M22,103.4c3.2-1.4,5.8-3.7,7.4-6.6l-1.7-1c-1.4,2.6-3.7,4.6-6.5,5.8L22,103.4z M11.9,104.2c3.4,0.8,6.9,0.5,10.1-0.8
	l-0.8-1.8c-2.8,1.2-5.9,1.4-8.8,0.7L11.9,104.2z M3.4,98.9c2.1,2.6,5.1,4.5,8.5,5.3l0.5-1.9c-3-0.7-5.6-2.3-7.4-4.6L3.4,98.9z
	 M0.1,89.7c0,3.4,1.2,6.6,3.3,9.2L5,97.6c-1.9-2.3-2.9-5.1-2.9-8H0.1z M3.4,80.4c-2.1,2.6-3.3,5.9-3.3,9.2h2c0-2.9,1-5.7,2.9-8
	L3.4,80.4z M11.9,75.1c-3.4,0.8-6.4,2.7-8.5,5.3L5,81.7c1.9-2.3,4.5-3.9,7.4-4.6L11.9,75.1z M22,76c-3.2-1.4-6.7-1.7-10.1-0.8
	l0.5,1.9c3-0.7,6.1-0.4,8.8,0.7L22,76z M29.5,82.6c-1.6-3-4.3-5.3-7.4-6.6l-0.8,1.8c2.8,1.2,5,3.2,6.5,5.8L29.5,82.6z M59.4,72.2
	l-31.1,9.9l0.6,1.9L60,74.1L59.4,72.2z M58.7,68.7c-0.3,1.5-0.3,3.1,0,4.6l2-0.4c-0.2-1.3-0.2-2.6,0-3.9L58.7,68.7z M28.3,59.9
	l31.1,9.9l0.6-1.9L28.9,58L28.3,59.9z M22,66.1c3.2-1.4,5.8-3.7,7.4-6.6l-1.7-1C26.3,61,24,63,21.2,64.2L22,66.1z M11.9,66.9
	c3.4,0.8,6.9,0.5,10.1-0.8l-0.8-1.8c-2.8,1.2-5.9,1.4-8.8,0.7L11.9,66.9z M3.4,61.6c2.1,2.6,5.1,4.5,8.5,5.3l0.5-1.9
	c-3-0.7-5.6-2.3-7.4-4.6L3.4,61.6z M0.1,52.4c0,3.4,1.2,6.6,3.3,9.2L5,60.3c-1.9-2.3-2.9-5.1-2.9-8H0.1z M3.4,43.1
	c-2.1,2.6-3.3,5.9-3.3,9.2h2c0-2.9,1-5.7,2.9-8L3.4,43.1z M11.9,37.8c-3.4,0.8-6.4,2.7-8.5,5.3L5,44.4c1.9-2.3,4.5-3.9,7.4-4.6
	L11.9,37.8z M22,38.7c-3.2-1.4-6.7-1.7-10.1-0.8l0.5,1.9c3-0.7,6.1-0.4,8.8,0.7L22,38.7z M29.5,45.3c-1.6-3-4.3-5.3-7.4-6.6
	l-0.8,1.8c2.8,1.2,5,3.2,6.5,5.8L29.5,45.3z M40.1,41.1l-11.8,3.8l0.6,1.9L40.7,43L40.1,41.1z M23.4,27.2l16.2,15.6l1.4-1.4
	L24.8,25.7L23.4,27.2z M14.9,30c3.5,0.2,6.9-0.8,9.8-2.8l-1.1-1.7C21.1,27.3,18,28.2,15,28L14.9,30z M5.4,26.4
	c2.7,2.2,6,3.5,9.5,3.6l0.1-2c-3.1-0.1-6-1.3-8.3-3.2L5.4,26.4z M0.3,17.9c0.7,3.3,2.5,6.3,5.1,8.5l1.3-1.5
	c-2.3-1.9-3.9-4.5-4.4-7.4L0.3,17.9z M1.8,8.1c-1.6,3-2.1,6.4-1.5,9.8l2-0.4c-0.6-2.9-0.1-5.8,1.3-8.4L1.8,8.1z M9.2,1.3
	C6,2.7,3.4,5.1,1.8,8.1l1.8,1C4.9,6.5,7.2,4.4,10,3.2L9.2,1.3z M19.4,0.4C16-0.4,12.4,0,9.2,1.3L10,3.2c2.8-1.2,5.9-1.5,8.9-0.8
	L19.4,0.4z M27.9,5.8c-2.2-2.7-5.2-4.5-8.6-5.3l-0.5,1.9c3,0.7,5.6,2.3,7.5,4.6L27.9,5.8z M31.3,15.1c0-3.4-1.2-6.7-3.3-9.3L26.4,7
	c1.9,2.3,2.9,5.1,2.9,8.1L31.3,15.1z M31.1,17.4c0.1-0.8,0.2-1.5,0.2-2.3l-2,0c0,0.7-0.1,1.3-0.2,2L31.1,17.4z M61.5,26.2l-31.1-9.9
	l-0.6,1.9l31.1,9.9L61.5,26.2z M67.7,20c-3.2,1.4-5.8,3.7-7.4,6.7l1.7,1c1.4-2.6,3.7-4.6,6.5-5.8L67.7,20z M77.8,19.2
	c-3.4-0.8-6.9-0.5-10.1,0.8l0.8,1.8c2.8-1.2,5.9-1.4,8.8-0.7L77.8,19.2z M86.3,24.5c-2.1-2.6-5.1-4.5-8.5-5.3l-0.5,1.9
	c3,0.7,5.6,2.3,7.4,4.6L86.3,24.5z M89.7,33.7c0-3.4-1.2-6.6-3.3-9.2l-1.6,1.3c1.9,2.3,2.9,5.1,2.9,8L89.7,33.7z M89.5,36
	c0.1-0.8,0.2-1.5,0.2-2.3l-2,0c0,0.7-0.1,1.3-0.2,2L89.5,36z M119.9,44.9l-31.1-9.9l-0.6,1.9l31.1,9.9L119.9,44.9z M125.3,39
	c-2.8,1.4-5.1,3.6-6.6,6.3l1.8,1c1.3-2.3,3.3-4.2,5.8-5.5L125.3,39z M134.4,37.5c-3.1-0.4-6.3,0.2-9.1,1.6l0.9,1.8
	c2.5-1.2,5.3-1.7,8-1.4L134.4,37.5z M142.9,41.2c-2.4-2-5.3-3.3-8.4-3.7l-0.2,2c2.8,0.3,5.3,1.5,7.4,3.2L142.9,41.2z M147.6,48.9
	c-0.7-3-2.4-5.7-4.8-7.7l-1.3,1.5c2.1,1.8,3.5,4.1,4.1,6.7L147.6,48.9z M147,57.8c1.2-2.8,1.4-6,0.7-8.9l-1.9,0.5
	c0.6,2.6,0.4,5.2-0.6,7.7L147,57.8z M141.1,64.8c2.6-1.7,4.7-4.1,5.8-7l-1.9-0.8c-1,2.5-2.8,4.6-5.1,6L141.1,64.8z M132.3,67.3
	c3.2,0,6.3-0.8,8.9-2.5l-1.1-1.7c-2.3,1.5-5,2.3-7.8,2.2L132.3,67.3z M83.1,96.1c-1.8-1.2-3.9-2.1-6-2.5l-0.4,2
	c1.9,0.4,3.7,1.1,5.3,2.2L83.1,96.1z M98.1,80.6L81.8,96.2l1.4,1.4l16.3-15.6L98.1,80.6z M86.6,78.5l11.8,3.8l0.6-1.9l-11.8-3.8
	L86.6,78.5z M83.6,82.9c1.8-1.3,3.2-2.9,4.2-4.8l-1.8-1c-0.9,1.6-2.2,3.1-3.7,4.2L83.6,82.9z M77.7,85.6c2.2-0.5,4.2-1.4,5.9-2.7
	l-1.2-1.6c-1.5,1.1-3.3,1.9-5.2,2.4L77.7,85.6z M71.1,85.7c2.2,0.4,4.4,0.4,6.6-0.1l-0.4-2c-1.9,0.4-3.8,0.5-5.8,0.1L71.1,85.7z
	 M65.1,83.2c1.8,1.2,3.9,2.1,6,2.5l0.4-2c-1.9-0.4-3.7-1.1-5.3-2.2L65.1,83.2z M50.1,98.7l16.2-15.6l-1.4-1.4L48.7,97.3L50.1,98.7z
	 M61.5,100.8L49.7,97l-0.6,1.9l11.8,3.8L61.5,100.8z M64.6,96.4c-1.8,1.3-3.2,2.9-4.2,4.8l1.8,1c0.9-1.6,2.2-3.1,3.7-4.2L64.6,96.4z
	 M70.5,93.7c-2.2,0.5-4.2,1.4-5.9,2.7l1.2,1.6c1.5-1.1,3.3-1.9,5.2-2.4L70.5,93.7z M77,93.6c-2.2-0.4-4.4-0.4-6.6,0.1l0.4,2
	c1.9-0.4,3.8-0.5,5.7-0.1L77,93.6z M74.1,48.7c3.2,0,6.4-1,9-2.8l-1.1-1.6c-2.3,1.6-5,2.4-7.9,2.4V48.7z M66.1,46.6
	c2.4,1.4,5.2,2.1,8,2.1l0-2c-2.5,0-4.9-0.6-7-1.9L66.1,46.6z M60.3,40.8c1.3,2.4,3.3,4.4,5.7,5.8l1-1.7c-2.1-1.2-3.8-3-5-5
	L60.3,40.8z M49.7,45l11.8-3.8l-0.6-1.9l-11.8,3.8L49.7,45z M66.3,58.9L50.1,43.3l-1.4,1.4l16.3,15.6L66.3,58.9z M71.1,56.3
	c-2.2,0.4-4.2,1.3-6,2.5l1.1,1.7c1.6-1.1,3.4-1.8,5.3-2.2L71.1,56.3z M77.7,56.4c-2.2-0.5-4.4-0.5-6.6-0.1l0.4,2
	c1.9-0.4,3.9-0.3,5.7,0.1L77.7,56.4z M83.6,59.1c-1.8-1.3-3.8-2.2-5.9-2.7l-0.4,2c1.9,0.4,3.7,1.2,5.2,2.4L83.6,59.1z M87.8,64
	c-1-1.9-2.5-3.5-4.2-4.8l-1.2,1.6c1.5,1.1,2.8,2.6,3.7,4.2L87.8,64z M98.4,59.7l-11.8,3.8l0.6,1.9l11.8-3.8L98.4,59.7z M81.8,45.8
	l16.2,15.6l1.4-1.4L83.2,44.4L81.8,45.8z M65.3,71c0-1.6,0.5-3.2,1.5-4.6l-1.6-1.1C64,67,63.3,69,63.3,71H65.3z M67.9,76.9
	c-1.6-1.6-2.5-3.7-2.5-5.9h-2c0,2.8,1.1,5.4,3.2,7.3L67.9,76.9z M74.1,79.3c-2.3,0-4.6-0.9-6.2-2.5l-1.4,1.4c2,1.9,4.7,3,7.6,3V79.3
	z M78.9,77.9c-1.4,0.9-3.1,1.4-4.9,1.4v2c2.1,0,4.2-0.6,5.9-1.7L78.9,77.9z M82.1,74.2c-0.7,1.5-1.8,2.8-3.2,3.7l1.1,1.7
	c1.8-1.1,3.1-2.7,4-4.6L82.1,74.2z M82.6,69.4c0.3,1.6,0.2,3.3-0.5,4.8L84,75c0.8-1.9,1-4,0.6-6L82.6,69.4z M80.3,65.1
	c1.2,1.2,2,2.6,2.4,4.3l2-0.4c-0.4-2-1.4-3.9-3-5.3L80.3,65.1z M75.8,62.9c1.7,0.3,3.3,1.1,4.5,2.3l1.4-1.4
	c-1.5-1.4-3.4-2.4-5.5-2.8L75.8,62.9z M70.7,63.3c1.6-0.6,3.4-0.8,5.1-0.5l0.4-2c-2.1-0.4-4.2-0.2-6.2,0.6L70.7,63.3z M66.8,66.4
	c1-1.4,2.3-2.4,3.9-3.1L70,61.5c-2,0.8-3.6,2.1-4.8,3.8L66.8,66.4z M89.5,73.3c0.3-1.5,0.3-3.1,0-4.6l-2,0.4c0.2,1.3,0.2,2.6,0,3.9
	L89.5,73.3z M102.9,76.7l-14.1-4.5l-0.6,1.9l14.1,4.5L102.9,76.7z M108.8,70.3l-6.9,6.7l1.4,1.4l6.9-6.7L108.8,70.3z M101.9,65.1
	l6.9,6.7l1.4-1.4l-6.9-6.7L101.9,65.1z M88.8,69.8l14.1-4.5l-0.6-1.9l-14.1,4.5L88.8,69.8z M108.1,63.7l11.8-3.8l-0.6-1.9l-11.8,3.8
	L108.1,63.7z M113.7,67l-5.2-5l-1.4,1.4l5.2,5L113.7,67z M119.9,59.7l-7.6,7.3l1.4,1.4l7.6-7.3L119.9,59.7z M118.7,59.4
	c0.3,0.6,0.7,1.1,1.1,1.6l1.6-1.2c-0.3-0.5-0.6-0.9-0.9-1.4L118.7,59.4z M132.4,44c1.7,0,3.4,0.5,4.9,1.4l1.1-1.7
	c-1.8-1.1-3.8-1.7-5.9-1.7V44z M126.3,46.5c1.6-1.6,3.9-2.5,6.2-2.5v-2c-2.8,0-5.6,1.1-7.6,3L126.3,46.5z M123.7,52.4
	c0-2.2,0.9-4.3,2.5-5.9l-1.4-1.4c-2,1.9-3.2,4.6-3.2,7.3H123.7z M125.2,57c-1-1.4-1.5-3-1.5-4.6h-2c0,2.1,0.6,4.1,1.8,5.8L125.2,57z
	 M129.1,60.1c-1.6-0.6-3-1.7-3.9-3.1l-1.6,1.1c1.2,1.7,2.9,3,4.8,3.8L129.1,60.1z M134.1,60.5c-1.7,0.3-3.5,0.2-5.1-0.5l-0.7,1.9
	c2,0.8,4.1,1,6.2,0.6L134.1,60.5z M138.6,58.2c-1.2,1.2-2.8,2-4.5,2.3l0.4,2c2.1-0.4,4-1.4,5.5-2.8L138.6,58.2z M141,54
	c-0.3,1.6-1.2,3.1-2.4,4.3l1.4,1.4c1.5-1.4,2.5-3.3,2.9-5.3L141,54z M140.5,49.2c0.7,1.5,0.8,3.2,0.5,4.8l2,0.4c0.4-2,0.2-4.1-0.6-6
	L140.5,49.2z M137.3,45.5c1.4,0.9,2.5,2.2,3.2,3.7l1.8-0.8c-0.8-1.9-2.2-3.5-4-4.6L137.3,45.5z M117.1,50.1c-0.3,1.5-0.3,3.1,0,4.6
	l2-0.4c-0.2-1.3-0.2-2.6,0-3.9L117.1,50.1z M86.6,41.2l31.1,9.9l0.6-1.9l-31.1-9.9L86.6,41.2z M86.7,42.4c0.4-0.5,0.7-1.1,1.1-1.6
	l-1.7-1c-0.3,0.5-0.6,1-0.9,1.4L86.7,42.4z M104.6,58.3l-18-17.2l-1.4,1.4l18,17.2L104.6,58.3z M117.7,53.6l-14.1,4.5l0.6,1.9
	l14.1-4.5L117.7,53.6z M74.1,25.4c1.7,0,3.4,0.5,4.9,1.4l1.1-1.7c-1.8-1.1-3.8-1.7-5.9-1.7V25.4z M67.9,27.9
	c1.6-1.6,3.9-2.5,6.2-2.5v-2c-2.8,0-5.6,1.1-7.6,3L67.9,27.9z M65.3,33.7c0-2.2,0.9-4.3,2.5-5.9l-1.4-1.4c-2,1.9-3.2,4.6-3.2,7.3
	H65.3z M66.8,38.3c-1-1.4-1.5-3-1.5-4.6h-2c0,2.1,0.6,4.1,1.8,5.8L66.8,38.3z M70.7,41.4c-1.6-0.6-3-1.7-3.9-3.1l-1.6,1.1
	c1.2,1.7,2.9,3,4.8,3.8L70.7,41.4z M75.8,41.9c-1.7,0.3-3.5,0.2-5.1-0.5L70,43.3c2,0.8,4.1,1,6.2,0.6L75.8,41.9z M80.3,39.6
	c-1.2,1.2-2.8,2-4.5,2.3l0.4,2c2.1-0.4,4-1.4,5.5-2.8L80.3,39.6z M82.6,35.3c-0.3,1.6-1.2,3.1-2.4,4.3l1.4,1.4
	c1.5-1.4,2.5-3.3,3-5.3L82.6,35.3z M82.1,30.6c0.7,1.5,0.8,3.2,0.5,4.8l2,0.4c0.4-2,0.2-4.1-0.6-6L82.1,30.6z M78.9,26.8
	c1.4,0.9,2.5,2.2,3.2,3.7l1.8-0.8c-0.8-1.9-2.2-3.5-4-4.6L78.9,26.8z M7,15.1c0-1.6,0.5-3.2,1.5-4.6L6.8,9.3C5.6,11,5,13,5,15.1H7z
	 M9.5,20.9C7.9,19.4,7,17.3,7,15.1H5c0,2.8,1.1,5.4,3.2,7.3L9.5,20.9z M15.7,23.4c-2.3,0-4.6-0.9-6.2-2.5l-1.4,1.4
	c2,1.9,4.7,3,7.6,3V23.4z M20.6,22c-1.4,0.9-3.1,1.4-4.9,1.4v2c2.1,0,4.2-0.6,5.9-1.7L20.6,22z M23.8,18.2c-0.7,1.5-1.8,2.8-3.2,3.7
	l1.1,1.7c1.8-1.1,3.1-2.7,4-4.6L23.8,18.2z M24.2,13.5c0.3,1.6,0.2,3.3-0.5,4.8l1.8,0.8c0.8-1.9,1-4,0.6-6L24.2,13.5z M21.9,9.2
	c1.2,1.2,2,2.6,2.4,4.3l2-0.4c-0.4-2-1.4-3.9-2.9-5.3L21.9,9.2z M17.4,6.9c1.7,0.3,3.3,1.1,4.5,2.3l1.4-1.4
	c-1.5-1.4-3.4-2.4-5.5-2.8L17.4,6.9z M12.3,7.4c1.6-0.6,3.4-0.8,5.1-0.5l0.4-2c-2.1-0.4-4.2-0.2-6.2,0.6L12.3,7.4z M8.4,10.5
	c1-1.4,2.3-2.4,3.9-3.1l-0.7-1.9C9.6,6.3,8,7.6,6.8,9.3L8.4,10.5z M28.4,23.8c0.4-0.5,0.7-1.1,1.1-1.6l-1.7-1
	c-0.3,0.5-0.6,1-0.9,1.4L28.4,23.8z M46.2,39.7l-18-17.2l-1.4,1.4l18,17.2L46.2,39.7z M59.4,34.9l-14.1,4.5l0.6,1.9L60,36.8
	L59.4,34.9z M58.7,31.4c-0.3,1.5-0.3,3.1,0,4.6l2-0.4c-0.2-1.3-0.2-2.6,0-3.9L58.7,31.4z M28.3,22.6l31.1,9.9l0.6-1.9l-31.1-9.9
	L28.3,22.6z M15.7,60.7c-1.7,0-3.4-0.5-4.9-1.4L9.7,61c1.8,1.1,3.8,1.7,5.9,1.7V60.7z M21.9,58.2c-1.6,1.6-3.9,2.5-6.2,2.5v2
	c2.8,0,5.6-1.1,7.6-3L21.9,58.2z M24.4,52.4c0,2.2-0.9,4.3-2.5,5.9l1.4,1.4c2-1.9,3.2-4.6,3.2-7.3H24.4z M23,47.8
	c1,1.4,1.5,3,1.5,4.6h2c0-2.1-0.6-4.1-1.8-5.8L23,47.8z M19,44.7c1.6,0.6,3,1.7,3.9,3.1l1.6-1.1c-1.2-1.7-2.9-3-4.8-3.8L19,44.7z
	 M14,44.2c1.7-0.3,3.5-0.2,5.1,0.5l0.7-1.9c-2-0.8-4.1-1-6.2-0.6L14,44.2z M9.5,46.5c1.2-1.2,2.8-2,4.5-2.3l-0.4-2
	c-2.1,0.4-4,1.4-5.5,2.8L9.5,46.5z M7.1,50.8c0.3-1.6,1.2-3.1,2.4-4.3l-1.4-1.4c-1.5,1.4-2.5,3.3-2.9,5.3L7.1,50.8z M7.6,55.5
	C7,54,6.8,52.4,7.1,50.8l-2-0.4c-0.4,2-0.2,4.1,0.6,6L7.6,55.5z M10.8,59.3c-1.4-0.9-2.5-2.2-3.2-3.7l-1.8,0.8
	c0.8,1.9,2.2,3.5,4,4.6L10.8,59.3z M30.4,51.2l14.1-4.5l-0.6-1.9l-14.1,4.5L30.4,51.2z M31.1,54.7c0.3-1.5,0.3-3.1,0-4.6l-2,0.4
	c0.2,1.3,0.2,2.6,0,3.9L31.1,54.7z M61.5,63.5l-31.1-9.9l-0.6,1.9l31.1,9.9L61.5,63.5z M61.4,62.3c-0.4,0.5-0.7,1.1-1.1,1.6l1.7,1
	c0.3-0.5,0.6-1,0.9-1.4L61.4,62.3z M43.5,46.4l18,17.2l1.4-1.4L44.9,45L43.5,46.4z M15.7,98c-1.7,0-3.4-0.5-4.9-1.4l-1.1,1.7
	c1.8,1.1,3.8,1.7,5.9,1.7V98z M21.9,95.5C20.2,97.1,18,98,15.7,98v2c2.8,0,5.6-1.1,7.6-3L21.9,95.5z M24.4,89.7
	c0,2.2-0.9,4.3-2.5,5.9l1.4,1.4c2-1.9,3.2-4.6,3.2-7.3H24.4z M23,85.1c1,1.4,1.5,3,1.5,4.6h2c0-2.1-0.6-4.1-1.8-5.8L23,85.1z M19,82
	c1.6,0.6,3,1.7,3.9,3.1l1.6-1.1c-1.2-1.7-2.9-3-4.8-3.8L19,82z M14,81.5c1.7-0.3,3.5-0.2,5.1,0.5l0.7-1.9c-2-0.8-4.1-1-6.2-0.6
	L14,81.5z M9.5,83.8c1.2-1.2,2.8-2,4.5-2.3l-0.4-2c-2.1,0.4-4,1.4-5.5,2.8L9.5,83.8z M7.1,88.1c0.3-1.6,1.2-3.1,2.4-4.3l-1.4-1.4
	c-1.5,1.4-2.5,3.3-2.9,5.3L7.1,88.1z M7.6,92.8c-0.7-1.5-0.8-3.2-0.5-4.8l-2-0.4c-0.4,2-0.2,4.1,0.6,6L7.6,92.8z M10.8,96.6
	c-1.4-0.9-2.5-2.2-3.2-3.7l-1.8,0.8c0.8,1.9,2.2,3.5,4,4.6L10.8,96.6z M30.4,88.5l31.1-9.9l-0.6-1.9l-31.1,9.9L30.4,88.5z M31.1,92
	c0.3-1.5,0.3-3.1,0-4.6l-2,0.4c0.2,1.3,0.2,2.6,0,3.9L31.1,92z M44.5,95.4l-14.1-4.5l-0.6,1.9l14.1,4.5L44.5,95.4z M61.5,78.4
	l-18,17.2l1.4,1.4l18-17.2L61.5,78.4z M60.3,78.1c0.3,0.6,0.7,1.1,1.1,1.6l1.6-1.2c-0.3-0.5-0.6-0.9-0.9-1.4L60.3,78.1z M15.7,135.3
	c-1.7,0-3.4-0.5-4.9-1.4l-1.1,1.7c1.8,1.1,3.8,1.7,5.9,1.7V135.3z M21.9,132.8c-1.6,1.6-3.9,2.5-6.2,2.5v2c2.8,0,5.6-1.1,7.6-3
	L21.9,132.8z M24.4,127c0,2.2-0.9,4.3-2.5,5.9l1.4,1.4c2-1.9,3.2-4.6,3.2-7.3H24.4z M23,122.4c1,1.4,1.5,3,1.5,4.6h2
	c0-2.1-0.6-4.1-1.8-5.8L23,122.4z M19,119.3c1.6,0.6,3,1.7,3.9,3.1l1.6-1.1c-1.2-1.7-2.9-3-4.8-3.8L19,119.3z M14,118.8
	c1.7-0.3,3.5-0.2,5.1,0.5l0.7-1.9c-2-0.8-4.1-1-6.2-0.6L14,118.8z M9.5,121.1c1.2-1.2,2.8-2,4.5-2.3l-0.4-2c-2.1,0.4-4,1.4-5.5,2.8
	L9.5,121.1z M7.1,125.3c0.3-1.6,1.2-3.1,2.4-4.3l-1.4-1.4c-1.5,1.4-2.5,3.3-2.9,5.3L7.1,125.3z M7.6,130.1c-0.7-1.5-0.8-3.2-0.5-4.8
	l-2-0.4c-0.4,2-0.2,4.1,0.6,6L7.6,130.1z M10.8,133.9c-1.4-0.9-2.5-2.2-3.2-3.7l-1.8,0.8c0.8,1.9,2.2,3.5,4,4.6L10.8,133.9z
	 M29.4,119.9c-0.3-0.6-0.7-1.1-1.1-1.6l-1.6,1.2c0.3,0.5,0.6,0.9,0.9,1.4L29.4,119.9z M59.4,109.5l-31.1,9.9l0.6,1.9l31.1-9.9
	L59.4,109.5z M58.7,106c-0.3,1.5-0.3,3.1,0,4.6l2-0.4c-0.2-1.3-0.2-2.6,0-3.9L58.7,106z M45.2,102.6l14.1,4.5l0.6-1.9l-14.1-4.5
	L45.2,102.6z M28.3,119.6l18-17.2l-1.4-1.4l-18,17.2L28.3,119.6z M74.1,116.6c-1.7,0-3.4-0.5-4.9-1.4l-1.1,1.7
	c1.8,1.1,3.8,1.7,5.9,1.7V116.6z M80.3,114.2c-1.6,1.6-3.9,2.5-6.2,2.5v2c2.8,0,5.6-1.1,7.6-3L80.3,114.2z M82.8,108.3
	c0,2.2-0.9,4.3-2.5,5.9l1.4,1.4c2-1.9,3.2-4.6,3.2-7.3H82.8z M81.3,103.7c1,1.4,1.5,3,1.5,4.6h2c0-2.1-0.6-4.1-1.8-5.8L81.3,103.7z
	 M77.4,100.6c1.6,0.6,3,1.7,3.9,3.1l1.6-1.1c-1.2-1.7-2.9-3-4.8-3.8L77.4,100.6z M72.4,100.2c1.7-0.3,3.5-0.2,5.1,0.5l0.7-1.9
	c-2-0.8-4.1-1-6.2-0.6L72.4,100.2z M67.9,102.4c1.2-1.2,2.8-2,4.5-2.3l-0.4-2c-2.1,0.4-4,1.4-5.5,2.8L67.9,102.4z M65.5,106.7
	c0.3-1.6,1.2-3.1,2.4-4.3l-1.4-1.4c-1.5,1.4-2.5,3.3-2.9,5.3L65.5,106.7z M66,111.5c-0.7-1.5-0.8-3.2-0.5-4.8l-2-0.4
	c-0.4,2-0.2,4.1,0.6,6L66,111.5z M69.2,115.2c-1.4-0.9-2.5-2.2-3.2-3.7l-1.8,0.8c0.8,1.9,2.2,3.5,4,4.6L69.2,115.2z M87.8,101.3
	c-0.3-0.6-0.7-1.1-1.1-1.6l-1.6,1.2c0.3,0.5,0.6,0.9,0.9,1.4L87.8,101.3z M117.7,90.9l-31.1,9.9l0.6,1.9l31.1-9.9L117.7,90.9z
	 M117.1,87.4c-0.3,1.5-0.3,3.1,0,4.6l2-0.4c-0.2-1.3-0.2-2.6,0-3.9L117.1,87.4z M103.6,84l14.1,4.5l0.6-1.9l-14.1-4.5L103.6,84z
	 M86.6,100.9l18-17.2l-1.4-1.4l-18,17.2L86.6,100.9z M141.2,89.7c0,1.6-0.5,3.2-1.5,4.6l1.6,1.1c1.2-1.7,1.8-3.7,1.8-5.8H141.2z
	 M138.6,83.8c1.6,1.6,2.5,3.7,2.5,5.9h2c0-2.8-1.1-5.4-3.2-7.3L138.6,83.8z M132.4,81.3c2.3,0,4.6,0.9,6.2,2.5l1.4-1.4
	c-2-1.9-4.7-3-7.6-3V81.3z M127.6,82.8c1.4-0.9,3.1-1.4,4.9-1.4v-2c-2.1,0-4.2,0.6-5.9,1.7L127.6,82.8z M124.4,86.5
	c0.7-1.5,1.8-2.8,3.2-3.7l-1.1-1.7c-1.8,1.1-3.1,2.7-4,4.6L124.4,86.5z M123.9,91.3c-0.3-1.6-0.2-3.3,0.5-4.8l-1.8-0.8
	c-0.8,1.9-1,4-0.6,6L123.9,91.3z M126.3,95.5c-1.2-1.2-2-2.6-2.4-4.3l-2,0.4c0.4,2,1.4,3.9,3,5.3L126.3,95.5z M130.7,97.8
	c-1.7-0.3-3.3-1.1-4.5-2.3l-1.4,1.4c1.5,1.4,3.4,2.4,5.5,2.8L130.7,97.8z M135.8,97.4c-1.6,0.6-3.4,0.8-5.1,0.5l-0.4,2
	c2.1,0.4,4.2,0.2,6.2-0.6L135.8,97.4z M139.7,94.3c-1,1.4-2.3,2.4-3.9,3.1l0.7,1.9c2-0.8,3.6-2.1,4.8-3.8L139.7,94.3z M119.8,81
	c-0.4,0.5-0.7,1.1-1.1,1.6l1.7,1c0.3-0.5,0.6-1,0.9-1.4L119.8,81z M112.3,75l7.6,7.3l1.4-1.4l-7.6-7.3L112.3,75z M108.4,80l5.2-5
	l-1.4-1.4l-5.2,5L108.4,80z M119.9,82.1l-11.8-3.8l-0.6,1.9l11.8,3.8L119.9,82.1z M15.7,9.4c-1.5,0-3,0.6-4.1,1.6l1.4,1.4
	c0.7-0.7,1.7-1.1,2.7-1.1V9.4z M18.1,10.4c-0.6-0.6-1.5-1-2.4-1v2c0.4,0,0.8,0.2,1,0.4L18.1,10.4z M19.1,12.7c0-0.9-0.4-1.7-1-2.4
	l-1.4,1.4c0.3,0.3,0.4,0.6,0.4,0.9H19.1z M18.1,15.1c0.6-0.6,1-1.5,1-2.4h-2c0,0.3-0.1,0.7-0.4,0.9L18.1,15.1z M15.7,16.1
	c0.9,0,1.8-0.3,2.4-1l-1.4-1.4c-0.3,0.3-0.6,0.4-1,0.4V16.1z M15.7,17.4c0.6-0.6,1-1.5,1-2.4h-2c0,0.3-0.1,0.7-0.4,0.9L15.7,17.4z
	 M13.3,18.4c0.9,0,1.8-0.3,2.4-1L14.3,16c-0.3,0.3-0.6,0.4-1,0.4V18.4z M10.8,17.4c0.6,0.6,1.5,1,2.4,1v-2c-0.4,0-0.8-0.2-1-0.4
	L10.8,17.4z M9.8,15.1c0,0.9,0.4,1.7,1,2.4l1.4-1.4c-0.3-0.3-0.4-0.6-0.4-0.9H9.8z M11.6,11.1c-1.1,1.1-1.7,2.5-1.7,4h2
	c0-1,0.4-1.9,1.1-2.6L11.6,11.1z M15.7,84c-1.5,0-3,0.6-4.1,1.6l1.4,1.4c0.7-0.7,1.7-1.1,2.7-1.1V84z M18.1,85c-0.6-0.6-1.5-1-2.4-1
	v2c0.4,0,0.8,0.2,1,0.4L18.1,85z M19.1,87.3c0-0.9-0.4-1.7-1-2.4l-1.4,1.4c0.3,0.3,0.4,0.6,0.4,0.9H19.1z M18.1,89.7
	c0.6-0.6,1-1.5,1-2.4h-2c0,0.3-0.1,0.7-0.4,0.9L18.1,89.7z M15.7,90.7c0.9,0,1.8-0.3,2.4-1l-1.4-1.4c-0.3,0.3-0.6,0.4-1,0.4V90.7z
	 M15.7,92c0.6-0.6,1-1.5,1-2.4h-2c0,0.3-0.1,0.7-0.4,0.9L15.7,92z M13.3,93c0.9,0,1.8-0.3,2.4-1l-1.4-1.4c-0.3,0.3-0.6,0.4-1,0.4V93
	z M10.8,92c0.6,0.6,1.5,1,2.4,1v-2c-0.4,0-0.8-0.2-1-0.4L10.8,92z M9.8,89.7c0,0.9,0.4,1.7,1,2.4l1.4-1.4c-0.3-0.3-0.4-0.6-0.4-0.9
	H9.8z M11.6,85.6c-1.1,1.1-1.7,2.5-1.7,4h2c0-1,0.4-1.9,1.1-2.6L11.6,85.6z M12.9,49.8c0.7-0.7,1.7-1.1,2.7-1.1v-2
	c-1.5,0-3,0.6-4.1,1.6L12.9,49.8z M11.8,52.4c0-1,0.4-1.9,1.1-2.6l-1.4-1.4c-1.1,1.1-1.7,2.5-1.7,4H11.8z M12.2,53.3
	c-0.3-0.3-0.4-0.6-0.4-0.9h-2c0,0.9,0.4,1.7,1,2.4L12.2,53.3z M13.3,53.7c-0.4,0-0.8-0.2-1-0.4l-1.4,1.4c0.6,0.6,1.5,1,2.4,1V53.7z
	 M14.3,53.3c-0.3,0.3-0.6,0.4-1,0.4v2c0.9,0,1.8-0.3,2.4-1L14.3,53.3z M14.7,52.4c0,0.3-0.1,0.7-0.4,0.9l1.4,1.4
	c0.6-0.6,1-1.5,1-2.4H14.7z M16.7,51c-0.3,0.3-0.6,0.4-1,0.4v2c0.9,0,1.8-0.3,2.4-1L16.7,51z M17.1,50c0,0.3-0.1,0.7-0.4,0.9
	l1.4,1.4c0.6-0.6,1-1.5,1-2.4H17.1z M16.7,49.1c0.3,0.3,0.4,0.6,0.4,0.9h2c0-0.9-0.4-1.7-1-2.4L16.7,49.1z M15.7,48.7
	c0.4,0,0.8,0.2,1,0.4l1.4-1.4c-0.6-0.6-1.5-1-2.4-1V48.7z M15.7,121.3c-1.5,0-3,0.6-4.1,1.6l1.4,1.4c0.7-0.7,1.7-1.1,2.7-1.1V121.3z
	 M18.1,122.3c-0.6-0.6-1.5-1-2.4-1v2c0.4,0,0.8,0.1,1,0.4L18.1,122.3z M19.1,124.6c0-0.9-0.4-1.7-1-2.4l-1.4,1.4
	c0.3,0.3,0.4,0.6,0.4,0.9H19.1z M18.1,127c0.6-0.6,1-1.5,1-2.4h-2c0,0.3-0.1,0.7-0.4,0.9L18.1,127z M15.7,128c0.9,0,1.8-0.3,2.4-1
	l-1.4-1.4c-0.3,0.3-0.6,0.4-1,0.4V128z M15.7,129.3c0.6-0.6,1-1.5,1-2.4h-2c0,0.3-0.1,0.7-0.4,0.9L15.7,129.3z M13.3,130.3
	c0.9,0,1.8-0.3,2.4-1l-1.4-1.4c-0.3,0.3-0.6,0.4-1,0.4V130.3z M10.8,129.3c0.6,0.6,1.5,1,2.4,1v-2c-0.4,0-0.8-0.2-1-0.4L10.8,129.3z
	 M9.8,127c0,0.9,0.4,1.7,1,2.4l1.4-1.4c-0.3-0.3-0.4-0.6-0.4-0.9H9.8z M11.6,122.9c-1.1,1.1-1.7,2.5-1.7,4h2c0-1,0.4-1.9,1.1-2.6
	L11.6,122.9z M75.1,67.8c0.3,0.3,0.4,0.6,0.4,0.9h2c0-0.9-0.4-1.7-1-2.4L75.1,67.8z M74.1,67.4c0.4,0,0.8,0.2,1,0.4l1.4-1.4
	c-0.6-0.6-1.5-1-2.4-1V67.4z M71.3,68.4c0.7-0.7,1.7-1.1,2.7-1.1v-2c-1.5,0-3,0.6-4.1,1.6L71.3,68.4z M70.2,71c0-1,0.4-1.9,1.1-2.6
	L69.9,67c-1.1,1.1-1.7,2.5-1.7,4H70.2z M70.6,71.9c-0.3-0.3-0.4-0.6-0.4-0.9h-2c0,0.9,0.4,1.7,1,2.4L70.6,71.9z M71.6,72.3
	c-0.4,0-0.8-0.2-1-0.4l-1.4,1.4c0.6,0.6,1.5,1,2.4,1V72.3z M72.7,71.9c-0.3,0.3-0.6,0.4-1,0.4v2c0.9,0,1.8-0.3,2.4-1L72.7,71.9z
	 M73.1,71c0,0.3-0.1,0.7-0.4,0.9l1.4,1.4c0.6-0.6,1-1.5,1-2.4H73.1z M75.1,69.6c-0.3,0.3-0.6,0.4-1,0.4v2c0.9,0,1.8-0.3,2.4-1
	L75.1,69.6z M75.5,68.7c0,0.3-0.1,0.7-0.4,0.9l1.4,1.4c0.6-0.6,1-1.5,1-2.4H75.5z M71.6,37.1c0.9,0,1.8-0.3,2.4-1l-1.4-1.4
	c-0.3,0.3-0.6,0.4-1,0.4V37.1z M69.2,36.1c0.6,0.6,1.5,1,2.4,1v-2c-0.4,0-0.8-0.2-1-0.4L69.2,36.1z M68.2,33.7c0,0.9,0.4,1.7,1,2.4
	l1.4-1.4c-0.3-0.3-0.4-0.6-0.4-0.9H68.2z M69.9,29.7c-1.1,1.1-1.7,2.5-1.7,4h2c0-1,0.4-1.9,1.1-2.6L69.9,29.7z M74.1,28.1
	c-1.5,0-3,0.6-4.1,1.6l1.4,1.4c0.7-0.7,1.7-1.1,2.7-1.1V28.1z M76.5,29c-0.6-0.6-1.5-1-2.4-1v2c0.4,0,0.8,0.2,1,0.4L76.5,29z
	 M77.5,31.4c0-0.9-0.4-1.7-1-2.4l-1.4,1.4c0.3,0.3,0.4,0.6,0.4,0.9H77.5z M76.5,33.8c0.6-0.6,1-1.5,1-2.4h-2c0,0.3-0.1,0.7-0.4,0.9
	L76.5,33.8z M74.1,34.7c0.9,0,1.8-0.3,2.4-1l-1.4-1.4c-0.3,0.3-0.6,0.4-1,0.4V34.7z M74,36.1c0.6-0.6,1-1.5,1-2.4h-2
	c0,0.3-0.1,0.7-0.4,0.9L74,36.1z M71.3,105.7c0.7-0.7,1.7-1.1,2.7-1.1v-2c-1.5,0-3,0.6-4.1,1.6L71.3,105.7z M70.2,108.3
	c0-1,0.4-1.9,1.1-2.6l-1.4-1.4c-1.1,1.1-1.7,2.5-1.7,4H70.2z M70.6,109.2c-0.3-0.3-0.4-0.6-0.4-0.9h-2c0,0.9,0.4,1.7,1,2.4
	L70.6,109.2z M71.6,109.6c-0.4,0-0.8-0.1-1-0.4l-1.4,1.4c0.6,0.6,1.5,1,2.4,1V109.6z M72.7,109.2c-0.3,0.3-0.6,0.4-1,0.4v2
	c0.9,0,1.8-0.3,2.4-1L72.7,109.2z M73.1,108.3c0,0.3-0.1,0.7-0.4,0.9l1.4,1.4c0.6-0.6,1-1.5,1-2.4H73.1z M75.1,106.9
	c-0.3,0.3-0.6,0.4-1,0.4v2c0.9,0,1.8-0.3,2.4-1L75.1,106.9z M75.5,106c0,0.3-0.1,0.7-0.4,0.9l1.4,1.4c0.6-0.6,1-1.5,1-2.4H75.5z
	 M75.1,105.1c0.3,0.3,0.4,0.6,0.4,0.9h2c0-0.9-0.4-1.7-1-2.4L75.1,105.1z M74.1,104.7c0.4,0,0.8,0.2,1,0.4l1.4-1.4
	c-0.6-0.6-1.5-1-2.4-1V104.7z M130,55.7c0.9,0,1.8-0.3,2.4-1l-1.4-1.4c-0.3,0.3-0.6,0.4-1,0.4V55.7z M127.6,54.7
	c0.6,0.6,1.5,1,2.4,1v-2c-0.4,0-0.8-0.2-1-0.4L127.6,54.7z M126.6,52.4c0,0.9,0.4,1.7,1,2.4l1.4-1.4c-0.3-0.3-0.4-0.6-0.4-0.9H126.6
	z M128.3,48.4c-1.1,1.1-1.7,2.5-1.7,4h2c0-1,0.4-1.9,1.1-2.6L128.3,48.4z M132.4,46.7c-1.5,0-3,0.6-4.1,1.6l1.4,1.4
	c0.7-0.7,1.7-1.1,2.7-1.1V46.7z M134.9,47.7c-0.6-0.6-1.5-1-2.4-1v2c0.4,0,0.8,0.2,1,0.4L134.9,47.7z M135.9,50c0-0.9-0.4-1.7-1-2.4
	l-1.4,1.4c0.3,0.3,0.4,0.6,0.4,0.9H135.9z M134.9,52.4c0.6-0.6,1-1.5,1-2.4h-2c0,0.3-0.1,0.7-0.4,0.9L134.9,52.4z M132.4,53.4
	c0.9,0,1.8-0.3,2.4-1l-1.4-1.4c-0.3,0.3-0.6,0.4-1,0.4V53.4z M132.4,54.7c0.6-0.6,1-1.5,1-2.4h-2c0,0.3-0.1,0.7-0.4,0.9L132.4,54.7z
	 M131,90.6c-0.3,0.3-0.6,0.4-1,0.4v2c0.9,0,1.8-0.3,2.4-1L131,90.6z M131.4,89.7c0,0.3-0.1,0.7-0.4,0.9l1.4,1.4c0.6-0.6,1-1.5,1-2.4
	H131.4z M133.5,88.3c-0.3,0.3-0.6,0.4-1,0.4v2c0.9,0,1.8-0.3,2.4-1L133.5,88.3z M133.9,87.3c0,0.3-0.1,0.7-0.4,0.9l1.4,1.4
	c0.6-0.6,1-1.5,1-2.4H133.9z M133.5,86.4c0.3,0.3,0.4,0.6,0.4,0.9h2c0-0.9-0.4-1.7-1-2.4L133.5,86.4z M132.4,86c0.4,0,0.8,0.2,1,0.4
	l1.4-1.4c-0.6-0.6-1.5-1-2.4-1V86z M129.7,87.1c0.7-0.7,1.7-1.1,2.7-1.1v-2c-1.5,0-3,0.6-4.1,1.6L129.7,87.1z M128.6,89.7
	c0-1,0.4-1.9,1.1-2.6l-1.4-1.4c-1.1,1.1-1.7,2.5-1.7,4H128.6z M129,90.6c-0.3-0.3-0.4-0.6-0.4-0.9h-2c0,0.9,0.4,1.7,1,2.4L129,90.6z
	 M130,91c-0.4,0-0.8-0.2-1-0.4l-1.4,1.4c0.6,0.6,1.5,1,2.4,1V91z"/>
</svg>
