<?xml version="1.0" encoding="utf-8"?>
<!-- Generator: Adobe Illustrator 23.0.3, SVG Export Plug-In . SVG Version: 6.00 Build 0)  -->
<svg version="1.1" id="Layer_1" xmlns="http://www.w3.org/2000/svg" xmlns:xlink="http://www.w3.org/1999/xlink" x="0px" y="0px"
	 viewBox="0 0 86.2 86.2" style="enable-background:new 0 0 86.2 86.2;" xml:space="preserve">
<g id="XMLID_2281_">
	<path id="XMLID_2282_" style="fill:#ffffff;" d="M43.1,0C19.3,0,0,19.3,0,43.1s19.3,43.1,43.1,43.1c23.8,0,43.1-19.3,43.1-43.1
		S66.8,0,43.1,0z M43.1,3.5c21.8,0,39.6,17.8,39.6,39.6c0,9.2-3.2,17.8-8.5,24.5C73.9,57.1,68.5,47.5,59.6,42
		c2-3.1,3.2-6.8,3.2-10.8c0-10.9-8.9-19.7-19.7-19.7c-10.9,0-19.7,8.9-19.7,19.7c0,4,1.2,7.7,3.2,10.8C17.7,47.5,12.2,57.1,12,67.6
		c-5.3-6.7-8.5-15.3-8.5-24.5C3.5,21.2,21.2,3.5,43.1,3.5z M26.8,31.2c0-9,7.3-16.3,16.3-16.3s16.3,7.3,16.3,16.3
		s-7.3,16.3-16.3,16.3S26.8,40.2,26.8,31.2z M15.6,71.6c-0.1-1.1-0.2-2.2-0.2-3.3c0-9.7,5-18.6,13.3-23.6c3.6,3.8,8.7,6.2,14.4,6.2
		c5.7,0,10.8-2.4,14.4-6.2c8.2,5,13.3,13.9,13.3,23.6c0,1.1-0.1,2.2-0.2,3.3c-7.1,6.9-16.8,11.1-27.4,11.1
		C32.4,82.7,22.8,78.5,15.6,71.6z"/>
</g>
</svg>
