<?xml version="1.0" encoding="utf-8"?>
<!-- Generator: Adobe Illustrator 24.0.1, SVG Export Plug-In . SVG Version: 6.00 Build 0)  -->
<svg version="1.1" id="Слой_1" xmlns="http://www.w3.org/2000/svg" xmlns:xlink="http://www.w3.org/1999/xlink" x="0px" y="0px"
	 viewBox="0 0 48 48" style="enable-background:new 0 0 48 48;" xml:space="preserve">
<path style="fill-rule:evenodd;clip-rule:evenodd;fill:#5683FF;" d="M24,48c13.3,0,24-10.7,24-24S37.3,0,24,0S0,10.7,0,24
	S10.7,48,24,48z"/>
<path style="fill:#FFFFFF;" d="M32,25.5v-0.6l3.2-4c0.5-0.6,0.8-1.4,0.8-2.2c0-0.8-0.6-1.4-1.4-1.4h-3.5c-0.5,0-1,0.3-1.2,0.8
	c-1.2,2.8-2.2,4.9-2.7,5.3c-0.4,0.4-0.9,0.2-1.2,0.1v-5.1c0-0.6-0.5-1.1-1.1-1.1h-4.4c-0.2,0-0.4,0.1-0.5,0.3
	c-0.1,0.2,0,0.4,0.1,0.5l0.3,0.3c0.4,0.4,0.6,0.9,0.6,1.4v3.8c0,0-0.1,0.1-0.2,0.1c-0.1,0-0.3-0.1-0.5-0.3c-0.7-0.7-2.7-4.5-3.4-5.9
	c-0.1-0.2-0.3-0.3-0.4-0.3h-3.2c-0.7,0-1.3,0.6-1.3,1.3v0.3c0,1.1,0.3,2.1,0.8,3c2.7,4.3,6.4,9.5,8.7,9.5h3.3c0.7,0,1.2-0.6,1.2-1.2
	v-0.9c0-0.5,0.4-0.9,0.9-0.9c0.2,0,0.5,0.1,0.6,0.3l2.1,2.1c0.4,0.4,1,0.7,1.6,0.7h3.6c0.5,0,0.9-0.3,1.1-0.7c0.2-0.5,0.1-1-0.3-1.3
	L32,25.5z"/>
</svg>
