<?xml version="1.0" encoding="utf-8"?>
<!-- Generator: Adobe Illustrator 24.0.1, SVG Export Plug-In . SVG Version: 6.00 Build 0)  -->
<svg version="1.1" id="Слой_1" xmlns="http://www.w3.org/2000/svg" xmlns:xlink="http://www.w3.org/1999/xlink" x="0px" y="0px"
	 viewBox="0 0 48 48" style="enable-background:new 0 0 48 48;" xml:space="preserve">
<path style="fill-rule:evenodd;clip-rule:evenodd;fill:#EE322D;" d="M24,48c13.3,0,24-10.7,24-24S37.3,0,24,0S0,10.7,0,24
	S10.7,48,24,48z"/>
<path style="fill-rule:evenodd;clip-rule:evenodd;fill:#FFFFFF;" d="M23.4,36.3c-7.2,0-11.6-5.1-11.6-11.5c0-7.6,6-12.7,12.9-12.7
	c6.6,0,11.5,4,11.5,10.4c0,5.8-3.1,8.1-6.1,8.1c-1.5,0-2.7-0.7-3.3-1.7c-1,1-2.6,1.6-4.1,1.6c-3.7,0-5.5-2.6-5.5-5.7
	c0-4,2.9-7.3,7.2-7.3c1.2,0,2.2,0.3,3,0.9l0.1-0.6h3.2l-1.6,7.3c-0.3,1.5,0,2.6,1.5,2.6c1.8,0,2.8-1.5,2.8-5.4
	c0-5.2-4.1-7.6-8.7-7.6c-5.2,0-9.9,3.6-9.9,10c0,5.3,3.4,8.7,8.7,8.7c2,0,4.1-0.4,5.9-1.4l1.1,2.7C28.3,35.7,25.6,36.3,23.4,36.3z
	 M23.2,27.4c0.9,0,1.7-0.2,2.4-0.9l1.1-4.9c-0.6-0.6-1.5-0.9-2.3-0.9c-2.2,0-3.8,1.7-3.8,3.9C20.6,26.2,21.4,27.4,23.2,27.4z"/>
</svg>
