<?xml version="1.0" encoding="utf-8"?>
<!-- Generator: Adobe Illustrator 24.0.1, SVG Export Plug-In . SVG Version: 6.00 Build 0)  -->
<svg version="1.1" id="Слой_1" xmlns="http://www.w3.org/2000/svg" xmlns:xlink="http://www.w3.org/1999/xlink" x="0px" y="0px"
	 viewBox="0 0 48 48" style="enable-background:new 0 0 48 48;" xml:space="preserve">
<g>
	<defs>
		<rect id="SVGID_1_" width="48" height="48"/>
	</defs>
	<clipPath id="SVGID_2_">
		<use xlink:href="#SVGID_1_"  style="overflow:visible;"/>
	</clipPath>
	<g style="clip-path:url(#SVGID_2_);">
		<path style="fill-rule:evenodd;clip-rule:evenodd;fill:#CD445E;" d="M24,48c13.3,0,24-10.7,24-24S37.3,0,24,0S0,10.7,0,24
			S10.7,48,24,48z"/>
		<path style="fill-rule:evenodd;clip-rule:evenodd;fill:#FFFFFF;" d="M19.1,16.6c0,0.4,0,3.4,0,3.5c0,0,1.4,0.1,1.6,0
			c0.1,0,0.1-0.1,0.1-2.1v-2.1l0.1-0.3c0.1-0.2,0.2-0.7,0.3-1.1c0.1-0.3,0.2-0.7,0.3-0.9c0-0.1,0-0.1,0.1-0.2c0.5-1.7,1-3.4,1-3.5
			l0-0.1l-0.7,0c-0.7,0-0.9,0-0.9,0c0,0-0.2,0.9-0.6,2.5c-0.2,0.8-0.4,1.4-0.4,1.3c0,0-0.1-0.5-0.3-1.2c-0.1-0.2-0.1-0.5-0.2-0.7
			c-0.3-1-0.5-1.9-0.5-1.9c0,0-0.9,0-1.6,0c0,0,0,0,0,0c-0.1,0,0.1,0.3,1,3.3c0.2,0.5,0.4,1.2,0.5,1.5
			C19.1,15.6,19.2,16.1,19.1,16.6z M17.4,24.9l0,4.4l0,4.4l-0.7,0c-0.6,0-0.7,0-0.7,0c0,0,0-2,0-4.4l0-4.4l-0.8,0l-0.8,0v-0.7v-0.7
			l2.4,0l2.4,0l0,0.7l0,0.7l-0.8,0L17.4,24.9z M31.2,27.8c0,0.1-0.1,1.2-0.1,1.3c0,0,0.1,0.1,0.7,0.1h0.7l0-0.6c0-0.6,0-0.7-0.1-0.8
			c-0.1-0.3-0.3-0.4-0.6-0.4C31.5,27.3,31.3,27.4,31.2,27.8z M33.8,32.5c-0.2,0.7-0.7,1.2-1.4,1.3c-0.9,0.3-2-0.2-2.4-1
			c-0.2-0.5-0.2-0.6-0.2-2.8c0-1.9,0-2.1,0.1-2.3c0.2-0.7,0.6-1.2,1.3-1.4c0.9-0.3,2.1,0.1,2.5,0.9c0.2,0.5,0.2,0.6,0.3,1.9l0,1.1
			l-1.4,0l-1.4,0l0,0.8c0,1.1,0.1,1.4,0.3,1.6c0.2,0.2,0.6,0.2,0.8,0c0.2-0.2,0.2-0.3,0.3-0.9l0-0.5h0.7h0.7l0,0.5
			C33.9,32,33.8,32.4,33.8,32.5z M27.1,32.3c0,0.1-0.1,0.2-0.2,0.3c-0.2,0.1-0.5,0.1-0.8-0.1L26,32.3V30v-2.3l0.1-0.1
			c0.4-0.3,0.8-0.3,1,0.1c0.1,0.1,0.1,0.3,0.1,2.3C27.2,31.9,27.2,32.1,27.1,32.3z M28.4,33.3c-0.1,0.3-0.4,0.5-0.6,0.6
			c-0.5,0.2-1,0-1.5-0.4c-0.2-0.1-0.3-0.3-0.3-0.3c0,0,0,0.1,0,0.3v0.3h-0.7h-0.7v-5.1v-5.1h0.7h0.7v1.7c0,0.9,0,1.7,0,1.7
			c0,0,0.2-0.1,0.3-0.3c0.4-0.3,0.6-0.5,1-0.5c0.7-0.1,1.1,0.3,1.2,1.1c0.1,0.2,0.1,0.5,0.1,2.8C28.6,32.8,28.6,32.8,28.4,33.3z
			 M21.7,33.2c-0.3,0.3-0.6,0.5-0.8,0.6c-0.5,0.2-1.1,0.1-1.3-0.3c-0.2-0.3-0.2-0.4-0.2-4v-3.3H20h0.7l0,3.1c0,3,0,3.1,0.1,3.2
			c0.1,0.2,0.2,0.2,0.5,0.1c0.1,0,0.2-0.1,0.5-0.3l0.3-0.3v-2.9v-2.9h0.7h0.7V30v3.8h-0.7H22v-0.4c0-0.3,0-0.4,0-0.4
			C21.9,33,21.8,33.1,21.7,33.2z M19.2,36.9c0.4,0,1.4,0,2.2,0.1c1.8,0,5,0,6.9,0c1.2,0,3.5-0.1,4-0.2c0.1,0,0.4,0,0.6,0
			c0.7,0,1.2-0.2,1.6-0.5c0.6-0.4,1-1.3,1.2-2.3c0.2-0.9,0.3-2.6,0.3-4.4c0-1.6,0-2.4-0.1-3.7c-0.1-1.7-0.3-2.3-0.6-3
			c-0.5-0.9-1.1-1.4-2.1-1.5c-0.7-0.1-3.5-0.2-6.1-0.3c-4.4-0.1-11.8,0.1-12.7,0.3c-0.4,0.1-0.8,0.3-1.1,0.6
			c-0.6,0.6-0.9,1.4-1.1,2.6c-0.3,2.7-0.3,5.9,0,8.7c0.1,1.2,0.4,2,0.9,2.6c0.3,0.4,0.9,0.7,1.4,0.8C14.9,36.7,16.6,36.8,19.2,36.9z
			 M28.6,20.2c-0.4,0-0.6-0.2-0.7-0.5c-0.2-0.4-0.2-0.4-0.2-4v-3.4h0.7h0.7l0,3.1c0,3.4,0,3.3,0.2,3.4c0.2,0,0.4-0.1,0.6-0.3
			l0.2-0.3l0-3l0-3l0.7,0l0.7,0v3.9v3.9l-0.1,0c-0.1,0-1.2,0-1.3,0c-0.1,0-0.1-0.1-0.1-0.4v-0.4l-0.2,0.2
			C29.6,20,29.1,20.3,28.6,20.2z M24.9,18.7c0.3-0.2,0.3-0.2,0.3-2.4c0-1.7,0-2,0-2.2c-0.1-0.3-0.2-0.5-0.4-0.5
			c-0.3-0.1-0.6,0.1-0.7,0.4c-0.1,0.3-0.1,4.1,0,4.4c0.1,0.2,0.2,0.4,0.4,0.4C24.6,18.9,24.8,18.8,24.9,18.7L24.9,18.7z M24.4,20.2
			c-0.7-0.1-1.3-0.5-1.6-1c-0.3-0.5-0.3-0.8-0.3-3.2c0-1.8,0-2,0.1-2.2c0.2-0.6,0.5-1.1,1-1.3c0.7-0.4,1.5-0.3,2.2,0.1
			c0.4,0.3,0.7,0.7,0.8,1.3c0.1,0.3,0.1,0.5,0.1,2.3c0,2.3,0,2.4-0.2,2.9c-0.2,0.5-0.7,0.9-1.2,1C25,20.2,24.6,20.2,24.4,20.2z"/>
	</g>
</g>
</svg>
